<svg xmlns="http://www.w3.org/2000/svg" width="148.227" height="123.01" viewBox="0 0 148.227 123.01"><defs><style>.a{fill-rule:evenodd;}</style></defs><g transform="translate(0 0)"><g transform="translate(0 0)"><path class="a" d="M101.623,53.232c-1.031-.01-2.035-.064-3.064-.159l-.509-.048a.168.168,0,0,1-.129.016c-.205-.02-.407-.05-.6-.089-.88-.091-1.758-.187-2.641-.292l-1.7.056q-1.933.1-3.859.175c-5.418.215-10.833.3-16.251.274-4.647.022-9.291-.038-13.934-.264q-2.053-.057-4.107-.109c-1.568-.036-3.135-.1-4.7-.159.2.161.4.328.6.5-.046.014-.113.05-.157.034a5.1,5.1,0,0,1-.531-.31c-.147-.081-.3-.161-.447-.24-.33-.01-.66-.02-.988-.028-1.415-.034-2.831-.087-4.244-.135-.966-.032-1.939-.038-2.9-.083.135-.151.33-.1.511-.111.471-.014.954,0,1.427,0q1.2,0,2.4.006-1.724-.133-3.455-.3a.249.249,0,0,1-.356.282c-.256-.119-.507-.256-.759-.391-.042-.006-.087-.01-.131-.014-1.679-.171-3.36-.334-5.033-.56-2.784-.381-5.575-.745-8.335-1.272-1.677-.32-3.338-.654-5-1.037-1.109-.254-2.2-.546-3.3-.813-1.5-.362-3-.858-4.473-1.313s-2.921-1.019-4.359-1.574c-.755-.292-1.512-.658-2.243-1.009a43.753,43.753,0,0,1-5.071-2.8c-.445-.294-.928-.584-1.353-.9-.3-.227-.62-.459-.928-.674a.224.224,0,1,1,.264-.362,32.651,32.651,0,0,0,5.065,3.084c.713.356,1.46.721,2.2,1.021a.017.017,0,0,0,.012.006c-.451-.238-.9-.511-1.337-.771a24.908,24.908,0,0,1-5.454-4.3h-.02a.284.284,0,0,1-.282-.284.312.312,0,0,1,0-.042q-.356-.393-.684-.8a.482.482,0,1,1,.737-.622c.332.411.687.807,1.053,1.186H5.363v-.876a.5.5,0,0,1,.087.173,6.777,6.777,0,0,1,0,.7h.624a.625.625,0,0,1,.209-1.214H6.76a7.429,7.429,0,0,1-.1-1.1.355.355,0,1,1,.711.016,5.216,5.216,0,0,0-.05,1.085H43.9a4.834,4.834,0,0,1-.54-.338c-.274-.207-.576-.409-.86-.606-.65-.457-1.3-.988-1.909-1.5a39.927,39.927,0,0,1-5.035-5.089c-.129-.117-.258-.234-.383-.352A26.233,26.233,0,0,1,33.268,27c-.527-.6-1.055-1.172-1.566-1.79A38.508,38.508,0,0,1,26.9,17.745a49.776,49.776,0,0,1-3.094-8c-.28-.952-.487-1.939-.715-2.9-.5-2.15-.825-4.326-1.135-6.511-.173-1.2-.284-2.412-.407-3.618-.2-1.973-.32-3.982-.376-5.963-.1-3.326-.016-6.628.091-9.951-.052.165-.1.336-.145.517a.223.223,0,0,1-.272.159.22.22,0,0,1-.159-.27,7.289,7.289,0,0,1,.8-2.066,7.5,7.5,0,0,1,2.478-2.43.709.709,0,0,1-.336-.608.71.71,0,0,1,.711-.709h2.525c.334-.129.666-.264.991-.419a.517.517,0,0,1,.678.262.622.622,0,0,1,.04.157h5.355c-.087-.074-.175-.149-.266-.221-.4-.312-.787-.576-1.188-.87-.306-.223-.666-.4-.982-.614-.286-.187-.61-.356-.908-.523-.123-.068-.274-.139-.389-.217a.325.325,0,0,1-.123-.441.327.327,0,0,1,.441-.125c.133.093.3.163.443.25.326.2.674.381.995.6a18.71,18.71,0,0,1,2.215,1.677c.171.155.34.318.5.489h81.328a.445.445,0,0,1,.042-.157.515.515,0,0,1,.678-.26,6.663,6.663,0,0,0,.954.417h1.586a.71.71,0,0,1,.711.709.689.689,0,0,1-.042.236c.189.1.37.207.548.312a21.19,21.19,0,0,0,2.833.709.764.764,0,0,1,.63.87.762.762,0,0,1-.725.64c.085.189.167.378.246.572.052.131.1.266.153.4l.177.127c.872.64,1.754,1.264,2.6,1.937.332.264.68.58,1.019.823a.331.331,0,0,1,.042.463.329.329,0,0,1-.463.044c-.445-.346-.864-.717-1.319-1.055-.054-.038-.111-.081-.165-.121a.326.326,0,0,1-.058.256.322.322,0,0,1-.447.06c-.258-.189-.515-.385-.775-.582.054.209.109.419.163.622a21.937,21.937,0,0,1,.467,2.543c.527-.161,1.049-.3,1.6-.427a8.259,8.259,0,0,1,1.057-.193,11.224,11.224,0,0,1,2.094-.032s0,0,0,0a.211.211,0,0,1,.288-.064.142.142,0,0,0,.02.016,18.5,18.5,0,0,1,3.91.519,19.336,19.336,0,0,1,7.068,3.354,15.639,15.639,0,0,1,1.252,1.021c.356.332.715.656,1.059,1,.562.564,1.045,1.178,1.55,1.786a14.4,14.4,0,0,1,1.186,1.719c.24.393.491.8.7,1.21.117.225.221.469.342.691.087.157.147.326.221.489.177.383.328.781.479,1.176a19.389,19.389,0,0,1,1.2,6.593,21.457,21.457,0,0,1-1.135,6.93,16.6,16.6,0,0,1-.592,1.592c-.266.6-.519,1.246-.835,1.828-.252.465-.5.922-.757,1.383a26.041,26.041,0,0,1-1.717,2.651c-.421.57-.85,1.115-1.286,1.671-.3.38-.632.739-.944,1.111-.332.395-.737.775-1.059,1.158A23.674,23.674,0,0,1,133.2,26.9a29.578,29.578,0,0,1-2.79,1.1,41.4,41.4,0,0,1-4.033,1.176c-.761.175-1.52.314-2.287.457-.711.131-1.448.2-2.166.29a29.621,29.621,0,0,1-3.3.127,15.759,15.759,0,0,1-2.3-.183,17.019,17.019,0,0,1-2.359-.505,35.58,35.58,0,0,1-4,.109q-.55.658-1.131,1.3a.229.229,0,0,0,.038.038.432.432,0,0,1-.6.626.141.141,0,0,1-.038-.03,22.851,22.851,0,0,1-6.436,4.832l.721.564h38.934a.624.624,0,0,1,.2,1.216h2.337a.283.283,0,0,1,0,.566h-.914a.6.6,0,0,1,.06.119.557.557,0,0,1,.026.169.751.751,0,0,1,.072,1.051,12.942,12.942,0,0,1-.974,1.1c.743-.463,1.47-.954,2.194-1.48a.225.225,0,0,1,.312.052.223.223,0,0,1-.052.31c-.745.521-1.464,1.057-2.235,1.544-1.057.666-2.116,1.278-3.2,1.854-.368.232-.741.449-1.109.658.32.161.642.334.972.473a3.488,3.488,0,0,0,.372.157,5.358,5.358,0,0,1-1.6-.28,2.138,2.138,0,0,1-.223-.089c-.346.187-.693.368-1.031.536q-1.453.728-2.951,1.373c.437.161.874.328,1.323.457a.314.314,0,1,1-.207.592c-.63-.238-1.24-.483-1.846-.739-1.681.7-3.394,1.323-5.116,1.88a112.8,112.8,0,0,1-14.153,3.6c-3.012.558-5.977.988-9.027,1.248-.618.054-1.248.062-1.868.083C102.425,53.255,102.016,53.236,101.623,53.232Zm-12.071-1.22c-1.564-.2-3.129-.378-4.695-.536-.666-.068-1.329-.117-2-.181-.833-.077-1.669-.119-2.508-.149,1,.079,2,.173,3.006.274a.323.323,0,0,1,0,.646c-.431.052-.874.093-1.313.125C84.609,52.19,87.08,52.113,89.552,52.012Zm14.521-.1a.042.042,0,0,1-.012-.008c-.093.01-.183.02-.274.026C103.884,51.924,103.979,51.918,104.073,51.91Zm2.8-.264c.213-.028.425-.058.634-.1-.7.079-1.4.151-2.1.221.008.01.018.022.028.036C105.915,51.765,106.395,51.712,106.87,51.646Zm-13.559-.282c-.244-.131-.5-.246-.743-.383-.564-.32-1.121-.636-1.681-.96-.817-.477-1.655-1.043-2.432-1.59-2.009-1.415-3.932-2.951-5.816-4.532a.23.23,0,1,1,.292-.356,56.117,56.117,0,0,0,9.019,6.446c.779.423,1.58.838,2.394,1.19.268.117.534.248.807.35.1.038.2.079.3.121q1.73-.072,3.455-.187c-.5-.25-.988-.511-1.478-.785-1.238-.689-2.462-1.4-3.64-2.19-1.554-1.043-3.084-2.1-4.54-3.278-.779-.63-1.526-1.27-2.289-1.917a.192.192,0,1,1,.252-.29,49.409,49.409,0,0,0,10.316,7.022c.95.485,1.894.914,2.855,1.331.757-.06,1.516-.125,2.271-.193q-.833-.435-1.663-.88a38.013,38.013,0,0,1-8.315-5.548.208.208,0,1,1,.28-.308,22.412,22.412,0,0,0,3.068,2.4,60.415,60.415,0,0,0,7.922,4.21c.193-.018.387-.038.578-.058q1.132-.115,2.267-.24c-1.454-.8-2.821-1.723-4.206-2.643-1.288-.856-2.553-1.764-3.837-2.629-.489-.33-.995-.632-1.486-.958a.257.257,0,1,1,.276-.435c.234.169.5.318.741.471q.4.257.793.517c1.218.8,2.424,1.613,3.644,2.408,1.133.737,2.3,1.474,3.493,2.116.636.344,1.27.644,1.919.958,1.844-.177,2.593-.272,3.34-.374-.7-.342-1.393-.7-2.072-1.087-2.086-1.2-4.049-2.515-6.014-3.9-.606-.425-1.216-.85-1.81-1.288a.216.216,0,1,1,.252-.352,67.438,67.438,0,0,0,7.964,5.061c.948.509,1.963.948,2.949,1.375a.166.166,0,0,1,.026.014c2.9-.415,5.792-.9,8.663-1.512q1.145-.242,2.269-.5c.805-.24,1.611-.493,2.414-.753a66.707,66.707,0,0,1-6.738-3.034c-1.262-.626-2.527-1.254-3.781-1.9a.329.329,0,1,1,.294-.588q2.111,1.069,4.254,2.084c2.068.982,4.188,1.927,6.344,2.7a.392.392,0,0,1,.227.511c1.1-.344,1.353-.435,1.609-.523a22.84,22.84,0,0,0,2.506-1.009c-1.144-.525-2.255-1.141-3.37-1.721-.868-.453-1.731-.966-2.565-1.482a18.018,18.018,0,0,1-1.506-.995.157.157,0,0,1,.177-.26,13.382,13.382,0,0,0,1.268.835c1.186.7,2.321,1.347,3.563,1.961,1.039.515,2.082,1,3.147,1.456q1.474-.6,2.927-1.264c.507-.234,1.027-.481,1.54-.743-.485-.306-1.017-.626-1.524-.882a7.623,7.623,0,0,0-1.705-.676,9.384,9.384,0,0,0-1.009-.157.115.115,0,0,1-.1-.125.116.116,0,0,1,.125-.1,9.313,9.313,0,0,1,1.025.151c.153.032.3.093.455.127a2.589,2.589,0,0,1,.4.137c.209.091.447.173.66.264.27.113.54.274.8.4.415.205.833.439,1.244.666a23.9,23.9,0,0,0,4.971-3.366c.056-.052.111-.107.167-.159a.49.49,0,0,1-.177-.246.5.5,0,0,1,.312-.626c.1-.026.2-.058.294-.093H94.3a.454.454,0,0,1-.592.079l-.123-.079h-43.2a.268.268,0,0,1-.068.167.1.1,0,0,1-.159.006.764.764,0,0,0,.095.036.376.376,0,1,1-.256.707c-.542-.191-1.093-.385-1.637-.57-.316-.107-.666-.221-.986-.346H14.7l0,0H7.418a6.841,6.841,0,0,0,.121.7,4.88,4.88,0,0,0,.383,1.244.122.122,0,0,1-.221.1,6.316,6.316,0,0,1-.479-1.45c-.054-.191-.1-.395-.147-.6H3.124A21.761,21.761,0,0,0,7.61,41.823c.584.322,1.184.666,1.788.942l1.518.695c1.033.473,2.126.848,3.191,1.242,1.607.6,3.263,1.127,4.918,1.576.753.2,1.516.437,2.277.6,1.067.232,2.134.481,3.2.715.91.2,1.85.374,2.768.525q1.184.2,2.357.395c-1.717-.956-3.422-1.943-5.168-2.845-.519-.268-1.055-.5-1.58-.759l.042-.093c1.135.554,2.269,1.081,3.392,1.665,1.421.741,2.845,1.492,4.29,2.188.676.1,1.355.205,2.041.3q1.9.26,3.8.475-.758-.39-1.5-.8a33.467,33.467,0,0,1-3.793-2.321,10.993,10.993,0,0,1-.94-.715.223.223,0,0,1,.274-.352c.564.477,1.184.874,1.786,1.295.391.274.827.521,1.238.765,1.109.654,2.257,1.234,3.4,1.82.3.153.6.3.892.453q2.18.23,4.359.4c-.914-.642-1.8-1.371-2.615-2.031-.457-.37-.924-.743-1.4-1.085A14.839,14.839,0,0,0,36.7,45.878c-.328-.181-.656-.378-.986-.564a.183.183,0,0,1,.173-.322c.177.109.366.2.548.3s.328.205.5.3c.242.137.5.328.737.485.467.32.922.658,1.377,1C40.413,48.1,41.7,49.2,43.155,50.08c.566.044,1.133.087,1.7.125a13.728,13.728,0,0,1-1.429-.936,8.568,8.568,0,0,1-1.063-.918,8.258,8.258,0,0,1-1.313-1.643.227.227,0,0,1,.068-.312.229.229,0,0,1,.314.068,8.011,8.011,0,0,0,.741,1.009,11.4,11.4,0,0,0,3.8,2.806c1.21.079,2.416.147,3.628.207a36.645,36.645,0,0,1-7.674-6.026.24.24,0,1,1,.346-.332c.57.592,1.123,1.127,1.735,1.675.5.445,1.035.833,1.56,1.24.244.189.513.356.767.531,1.156.8,2.353,1.474,3.543,2.215.407.256.815.513,1.23.769q2.265.1,4.538.171a27.663,27.663,0,0,1-3.225-2.021c-2.11-1.524-4.143-3.173-6.158-4.822a.213.213,0,1,1,.268-.332c2.184,1.782,4.387,3.529,6.726,5.1.594.4,1.212.749,1.832,1.105a19.573,19.573,0,0,0,2.088,1.015q1.788.051,3.578.091A75.031,75.031,0,0,1,52.233,44.8a.288.288,0,1,1,.362-.447,61.919,61.919,0,0,0,8.383,5.814c.413.244.829.487,1.252.727,1.063.018,2.134.028,3.2.036-.8-.55-1.58-1.139-2.335-1.739-.922-.729-1.864-1.452-2.758-2.209-1.282-1.085-2.563-2.241-3.765-3.406a.2.2,0,1,1,.278-.29,68.537,68.537,0,0,0,6.165,5.122c.819.624,1.673,1.2,2.525,1.78.364.25.745.5,1.133.751q2.162.009,4.32,0a57.512,57.512,0,0,1-8.715-6.462.251.251,0,0,1-.026-.352.254.254,0,0,1,.354-.026,55.833,55.833,0,0,0,6.15,4.761c.5.344,1.037.656,1.552.982.616.395,1.26.745,1.907,1.093,1.3-.008,2.6-.024,3.9,0-.668-.459-1.323-.94-1.973-1.405-1.619-1.16-3.193-2.412-4.743-3.66-.467-.376-.918-.769-1.373-1.152a11.317,11.317,0,0,1-.892-.807.263.263,0,1,1,.36-.385c.656.678,1.5,1.3,2.225,1.911,1.361,1.152,2.849,2.2,4.28,3.257,1.087.8,2.217,1.554,3.356,2.271.068,0,.139.006.207.008.157.008.316.016.473.022A.221.221,0,0,1,78,50.881a.2.2,0,0,1,.2-.2c1.139.03,2.277.054,3.416.1-.24-.141-.477-.282-.717-.425-1.357-.785-2.7-1.564-4.043-2.382a24.721,24.721,0,0,1-5.627-4.455.13.13,0,0,1,.006-.177.129.129,0,0,1,.179.006,18.011,18.011,0,0,0,4,3.3c.449.276.884.556,1.345.815,1.939,1.1,3.93,2.094,5.909,3.112a.363.363,0,0,1,.179.266q.682.036,1.367.085,2,.154,3.994.314a28.358,28.358,0,0,1-3.877-2.36c-.588-.419-1.166-.856-1.754-1.274-.672-.479-1.323-1-1.993-1.48-.435-.314-.866-.648-1.309-.95-.489-.334-.984-.67-1.47-1.009a.189.189,0,0,1,.209-.314c.258.181.527.35.787.529.926.638,1.852,1.295,2.76,1.959a47.5,47.5,0,0,0,6.209,4.016,19.362,19.362,0,0,0,2.466,1.039c1.212.093,2.422.179,3.638.256C93.683,51.557,93.494,51.463,93.311,51.364ZM111.5,47.012c-.775-.393-1.532-.8-2.3-1.2-.817-.429-1.623-.956-2.4-1.448-.618-.389-1.256-.821-1.836-1.268a.289.289,0,0,1-.062-.4.286.286,0,0,1,.4-.062c.525.415,1.111.793,1.677,1.156,1.119.719,2.237,1.341,3.418,1.951,1.043.542,2.112,1,3.171,1.5.415.2.838.374,1.258.56.546.242,1.091.5,1.643.725a.388.388,0,1,1-.32.707C114.6,48.509,113.028,47.785,111.5,47.012Zm8.292.743a17.833,17.833,0,0,1-2.917-1.454c-1.758-1.071-3.489-2.206-5.293-3.187a.287.287,0,1,1,.272-.505c1.278.689,2.5,1.452,3.747,2.2A20.9,20.9,0,0,0,121,47.376a.371.371,0,1,1-.213.711A8.6,8.6,0,0,1,119.8,47.754Zm-70.044-9.18H49.7c.028.012.058.024.089.038C49.779,38.6,49.765,38.586,49.752,38.574Zm-3.2-3.048c-.568-.529-1.154-1.079-1.737-1.59-.5-.441-1.015-.874-1.508-1.321-.378-.342-.727-.731-1.117-1.057-.538-.451-1.113-.874-1.665-1.309-.656-.519-1.381-1.061-2.08-1.52-.284-.187-.572-.372-.854-.564-.531-.358-1.1-.68-1.665-1,.032.044.064.091.1.135a37.094,37.094,0,0,0,3.922,4.594c.658.646,1.341,1.282,2.053,1.866a35.7,35.7,0,0,0,3.374,1.907c.54.264,1.087.566,1.637.8a.1.1,0,1,1-.089.187c-.531-.223-1.1-.513-1.617-.785-.624-.326-1.238-.648-1.852-.984a.017.017,0,0,0,.012.006c.219.169.457.326.687.483s.457.36.695.515c.431.28.876.56,1.321.813.05.03.1.062.155.093h1.566Q47.225,36.158,46.555,35.526Zm11.709,1.222c-.23-.2-.461-.413-.689-.618-.93-.833-1.949-1.653-2.947-2.4-1.192-.9-2.357-1.836-3.549-2.732a67.175,67.175,0,0,1-6.247-5.18.2.2,0,1,1,.268-.286A89.239,89.239,0,0,0,53.261,32.1c.072.036.151.079.227.119a22.806,22.806,0,0,1,2.06,1.309c.7.487,1.391.988,2.086,1.48.334.238.644.513.976.747a.294.294,0,0,1-.358.467,14.455,14.455,0,0,1-1.131-.912c-.556-.473-1.158-.991-1.749-1.415q-.054-.036-.109-.079a28,28,0,0,1,3.181,2.98H69.271c-.393-.33-.775-.674-1.172-1-.664-.544-1.349-1.079-2.029-1.6-.735-.564-1.5-1.1-2.225-1.675-.662-.521-1.317-1.077-1.953-1.629-.527-.457-1.067-.9-1.568-1.385-.58-.564-1.19-1.1-1.729-1.707a.171.171,0,0,1,.246-.238,11.165,11.165,0,0,0,.928.924A34.8,34.8,0,0,0,63.956,31.7c.542.364,1.049.767,1.58,1.144,1.057.747,2.082,1.53,3.09,2.341.427.34.829.719,1.24,1.079a.4.4,0,0,1,.056.529h4.433c-1.53-1.23-3.058-2.47-4.622-3.656a36.007,36.007,0,0,1-7.153-6.487.191.191,0,0,1,.03-.266.189.189,0,0,1,.266.028,25.072,25.072,0,0,0,4.4,4.262c2.029,1.574,4.214,2.982,6.189,4.616a13.837,13.837,0,0,1,1.512,1.5h6.243c-.425-.34-.848-.719-1.266-1.071-.86-.717-1.743-1.415-2.621-2.11-1.663-1.317-3.308-2.645-4.922-4.016a44.557,44.557,0,0,1-3.545-3.318,8.5,8.5,0,0,1-.739-.912c-.306-.429-.654-.868-.98-1.282a.21.21,0,1,1,.328-.264,16.1,16.1,0,0,0,1.756,1.872c.586.576,1.133,1.184,1.756,1.725.823.717,1.627,1.415,2.48,2.1,1.558,1.248,3.187,2.416,4.761,3.646.443.346.878.707,1.323,1.049.819.632,1.592,1.335,2.376,2.013a.442.442,0,0,1,.083.568H87a31.177,31.177,0,0,1-2.726-2.122c-1.234-1.037-2.444-2.118-3.622-3.215q-3.385-3.153-6.77-6.307c-1.043-.972-2.13-1.894-3.195-2.841a.1.1,0,0,1-.01-.139.1.1,0,0,1,.141-.01c1.458,1.3,2.949,2.557,4.407,3.857,2.188,1.947,4.413,3.9,6.684,5.754,1,.819,2.025,1.6,3.042,2.4.258.2.536.4.8.592.191.137.372.292.564.431.707.515,1.383,1.047,2.06,1.6h2.74c-.145-.119-.29-.24-.431-.358a63.039,63.039,0,0,1-5.027-4.785c-.888-.918-1.721-1.9-2.585-2.845-1.53-1.673-2.99-3.42-4.508-5.1-.654-.725-1.329-1.433-1.977-2.158a.247.247,0,1,1,.362-.336c.344.385.713.751,1.055,1.137.779.88,1.59,1.741,2.376,2.619,1.621,1.806,3.253,3.622,4.94,5.367.584.606,1.178,1.19,1.774,1.782.624.622,1.282,1.21,1.937,1.8.538.481,1.105.986,1.675,1.429q.954.746,1.927,1.452h3.886a.616.616,0,0,1,.076-.244c-1.272-1.071-2.521-2.152-3.753-3.286-2.508-2.3-4.88-4.737-7.276-7.151C84.533,25.069,83.52,24,82.477,22.964c-.695-.687-1.385-1.383-2.068-2.082a.117.117,0,0,1,0-.163h.165c.874.89,1.774,1.756,2.655,2.643,2.281,2.3,4.626,4.58,7.032,6.748,1.554,1.4,3.11,2.774,4.749,4.077.838.668,1.683,1.359,2.553,2a10.215,10.215,0,0,0,1.071-.238c.177-.089.35-.175.521-.264.087-.042.175-.087.262-.131-.28-.2-.556-.409-.823-.622-.654-.513-1.3-1.059-1.923-1.615-.521-.469-1.059-.918-1.57-1.4-1.035-.974-2.1-1.925-3.092-2.939-.769-.783-1.552-1.55-2.319-2.339-1.568-1.613-3.094-3.3-4.576-4.991-.626-.715-1.278-1.443-1.872-2.18a.151.151,0,0,1,.23-.2c1.156,1.409,2.4,2.754,3.644,4.087a87.869,87.869,0,0,0,6.962,6.674c.844.727,1.717,1.494,2.6,2.168.385.294.757.606,1.144.9.572.433,1.142.862,1.7,1.311.272.219.546.439.817.656a40.906,40.906,0,0,0,3.765-2.323c-.306-.264-.608-.529-.916-.791-.866-.729-1.741-1.464-2.621-2.174-1.711-1.379-3.439-2.742-5.164-4.1-2.16-1.707-4.3-3.42-6.364-5.248-.644-.57-1.3-1.156-1.915-1.758a12.638,12.638,0,0,1-.976-.995c-.755-.944-1.558-1.868-2.3-2.821a.107.107,0,1,1,.165-.137c.171.189.326.391.5.578.334.358.67.7,1.029,1.031.288.266.584.521.87.783.193.179.4.32.584.515.417.451.912.884,1.369,1.3,1.093,1,2.219,1.975,3.384,2.893.584.463,1.178.914,1.766,1.371,1.786,1.4,3.64,2.722,5.44,4.1.58.447,1.178.888,1.743,1.355.624.517,1.278,1.009,1.886,1.546.437.385.88.769,1.3,1.164.312.29.616.59.926.886q.966-.7,1.911-1.454c.125-.129.25-.26.37-.391-.453-.417-.9-.84-1.355-1.258-.626-.574-1.274-1.131-1.913-1.691-.707-.62-1.423-1.232-2.126-1.854-1.967-1.743-3.892-3.551-5.8-5.355-.866-.819-1.7-1.669-2.527-2.525-.656-.68-1.333-1.385-1.949-2.1-.711-.821-1.407-1.643-2.086-2.49-.439-.542-.835-1.117-1.26-1.667a.188.188,0,1,1,.3-.225c.544.733,1.083,1.433,1.663,2.138.225.274.451.564.689.827.8.878,1.578,1.778,2.426,2.607,1.125,1.1,2.249,2.172,3.429,3.211,1.307,1.152,2.641,2.269,3.982,3.382.632.527,1.278,1.043,1.907,1.576.988.842,1.957,1.7,2.925,2.563.791.7,1.584,1.4,2.353,2.132.729-.838,1.421-1.715,2.086-2.617-.115-.111-.227-.223-.336-.342a1.054,1.054,0,0,1-.258-.445c-.685-.505-1.369-.993-2.023-1.538-1.22-1.015-2.362-2.08-3.517-3.165-1.576-1.482-3.127-3.1-4.56-4.717-1.007-1.139-2.013-2.271-2.976-3.449-1.222-1.494-2.394-3.006-3.531-4.564-.552-.755-1.1-1.526-1.617-2.307a.09.09,0,0,1,.022-.125.093.093,0,0,1,.127.022,60.471,60.471,0,0,0,4.089,5.43,79.03,79.03,0,0,0,9.521,9.607c1.528,1.3,3.143,2.531,4.773,3.7a1.088,1.088,0,0,1,1.526.042.22.22,0,0,0,.026.034c.225-.344.449-.695.668-1.045l-.006,0c-.4-.171-.8-.282-1.22-.415a.115.115,0,0,1-.079-.141.116.116,0,0,1,.139-.079c.173.058.4.1.556.167.143.06.31.095.451.155.095.042.187.081.284.119.036-.062.074-.123.113-.183.242-.4.483-.8.717-1.2q-.83-.559-1.663-1.113a.149.149,0,0,1-.064-.155c-.175-.123-.348-.248-.517-.372a42.981,42.981,0,0,1-3.676-2.933c-1.4-1.27-2.74-2.559-4.037-3.938C100.506,11.7,98.4,9.175,96.248,6.669c-.229-.27-.489-.552-.7-.829-.181-.238-.35-.5-.521-.749-.342-.5-.719-.986-1.1-1.445L94,3.576c.391.463.813.9,1.248,1.323.24.234.491.457.713.7.358.4.7.825,1.055,1.234Q98,7.988,99,9.133c1.413,1.621,2.911,3.233,4.443,4.737a60.939,60.939,0,0,0,6.917,5.965c.926.672,1.878,1.323,2.841,1.951.266-.467.525-.942.781-1.419-.1-.081-.205-.163-.306-.246-.33-.27-.674-.548-.984-.842a.264.264,0,0,1,.348-.4c.366.35.781.687,1.192,1.009.076-.145.151-.29.227-.437-.153-.006-.308-.014-.463-.024a.35.35,0,1,1,.03-.7c.266.016.525.024.783.028.095-.191.189-.383.282-.574-.36-.266-.527-.348-.036-.022a.387.387,0,0,1-.217-.087c-.159-.109-.312-.217-.467-.33-.032-.014-.064-.03-.1-.046l.006-.02c-.592-.439-1.158-.908-1.731-1.371-1.661-1.337-3.235-2.8-4.787-4.26-2.017-1.9-3.988-3.96-5.848-6.014C99.769,3.663,97.621,1.3,95.5-1.1a.243.243,0,0,1,.018-.338.239.239,0,0,1,.338.018c1.993,2.209,3.98,4.4,6.02,6.569,1.464,1.556,3,3.135,4.568,4.584.8.739,1.586,1.478,2.4,2.2.356.316.723.618,1.079.93.664.584,1.369,1.142,2.058,1.691,1.144.912,2.325,1.8,3.5,2.67.02.016.036.032.054.048.125-.266.246-.531.368-.8a1.075,1.075,0,0,1,.825-1.892q.755-1.8,1.417-3.634c.54-1.5,1.059-3.014,1.532-4.542a44.246,44.246,0,0,1-4.133-2.923c-1.28-1-2.529-2.027-3.761-3.088-1.184-1.019-2.331-2.1-3.491-3.141-1.242-1.121-2.49-2.217-3.755-3.314-.664-.574-1.371-1.174-2.072-1.705-.413-.316-.819-.652-1.238-.956-.451-.332-.91-.654-1.357-.988a.178.178,0,0,1-.04-.246.179.179,0,0,1,.248-.04c.481.364.986.7,1.468,1.063.819.622,1.619,1.254,2.43,1.884,2.068,1.6,4.045,3.376,6.058,5.051,1.313,1.1,2.615,2.2,3.924,3.3a70.434,70.434,0,0,0,5.909,4.473c.081-.27.159-.542.238-.815q.489-1.706.918-3.445c-.509-.282-1.011-.582-1.512-.906a29.938,29.938,0,0,1-2.412-1.8c-1.256-1-2.492-2.023-3.71-3.074q-1.975-1.7-3.962-3.39c-.991-.838-1.973-1.687-2.984-2.5-1.3-1.047-2.631-2.029-3.976-3.018a.153.153,0,0,1-.036-.211.155.155,0,0,1,.211-.034c.4.3.811.592,1.218.884.809.582,1.609,1.2,2.4,1.808,1.987,1.536,3.938,3.123,5.9,4.691,1.1.878,2.213,1.733,3.322,2.6,1.462,1.135,3,2.148,4.494,3.233.417.3.829.614,1.24.926q.308-1.308.572-2.625c.083-.777.153-1.554.217-2.329a.531.531,0,0,1-.7-.181.529.529,0,0,1,.161-.731c-.366-.238-.731-.479-1.089-.729-.682-.473-1.345-.978-2.015-1.47-1.3-.95-2.591-1.931-3.873-2.909-1.717-1.313-3.437-2.623-5.132-3.96-.811-.638-1.669-1.262-2.452-1.931-.314-.268-.614-.558-.924-.835-1.061-.952-2.116-1.9-3.207-2.823a.112.112,0,0,1-.012-.151.11.11,0,0,1,.151-.014c.866.719,1.768,1.448,2.686,2.1.546.387,1.113.769,1.649,1.168.248.183.487.391.731.582.733.576,1.466,1.158,2.209,1.723,1.778,1.355,3.578,2.68,5.379,4q1.507,1.108,3.01,2.229c.584.437,1.176.86,1.76,1.295s1.144.894,1.7,1.365c.024-.016.05-.03.079-.048.036-.481.07-.962.107-1.448-.546-.07-1.089-.127-1.621-.179a.1.1,0,0,1-.07-.036l-.191.028a.1.1,0,0,1-.111-.081.1.1,0,0,1,.081-.111c.389-.062.769-.139,1.156-.211a3.445,3.445,0,0,1,.606-.113,1.259,1.259,0,0,1,.193.117c0-.042.006-.085.01-.127.044-.618.087-1.24.127-1.862-1.172-.858-2.319-1.737-3.473-2.621-.908-.691-1.842-1.349-2.754-2.035-.819-.614-1.619-1.264-2.442-1.876-1.119-.833-2.231-1.683-3.354-2.515-1.679-1.242-3.376-2.46-5.055-3.7a.178.178,0,0,1-.04-.246.179.179,0,0,1,.248-.04c1.484,1.1,3.024,2.162,4.554,3.2,2.124,1.439,4.246,2.885,6.384,4.3.815.54,1.588,1.156,2.386,1.723.942.674,1.9,1.383,2.812,2.1.266.213.534.431.8.648.04-.666.077-1.335.111-2a.7.7,0,0,1-.882-.368.7.7,0,0,1,.35-.922c.079-.034.159-.068.24-.1-.207-.161-.413-.324-.616-.491-.445.066-.89.147-1.319.217a.135.135,0,0,1-.157-.107.136.136,0,0,1,.107-.157c.242-.032.489-.095.731-.139.115-.018.23-.038.342-.054-.171-.143-.342-.282-.515-.423-1.27-1.029-2.531-2.072-3.793-3.108-1.607-1.319-3.314-2.647-5.037-3.809q-.743-.5-1.5-.984c-.05-.03-.1-.06-.149-.095H35.9c.137.173.27.35.415.507.161.175.322.368.477.552a14.762,14.762,0,0,0,1.329,1.351l-.093.038a21.085,21.085,0,0,1-1.929-1.725c-.234-.24-.463-.481-.693-.723H26.008c-.123.052-.246.107-.366.151a.79.79,0,0,1-.012.6c-.417.918-.723,1.832-1.053,2.792-.022.068-.046.135-.068.2.213.155.425.316.642.481,1.663,1.3,3.127,2.865,4.651,4.322.856.817,1.7,1.689,2.6,2.454a12.922,12.922,0,0,0,1.067.872.4.4,0,0,1,.058.56.4.4,0,0,1-.56.058c-.189-.163-.395-.328-.59-.483s-.376-.334-.568-.493c-.505-.421-1.011-.916-1.478-1.383-1.619-1.625-3.165-3.37-4.892-4.874-.366-.318-.749-.626-1.137-.92a29.622,29.622,0,0,0-.872,2.919,51.112,51.112,0,0,0,.242,6.948c.232.254.459.509.684.763.93,1.047,1.846,2.106,2.776,3.155.781.882,1.582,1.731,2.38,2.6.358.389.751.745,1.121,1.121A19.031,19.031,0,0,0,32.807.544a.258.258,0,1,1-.324.4A43.458,43.458,0,0,1,27.13-4.487c-.87-.98-1.723-1.989-2.575-2.982-.316-.364-.638-.747-.968-1.107.046.6.1,1.194.165,1.784.177,1.683.4,3.34.678,4.995.515.54,1.059,1.057,1.6,1.572.632.6,1.254,1.212,1.9,1.8C29.419,2.9,30.9,4.265,32.28,5.7a.286.286,0,1,1-.415.395c-1.1-1.144-2.186-2.263-3.36-3.338C27.132,1.509,25.787.262,24.551-1.1q.239,1.35.527,2.7.257,1.22.554,2.434c.469.513.942,1.027,1.423,1.532.493.525.988,1.061,1.5,1.574.96.964,1.9,1.945,2.875,2.9.376.366.757.731,1.127,1.1a.281.281,0,0,1-.393.4C30.1,9.588,28.177,7.49,26.28,5.37c-.147-.161-.294-.326-.439-.489.383,1.494.807,2.982,1.284,4.439.292.9.6,1.79,1.162,3.239l.98.693c.856.606,1.76,1.254,2.565,1.923.336.28.646.59.976.872a.236.236,0,1,1-.328.34c-.294-.29-.578-.58-.884-.856s-.668-.556-1-.823c-.443-.358-.948-.687-1.407-1.029-.24-.179-.481-.36-.719-.544.691,1.81,1.454,3.586,2.305,5.339.425.876.85,1.737,1.323,2.587.5.9,1.025,1.78,1.544,2.67.244.419.529.88.805,1.278.415.6.809,1.2,1.222,1.794.672.387,1.343.763,2.005,1.18a49.527,49.527,0,0,1,4.479,3.247c.185.147.37.3.56.435.276.2.558.376.817.6,1.715,1.472,3.37,3.006,5.033,4.532h9.748C58.3,36.778,58.28,36.762,58.264,36.748Zm42.695-.147c-.153.062-.308.121-.461.179a.152.152,0,0,1-.032.012h.8C101.16,36.73,101.058,36.666,100.959,36.6ZM50.185,34.775c-1.341-.964-2.605-1.975-3.865-3.04-1.7-1.437-3.346-2.929-5.019-4.4-1.17-1.031-2.351-2.035-3.539-3.048l.081-.1c1.357,1.156,2.724,2.3,4.067,3.467,1.383,1.2,2.792,2.394,4.228,3.539.385.306.765.624,1.16.922.771.586,1.54,1.148,2.331,1.711.691.491,1.413.924,2.12,1.389.451.3.87.63,1.3.944a.129.129,0,0,1,.044.175.127.127,0,0,1-.173.042A12.911,12.911,0,0,1,50.185,34.775Zm11.53.546c-.576-.419-1.146-.84-1.725-1.252-.993-.713-1.961-1.409-2.919-2.166A13.061,13.061,0,0,1,56,30.978a.206.206,0,0,1-.012-.29.211.211,0,0,1,.292-.012,4.651,4.651,0,0,0,.562.5c.415.348.848.664,1.278.993.525.4,1.087.759,1.631,1.131,1.053.721,2.128,1.4,3.167,2.142a.315.315,0,1,1-.374.507C62.259,35.758,61.993,35.522,61.715,35.321Zm39.022-.165a18.431,18.431,0,0,0,2.025-1.079,18.914,18.914,0,0,0,1.58-1.127.421.421,0,0,1-.034-.028q-.115.079-.23.151c-1.152.757-2.339,1.5-3.559,2.14a.219.219,0,0,1,.034.026C100.617,35.214,100.677,35.186,100.737,35.156Zm9.372-5.893c.735-.1,1.466-.209,2.2-.318.119-.018.238-.034.356-.054a9.751,9.751,0,0,1-1.572-.84c-.093.121-.187.24-.278.358s-.187.24-.729.858A.2.2,0,0,0,110.109,29.263Zm6.7-2.128c-.662-.4-1.337-.842-1.979-1.27-.254-.169-.513-.322-.775-.473s-.529-.306-.793-.453c-.048.074-.1.149-.141.223q-.365.577-.759,1.144a.72.72,0,0,0,.085.05c.266.163.54.286.817.429a7.592,7.592,0,0,0,1.327.5,14.808,14.808,0,0,0,3.4.568C117.594,27.636,117.208,27.377,116.813,27.135Zm2.9.407c-.322-.248-.642-.493-.964-.739-1.15-.866-2.347-1.677-3.535-2.494l-1.091-.747c-.23.378-.465.755-.7,1.129,1,.511,1.965,1.085,2.943,1.629.678.381,1.371.773,2.084,1.087a.31.31,0,0,1,.141.385C118.965,27.711,119.34,27.626,119.714,27.542Zm4.89-.2c-.107-.068-.211-.139-.316-.207-.614.2-1.23.383-1.842.556C123.171,27.6,123.892,27.477,124.6,27.34ZM27.44,15.356q-1.018-2.464-1.848-4.987c-.161-.23-.314-.463-.465-.7l.026-.113.113.024a2.883,2.883,0,0,0,.153.258q-1.19-3.69-2.017-7.487c-.022-.091-.042-.185-.064-.278-.02-.026-.04-.048-.06-.07.026.163.054.33.081.491a68.119,68.119,0,0,0,1.4,6.688,48.341,48.341,0,0,0,2.859,8.3c.7,1.49,1.441,2.869,2.287,4.28A26.624,26.624,0,0,0,31.631,24.3c.771.993,1.532,1.993,2.4,2.905.06.062.119.127.179.191A52.774,52.774,0,0,1,27.44,15.356Zm93.669,11.838q1.145-.3,2.293-.648c-.525-.344-1.053-.689-1.588-1.029-1.246-.789-2.519-1.542-3.763-2.335-.854-.546-1.7-1.093-2.527-1.673q-.408.622-.848,1.216a.981.981,0,0,0,.091.054.362.362,0,0,1-.165.674c1.383.894,2.77,1.782,4.147,2.69.59.391,1.162.805,1.735,1.212C120.693,27.3,120.9,27.248,121.109,27.193Zm4.383-.034c.417-.089.821-.2,1.234-.3a28.107,28.107,0,0,0,2.851-.854c1.031-.366,2.058-.741,3.046-1.208.421-.2.84-.393,1.26-.592s.886-.465,1.3-.7a20.777,20.777,0,0,0,2.031-1.317l1.82-1.56,1.657-1.842c.215-.258.417-.527.632-.783s.425-.556.63-.831c.34-.461.709-.952,1-1.441.173-.286.362-.56.536-.846.036-.058.072-.121.109-.183h0c-.016.022-.034.046-.05.066a14.012,14.012,0,0,1-1.594,1.788.042.042,0,0,0,.012.008.279.279,0,1,1-.322.455s0,0-.006,0a32.236,32.236,0,0,1-3.968,3.447q-1.2.888-2.482,1.691c.058.03.119.062.177.091a.316.316,0,0,1-.3.558c-.171-.085-.338-.173-.505-.264a49.113,49.113,0,0,1-9.41,4.31.364.364,0,0,1,.091.366C125.325,27.2,125.408,27.177,125.492,27.159Zm.831-1.58c-.346-.173-.707-.383-1.031-.582-1.057-.64-2.019-1.3-3.024-2.025-1.669-1.2-3.265-2.46-4.967-3.567-.177.012-.354.022-.527.03q-.459.824-.958,1.621c.844.58,1.709,1.123,2.581,1.663,1.252.777,2.531,1.51,3.793,2.269.7.423,1.387.856,2.076,1.29C124.953,26.058,125.641,25.826,126.324,25.579Zm7.527-3.443c-.26-.151-.519-.3-.773-.455-1.027-.606-2.066-1.28-3.044-1.965-1.407-.98-2.8-1.979-4.2-2.982a22.558,22.558,0,0,1-3.205,1.514c1.5.962,2.994,1.925,4.51,2.861.932.578,1.874,1.123,2.819,1.679a.358.358,0,0,1-.378.608c-2.462-1.629-4.866-3.34-7.292-5.021l-.314.111c-.612.209-1.206.36-1.83.523a13.686,13.686,0,0,1-2.2.342c-.129.012-.26.024-.387.032,1.091.719,2.172,1.439,3.255,2.18a40.505,40.505,0,0,0,5.939,3.549.308.308,0,0,1,.165.246A46.775,46.775,0,0,0,133.851,22.136Zm7.238-5.518c-.191-.147-.376-.3-.566-.453a6.206,6.206,0,0,0-2.114-1.323l-.1-.022a.222.222,0,0,1-.054.119.237.237,0,0,1-.332.022,1.9,1.9,0,0,1-.225-.2c-.006,0-.01-.008-.016-.012l-.179-.01a.243.243,0,0,1-.24-.246v-.008a1.882,1.882,0,0,0-.244-.111c-.62-.211-1.254-.381-1.87-.588a5.825,5.825,0,0,1-.654-.326,2.891,2.891,0,0,1-.574-.5,2.588,2.588,0,0,1-.306-.453,3.061,3.061,0,0,1-.306-.825.2.2,0,0,1,.135-.236.193.193,0,0,1,.236.137,3.363,3.363,0,0,0,.193.584,1.513,1.513,0,0,0,.187.322c.68.938,1.514.988,2.573,1.3a4.217,4.217,0,0,1,.721.244c.165.089.3.159.423.236a3.828,3.828,0,0,1,1.586.4,6.021,6.021,0,0,1,1.188.817c.282.244.6.5.918.737.181-.191.358-.385.536-.584l1.073-1.377c-.244-.205-.483-.407-.731-.608a12.732,12.732,0,0,1-3.267-3.358.174.174,0,0,1,.052-.238.172.172,0,0,1,.238.05,10.827,10.827,0,0,0,3.255,3.151c.238.171.481.342.715.517.022.018.048.038.07.054l.727-.93.385-.687a18.2,18.2,0,0,1-1.653-1.2c-.5-.391-1.033-.763-1.52-1.162a.281.281,0,0,1,.336-.451c1.033.769,2.021,1.538,3.108,2.223l.046.028,0,0,.413-.733A13.439,13.439,0,0,0,146.1,8.78c0-.018.01-.034.016-.054-.054-.062-.109-.123-.169-.187a8.541,8.541,0,0,0-1.142-.91A14.252,14.252,0,0,1,142,5.384a4.039,4.039,0,0,1-.489-.755.333.333,0,1,1,.584-.32c.588,1.226,2.068,1.961,3.131,2.7.209.145.445.284.644.435.151.115.316.27.469.393a10.381,10.381,0,0,0,.29-2.392,5.245,5.245,0,0,0-.662-.55,8.237,8.237,0,0,1-2.706-2.575.3.3,0,0,1,.523-.294,7.348,7.348,0,0,0,2.547,2.343c.127.091.246.179.356.272,0-.06,0-.119,0-.177-.006-.26-.01-.536-.04-.793-.036-.322-.046-.66-.107-.982-.074-.389-.129-.775-.213-1.166-.018-.076-.036-.155-.058-.234a.309.309,0,0,1-.3.016,6.285,6.285,0,0,1-2.086-1.492.31.31,0,0,1,0-.437.31.31,0,0,1,.437,0A5.771,5.771,0,0,0,146.1.693c-.034-.125-.068-.248-.1-.37-.044-.187-.135-.368-.185-.552a11.267,11.267,0,0,0-.554-1.393A18.907,18.907,0,0,0,142.1-6.383a24.726,24.726,0,0,0-1.739-1.76c-.318-.3-.682-.566-1-.864a10.488,10.488,0,0,0-.914-.7,26.924,26.924,0,0,0-2.517-1.651q-.74-.411-1.476-.771l.56.481a11.231,11.231,0,0,0,3.261,2.281.422.422,0,0,1,.185.564.422.422,0,0,1-.564.185,20.232,20.232,0,0,1-2.917-2.148c-.294-.25-.592-.56-.868-.831-.441-.433-.888-.852-1.335-1.276a24.686,24.686,0,0,0-3.652-1.144c-.449,0-.92.024-1.359.07-.2.02-.427.054-.63.056l-.068,0c.529.513,1.073,1.017,1.607,1.528.413.4.86.777,1.295,1.156.64.556,1.3,1.123,1.971,1.637.972.741,1.945,1.558,2.957,2.245a.417.417,0,0,1,.085.582.419.419,0,0,1-.582.087c-.588-.433-1.168-.892-1.737-1.349-1.661-1.321-3.243-2.676-4.783-4.139-.56-.531-1.131-1.075-1.681-1.633a.07.07,0,0,1-.024.006c-.191.044-.4.068-.59.107s-.391.093-.584.137c.032.485.054.972.062,1.458.727.719,1.472,1.417,2.219,2.106.5.457,1.035.956,1.566,1.369.366.286.727.586,1.093.876.213.167.439.318.656.483.077.058.163.119.254.185.189.054.378.119.568.189a8.813,8.813,0,0,1,2.192,1.284c.157.117.3.274.453.4s.268.272.393.4a8.507,8.507,0,0,1,1.035,1.319,8.965,8.965,0,0,1,1.2,2.742A17.541,17.541,0,0,1,137.1,1.73a6.669,6.669,0,0,1,.028,1.343c-.034.246-.04.517-.083.761a11.469,11.469,0,0,1-.324,1.339c-.991,3.261-3.7,6.4-6.575,8.532,1.814,1.26,3.692,2.434,5.567,3.6a.406.406,0,1,1-.431.689c-1.943-1.208-3.922-2.474-5.776-3.829q-.163.112-.326.217a1.347,1.347,0,0,1-.181.165c-.542.429-1.075.87-1.651,1.252q-.513.341-1.027.648c2.2,1.566,4.411,3.1,6.728,4.483.473.284.946.568,1.425.838A32.979,32.979,0,0,0,141.089,16.618Zm-20.966,1.429c.4-.1.8-.219,1.192-.346-.02-.012-.036-.026-.054-.036-.04,0-.079,0-.115.008a8.733,8.733,0,0,1-3.326-.25c-.2.417-.411.829-.628,1.238A22.537,22.537,0,0,0,120.123,18.047Zm1.48-2.607c.425-.087.833-.163,1.252-.292.183-.054.368-.113.552-.173-.125-.091-.25-.179-.372-.272a.255.255,0,1,1,.3-.413c.219.159.437.318.658.475.087-.032.171-.066.26-.1a18.893,18.893,0,0,0,3.459-1.866c-.731-.572-1.452-1.152-2.172-1.754a.352.352,0,1,1,.451-.542c.751.654,1.528,1.276,2.323,1.874.634-.459,1.248-.95,1.842-1.468a15.912,15.912,0,0,0,1.373-1.335c.467-.527.88-1.031,1.315-1.586a12.321,12.321,0,0,0,.9-1.369c.066-.115.131-.23.191-.342a9.564,9.564,0,0,0,.453-5.1,7.7,7.7,0,0,0-.505-1.586c-.117-.264-.264-.507-.4-.761a2.578,2.578,0,0,0-.2-.33,11.067,11.067,0,0,0-.747-.974,14.6,14.6,0,0,0-1.367-1.25,12.9,12.9,0,0,0-2.633-1.516c-.141-.064-.29-.113-.431-.177a12.107,12.107,0,0,0-1.3-.509c-.145-.044-.288-.093-.433-.141-.24.042-.481.095-.709.145-.175.042-.348.089-.521.143a7.37,7.37,0,0,0,1.029.523.3.3,0,0,1,.153.393.3.3,0,0,1-.395.153,11.247,11.247,0,0,1-1.357-.759c-.292,1.993-.658,3.952-1.139,5.933-.131.544-.276,1.081-.427,1.619.264.2.531.395.8.586a.1.1,0,0,1,.034.133.1.1,0,0,1-.133.034c-.276-.119-.548-.242-.813-.366-.431,1.482-.914,2.951-1.371,4.427.292.191.588.378.892.56a.191.191,0,0,1-.183.334q-.432-.2-.854-.421a.256.256,0,0,0-.014.048c-.038.123-.074.246-.115.378-.072.342-.163.695-.256,1.041a48.406,48.406,0,0,1-2.267,6.6c.077.02.153.038.236.052A7.328,7.328,0,0,0,121.6,15.44Zm-8.931-5.267c-.37-.282-.749-.55-1.105-.852s-.755-.612-1.115-.936c-.294-.268-.586-.538-.882-.8-.926-.829-1.836-1.764-2.69-2.668-1.506-1.6-3-3.221-4.526-4.8-.642-.666-1.244-1.379-1.89-2.045-.676-.7-1.371-1.355-2.09-2.009a.251.251,0,0,1-.016-.352.251.251,0,0,1,.352-.018c.356.35.753.664,1.119,1,1.1,1.013,2.217,2.031,3.255,3.106a104.4,104.4,0,0,0,7.926,7.813,38.162,38.162,0,0,0,3.58,2.637c.542.356,1.156.721,1.723,1.035.326.179.678.417,1.017.564a.4.4,0,0,1-.328.721A15.983,15.983,0,0,1,112.672,10.174Zm4.173-3.137a16.263,16.263,0,0,1-1.973-1.125c-1.188-.725-2.313-1.522-3.427-2.357-3.553-2.666-6.875-5.691-10.225-8.611a.284.284,0,0,1-.028-.4.284.284,0,0,1,.4-.028c2.313,2,4.606,4,7.008,5.895,1.041.821,2.094,1.651,3.185,2.4,1.158.8,2.3,1.574,3.487,2.329.616.391,1.28.729,1.888,1.123a8.392,8.392,0,0,1,.707.54.278.278,0,0,1-.264.489C117.351,7.212,117.091,7.142,116.845,7.037ZM23.14,1.11c.012.1.028.2.042.3H23.2C23.178,1.307,23.158,1.209,23.14,1.11ZM134.769.333a7.249,7.249,0,0,0-.407-1.439c-.066-.157-.1-.342-.169-.5-.127-.32-.266-.614-.411-.924a4.56,4.56,0,0,0-.431-.719,7.493,7.493,0,0,0-.568-.739c-.087-.089-.167-.2-.256-.28a6.435,6.435,0,0,0-2.659-1.594,6.879,6.879,0,0,0-1.494-.29l-.32-.012a.287.287,0,0,1-.038.183A.212.212,0,0,1,128-5.96c.225.076.449.159.664.254.423.187.833.393,1.24.612a11.332,11.332,0,0,1,2.706,1.977,9.907,9.907,0,0,1,1.158,1.387,11.2,11.2,0,0,1,.7,1.284,4.129,4.129,0,0,1,.364,1.152C134.819.583,134.789.456,134.769.333Zm11.252-1.681c-.254-.733-.511-1.4-.819-2.108a15.26,15.26,0,0,0-.888-1.671,18.806,18.806,0,0,0-7.393-6.919,16.853,16.853,0,0,0-3.487-1.391c-.24-.058-.483-.129-.731-.189.159.133.318.268.477.4a24.244,24.244,0,0,1,3.116,1.542,28.332,28.332,0,0,1,2.633,1.739,26.538,26.538,0,0,1,2.39,2.007c.165.157.338.314.489.481.288.32.608.622.88.954.368.445.719.874,1.069,1.333a18.421,18.421,0,0,1,2.374,4.173C146.1-1.121,146.059-1.233,146.021-1.348ZM33.544-4.459c-.391-.389-.759-.807-1.146-1.206-.356-.366-.723-.725-1.081-1.093-.507-.525-1.061-1.035-1.588-1.544-1.911-1.84-3.873-3.61-5.82-5.412a.212.212,0,0,1-.014-.3.214.214,0,0,1,.3-.012c1.57,1.46,3.189,2.887,4.789,4.316C30.707-8.165,32.4-6.57,34.037-4.94a.344.344,0,0,1-.006.487A.348.348,0,0,1,33.544-4.459ZM126.05-7.2c-.372-.383-.733-.777-1.125-1.15-.032.37-.07.737-.115,1.093-.018.143-.036.284-.052.427A11.48,11.48,0,0,1,126.05-7.2Zm3.28-.137c-.838-.685-1.625-1.409-2.406-2.158-.29-.278-.6-.558-.878-.848-.318-.332-.65-.658-.982-.986,0,.854-.038,1.7-.1,2.527l.095.079c.5.435,1,.954,1.53,1.417a6.717,6.717,0,0,1,2.945.119A1.257,1.257,0,0,1,129.329-7.338Zm-7.187.058-.151-.139-.763.1-.012,0c.336.034.67.064,1,.1Q122.178-7.246,122.142-7.279Zm9.659-6.515c-.093-.012-.183-.026-.27-.038.121.038.24.081.362.123C131.862-13.738,131.832-13.766,131.8-13.794Zm-9.07-2.186c-.024-.173-.052-.35-.081-.523-.038-.213-.079-.431-.107-.646a.93.93,0,0,1,.185-.733c0-.032-.006-.066-.008-.1l-.04-.252-.042-.171a4.561,4.561,0,0,0-.457-1.063c-.1-.153-.187-.3-.282-.441-.523-.36-1.053-.7-1.59-1-.56-.308-1.119-.626-1.7-.888-.316-.141-.664-.26-.97-.407a.282.282,0,0,1-.171-.332,1.613,1.613,0,0,1-.306-.089.746.746,0,0,1-.457-.564h-5.854l.5.308c.572.364,1.133.749,1.705,1.111.417.266.821.574,1.232.852,1.661,1.119,3.28,2.327,4.908,3.495.811.582,1.631,1.156,2.442,1.735.344.248.7.483,1.047.721C122.7-15.3,122.714-15.634,122.732-15.98ZM31.877-16.9a9.811,9.811,0,0,1-1.719-1.313c-.6-.568-1.2-1.121-1.818-1.665a5.362,5.362,0,0,0-.7-.536c-.284-.163-.544-.346-.84-.5a10.7,10.7,0,0,0-1.119-.445.26.26,0,0,1-.159-.332.26.26,0,0,1,.332-.159c.346.129.67.248,1.013.393a9.14,9.14,0,0,1,2.432,1.7c.252.232.515.457.769.691a10.394,10.394,0,0,0,2.259,1.719,5.05,5.05,0,0,0,.731.33.317.317,0,0,1,.161.415.316.316,0,0,1-.415.163C32.493-16.6,32.189-16.723,31.877-16.9Zm-9.215-.674c.008,0,.016,0,.022.012a12.234,12.234,0,0,1,.276-1.572,7.265,7.265,0,0,0-.636,1.613A.864.864,0,0,1,22.662-17.577Zm-.429-1.7c.127-.31.262-.62.387-.932a.345.345,0,0,1,.04-.083c-.026-.014-.018-.03-.008-.044a.237.237,0,0,1,.05-.06c.107-.223.242-.455.346-.676a10.842,10.842,0,0,1,.64-1.127,5.138,5.138,0,0,0-1.951,1.915,4.918,4.918,0,0,0-.254.485.2.2,0,0,1,.185.2q.042,1.033.087,2.058A8.224,8.224,0,0,1,22.234-19.272Zm97.813-2.5-.385-.215-.415-.127c.2.095.4.2.594.29s.368.193.554.3C120.276-21.621,120.163-21.7,120.046-21.774Zm.429-1.572,0,0a.146.146,0,0,1-.042-.012ZM74.2-34.609a5.351,5.351,0,0,1-.578-.787,5.21,5.21,0,0,1-.473-.888,7.193,7.193,0,0,1-.3-.783,7.513,7.513,0,0,1,.141-4.332c.016-.054.032-.107.05-.159l-.074-.1c-.221-.292-.451-.594-.678-.88-1.2-1.514-2.486-2.959-3.6-4.542q-.139-.2-.272-.4l-.183.856c-.02.089-.091.409-.121.6l-.012.123-.016.932a13.36,13.36,0,0,0,.527,3.269c.638.773,1.355,1.516,2.041,2.231.395.411.781.858,1.152,1.29.191.223.358.473.55.691a.224.224,0,0,1-.042.314.224.224,0,0,1-.312-.042c-.521-.672-1.031-1.309-1.615-1.939-.481-.517-.986-1.051-1.474-1.607.056.161.115.318.177.473a18.819,18.819,0,0,0,1.363,1.945c.3.37.574.785.858,1.172s.608.715.92,1.059a14.355,14.355,0,0,0,1.055,1.045c.1-.014.211-.034.316-.052l.018.123-.217.038c.016.012.03.026.046.04.31.28.664.511.964.8a9.4,9.4,0,0,1,.751.868.23.23,0,0,1,.074.314.232.232,0,0,1-.316.074,5.2,5.2,0,0,1-1.013-.292,7.387,7.387,0,0,1-1.9-1.5.36.36,0,0,1-.163.008,3.408,3.408,0,0,1-.411-.316c-.334-.264-.646-.531-.96-.817a15.014,15.014,0,0,1-1.542-1.578A4.408,4.408,0,0,1,68.572-38a17.414,17.414,0,0,1-.811-1.735,18.557,18.557,0,0,1-1.055-3.654c-.044-.242-.076-.483-.1-.721-.008-.02-.018-.036-.024-.054a.182.182,0,0,1,0-.155c-.026-.284-.046-.568-.062-.864s.016-.582,0-.862a1.692,1.692,0,0,1,.044-.31c.044-.252.076-.507.127-.765.135-.648.227-1.27.393-1.9a2.582,2.582,0,0,1,.215-.445c.079-.151.159-.308.246-.455.306-.5.6-1.021.906-1.528.473-.8.976-1.574,1.474-2.353.457-.723.884-1.466,1.333-2.192a19.2,19.2,0,0,0,.942-1.7c.161-.34.344-.672.505-1.013a16.268,16.268,0,0,0,1.009-2.8,9.446,9.446,0,0,0,.338-2.168c0-.179.016-.368.006-.544-.01-.149-.03-.322-.026-.469a5.768,5.768,0,0,0-.119-.9,5.973,5.973,0,0,0-.292-1.137,9.811,9.811,0,0,0-.451-1.107c-.111-.211-.232-.419-.336-.632a.889.889,0,0,1,.372-1.2.888.888,0,0,1,1.2.372c.125.258.292.523.4.785.089.219.2.437.29.658s.189.513.278.8a.72.72,0,0,1,.044-.074.952.952,0,0,1,1.319-.248c.328.24.676.455,1,.7a17.8,17.8,0,0,1,2.885,2.575c.254.3.505.6.739.912.141.189.27.407.4.6a10.991,10.991,0,0,1,.636,1.2,7.113,7.113,0,0,1,.5,1.506,10.348,10.348,0,0,1,.219,1.687,6.677,6.677,0,0,1-.042,1.023c-.01.077-.02.151-.028.223.354.457.693.916,1.039,1.393a.2.2,0,0,1-.02.286.2.2,0,0,1-.286-.02c-.3-.27-.588-.548-.876-.827a16.289,16.289,0,0,1-2.166,5.148c-.35.594-.721,1.192-1.113,1.756-.624.9-1.238,1.812-1.866,2.714-.366.527-.733,1.057-1.083,1.6a25.225,25.225,0,0,0-2.027,3.481c-.173.4-.3.767-.449,1.174a5.453,5.453,0,0,0-.274,2.14,4.418,4.418,0,0,0,.125.747,5.67,5.67,0,0,0,.292.819,10.392,10.392,0,0,0,.884,1.377,7.734,7.734,0,0,0,1.784,1.766.4.4,0,0,1,.083.562.4.4,0,0,1-.562.085A20.141,20.141,0,0,1,74.2-34.609Zm6.877-1.735a4.733,4.733,0,0,1-1.021-1.172,3.328,3.328,0,0,1-.453-1.2,7.032,7.032,0,0,1,1.347-4.5,9.952,9.952,0,0,1,.938-1.28c.246-.274.475-.544.725-.811a7.083,7.083,0,0,1,.366-.825.421.421,0,0,1,.556-.2.523.523,0,0,1,.074.046c.26-.236.525-.467.793-.691a.6.6,0,0,1,.84.062.514.514,0,0,1,.018.674.031.031,0,0,1,.032,0,.616.616,0,0,1,.36.791c-.272.622-.572,1.258-.783,1.9-.052.155-.125.318-.167.475-.157.578-.36,1.152-.463,1.745-.091.54-.179,1.045-.234,1.59a12.509,12.509,0,0,0,.223,3.755.3.3,0,0,1-.244.352.3.3,0,0,1-.352-.242c-.083-.433-.155-.848-.217-1.284a17.7,17.7,0,0,1,.542-6.972c.115-.409.24-.811.366-1.212-.219.2-.433.4-.634.608-.183.189-.364.378-.546.568a13.311,13.311,0,0,0-.332,3.422,13.4,13.4,0,0,0,.536,3.877.287.287,0,0,1-.2.354.289.289,0,0,1-.354-.2,13.193,13.193,0,0,1-.439-1.8,22.444,22.444,0,0,1-.322-2.376,12.33,12.33,0,0,1,.044-2.049c-.932,1.194-1.858,2.772-1.57,4.23.02.109.02.227.044.332a3.409,3.409,0,0,0,.326.888,3.8,3.8,0,0,0,.723.918,5.856,5.856,0,0,0,1.558,1.035.2.2,0,0,1,.089.264.2.2,0,0,1-.264.087A8.091,8.091,0,0,1,81.076-36.344Zm-7.362-6.881a12.834,12.834,0,0,1,.765-1.474c-.1-.157-.2-.312-.3-.463-.433-.6-.882-1.186-1.365-1.749A28.211,28.211,0,0,1,69.9-50.654c-.173.278-.348.558-.519.842L68.643-48.5l-.079.356-.006.026c.093.139.183.278.272.407a38.046,38.046,0,0,0,2.458,3.167c.666.8,1.321,1.586,1.967,2.4C73.4-42.5,73.553-42.855,73.714-43.225Zm2.211-3.706c.217-.328.437-.652.658-.976-.159-.167-.312-.34-.463-.509-.23-.254-.457-.5-.678-.759-1.258-1.488-2.426-3.022-3.586-4.578-.55.864-1.1,1.727-1.641,2.6-.018.026-.032.05-.05.079a18.75,18.75,0,0,0,2.172,2.9c.348.4.682.815,1.035,1.21.191.211.37.453.55.676.276.344.586.735.848,1.121C75.145-45.776,75.548-46.364,75.924-46.932Zm3.282-4.944c-.312-.449-.674-.91-1.013-1.319-.586-.709-1.2-1.383-1.792-2.086-.614-.727-1.246-1.417-1.832-2.17-.123-.155-.25-.316-.381-.479-.268.564-.558,1.123-.858,1.681-.385.711-.8,1.413-1.224,2.1.966,1.276,1.955,2.506,3,3.731.473.554.988,1.1,1.508,1.613q.172.172.35.344C77.738-49.585,78.513-50.7,79.206-51.876Zm.61-1.091A13.147,13.147,0,0,0,81.161-56.5a5.885,5.885,0,0,0,.145-1.22c0-.008,0-.016,0-.026q-.371-.4-.739-.815c-.781-.874-1.594-1.721-2.374-2.6-.765-.862-1.486-1.762-2.237-2.635a.319.319,0,0,1,.034-.451.321.321,0,0,1,.451.034c.8.96,1.651,1.844,2.508,2.752.572.61,1.139,1.23,1.709,1.846.187.2.376.4.566.6a7.069,7.069,0,0,0-.266-1.053,9.558,9.558,0,0,0-2.814-3.873,9.426,9.426,0,0,0-1.037-.852c-.225-.149-.441-.332-.664-.485-.256-.177-.534-.34-.781-.525.01.081.02.159.03.234a10.568,10.568,0,0,1,.07,2.168,16.063,16.063,0,0,1-.312,2.027,16.758,16.758,0,0,1-1.039,2.967c.173.225.35.447.527.66.6.719,1.192,1.417,1.826,2.1.96,1.041,1.907,2.08,2.776,3.193C79.631-52.621,79.725-52.792,79.816-52.967Z" transform="translate(-0.648 69.764)"/></g></g></svg>