<svg xmlns="http://www.w3.org/2000/svg" width="88.961" height="144.968" viewBox="0 0 88.961 144.968"><defs><style>.a{fill-rule:evenodd;}</style></defs><g transform="translate(0 0)"><g transform="translate(0 0)"><path class="a" d="M62.345,71.2c-.109.006-.215.014-.322.018a39.167,39.167,0,0,1-11.8-1.007l-.05-.012c0,.016,0,.032,0,.048a.34.34,0,0,1-.334.34,8.123,8.123,0,0,1-2.084-.139c-.38-.087-.719-.193-1.091-.3a4.828,4.828,0,0,1-.531-.217A10.169,10.169,0,0,1,43.65,68.3c-.044-.036-.087-.072-.131-.113-.223-.07-.447-.143-.668-.221-1.373-.471-2.688-.976-4.03-1.532a5.926,5.926,0,0,1,1.234.391c.747.274,1.534.513,2.3.749.254.081.507.157.761.234-.312-.306-.614-.632-.9-.968a.215.215,0,0,1-.022-.018,10.7,10.7,0,0,1-4.51-4.2,7.051,7.051,0,0,1-.775-3.171c-.016-.042-.03-.087-.042-.131q-.169-.55-.306-1.105l-.058-.091c-.014.167-.028.334-.04.5a15.76,15.76,0,0,0-.024,1.717,8.8,8.8,0,0,0,1.013,3.992c.159.282.324.525.5.8a.161.161,0,0,1-.042.223.164.164,0,0,1-.223-.044A6.076,6.076,0,0,1,37,64.168a11.388,11.388,0,0,1-.888-5.951c-.01.054-.02.109-.028.159.008-.052.018-.109.028-.163a1.659,1.659,0,0,1,0-.389c0-.085.01-.171.018-.258-.219-.316-.471-.618-.674-.938a.145.145,0,1,1,.234-.173c.145.223.314.445.479.664.026-.272.06-.55.1-.823,0-.046-.006-.1-.006-.145a18.531,18.531,0,0,1,.048-2.388c.052-.6.173-1.174.26-1.768a.407.407,0,0,1,.4-.338c.054-.4.109-.8.153-1.2.036-.314.048-.632.081-.946a.332.332,0,0,1,.32-.3c.012-.077.024-.153.036-.232.131-.821.292-1.649.455-2.464q.217-1.069.453-2.144c-.022-.745-.03-1.5-.046-2.241-.042-1.848-.129-3.7-.225-5.548-.008-.129-.014-.26-.022-.389q-.127,2.328-.391,4.653c-.149,1.319-.322,2.629-.491,3.944l-.074-.008c.163-1.284.32-2.559.461-3.843a68.35,68.35,0,0,0,.362-6.839c-.012-.155-.026-.318-.038-.483-.211-2.337-.465-4.655-.829-6.974-.3-1.886-.66-3.757-1.047-5.627a4.189,4.189,0,0,1-.743-.856,6.1,6.1,0,0,1-.5-1.059,6.318,6.318,0,0,1-.481-2.2,4.86,4.86,0,0,1,.107-1.313,1.021,1.021,0,0,1,.234-.254c-.06-.2-.125-.4-.187-.6-.437-1.347-.91-2.68-1.365-4.022-.209-.614-.443-1.22-.66-1.83-.572-1.619-1.168-3.229-1.735-4.848-1.009-2.869-1.943-5.728-2.73-8.663-.161-.6-.274-1.24-.391-1.85-.153-.811-.3-1.623-.427-2.44-.276-1.78-.5-3.571-.646-5.371a14.915,14.915,0,0,1-.558-2.513q-.35-.39-.691-.805a3.545,3.545,0,0,1-.9-.058,1.062,1.062,0,0,0,.062.093,8.073,8.073,0,0,0,.978,1.1.386.386,0,0,1,0,.542.386.386,0,0,1-.542,0c-.181-.183-.393-.372-.562-.566-.153-.171-.3-.368-.449-.548a8.14,8.14,0,0,1-.719-1.119.085.085,0,0,1-.01-.014.054.054,0,0,1-.012-.01,2.9,2.9,0,0,1-.64-.554,1.479,1.479,0,0,1-.066-.717v-.328a12.042,12.042,0,0,1-.628-3.449,8.137,8.137,0,0,1-.63-3.318.075.075,0,0,1,.074-.072.075.075,0,0,1,.072.072,7.332,7.332,0,0,0,.473,2.794,13.562,13.562,0,0,1,.068-1.371,10.24,10.24,0,0,1,.324-1.794l.137-.372-.221-.143A4.471,4.471,0,0,1,21.5-28c-1.484-1.53-1.578-3.714-1.534-5.736q.015-.719.016-1.431l-.012-1.125-.906-.894a.769.769,0,0,1-.225-.477A6.41,6.41,0,0,1,15.432-41.7a11.584,11.584,0,0,1-.626-3.173,15.034,15.034,0,0,1,.153-3.4,5.031,5.031,0,0,1,.077-.624.117.117,0,0,1,.083-.143.058.058,0,0,1,.077.048,6.545,6.545,0,0,1,.538-1.957,6.611,6.611,0,0,1,.654-1.216,8.086,8.086,0,0,1,.664-.838c.121-.129.26-.25.389-.374a.721.721,0,0,1,.395-.191,4.094,4.094,0,0,1,.743-.769c.07-.054.141-.107.209-.157a7.941,7.941,0,0,1-.056-.878c-.048-2.051,1.212-3.735,2.525-5.188a17.965,17.965,0,0,1,1.512-1.389c.423-.364.856-.68,1.307-1l.246-.171a4.877,4.877,0,0,1,.489-.36c.036-.02.07-.042.109-.064,0-.087.008-.173.014-.26a7.812,7.812,0,0,1,.31-1.876,6.605,6.605,0,0,1,2.15-3.1.686.686,0,0,1,.167-.109c3.014-3,7.779-2.69,11.769-2.16l.505.072a3.466,3.466,0,0,1,.819-.493c1.727-.719,3.261.018,4.866.731.332.149.672.3,1.009.455l.32-.068c.536-.1,1.083-.2,1.637-.268.036-.01.07-.022.109-.034a17.231,17.231,0,0,1,4.912-.65c.389,0,.771.01,1.154.022a6.84,6.84,0,0,0-4.145-.9,4.246,4.246,0,0,0-.934.254,6.458,6.458,0,0,0-1.2.668c-.155.1-.3.246-.453.358a.517.517,0,0,1-.725-.083.515.515,0,0,1,.083-.725,7.459,7.459,0,0,1,1.923-1.2,7.008,7.008,0,0,1,1.46-.391A9.033,9.033,0,0,1,55.506-72.3c.368.165.723.36,1.079.546.437.227.872.447,1.313.664.447.034.9.072,1.335.129.372.05.743.1,1.115.135l.085-.054a10.81,10.81,0,0,1,2.756-1.286,9.261,9.261,0,0,1,2.215-.121c.328-.012.695.018,1.019-.02.223-.024.485-.036.711-.044l.3-.034.081-.083a5.663,5.663,0,0,1,.825-.63,3.693,3.693,0,0,1,1.2-.487,6.373,6.373,0,0,1,4.87,1.443c.6-.042,1.2-.085,1.794-.093.342,0,1.035-.123,1.329.072.27.179.556.336.823.521,0,0,.006.006.008.008a6.923,6.923,0,0,1,8.119,1.009,6.026,6.026,0,0,1,1.1,1.56,6.633,6.633,0,0,1,1.349.121,10.965,10.965,0,0,1,1.27.3,11.606,11.606,0,0,1,1.892.785c.014.01.03.018.04.026a4.35,4.35,0,0,1,.477.028,2.5,2.5,0,0,1,1.458.956,5.546,5.546,0,0,1,.59.755c.042.064.089.129.127.191.356.346.656.721.982,1.1.147.173.272.378.423.55a.8.8,0,0,1,.155.421,6.31,6.31,0,0,1,.984.807c.292.308.6.592.884.908a18.43,18.43,0,0,1,2.2,2.917,19.149,19.149,0,0,1,1.8,4.1,17.5,17.5,0,0,1,.562,2.192c.091.542.2,1.075.238,1.625a13.4,13.4,0,0,1,.058,1.729c-.018.3-.04.588-.068.888a4.346,4.346,0,0,1-.089.517l-.036.179.05.074a6.238,6.238,0,0,1,.658,1.641,6.977,6.977,0,0,1-2.949,7.072,7.621,7.621,0,0,1-.767.419.53.53,0,0,1-.064.137c-.012.018-.022.036-.034.054.066,1.007.1,1.973.1,2.994,0,1.441-.111,2.927-.252,4.363a26.656,26.656,0,0,1-.376,2.706c-.018.312-.046.622-.076.932-.044.441-.091.876-.143,1.325-.081.968-.169,1.939-.272,2.907a2.949,2.949,0,0,1,.8-.3.2.2,0,0,1,.27.093.2.2,0,0,1-.093.268,3.6,3.6,0,0,1-.888.529l-.161.081q-.2,1.833-.467,3.664c-.219,1.514-.5,3.02-.777,4.526-.038.193-.072.387-.109.578.294-.884.582-1.776.862-2.668.352-1.123.65-2.253.982-3.38.274-.926.489-1.894.715-2.835l.707-3.231.111-.57.544-3.07c.207-1.321.36-2.635.548-3.956-.161,1.355-.308,2.706-.525,4.057L100.7-26.6l-.068.38-.042.189-.334,1.745q-.58,2.627-1.307,5.222c-.451,1.609-.906,3.249-1.445,4.83-.1.284-.191.572-.282.854-.308,1.59-.65,3.177-1.021,4.743C95.478-5.6,94.735-2.588,93.884.415,92.791,4.265,91.567,8.04,90.27,11.826c-.453,1.313-.91,2.627-1.381,3.94-.091.389-.179.777-.262,1.164-.29,1.343-.56,2.678-.825,4.026-.288,1.468-.529,2.974-.739,4.453-.113.785-.258,1.667-.33,2.408a16.07,16.07,0,0,0-.137,2.362c.175,2.023.465,4.085.787,6.086.227,1.421.489,2.851.691,4.274.264,1.844.511,3.69.755,5.536.139,1.053.286,2.11.4,3.165.191,1.826.383,3.612.491,5.448.038.674.076,1.381.068,2.056a21.918,21.918,0,0,1-.346,4.371c-.089.409-.2.779-.322,1.178a7.064,7.064,0,0,1-.3.725.1.1,0,1,1-.175-.079,8.039,8.039,0,0,0,.4-1.053,14.533,14.533,0,0,0,.477-3.753c.01-.884,0-1.8-.068-2.678-.04-.544-.107-1.087-.151-1.631-.028-.326-.06-.678-.111-1-.1-.682-.193-1.391-.282-2.076-.155-1.22-.4-2.45-.614-3.66-.32-1.814-.687-3.622-1.045-5.432.107.982.217,1.965.326,2.945.157,1.419.258,2.837.35,4.262.032.521.038,1.051.064,1.576.028.544.028,1.174.008,1.717-.014.419-.046.92-.04,1.3a9.613,9.613,0,0,0,.048,1.445c.06.423.107.842.187,1.264.189.982.419,1.973.586,2.959.091.529.149,1.031.205,1.564a5.163,5.163,0,0,1-.1,1.2,6.283,6.283,0,0,1-1.393,3.169.205.205,0,0,1-.324-.252c.074-.113.169-.217.248-.332a3.854,3.854,0,0,0,.461-.968,5.3,5.3,0,0,0,.066-2.494c-.044-.238-.056-.5-.081-.739,0-.03-.008-.062-.012-.095a9.33,9.33,0,0,1-.179,1.117,10.15,10.15,0,0,1-1.87,3.9c.221-.135.441-.268.664-.4l.054.095c-.308.185-.616.381-.924.566a11.892,11.892,0,0,1-2.792,2.5c1.24-.376,2.47-.741,3.7-1.176.37-.131.761-.254,1.121-.4a3.044,3.044,0,0,1-.817.393c-.67.282-1.355.542-2.039.787-.922.332-1.844.63-2.788.876a.348.348,0,0,1-.077.048,14.035,14.035,0,0,1-1.915.838c-.266.093-.536.207-.805.282s-.566.165-.846.254-.584.143-.868.225c-.427.123-.876.187-1.309.294a20.21,20.21,0,0,1-2,.346q-.426.193-.856.38c.048-.151.185-.221.31-.3-.558.087-1.148.151-1.705.191-1.246.093-2.454.2-3.706.242C66.266,71.3,64.289,71.3,62.345,71.2ZM69.781,69.2A38.884,38.884,0,0,0,76.488,67c.648-.29,1.268-.6,1.9-.92a20.187,20.187,0,0,0,2.559-1.512c.485-.346,1.007-.693,1.458-1.079.33-.28.648-.574.974-.854a.465.465,0,0,1,.624.691,23.354,23.354,0,0,1-3.439,2.6c-.59.362-1.174.668-1.782,1-.28.153-.574.3-.866.433-.342.153-.68.326-1.025.477-.668.29-1.367.574-2.053.817-.789.28-1.572.55-2.374.793-.4.121-.805.234-1.208.338q.843-.082,1.689-.2a35.755,35.755,0,0,0,3.64-.66c.844-.523,1.687-1.043,2.5-1.6.785-.534,1.586-1.033,2.343-1.609A16.846,16.846,0,0,0,84.794,62.5a.28.28,0,0,1-.127-.318c.143-.7.366-1.4.491-2.1s.258-1.4.34-2.112c.074-.64.131-1.295.163-1.949-.04-.093-.085-.187-.127-.284a.751.751,0,0,1,.167-.862c0-.074,0-.149,0-.223a94.333,94.333,0,0,0-.668-9.965c-.163-1.653-.34-3.288-.407-4.946a.3.3,0,0,1,.6-.028c.052,1.832.217,3.672.4,5.492.113,1.139.258,2.277.36,3.416.131,1.482.28,2.933.326,4.423.01.4.03.793.022,1.194,0,.151,0,.3,0,.455a.743.743,0,0,1,.463.28,6.564,6.564,0,0,1-.087-.84c-.016-.678-.032-1.359-.046-2.037-.024-1.256-.167-2.551-.286-3.8-.274-2.827-.654-5.653-.97-8.478-.191-1.721-.338-3.429-.455-5.154-.072-1.083-.113-2.209-.095-3.294.01-.57.006-1.135.044-1.705.091-1.357.254-2.643.443-3.994,0-.036.01-.077.012-.087.038-.421.1-.8.147-1.2-.042.093-.087.189-.129.284q-.26,1.513-.459,3.036a65.822,65.822,0,0,0-.374,13.575l-.095,0c-.141-1.8-.179-3.6-.181-5.408,0-.654.03-1.311.036-1.965.01-1.113.1-2.249.171-3.362.111-1.671.284-3.35.511-5.025-.044.093-.085.183-.125.272a.157.157,0,0,1-.2.091.159.159,0,0,1-.091-.2c.238-.751.479-1.506.731-2.253.385-2.364.876-4.711,1.462-7.01.685-2.706,1.474-5.383,2.315-8.043.167-.6.338-1.19.507-1.784.326-1.135.644-2.273.962-3.4-.6,1.3-1.21,2.611-1.826,3.918-.9,1.9-1.844,3.787-2.79,5.659-1.164,2.3-2.331,4.6-3.537,6.875q-.915,1.727-1.822,3.461c-.121.771-.238,1.538-.322,2.305-.1.87-.205,1.741-.3,2.615.217-.024.437-.044.654-.068-.044.052-.085.125-.147.149a5.073,5.073,0,0,1-.538.2c-.079.743-.143,1.488-.177,2.229-.04.807-.109,1.615-.141,2.424-.008.209-.014.417-.022.626.219.29.437.578.654.868.372.5.733,1.011,1.077,1.528.01.016.022.034.034.05l.364-.016a.11.11,0,0,1,.129.081.111.111,0,0,1-.081.129c-.07.032-.143.066-.215.1.058.087.115.173.165.26.091.157.2.306.294.461.173.288.358.588.538.894v-.008a.873.873,0,0,1,.127.225,11.222,11.222,0,0,1,.652,1.274c.089.211.2.429.286.638.173.449.312.884.459,1.343a.1.1,0,0,1-.064.119.1.1,0,0,1-.121-.064c-.135-.433-.266-.85-.437-1.272s-.36-.827-.57-1.242c.042.225.072.439.1.59q.42,2.2.807,4.411a89.216,89.216,0,0,1,1.343,10.819c.054,1.015.085,2.017.107,3.032.01.451,0,.9,0,1.353h-.087a65.746,65.746,0,0,0-.656-9.724c-.3-2.273-.652-4.53-1.067-6.783-.254-1.377-.523-2.752-.779-4.129-.385-.721-.815-1.433-1.266-2.124-.211.093-.429.181-.64.252a9.928,9.928,0,0,1-1.2.308c0,.282.012.566.022.846h-.125c-.01-.272-.018-.546-.022-.819-.173.032-.346.066-.515.1,0,1.47-.012,2.939,0,4.407q.009,1.317.052,2.627c.356.465.711.936,1.063,1.407A29.551,29.551,0,0,1,79.751,42a9.922,9.922,0,0,1,.36,1.548c.2.926.36,1.85.507,2.78.383.505.765,1.013,1.156,1.512l-.083.064-1.027-1.28c.044.292.089.586.131.88.093.648.2,1.3.28,1.953a34.414,34.414,0,0,1,.215,4.073l0,.006c.431.534.835,1.087,1.278,1.615-.417-.481-.854-.944-1.278-1.415a16.836,16.836,0,0,1-.793,5.043,7.767,7.767,0,0,1-.387.991c-.081.163-.149.334-.23.5-.05.1-.1.2-.159.3a.208.208,0,0,1,.087-.006.184.184,0,0,1,.147.213,2.975,2.975,0,0,1-.183.618,5.63,5.63,0,0,1-2.72,2.082,17.65,17.65,0,0,1-2.587.9c-.652.2-1.347.37-2.045.513.028.012.056.024.085.034a.687.687,0,0,1-.139-.022c-.586.117-1.174.217-1.733.3-1.011.155-1.991.276-3.012.383-.505.052-1.017.074-1.526.117-.785.064-1.641.095-2.426.093-1.152,0-2.291.014-3.441-.058-.286-.018-.572-.034-.862-.05q1.821.873,3.646,1.713a6.8,6.8,0,0,1-1.878-.757q-1.033-.483-2.06-.976c-.145-.012-.29-.024-.433-.038-.56-.05-1.113-.119-1.669-.185.1.2.2.393.288.586.032.066.139.248.123.316-.258-.308-.511-.626-.761-.946-.089-.012-.177-.022-.266-.032a26.06,26.06,0,0,1-2.889-.54q-.649-.154-1.3-.336c.2.358.4.721.6,1.083.135.165.272.328.413.5.346.193.7.391,1.055.58A32.753,32.753,0,0,0,57.2,68.056c.437.181.878.332,1.313.505a1.855,1.855,0,0,1-.443-.133c-.419-.145-.821-.3-1.228-.477-.805-.342-1.6-.7-2.382-1.089-.372-.183-.739-.381-1.1-.582.9,1.061,1.81,2.114,2.726,3.155l.932.117c.86.113,1.727.163,2.591.242,1.864.171,3.759.23,5.635.24A43.426,43.426,0,0,0,69.781,69.2Zm-23.716-.3c-.32-.081-.638-.163-.958-.25a8.183,8.183,0,0,0,3.163,1.19,7.9,7.9,0,0,0,.838.079A29.8,29.8,0,0,1,46.066,68.9Zm7.095-2.728c-.032-.018-.066-.034-.1-.054.143.258.286.513.433.769l-.038.02c-.157-.276-.312-.552-.467-.831-.165-.089-.33-.181-.493-.274-1.969-1.1-3.879-2.4-5.73-3.684a.525.525,0,0,1-.054-.038,7.191,7.191,0,0,1-.878-.608c-.7-.487-1.405-.976-2.1-1.476-.129-.091-.258-.183-.389-.274a3.764,3.764,0,0,0,.181.4.132.132,0,1,1-.24.111,3.711,3.711,0,0,1-.316-.781c-.892-.636-1.794-1.27-2.706-1.872q-.565-.368-1.131-.731a.332.332,0,0,1-.109.048.372.372,0,0,1-.451-.262c-.018-.058-.032-.115-.048-.173-.107-.066-.213-.133-.32-.2q-.012.1-.024.187a10.371,10.371,0,0,0-.1,2.424,3.116,3.116,0,0,0,.276,1.359.589.589,0,0,1,.036.3c.28.457.56.918.848,1.369.079.127.157.252.238.378a5.956,5.956,0,0,0,1.546.964.319.319,0,0,1-.264.582c-.133-.058-.264-.119-.389-.181.24.35.487.7.741,1.047.328.23.658.445.995.666a21.226,21.226,0,0,0,2.668,1.371c.521.25,1.1.467,1.637.67a18.712,18.712,0,0,0,2.613.807c.272.056.538.129.807.191.606.145,1.232.258,1.844.378,1.437.28,2.877.463,4.322.644C55.043,68.348,54.094,67.265,53.16,66.169Zm26.224,1.9.046-.014h0Zm.048-.014.378-.123,1.9-.924a9.258,9.258,0,0,0,1.393-1,9.155,9.155,0,0,0,3.014-4.465,10.792,10.792,0,0,1-.749,1.27A17.85,17.85,0,0,1,80.9,67.14,12.765,12.765,0,0,1,79.433,68.058ZM57.281,66.169l-.407-.739-.228-.03Zm-4.459-.4q-.619-.719-1.224-1.448a20.982,20.982,0,0,1-3.376-1.335c.266.177.521.346.779.513,1.29.842,2.569,1.643,3.892,2.4C52.868,65.859,52.846,65.817,52.822,65.771ZM38.987,65a2.474,2.474,0,0,1-.213-.578c.209.491.439.978.672,1.47C39.289,65.6,39.128,65.3,38.987,65Zm26.5.376c-.24-.091-.469-.213-.7-.318-.513-.236-1.027-.485-1.538-.727-1.508-.709-3.02-1.409-4.52-2.136-1.625-.787-3.247-1.59-4.848-2.43.67,1.063,1.313,2.144,1.88,3.267.2.395.4.787.6,1.18.056.026.115.056.173.083q.963.486,1.941.96c.425.048.856.064,1.284.093,1.146.074,2.273.1,3.42.093C63.957,65.437,64.724,65.417,65.491,65.376ZM52.1,64.47c-.107-.028-.215-.06-.324-.095.276.338.552.674.833,1.007Q52.352,64.926,52.1,64.47Zm16.186.68c1.137-.127,2.277-.28,3.406-.489-.29-.1-.582-.215-.862-.334-1.307-.54-2.555-1.1-3.821-1.733-1.369-.693-2.716-1.391-4.061-2.126-.356-.193-.709-.389-1.061-.584.169.294.336.586.5.88.306.544.592,1.1.906,1.637l-.058.032c-.282-.485-.548-.98-.825-1.466-.225-.393-.457-.787-.695-1.178q-1.078-.607-2.148-1.228c.012.02.024.042.038.062.449.759.876,1.53,1.292,2.305l.332.62.075.121c.294.519.558,1.061.842,1.586l-.916-1.707L59.6,58.825c-.085-.131-.169-.262-.254-.4-1.437-.838-2.869-1.691-4.3-2.543.1.135.2.27.3.4.147.207.286.431.427.646a30.172,30.172,0,0,1,1.848,3.1,12.577,12.577,0,0,1,.6,1.25l-.727-.58c-.221-.177-.451-.342-.66-.536l1.375,1.105-.473-.86c-.29-.519-.614-1.041-.932-1.542-.67-1.059-1.359-2.1-2.037-3.161q-.414-.242-.823-.489L54,55.135c.211.127.423.254.634.378-.159-.252-.318-.5-.477-.755.225.3.467.594.7.888,1.441.86,2.887,1.719,4.341,2.561-.487-.755-1-1.508-1.5-2.245-.479-.689-.948-1.389-1.407-2.094q-.794-.453-1.588-.914l.03-.058c.491.286.984.572,1.48.852-.433-.666-.86-1.341-1.276-2.015.378.415.707.9,1.047,1.345q.344.456.678.926,1,.562,2,1.107c-.272-.4-.544-.793-.819-1.188-.387-.55-.8-1.1-1.164-1.657-.536-.813-1.015-1.663-1.484-2.517l.018-.1.1.018c.592.733,1.18,1.474,1.721,2.247.751,1.071,1.4,2.247,2.1,3.35.03.05.06.1.093.149q1.422.767,2.863,1.5c1.371.7,2.762,1.375,4.153,2.043-1.115-1.377-2.239-2.746-3.348-4.127-.556-.689-1.123-1.369-1.685-2.056q-2.993-1.673-5.921-3.461l.05-.091c1.327.817,2.682,1.594,4.032,2.37q.809.465,1.629.924c-.183-.223-.36-.447-.538-.672-.96-1.208-1.884-2.422-2.821-3.648-.141-.181-.28-.366-.423-.552-.558-.344-1.117-.689-1.673-1.037l-.028-.113.113-.028q.661.414,1.319.817c-.2-.268-.4-.542-.586-.817-.264-.383-.481-.781-.709-1.184.27.3.546.586.8.9.387.473.749.986,1.117,1.492l.538.334c.5.314,1.023.6,1.528.914.272.169.562.324.844.485.948.544,1.9,1.061,2.863,1.59.087.048.173.1.264.145-.147-.173-.294-.348-.439-.523-1.222-1.46-2.418-2.976-3.567-4.494-.558-.733-1.1-1.476-1.627-2.227-.773-.465-1.548-.936-2.3-1.421l.042-.07c.7.453,1.427.9,2.152,1.337-.807-1.15-1.592-2.317-2.366-3.493a.142.142,0,0,1,.04-.2.14.14,0,0,1,.2.04q1.344,2.038,2.756,4.024c.358.215.717.429,1.075.636,1.909,1.125,3.807,2.215,5.738,3.243-1.446-1.844-2.827-3.745-4.109-5.708a.31.31,0,0,1-.185-.187.3.3,0,0,1-.02-.125q-.371-.568-.725-1.146c-1.562-.864-3.11-1.747-4.661-2.645l-.028-.1.1-.026c1.458.85,2.929,1.687,4.415,2.5-.691-1.131-1.349-2.281-1.963-3.457-.558-1.061-1.041-2.132-1.524-3.229-.207-.473-.427-.982-.6-1.468-.074-.2-.155-.407-.234-.608-.171-.091-.342-.179-.511-.27l.036-.074c.143.077.286.151.431.225-.034-.089-.068-.181-.1-.274-.155-.439-.3-.888-.463-1.325.085.238.2.473.3.7.139.332.284.656.431.98,1.727.882,3.5,1.671,5.293,2.418.318-.111.632-.221.948-.336-.159-.3-.314-.61-.469-.916-.2-.387-.4-.769-.582-1.164-.35-.755-.717-1.5-1.065-2.255-1.725-.872-3.435-1.78-5.071-2.682.1-.01.149.042.171.135.028.129-.079.314.032.481-.077-.189-.262-.213-.362-.324s-.056-.246,0-.374l-.024-.016a.081.081,0,0,1-.034-.111.083.083,0,0,1,.113-.034c1.647.924,3.33,1.788,5.033,2.607-.111-.246-.219-.493-.322-.743-.765-1.812-1.443-3.626-2.043-5.5Q55.753,22.1,54,21.228a.111.111,0,1,1,.1-.2c1.069.546,2.146,1.073,3.231,1.592-.221-.352-.443-.7-.664-1.049-.59-.912-1.2-1.824-1.776-2.744-.37-.594-.727-1.194-1.075-1.8l-.58-.318.044-.079c.151.089.3.173.457.26-.248-.437-.491-.874-.729-1.317a6.742,6.742,0,0,1,.787,1.043c.119.163.234.328.346.5,1.572.864,3.183,1.679,4.8,2.478q-.643-1.027-1.29-2.049C56.893,16.354,56.1,15.18,55.322,14q-1.528-.773-3.044-1.578l.042-.085q1.431.764,2.891,1.5c-.489-.737-.972-1.48-1.439-2.229q-.815-1.3-1.609-2.615c-.316-.177-.628-.356-.942-.534l.046-.083c.266.151.529.3.8.449Q51.213,7.4,50.4,5.966a.089.089,0,0,1,.03-.123.09.09,0,0,1,.123.028c.717,1.113,1.445,2.215,2.172,3.32,1.687.932,3.38,1.822,5.1,2.682-.141-.213-.282-.425-.423-.64-1.317-1.977-2.617-3.968-3.865-5.987q-2.168-1.3-4.308-2.645l-.024-.107.107-.026C50.644,3.31,52,4.142,53.36,4.955c-1.55-2.517-3.028-5.079-4.377-7.709Q48-3.427,47.016-4.1l.046-.07c.608.421,1.222.835,1.836,1.252-.068-.131-.133-.262-.2-.391-.98-1.945-1.836-3.9-2.643-5.911-.143-.1-.288-.2-.431-.3a.089.089,0,0,1-.024-.121.09.09,0,0,1,.123-.024c.07.05.143.1.215.151-.123-.3-.242-.608-.358-.916.046.042.2.165.232.2.05.07.161.4.209.505.054.125.107.252.161.378q3.479,2.413,7.034,4.685c-.445-.926-.876-1.858-1.282-2.8q-.852-1.957-1.592-3.946c-1.681-1.1-3.364-2.215-4.995-3.386l-.022-.115.115-.022c1.564,1.121,3.171,2.178,4.789,3.217-.27-.733-.529-1.47-.779-2.217-.2-.59-.381-1.186-.554-1.782q-1.848-1.329-3.68-2.694a.167.167,0,0,1-.036-.234.167.167,0,0,1,.234-.036q1.655,1.226,3.328,2.426c-.175-.616-.346-1.234-.519-1.856a.227.227,0,0,1,.157-.274.226.226,0,0,1,.276.157c.193.789.449,1.627.711,2.42q2.283,1.628,4.606,3.205c-.674-1.907-1.254-3.825-1.788-5.8a.176.176,0,0,1,.123-.217.178.178,0,0,1,.219.123c.246.98.564,1.983.878,2.947.364,1.121.745,2.235,1.152,3.34,2,1.339,4.026,2.623,6.064,3.9-.159-.415-.316-.835-.473-1.256-.167-.447-.3-.912-.449-1.361a21.19,21.19,0,0,1-.763-2.843C56.629-15.4,54.38-17.1,52.17-18.851c-1.488-.173-3-.383-4.459-.638-.8-.139-1.623-.256-2.418-.429l.012-.066c1.24.272,2.559.453,3.819.634.956.141,1.925.268,2.893.374-.064-.05-.129-.1-.193-.153-.491-.066-.982-.133-1.47-.2-.693-.095-1.339-.217-2.023-.358-.35-.072-.723-.111-1.065-.2-.668-.171-1.311-.362-1.989-.5a.106.106,0,0,1-.083-.125.1.1,0,0,1,.123-.083c.676.139,1.347.193,2.023.3.562.089,1.113.179,1.681.25.668.085,1.337.185,2.005.278q-1.145-.927-2.279-1.87-1.715-.145-3.433-.286l0-.095c1.057.072,2.122.135,3.185.177-.61-.509-1.22-1.021-1.824-1.54a.126.126,0,0,1-.014-.173.124.124,0,0,1,.175-.014q1.024.879,2.068,1.741c.05,0,.1,0,.153,0,1.117.036,2.253.046,3.368.125.976.068,1.993.121,2.965.24,1.053.127,2.076.288,3.123.455-.223.145-.723.048-.991.032-.733-.042-1.47-.093-2.2-.149-1.105-.083-2.227-.139-3.33-.236q-1.407-.124-2.81-.244,1.166.96,2.349,1.9c.191.026.385.048.576.068,1.973.219,3.974.34,5.967.4q-.827-.646-1.639-1.3a.188.188,0,0,1-.03-.264.188.188,0,0,1,.262-.032c.67.54,1.357,1.081,2.049,1.613.592.014,1.184.026,1.776.032,1.967.026,3.962-.046,5.943-.187-.056-.34-.1-.676-.149-1.017.173.113.179.173.236.358.06.211.129.425.2.638q1.217-.091,2.422-.213c1.939-.2,3.851-.431,5.756-.715-.217-.079-.433-.171-.594-.229l-.238-.085c-2.015.085-4.032.115-6.042.068a.116.116,0,0,1-.115-.117.116.116,0,0,1,.115-.115c.954.046,1.953.02,2.909.012.856-.006,1.711-.028,2.567-.056-.733-.276-1.466-.56-2.2-.84a97.357,97.357,0,0,1-11.413-5.112l.044-.087a106.878,106.878,0,0,0,11.544,5.188c.739.292,1.482.566,2.229.842q1.259-.048,2.519-.121a140.64,140.64,0,0,1-14.988-8.258.146.146,0,0,1-.05-.2.148.148,0,0,1,.2-.052,136.371,136.371,0,0,0,15.552,8.47c1.065-.064,2.13-.139,3.187-.217.485-.1.96-.2,1.437-.3a6.077,6.077,0,0,1-.737.244c.205-.016.413-.03.624-.048a.093.093,0,0,1,.1.087.1.1,0,0,1-.087.1c-.56.052-1.119.1-1.679.149-.574.157-1.148.308-1.727.447l-.04.01c1.021.435,2.049.85,3.09,1.232a.168.168,0,0,1,.1.213.169.169,0,0,1-.213.1q-1.785-.661-3.511-1.413c-1.711.411-3.447.791-5.186,1.045-.684.1-1.369.205-2.053.3-.57.074-1.146.121-1.715.189-.527.064-1.069.1-1.6.135.048.177.093.354.141.531.636-.006,1.268-.016,1.9-.03-.161-.109-.32-.217-.475-.33a.18.18,0,0,1-.046-.248.18.18,0,0,1,.248-.046c.29.209.59.409.888.608.389-.01.779-.022,1.168-.036.854-.03,1.707-.064,2.561-.109-.016-.1-.03-.2-.042-.3a.084.084,0,0,1,.068-.1.083.083,0,0,1,.095.068c.022.107.046.213.07.318.258-.014.517-.026.775-.044.755-.048,1.522-.064,2.273-.133.693-.064,1.387-.1,2.08-.157.783-.068,1.5-.131,2.291-.147a.205.205,0,0,1,.217.183.2.2,0,0,1-.183.217,32.691,32.691,0,0,1-4.135.439c-.878.056-1.758.111-2.635.153-.189.01-.376.016-.568.022.04.181.079.36.119.538,1.951.038,3.908-.03,5.85-.155-.246-.177-.489-.356-.727-.542a.148.148,0,0,1-.032-.205.15.15,0,0,1,.205-.034c.336.256.682.5,1.027.751.183-.012.366-.026.552-.04a.118.118,0,0,1,.121.111.117.117,0,0,1-.111.121c-.089.008-.179.014-.268.02.079.058.159.119.24.177a.156.156,0,0,1,.03.215.158.158,0,0,1-.215.032c-.175-.133-.35-.262-.529-.391-2.023.131-4.057.211-6.088.175.155.7.316,1.4.5,2.1.858-.217,1.715-.433,2.575-.634.811-.185,1.617-.342,2.43-.489-.046-.3-.085-.6-.119-.9l.113.072c.03.27.07.538.113.805L80.2-16.3a.172.172,0,0,1,.2.131.174.174,0,0,1-.131.2c-.272.077-.54.153-.811.225a12.964,12.964,0,0,0,.316,1.29l-.121.032a10.251,10.251,0,0,1-.306-1.292c-1.552.421-3.125.8-4.687,1.16l.548.409c.753.564,1.522,1.107,2.271,1.669a1.031,1.031,0,0,0,.109.083c.254-.066.505-.127.751-.173.266-.05.542-.079.809-.117a10.144,10.144,0,0,1-1.286.479,2.9,2.9,0,0,1,.872.793l.016.095-.095.018a3.655,3.655,0,0,1-1.331-.747c-.354.1-.711.2-1.067.3l-.854.248c.366.974.769,1.937,1.194,2.889.395-.107.787-.209,1.182-.316a.1.1,0,0,1,.117.06.093.093,0,0,1-.058.117c-.364.153-.733.3-1.1.445.141.316.288.63.435.942.034.022.07.044.107.064a.267.267,0,0,1,.115.358.266.266,0,0,1-.356.113,17.218,17.218,0,0,1-1.864-.892c-1.17.417-2.353.809-3.537,1.19l.024.052c.807.453,1.617.9,2.426,1.347.842-.248,1.691-.481,2.553-.695a.1.1,0,0,1,.121.064.1.1,0,0,1-.062.121c-.7.286-1.4.548-2.1.793.493.274.982.55,1.474.829a.26.26,0,0,1,.111.348.261.261,0,0,1-.35.111q-1.039-.48-2.062-1-.483.163-.968.32C73.454-3,74.13-1.775,74.833-.545A.11.11,0,0,1,74.79-.4a.11.11,0,0,1-.149-.042Q73.581-2.3,72.574-4.165c-.37.119-.741.24-1.113.356q-1.042.335-2.082.656l.3.163c.737.4,1.5.8,2.215,1.236.9.538,1.79,1.109,2.694,1.635l.018-.006a.06.06,0,0,1-.016.008.155.155,0,0,0,.032.014.158.158,0,0,1,.064.211.157.157,0,0,1-.209.064l-.26-.119Q73.3.484,72.37.876c.527.31,1.051.624,1.578.934a4.941,4.941,0,0,1-1.4-.489c-.207-.087-.413-.177-.616-.27-.147.062-.3.119-.445.175-.465.179-.94.346-1.421.505.578.982,1.178,1.955,1.786,2.913a3.177,3.177,0,0,1,.519-.139,4.519,4.519,0,0,1,.757-.024,3.054,3.054,0,0,1-1.007.588c.229.358.463.715.7,1.071a.175.175,0,0,1-.05.24.177.177,0,0,1-.24-.052q-.368-.571-.735-1.146c-.143.046-.29.095-.447.149l-.538.187A12.435,12.435,0,0,1,72.62,6.64a.125.125,0,0,1-.119.219,13.46,13.46,0,0,1-2.376-1.113c-.209.068-.421.137-.63.2l-1.113.358c.711,1.2,1.441,2.382,2.18,3.559.26.131.517.258.775.385.157-.018.316-.034.475-.048a.138.138,0,0,1,.052.272c-.016.006-.03.008-.042.014a.269.269,0,0,0,.048.022.221.221,0,0,1-.193.4c-.165-.077-.33-.155-.493-.236l-.1.024c.183.29.366.578.552.868l-.042.022c-.189-.292-.374-.584-.562-.878-.455.107-.912.191-1.373.284-1.021.205-2.043.419-3.06.632l-.135.028c.068.119.139.236.209.354,1.061.489,2.126.974,3.183,1.474.387.183.769.383,1.154.574.076-.012.153-.018.234-.026-.05.024-.1.048-.145.072.052.022.1.048.153.072a.117.117,0,1,1-.093.215c-.131-.046-.258-.1-.385-.145-.425.171-.838.274-1.3.415-.348.1-.7.2-1.051.3q.667,1.126,1.349,2.249c.159.064.316.127.469.2l.612-.127c-.149.079-.3.149-.445.213a2.38,2.38,0,0,1,.4.272,2.644,2.644,0,0,1-.709-.145l-.062.024q.359.595.723,1.184l-.111.066c-.248-.4-.489-.8-.731-1.2-.042.014-.081.03-.121.044-.691.252-1.363.471-2.068.68-.244.072-.485.145-.727.215.191.31.383.62.578.93.995.443,1.993.884,3,1.315a.094.094,0,1,1-.074.173c-.922-.395-1.838-.805-2.752-1.214.117.189.236.38.354.57a.1.1,0,0,1-.03.131.1.1,0,0,1-.131-.032c-.171-.27-.336-.538-.5-.807l-.383-.171-1.24-.55q-.528.145-1.053.288a5.745,5.745,0,0,1,.3.862c.282.846.562,1.709.89,2.537.04.107.081.211.121.316.056.024.111.046.165.072q.6-.109,1.2-.223a.15.15,0,0,1,.173.121.153.153,0,0,1-.123.173c-.256.048-.507.1-.763.143,1.226.538,2.458,1.059,3.692,1.552a.1.1,0,1,1-.074.181c-1.319-.529-2.637-1.089-3.946-1.673l-.173.032c.493,1.238.984,2.464,1.514,3.692.074.177.153.354.232.525.8.393,1.59.789,2.39,1.182q-1.135-.459-2.271-.922c.529,1.133,1.131,2.257,1.752,3.342.141-.042.284-.081.427-.123a1.111,1.111,0,0,1-.354.25c.119.209.24.417.36.62l-.091.052c-.125-.209-.248-.419-.368-.626-.125.052-.256.1-.376.155-.554.256-1.152.479-1.721.709q-.284.115-.574.223,1.525.637,3.052,1.26a.177.177,0,1,1-.129.33q-1.73-.664-3.433-1.4c-.25.093-.5.183-.747.274q1.229,2.066,2.543,4.083.83.314,1.659.634a3.038,3.038,0,0,1-1.238-.266c-.074-.022-.151-.044-.225-.068q.574.87,1.158,1.731l.284-.052a.108.108,0,0,1,.131.072.109.109,0,0,1-.072.133c-.062.026-.121.054-.183.081.054.081.109.161.165.24-.056-.079-.113-.159-.171-.238-.465.207-.932.407-1.411.584-.753.28-1.526.507-2.3.739q.634.981,1.288,1.953c.592.89,1.226,1.762,1.874,2.621.368.159.735.314,1.105.467a.123.123,0,0,1,.064.159.111.111,0,0,1-.066.064H70.4c-.238-.1-.477-.205-.719-.306q.459.6.92,1.194l-.07.054c-.344-.435-.682-.876-1.019-1.319-.364-.153-.731-.306-1.089-.469-1.224-.554-2.448-1.125-3.644-1.739q-1.277-.655-2.539-1.335c-.217.1-.427.221-.648.314.815,1.276,1.665,2.533,2.549,3.749.558.769,1.113,1.542,1.687,2.3,1.542.809,3.1,1.584,4.715,2.311-1.26-.554-2.51-1.127-3.745-1.737-.288-.141-.576-.286-.862-.431.2.256.4.513.6.765.463.578.92,1.166,1.387,1.739.991,1.218,2.011,2.4,3.038,3.586.056.068.115.133.173.2,1.009.423,2.019.817,3.044,1.218.5.2,1.023.362,1.53.548.566.205,1.166.395,1.739.574a9.679,9.679,0,0,1,1.506.544L79,57.68l-.087.046a12.2,12.2,0,0,1-2.376-.644c-.725-.246-1.443-.491-2.166-.743-.892-.312-1.77-.693-2.651-1.033-.032-.012-.064-.024-.1-.038,1.363,1.542,2.784,3.052,4.228,4.52.759.34,1.54.638,2.3.968.342.151.672.33,1.009.5a13.32,13.32,0,0,0,1.812-7.874c-.246-.286-.479-.584-.731-.866-.234-.258-.469-.515-.7-.771.079.729.151,1.456.266,2.184.093.586.209,1.176.324,1.76a.081.081,0,0,1-.066.093.079.079,0,0,1-.091-.066c-.189-.876-.352-1.758-.527-2.635-.115-.584-.232-1.176-.312-1.766l-.006-.03c-.054-.06-.1-.121-.155-.181-.306-.352-.6-.721-.9-1.079-.59-.7-1.164-1.383-1.685-2.124-.1-.04-.207-.085-.314-.121a.075.075,0,1,1,.04-.145c.036.012.074.022.113.032-.064-.095-.125-.187-.185-.284a1.3,1.3,0,0,1,.465.328,2.214,2.214,0,0,1,.219.042.125.125,0,0,1,.085.149.127.127,0,0,1-.062.074c.014.01.026.024.04.036.429.443.835,1,1.23,1.48.344.421.695.833,1.039,1.256-.28-2.168-.417-4.391-.521-6.567,0-.046-.006-.093-.008-.141-.109-.133-.217-.268-.32-.4-.735-.944-1.456-1.949-2.116-2.943a1.866,1.866,0,0,1,.616.594c.328.385.648.787.962,1.182.282.354.56.711.838,1.067-.091-2.168-.119-4.347-.064-6.372a.171.171,0,0,1-.034.008c-.425.089-.844.171-1.266.27-.087.02-.2.034-.278.062-.223.072-.447.177-.676.252a.317.317,0,0,1-.147-.616c.284-.06.576-.046.856-.119.5-.129,1-.274,1.5-.413q.006-.785.018-1.566c.012-.91.032-1.824.06-2.734q-1.108-1.5-2.245-2.974l-.042.012a.195.195,0,0,1-.107-.374c.825-.238,1.679-.5,2.529-.7.012-.368.026-.735.038-1.1.012.36.028.723.044,1.085.223-.052.447-.1.67-.143.131-.022.264-.042.4-.06.123-1.427.278-2.851.457-4.272-.161.31-.318.62-.475.928.159-.31.316-.622.475-.934q.3-2.307.682-4.612.205-1.241.437-2.488-.628,1.619-1.244,3.239l-.1-.036q.749-1.951,1.476-3.908c.378-1.963.8-3.918,1.274-5.848.36-1.486.765-2.972,1.188-4.449l-.032-.014c-.145-.27-.292-.534-.443-.8a3.86,3.86,0,0,1-.5-1A.084.084,0,0,1,83,3.747a.085.085,0,0,1,.111.036,3.034,3.034,0,0,1,.435.8c.149.31.28.624.439.928q.278-.963.564-1.917c1-3.328,2.06-6.591,3.278-9.845.234-.624.477-1.248.727-1.866q-.226-.426-.455-.85c-.378-.691-.793-1.387-1.125-2.1a.112.112,0,0,1,.048-.147.114.114,0,0,1,.149.048c.465.962.96,1.907,1.466,2.847.445-1.1.908-2.186,1.379-3.276q.3-1.869.489-3.755c.091-.906.139-1.808.213-2.712.04-.5.032-1.007.06-1.506a.187.187,0,0,1,.189-.179.188.188,0,0,1,.179.191c-.05.924-.05,1.86-.137,2.782-.123,1.286-.252,2.577-.423,3.861.032-.072.064-.143.095-.215-.034.1-.07.191-.1.286-.171,1.286-.387,2.569-.67,3.833-.163.715-.3,1.448-.479,2.16.07.131.143.262.213.393a.09.09,0,0,1-.05.123.08.08,0,0,1-.1-.04c-.042-.074-.083-.151-.125-.225,0,.01-.006.022-.008.032-.2.741-.364,1.494-.56,2.235-.479,1.818-1.029,3.682-1.635,5.462-.5,1.46-.986,2.919-1.522,4.363-1.1,2.972-2.251,5.917-3.4,8.868-.6,2.563-1.129,5.16-1.516,7.745-.048.326-.1.652-.151.976,1.707-3.364,3.378-6.752,5.075-10.125,1.184-2.349,2.323-4.719,3.469-7.087.564-1.166,1.121-2.343,1.665-3.519q.181-.634.362-1.256c.9-3.1,1.683-6.253,2.448-9.376.378-1.49.7-3.016,1.037-4.518.383-1.7.763-3.4,1.121-5.1-1.3-.443-2.551-1.011-3.8-1.58-.525-.238-1.063-.483-1.6-.711-.024.006-.05.012-.077.016-.534.117-1.075.213-1.607.334l-.012-.068q.776-.163,1.55-.344c-.093-.04-.183-.076-.274-.117-.336-.137-.676-.262-1.011-.4a.1.1,0,0,1-.054-.127A.1.1,0,0,1,89-20.949c.334.143.678.268,1.015.407.171.072.34.147.511.221.314-.077.63-.157.54-.155-.328-.151-.666-.282-1-.427s-.656-.33-1-.471a.1.1,0,0,1-.054-.129.1.1,0,0,1,.129-.054c.344.143.7.232,1.045.36.274.1.544.223.819.324.232.085.465.165.695.246l.04-.012c.777-.217,1.54-.461,2.3-.727-.2-.089-.4-.181-.594-.276-.391-.187-.823-.334-1.2-.536C91.267-22.7,90.3-23.2,89.31-23.693l.042-.1c.58.26,1.158.517,1.756.739.461.173.936.322,1.393.5.4.159.8.338,1.2.505.356.151.709.28,1.053.423.276-.1.548-.205.825-.31.348-.135.7-.282,1.041-.433,0-.01,0-.018.006-.03A79.089,79.089,0,0,0,98.174-36.36c0-.177-.006-.358-.012-.538a4,4,0,0,1-1.627.372,4.708,4.708,0,0,1-.7-.042c-.079-.01-.145-.127-.266-.133a3.7,3.7,0,0,1-.676-.153c-.022.012-.044.02-.064.03-.4.2-.844.383-1.256.55-.666.27-1.331.521-2,.757.294.149.588.3.884.441.54.26,1.073.538,1.621.781.35.155.725.346,1.083.471-1.023-.364-1.975-.751-2.972-1.194-.294-.129-.584-.266-.876-.409-.966.334-1.943.636-2.939.9-.572.155-1.144.3-1.721.439q.447.275.894.546c.98.6,1.953,1.226,2.943,1.814a.163.163,0,0,1,.05.221.161.161,0,0,1-.219.05c-1.009-.61-2.005-1.246-3.014-1.858-.368-.221-.739-.443-1.105-.664-1.862.437-3.753.8-5.641,1.087q1.2.791,2.384,1.594c-.523-.23-1.065-.57-1.566-.852-.393-.219-.781-.451-1.166-.689-.505.072-1.007.141-1.51.2-1.411.175-2.823.332-4.238.459.322.205.646.4.974.594.87.509,1.727,1.043,2.6,1.552.91.536,1.828,1.059,2.744,1.584.626.358,1.232.753,1.842,1.137a.157.157,0,0,1,.062.207.156.156,0,0,1-.207.06c-.654-.316-1.3-.63-1.945-.97-.427-.225-.838-.471-1.254-.711-1.085-.63-2.156-1.268-3.223-1.931-.779-.481-1.574-.964-2.36-1.458-.84.068-1.679.127-2.521.169q-.67.039-1.347.06c1.83,1.184,3.7,2.3,5.595,3.39q1.308.755,2.635,1.482c.7-.056,1.425-.095,2.112-.1.417,0,.874.018,1.282,0-1.029.03-2.072.135-3.11.26.592.32,1.184.636,1.782.944.7.36,1.385.759,2.09,1.1a.171.171,0,0,1,.076.225.172.172,0,0,1-.225.076q-2.256-1.069-4.425-2.259c-.64.083-1.28.171-1.909.25-.98.123-2,.258-3,.34.169.083.338.167.507.252C76-24.526,78.883-23.31,81.694-22.03a.14.14,0,0,1,.07.183.141.141,0,0,1-.183.068c-1.685-.769-3.37-1.544-5.043-2.345-1.393-.664-2.754-1.331-4.091-2.025-.225.016-.449.03-.67.038-.521.022-1.045.072-1.564.07-.848,0-1.633-.028-2.478-.085a.148.148,0,0,1-.137-.157.148.148,0,0,1,.157-.137c.918.06,1.814.115,2.736.085.485-.016.972-.044,1.458-.077a51.4,51.4,0,0,1-8.427-5.422l.018-.024c-.236-.006-.471-.014-.7-.024-2.3-.081-4.6-.205-6.889-.411a59.157,59.157,0,0,1-10.185-.721,42.451,42.451,0,0,1-8.633-2.45,19.928,19.928,0,0,1-2.108-1.071c-.475-.262-.942-.531-1.407-.809-.733-.29-1.464-.6-2.184-.924,0,.324,0,.65,0,.972a1.256,1.256,0,0,1-.109.731c-.139.205-.542.368-.747.576-.133.131-.29.258-.427.389a9.7,9.7,0,0,1-.854.755c.044.928.085,1.856.133,2.782,0,.036,0,.072.046,1.045a.386.386,0,0,1,.006.044c0,.04,0,.083,0,.125q.112,2.274.209,4.552c.4.2.8.4,1.21.594s.842.395,1.264.59l0,.008-.008-.1.117-.01c.123.111.25.217.378.326.483.221.962.447,1.437.687q.239.124.483.248c.022-.1.038-.2.052-.31s.006-.223.02-.332a.1.1,0,0,1,.1-.089.1.1,0,0,1,.089.1c-.016.127-.01.262-.026.391s-.036.225-.058.33c.324.163.648.326.976.483.205.06.417.121.628.181a.248.248,0,0,1-.127.06c.04.02.083.04.123.058a2.655,2.655,0,0,1-.417-.079c-.068-.014-.145-.032-.205-.038a4.951,4.951,0,0,1-.606-.1c-.175-.032-.35-.068-.523-.1a.2.2,0,0,0-.01.022c.23.161.461.322.691.485a3.277,3.277,0,0,1,.735.588,4.653,4.653,0,0,1,.378.6l-.165-.014c-.626-.048-.912-.415-1.333-.817l-.513-.489c-.024.036-.054.074-.081.113l-.3.324.046,1.9c.03.646.07,1.295.109,1.933l.018.31q.571.426,1.141.833c.3.211.586.419.866.648a4.608,4.608,0,0,1,.366.282c.064.072.159.252.221.342a.122.122,0,0,1,.016.173.122.122,0,0,1-.173.018,4.9,4.9,0,0,1-1.558-1.137c-.282-.254-.568-.507-.852-.759.119,1.754.29,3.489.5,5.226.268.173.534.344.8.511.662.423,1.373.817,2,1.286a.221.221,0,0,1,.054.306.221.221,0,0,1-.306.054c-.739-.491-1.429-1.071-2.138-1.607l-.381-.286c.1.823.215,1.645.338,2.472.085.6.175,1.2.566,3.35.6.425,1.214.8,1.826,1.206.1.068.219.139.342.213-.042-.087-.087-.173-.129-.262-.256-.5-.536-1.009-.767-1.522A20.087,20.087,0,0,1,36.124-9c-.207-.622-.383-1.248-.554-1.88.272.552.57,1.085.823,1.649.244.536.453,1.083.693,1.621.264.592.475,1.242.709,1.854.072.191.145.383.219.57a2.339,2.339,0,0,1,.628.519.119.119,0,0,1,.028.165.119.119,0,0,1-.165.028,1.551,1.551,0,0,1-.244-.1c.282.685.58,1.363.9,2.029q-.507-1.054-1.031-2.1a9.245,9.245,0,0,1-.775-.59c-.584-.441-1.156-.886-1.749-1.315.171,1.013.356,2.025.566,3.03.167.813.34,1.623.517,2.42.552,1.351,1.1,2.7,1.669,4.03.127.3.258.6.387.9a.378.378,0,0,0,.036.024C38.5,2.827,38.194,1.809,37.864.8,37.312-.875,36.722-2.508,36.1-4.157l.062-.024C36.807-2.476,37.439-.762,38,.971q.48,1.477.91,2.967c.62.439,1.256.864,1.864,1.311a.1.1,0,0,1,.02.131.093.093,0,0,1-.131.022c-.171-.117-.328-.24-.493-.364-.3-.23-.622-.439-.928-.67-.091-.07-.179-.139-.268-.209.046.171.1.342.143.511q1.021,2.3,2.1,4.576a1.03,1.03,0,0,0,.121.044,1.547,1.547,0,0,1,.238.137.1.1,0,0,1-.109.161.508.508,0,0,1-.133-.1c.1.209.2.415.3.62-.1-.209-.207-.419-.308-.632a1.74,1.74,0,0,0-.187-.181l.046-.07.022.014q-1-2.069-1.971-4.147c.578,2.1,1.093,4.216,1.586,6.332q.3,1.3.564,2.605c.425.29.842.592,1.268.882-.4-.193-.807-.381-1.206-.578.227,1.135.443,2.281.65,3.427q.377.7.767,1.389c.419.278.838.558,1.248.848a.178.178,0,0,1-.2.3c-.211-.127-.423-.26-.632-.4q.734,1.289,1.49,2.551l-.091.05c-.536-.9-1.069-1.814-1.6-2.738-.193-.131-.389-.268-.584-.407.026.087.05.173.074.258a3.581,3.581,0,0,1-.169-.328c-.012-.008-.022-.014-.032-.022.01.06.022.121.034.183.129.737.23,1.48.358,2.219q.187,1.084.354,2.172l.163.115c-.068-.23-.111-.465-.159-.7a6.6,6.6,0,0,1,.417.709c.034.081.07.161.107.244a25.607,25.607,0,0,1,2.217,1.625.551.551,0,0,1-.441-.125c-.346-.219-.674-.4-1-.652-.207-.151-.409-.306-.612-.463.085.207.169.417.258.618.316.743.658,1.474.984,2.213.95,2.132,1.931,4.2,3.064,6.233.1.056.211.115.318.171a.123.123,0,0,1,.046.165.127.127,0,0,1-.143.058l.131.227c-.044-.077-.091-.153-.135-.23a.053.053,0,0,1-.018-.01c-.813-.439-1.6-.912-2.408-1.367-.268-.149-.54-.3-.809-.443.381.94.811,1.88,1.246,2.792.366.779.755,1.556,1.16,2.325.678.409,1.339.852,2.017,1.266-.646-.358-1.292-.729-1.933-1.107.658,1.246,1.361,2.47,2.1,3.652l-.058.034c-.783-1.246-1.528-2.519-2.249-3.8-.684-.4-1.367-.817-2.041-1.226l.042-.07c.632.385,1.272.753,1.907,1.131q-.679-1.223-1.327-2.458c-.489-.926-.96-1.862-1.393-2.819-.1-.052-.207-.109-.306-.165.159,1.121.316,2.239.473,3.36.421.811.811,1.639,1.232,2.45.638,1.234,1.282,2.456,1.969,3.658q.45.314.906.624a4.455,4.455,0,0,1,.854.691l.018.095-.1.018a3.834,3.834,0,0,1-.868-.489c-.151-.1-.3-.209-.451-.31.423.715.86,1.421,1.323,2.116-.4-.606-.791-1.23-1.182-1.844-.07-.1-.137-.211-.205-.318-.24-.161-.481-.322-.717-.487-1.276-.872-2.525-1.8-3.783-2.714.046.109.089.215.137.32.058.143.117.282.173.423a.233.233,0,0,1,.193-.115.228.228,0,0,1,.23.223c0,.3,0,.6,0,.892.372.819.807,1.619,1.234,2.412.064.123.129.244.2.364l.01-.014.04-.056c.829.572,1.675,1.105,2.506,1.665a4.344,4.344,0,0,1,1.087.835c-.334.006-.912-.467-1.2-.666-.815-.554-1.625-1.141-2.42-1.721A47.185,47.185,0,0,0,49.3,48.369c-.84-1.144-1.675-2.307-2.462-3.483-.358-.538-.731-1.079-1.055-1.635-.473-.809-.914-1.627-1.317-2.462,0,.179-.008.362-.016.546-.04.765-.1,1.53-.177,2.293.223.5.453.991.684,1.472.332.7.662,1.409,1.009,2.108a.224.224,0,0,0,.032.02c1.075.751,2.122,1.51,3.181,2.281-.306-.147-.592-.334-.888-.5-.717-.411-1.419-.862-2.1-1.335q.03.063.066.127c.757,1.488,1.58,2.915,2.458,4.332-.984-1.56-1.981-3.133-2.909-4.731C45.2,46.965,44.6,46.522,44,46.075c-.091.731-.187,1.458-.282,2.182-.006.034-.01.07-.016.107.024.058.046.115.07.171A59.02,59.02,0,0,0,46.35,54.13c.292.56.58,1.129.878,1.689,1.921,1.28,3.918,2.436,5.953,3.523-.119-.189-.24-.378-.356-.566-.483-.757-.98-1.5-1.462-2.261a.183.183,0,0,1,.052-.254.184.184,0,0,1,.254.054c.717,1.127,1.46,2.243,2.174,3.374,1.5.789,3.028,1.544,4.564,2.287s3.106,1.466,4.657,2.207c.838.4,1.675.8,2.517,1.19C66.48,65.326,67.38,65.255,68.286,65.151Zm-11.276-.5c-.189-.093-.372-.185-.56-.278.115.232.232.463.344.7.455.054.912.1,1.361.147C57.771,65.034,57.39,64.845,57.01,64.656Zm-.356.372-.419-.771c-.006-.008-.012-.018-.018-.028a27.682,27.682,0,0,1-3.533-1.9c-1.107-.485-1.518-.711-.433-.232-1.675-.809-1.856-.91-2.035-1.013.546.96,1.109,1.909,1.653,2.869.022.038.044.079.064.119.461.133.92.25,1.371.35.805.181,1.59.33,2.4.487.2.04.407.074.618.1a.693.693,0,0,1-.056-.072l.036.046.024.028c.113.016.23.032.342.046Zm17.33-.89A18.1,18.1,0,0,0,76.3,63.4c.266-.113.544-.2.8-.336a5.377,5.377,0,0,0,2.271-1.7,1.879,1.879,0,0,0,.1-.185,3.434,3.434,0,0,0,.1-.336c-.1.169-.2.334-.3.5l-.111-.066a16.038,16.038,0,0,1-2.792-1.037c-.058-.022-.115-.044-.171-.07q.818.846,1.645,1.673l-.05.052q-.885-.894-1.762-1.794c-.507-.215-1.011-.445-1.512-.668-1.077-.479-2.144-.956-3.211-1.458q-1.474-.689-2.925-1.407c1.174,1.315,2.368,2.611,3.557,3.906-1.137-1.218-2.273-2.43-3.39-3.668-.087-.093-.173-.189-.262-.286q-3.361-1.667-6.642-3.493c1.53,2,3.06,3.982,4.622,5.949.68.328,1.359.652,2.041.976,1.077.513,2.166,1.009,3.239,1.528.864.419,1.756.835,2.635,1.222-.606-.2-1.208-.467-1.8-.7-1.476-.578-2.931-1.24-4.367-1.913-.469-.217-.934-.441-1.4-.666.282.35.562.7.846,1.049l-.852-1.053c-2.468-1.2-4.88-2.486-7.274-3.817.513.823,1,1.669,1.5,2.5q.465.779.922,1.566c1.049.582,2.1,1.148,3.159,1.711,2.239,1.2,4.58,2.255,6.913,3.265C72.554,64.5,73.27,64.333,73.983,64.138ZM54.99,62.224c-.592-.932-1.174-1.872-1.764-2.808a69.3,69.3,0,0,1-5.973-3.549c.149.278.3.554.459.823.24.413.463.835.7,1.25.548.958,1.105,1.917,1.649,2.875A22.366,22.366,0,0,0,52.25,62.1c.056.036.109.064.161.093.081.044.161.087.272.139,1.123.6,2.287,1.186,3.455,1.77C55.763,63.464,55.377,62.84,54.99,62.224ZM51.779,63.9c-.552-.966-1.117-1.925-1.685-2.885q-.83-.471-1.653-.964c.94,1.307,1.933,2.591,2.953,3.855.157.052.312.1.469.145Zm-3.8-4.125c-1.723-1.045-3.406-2.156-5.039-3.36v.165c.014.06.032.125.05.185,1.025,3.716,4.634,5.911,8.206,7.079C50.1,62.513,49.019,61.159,47.982,59.775Zm-8.347,3.447c-.091-.062-.183-.127-.272-.193a7.478,7.478,0,0,0,.566.654C39.831,63.53,39.734,63.375,39.635,63.222ZM86.3,59.665c.044-.133.087-.27.125-.409,0-.264-.018-.527-.044-.8a6.6,6.6,0,0,0-.193-1,22.922,22.922,0,0,1-.5,3.195c-.066.274-.129.536-.2.791A9.912,9.912,0,0,0,86.3,59.665Zm-41.789.566a9.427,9.427,0,0,1-1.137-1.607,5.67,5.67,0,0,1-.413-.894,7.082,7.082,0,0,0,.32,1.824c.59.4,1.172.809,1.749,1.214C44.86,60.6,44.685,60.42,44.515,60.23Zm4.64-.817c-.713-1.228-1.421-2.452-2.108-3.686q-1.268-.858-2.478-1.794c.6,1.105,1.214,2.2,1.913,3.247.6.91,1.2,1.81,1.832,2.7.56.334,1.125.664,1.691.986Q49.58,60.14,49.156,59.413Zm22.258-4.228c-1.725-.687-3.451-1.53-5.1-2.368q-.994-.5-1.981-1.031.329.408.66.811c.991,1.22,2.015,2.412,3.062,3.59.753.374,1.512.745,2.275,1.1.914.423,1.82.852,2.734,1.268.856.393,1.725.761,2.587,1.146C74.213,58.211,72.8,56.713,71.414,55.185ZM47.7,59.4c-.781-1.053-1.552-2.142-2.251-3.253-.391-.622-.8-1.23-1.156-1.874S43.573,53,43.235,52.361c-.028.254-.054.505-.081.759-.117,1.087-.2,2.13-.209,3.193,1.582,1.172,3.219,2.259,4.9,3.28C47.8,59.528,47.749,59.463,47.7,59.4Zm13-1.23c-.5-.769-.991-1.562-1.518-2.313-.137-.191-.27-.385-.4-.578q-1.015-.568-2.025-1.141c.238.338.469.678.693,1.025.459.715.922,1.423,1.377,2.144.213.34.417.693.62,1.043.443.256.89.511,1.337.763q.4.226.8.447C61.292,59.089,61,58.624,60.7,58.169Zm-18.022-.33c-.034-.413-.058-.831-.074-1.26-.038-.157-.072-.322-.1-.489-.745-.562-1.482-1.146-2.2-1.754l.05-.066c.7.59,1.411,1.154,2.136,1.7a11.264,11.264,0,0,1-.064-2.231.139.139,0,0,1,.143-.135.146.146,0,0,1,.093.04c.036-.433.085-.864.121-1.295.02-.254.042-.509.07-.767a34.329,34.329,0,0,1-2.168-6.056c-.28-1.071-.467-2.162-.646-3.253a8.775,8.775,0,0,1,.286,1.093c.215.817.457,1.607.709,2.412.366,1.158.817,2.273,1.266,3.4.2.5.441.986.652,1.482a.029.029,0,0,0,0,.012c.06-.525.129-1.045.2-1.556.052-.393.107-.787.157-1.18-.395-1.041-.747-2.1-1.049-3.191q-.84-.655-1.677-1.325l.044-.054c.316.254.632.5,1.58,1.18-.147-.542-.256-1.065-.354-1.619-.058-.306-.074-.626-.129-.932.131.6.334,1.236.5,1.826.093.324.181.646.27.968.366.268.733.531,1.1.8.083-.687.157-1.377.223-2.064-.2-.465-.385-.934-.572-1.387-.314-.751-.618-1.544-.862-2.321a.182.182,0,1,1,.344-.117c.219.715.527,1.433.8,2.134.117.306.238.612.366.92.026-.3.052-.594.074-.892.052-.7.046-1.379.046-2.072-.169-.391-.328-.787-.475-1.194-.02-.05-.04-.1-.056-.155-.139-.1-.274-.2-.409-.294l-.022-.117.117-.022c.072.054.147.107.221.159-.219-.672-.389-1.359-.55-2.047.127.5.34,1,.509,1.488.083.24.171.479.266.717,1.345.938,2.734,1.816,4.081,2.75.036.026.072.052.107.074a50.056,50.056,0,0,1-2.674-4.687c-.1-.209-.2-.421-.3-.632.121.838.238,1.675.358,2.513a.112.112,0,1,1-.221.032c-.159-1.111-.316-2.223-.471-3.324-.2-.481-.378-.96-.552-1.443a5.444,5.444,0,0,1,.469.862q-.2-1.41-.4-2.829c-.127-.07-.25-.139-.37-.209l-.032-.1.1-.032c.089.054.179.1.272.155q-.094-.658-.189-1.321c-.171-.437-.332-.878-.479-1.325-.238-.709-.381-1.452-.546-2.178l.046-.087.087.046c.185.509.391,1.011.6,1.516q-.311-2.132-.634-4.258c-.58-.465-1.158-.938-1.733-1.4l.05-.066c.525.435,1.085.852,1.649,1.252q-.257-1.673-.529-3.346c-.068-.407-.135-.815-.205-1.22-.4-.3-.793-.6-1.178-.89-.582-.441-1.178-.862-1.768-1.29l-.022-.117.115-.022c.9.66,1.84,1.256,2.774,1.858-.02-.125-.042-.25-.062-.376-.018-.052-.04-.1-.06-.155-.187-.451-.358-.9-.523-1.349q-.957-1.745-1.856-3.515c-1.262-.789-2.517-1.625-3.737-2.456a.113.113,0,0,1-.03-.153.114.114,0,0,1,.153-.032c1.1.745,2.227,1.429,3.352,2.12A67.043,67.043,0,0,1,33.835-1.636c.2.125.223.346.292.55.149.445.272.9.425,1.349.306.9.6,1.794.914,2.69.3.85.622,1.693.938,2.535.4,1.071.862,2.154,1.323,3.2.626,1.423,1.246,2.829,1.909,4.228.191.115.381.234.57.348C39.438,10.9,38.713,8.5,38.061,6.107c-.747-2.726-1.407-5.436-1.993-8.178-.016-.04-.03-.074-.044-.113-.94-2.329-1.842-4.657-2.734-7.006A3.514,3.514,0,0,1,33.8-8.149c.153.344.3.719.435,1.071.525,1.325,1.079,2.651,1.631,3.968.03.072.058.145.089.217a17.942,17.942,0,0,1-.449-1.931c-.294-1.514-.568-3.086-.767-4.614-.151-1.139-.28-2.271-.393-3.406-.62-.463-1.244-.918-1.88-1.361l.048-.07c.6.417,1.2.819,1.81,1.214-.1-1.027-.187-2.056-.264-3.094-.056-.707-.1-1.417-.133-2.126q-1.018-.9-2.051-1.77l-.012-.121.121-.012c.616.529,1.266,1.045,1.925,1.542-.038-.817-.068-1.639-.091-2.456-.012-.37-.016-.743-.02-1.115,0-.095-.04-.415.016-.483.1-.135.26-.232.366-.389.018-.026.034-.054.05-.081-.159-.151-.318-.3-.483-.449-.7-.2-1.4-.419-2.088-.66-.23-.079-.457-.193-.68-.288-.37-.157-.729-.322-1.091-.5-.052-.024-.1-.05-.159-.079q.109,2.458.221,4.914c.274,5.951.709,11.942,1.566,17.857.338.376.689.725.982,1.037a6.218,6.218,0,0,1,1.655,2.6,2.538,2.538,0,0,1,.093.562,4.733,4.733,0,0,1-.028.7c-.016.117-.052.232-.068.35a.268.268,0,0,1-.525-.1c.026-.209.081-.4.1-.622A3.052,3.052,0,0,0,33.485.913a4.951,4.951,0,0,0-.811-1.256c-.294-.352-.65-.717-1.013-1.1.143.944.3,1.882.467,2.825.892,2.933,1.888,5.848,2.762,8.784.366,1.234.757,2.47,1.087,3.716.173.656.334,1.317.511,1.973.242.9.449,1.84.65,2.748.048.23.093.467.141.7q.589,1.392,1.244,2.762a.122.122,0,0,1-.058.157.12.12,0,0,1-.157-.06q-.393-.815-.761-1.643c.07.34.135.687.2,1.023s.147.7.2,1.049c.07.455.179.916.256,1.373.169,1.015.368,2.056.489,3.074.064.55.151,1.1.223,1.649.036.282.066.568.1.852.157.713.25,1.427.336,2.134.121,1,.189,2.005.3,3.006.052.455.064.908.1,1.363q.054.71.091,1.415l.018-.093c.338-1.909.678-3.819.993-5.732.209-1.282.417-2.547.67-3.821-.123.962-.242,1.925-.391,2.883-.344,2.206-.751,4.4-1.135,6.6-.044.244-.087.483-.131.723,0,.046,0,.087,0,.129.193-.862.378-1.713.556-2.569.133.246.022.525-.014.783-.091.7-.246,1.407-.376,2.1-.042.232-.089.463-.133.695q.021.9.026,1.8s0,.008,0,.119c.117-.874.252-1.743.389-2.613.292-1.9.558-3.795.833-5.7a5.56,5.56,0,0,1-.093.914q-.1.679-.189,1.359c-.191,1.441-.423,2.893-.646,4.33-.1.622-.2,1.242-.29,1.862,0,.918-.034,1.828-.087,2.74-.02.344-.026.7-.07,1.045a.193.193,0,0,0-.006.044c0,.678-.04,1.355-.038,2.027,0,.413-.022.825-.022,1.238A17.7,17.7,0,0,1,39.5,51.4c-.089.525-.205,1.107-.3,1.705.034-.038.07-.079.113-.119a2.363,2.363,0,0,1,.991-.449.093.093,0,1,1,.046.179,2.572,2.572,0,0,0-.765.3c-.072.062-.139.111-.211.177a1.185,1.185,0,0,0-.252.475,6.317,6.317,0,0,0,.163,2.784.376.376,0,0,1-.113.37c.385.244.767.489,1.154.733.783.5,1.548,1.053,2.323,1.57.093.064.187.127.28.189A8.588,8.588,0,0,1,42.679,57.839Zm-4.351-2.46c-.042.276-.083.554-.119.827l.292.187A6.9,6.9,0,0,1,38.329,55.379Zm28.894-.052c-.713-.825-1.468-1.631-2.16-2.47-.344-.413-.693-.823-1.039-1.232q-1.184-.634-2.337-1.3c-.769-.443-1.56-.88-2.311-1.349-.513-.32-1.033-.64-1.548-.958.054.074.111.147.167.219.809,1.061,1.619,2.128,2.432,3.187.34.447.685.894,1.025,1.343,1.423.783,2.861,1.548,4.312,2.271.723.366,1.45.735,2.18,1.1C67.7,55.866,67.456,55.6,67.223,55.326ZM37.04,55.6c0-.157-.016-.026,0,.1C37.024,55.566,37.028,55.524,37.04,55.6Zm6.607-6.8q-.172,1.341-.318,2.684c.238.5.465,1,.725,1.492q.251.477.507.95c.8.614,1.627,1.2,2.46,1.762A62.44,62.44,0,0,1,43.648,48.8Zm23.464,1.435q-.855-1.024-1.677-2.072c-2.309-1.2-4.56-2.521-6.787-3.861,1.456,2.076,2.98,4.1,4.554,6.088.246.316.5.628.751.938.745.4,1.506.777,2.265,1.141,1.343.652,2.692,1.292,4.063,1.882.2.091.411.177.616.264C69.608,53.178,68.346,51.723,67.112,50.231ZM37.328,53.214q.368-2.325.745-4.649c.121-.751.266-1.518.36-2.273.024-.191.048-.387.077-.582-.06.274-.117.55-.173.823q-.287,1.416-.529,2.835a.333.333,0,0,1,.052.211c-.1.648-.145,1.313-.268,1.961-.109.566-.207,1.131-.312,1.7-.018.213-.032.425-.04.632C37.26,53.645,37.294,53.428,37.328,53.214Zm42.731-7.342-.534-.65c-.185-.219-.374-.439-.56-.658.026.757.062,1.516.1,2.275.076,1.488.258,2.955.427,4.433a.1.1,0,0,0,0,.024c.276.356.55.717.829,1.071.207.264.427.519.642.777C80.846,50.74,80.379,48.292,80.059,45.872Zm-4.514,6.9-.012-.135.153-.072.048.026.016.056.048.1.026.046.03.042.034.04-.064.058A2.876,2.876,0,0,0,75.545,52.769ZM47.435,51.551c-.693-.385-1.4-.743-2.1-1.115l.05-.1c.693.378,1.413.723,2.114,1.089a8.014,8.014,0,0,1,1.228.723A4.52,4.52,0,0,1,47.435,51.551Zm-3.853-5.79c-.344-.262-.691-.525-1.031-.793.066.24.135.477.207.717.179.6.387,1.208.61,1.8C43.44,46.913,43.513,46.339,43.581,45.761Zm1.647.6c-.254-.455-.483-.922-.725-1.383-.1-.2-.205-.4-.3-.612q-.082.761-.175,1.522c.5.346,1.007.68,1.51,1.019C45.429,46.73,45.329,46.547,45.228,46.363ZM66.109,40.6l-.326.1c-.68.207-1.361.437-2.037.656-.429.139-.87.294-1.286.461,2.221,1.158,4.473,2.253,6.766,3.249Q67.6,42.889,66.109,40.6Zm-4.5.964-.646-.352c.095.155.191.31.29.463C61.366,41.636,61.487,41.6,61.608,41.568Zm.493-.125a5.865,5.865,0,0,0,.608-.211c1.015-.395,2.043-.773,3.072-1.135q-.574-.894-1.123-1.8c-.65-1.067-1.258-2.15-1.864-3.241l-1.242-.542c-.022-.008-.042-.018-.064-.028l-.393.137a.193.193,0,1,1-.129-.364h0c-1.683-.739-3.378-1.532-5.013-2.37l.4.864c.916,2,1.991,3.992,3.082,5.895q.658,1.148,1.351,2.285c.356.191.717.385,1.073.574C61.942,41.485,62.02,41.465,62.1,41.443Zm4.157-1.512c.586-.2,1.218-.431,1.82-.578.564-.137,1.125-.24,1.7-.342-.419-.588-.838-1.176-1.25-1.768-.85-.27-1.685-.572-2.527-.882-.991-.364-1.981-.779-2.961-1.2.556,1.039,1.133,2.066,1.737,3.068q.556.927,1.131,1.828Zm1.309-4.087c-.638-.95-1.206-1.937-1.822-2.9-.153.056-.306.111-.459.169q-1.392.516-2.79,1.013c.127.248.256.5.389.745.32.129.638.258.96.385.652.26,1.313.5,1.971.737l2.49.932C68.056,36.569,67.809,36.209,67.567,35.844Zm11.836.5c-.006-.906.01-1.818.038-2.726-.2-.268-.389-.536-.586-.8.02,1.1.036,2.2.04,3.3v.354C79.062,36.426,79.234,36.382,79.4,36.339Zm.848-.193a6.88,6.88,0,0,1,.9-.107c-.348-.521-.7-1.031-1.051-1.518l-.523-.725c-.028.833-.044,1.673-.042,2.51C79.771,36.249,80.011,36.195,80.25,36.146ZM62.32,34.191c-.2.07-.4.141-.6.209.3.127.608.25.912.372C62.528,34.582,62.425,34.385,62.32,34.191Zm3.207-1.584c-.135-.211-.264-.429-.391-.646q-2.41-1.084-4.769-2.275c.109.246.217.489.33.731.513,1.129,1.053,2.255,1.621,3.364C63.389,33.4,64.456,33,65.528,32.607Zm-19.5-2.736c-.527-1.009-1.061-2.013-1.532-3.05-.225-.489-.439-.986-.652-1.484-.153-.35-.322-.717-.457-1.081-.079-.062-.155-.123-.232-.185.246,1.627.467,3.259.7,4.88.093.227.181.457.27.687.3.787.568,1.564.876,2.347.254.131.507.26.759.385.789.4,1.56.846,2.337,1.27C47.386,32.4,46.692,31.135,46.031,29.871Zm33.474,2.152q.085-1.839.24-3.664l-.1.032c-.306.1-.612.183-.92.27.036.755.074,1.51.095,2.261.012.572.024,1.139.036,1.711.2.258.4.515.594.777C79.463,32.947,79.481,32.484,79.505,32.023ZM66.117,32.4c-.234-.1-.465-.2-.7-.308.087.155.175.31.264.463C65.83,32.5,65.972,32.446,66.117,32.4ZM69.733,31.2c-.658-1.141-1.282-2.293-1.876-3.469-.717-.3-1.433-.6-2.14-.916-1.29-.572-2.571-1.174-3.847-1.78l.236.525c.453,1.055.991,2.136,1.53,3.155a.154.154,0,0,1,.064.093.2.2,0,0,1,0,.034l.012.018c.479.9.938,1.816,1.427,2.716.493.213.993.425,1.488.634C67.656,31.852,68.686,31.51,69.733,31.2ZM78.6,28.7c-.787.213-1.582.411-2.366.638.383.5.789.982,1.184,1.472q.535.676,1.065,1.353C78.521,31,78.563,29.849,78.6,28.7ZM44.149,30.98c.028.2.056.4.087.6.074.04.151.083.227.123C44.354,31.465,44.252,31.224,44.149,30.98ZM63.47,29.023q-1.2.278-2.408.534A.157.157,0,0,1,61,29.251c.775-.165,1.552-.336,2.323-.515q-.166-.32-.332-.646c-.342-.672-.691-1.369-1-2.056-.177-.4-.354-.793-.527-1.19q-.725-.344-1.45-.693c-.783-.37-1.56-.745-2.337-1.117.022.062.042.125.064.177.441.763.886,1.522,1.329,2.277-.413-.689-.823-1.377-1.242-2.062.189.475.356.966.548,1.439.6,1.5,1.2,3.01,1.85,4.492,1,.477,2.007.938,4.578,2.035C64.326,30.618,63.891,29.827,63.47,29.023ZM67.249,26.5c-.381-.787-.787-1.635-1.085-2.452-.081-.213-.157-.429-.234-.644-.505.093-1.013.183-1.518.272a.152.152,0,0,1-.173-.123.149.149,0,0,1,.123-.171c.487-.085.978-.173,1.47-.262-.008-.022-.016-.042-.024-.066q-1.32-.595-2.611-1.216c-1.085-.521-2.182-1.027-3.259-1.568.121.314.238.628.364.94.205.511.409,1.025.61,1.536q.492.858.962,1.719c-.149-.145-.3-.3-.445-.447.014.038.03.074.046.113.07.175.147.346.221.519q1.972.9,3.938,1.8c.7.324,1.387.654,2.078.993Q67.476,26.977,67.249,26.5Zm-6.368-3.046c-.423-.443-.84-.888-1.25-1.325.4.427.817.85,1.226,1.268-.238-.59-.465-1.186-.674-1.794q-.547-.891-1.1-1.772c-1.29-.672-2.587-1.341-3.865-2.033-.328-.177-.654-.358-.98-.538.334.505.65,1.031.97,1.54.531.854,1.035,1.766,1.526,2.645.209.374.419.745.63,1.119-.036.054-.036.054.026.012-.016-.05-.032-.1-.046-.153a.762.762,0,0,1,.215.306q1.86.882,3.739,1.739C61.157,24.133,61.016,23.793,60.881,23.455Zm.161-.383c.121.3.24.6.364.9.155.161.308.324.461.487C61.578,24.013,61.31,23.545,61.042,23.072Zm3.63-3.789c-.356.095-.711.185-1.069.274a.232.232,0,1,1-.113-.451c.568-.133,1.135-.272,1.7-.413-1.311-.582-2.623-1.17-3.924-1.774q.99,1.489,1.989,2.978Q62.226,18.4,61.2,16.89c-.727-.34-1.454-.687-2.172-1.043q-1.543-.758-3.078-1.528c.507.85,1.007,1.7,1.52,2.537.57.94,1.133,1.894,1.687,2.845l.507.252c-.028-.107-.056-.213-.085-.324.167.085.211.254.27.415.207.1.417.205.624.306,1.727.848,3.481,1.675,5.25,2.468C65.326,21.651,64.972,20.493,64.672,19.283Zm21.372,2.031c.026-.141.052-.28.085-.419a5.127,5.127,0,0,0-.151.6C86,21.436,86.02,21.377,86.044,21.315ZM59.725,20.161q-.2-.1-.387-.2l-.042-.02q.172.3.344.592c.145.256.29.509.437.763C59.953,20.922,59.834,20.546,59.725,20.161Zm18.846.63c-.489-.2-.968-.4-1.464-.58l.03-.091c.536.189,1.075.354,1.621.513a1.248,1.248,0,0,1,.737.376A1.4,1.4,0,0,1,78.571,20.791ZM35.683,18.933c-.2-.815-.395-1.631-.6-2.45l-.133-.447-.006.1a6.963,6.963,0,0,0,.564,2.81c.1.27.227.527.338.787C35.794,19.471,35.738,19.2,35.683,18.933Zm31.131-.25c-.244.07-.485.143-.727.211q.592.26,1.18.523C67.116,19.175,66.965,18.929,66.814,18.683Zm-24.636-.525a.517.517,0,0,0,.014.081c.052.191.107.381.159.574.1.068.207.135.31.2Q42.417,18.588,42.178,18.158Zm24.42.179c-.513-.823-1.025-1.651-1.534-2.474-1.144.3-2.285.586-3.437.854a.188.188,0,0,1-.221-.143.185.185,0,0,1,.143-.221c1.119-.246,2.255-.459,3.376-.709-.064-.1-.129-.207-.193-.308l-.32-.145q-2.567-1.148-5.073-2.4c-.256.02-.513.038-.767.054q1.244,1.9,2.5,3.785c.846.4,1.689.8,2.543,1.17q.93.408,1.862.823C65.852,18.528,66.226,18.436,66.6,18.337Zm.437-.117c.5-.133,1-.3,1.5-.431.411-.109.823-.2,1.24-.29-.314-.125-.624-.266-.89-.374-1.109-.449-2.2-.922-3.288-1.4-.113.028-.223.058-.336.089q.761,1.238,1.528,2.476Zm1.26-3.233c-.091.024-.181.05-.27.072-.682.191-1.361.376-2.041.56.831.358,1.663.715,2.5,1.057.332.137.666.272,1,.409.03.014.062.028.093.04Zm-9.812-2.136a24.925,24.925,0,0,1-3.338-.016.218.218,0,1,1,.02-.435,23.848,23.848,0,0,0,3.036.028c-.072-.1-.145-.213-.215-.32-1.731-.882-3.441-1.8-5.142-2.74q.728,1.114,1.45,2.235c.534.842,1.049,1.7,1.562,2.555q2.035,1.006,4.1,1.949c.35.161.7.326,1.051.489Q59.738,14.73,58.483,12.851ZM41.242,14.222q-.178-.091-.35-.187c.242.743.487,1.486.723,2.231.006.022.014.044.02.066C41.506,15.629,41.377,14.927,41.242,14.222Zm-.592.4c-.1-.3-.2-.6-.3-.908-.157-.095-.312-.189-.467-.286.064.139.133.276.2.411q.45.924.926,1.844C40.886,15.333,40.769,14.979,40.65,14.623Zm24.608.946c-.066-.03-.131-.06-.2-.089.024.038.048.079.074.115C65.173,15.587,65.215,15.579,65.258,15.569Zm13.537-.054c-.04-.038-.179-.2-.169-.246a.835.835,0,0,1,.079-.179c.079,0,.173-.042.242.014.042.072.087.139.131.211a.174.174,0,0,1-.04.242A.176.176,0,0,1,78.795,15.515Zm-11.244-.548c.209-.056.419-.113.628-.171-.058-.095-.115-.191-.173-.288-.413-.678-.827-1.359-1.238-2.043-.2-.1-.393-.193-.59-.288l-.668-.328c-.789.159-1.592.312-2.4.447l.417.682q.655,1.078,1.313,2.146l.811.352C66.283,15.323,66.923,15.144,67.551,14.967Zm-3.922-1.411c-.256-.407-.505-.813-.759-1.218-1.069.177-2.152.324-3.231.425.077.038.153.074.23.111,1.236.594,2.5,1.194,3.765,1.731.294.129.588.254.882.381C64.219,14.508,63.923,14.035,63.629,13.556Zm5.607.942c.437-.131.852-.262,1.28-.356-.753-.3-1.5-.61-2.235-.95-.425-.193-.842-.4-1.26-.6.344.58.687,1.16,1.033,1.739.085.145.169.288.256.433C68.618,14.675,68.928,14.589,69.236,14.5ZM39.39,6.03c-.139-.5-.278-1.009-.417-1.514-.087-.189-.175-.378-.262-.57-.217-.175-.433-.35-.652-.523l.058-.074c.159.127.324.25.489.368q-.5-1.1-.986-2.2C37.395,1,37.165.484,36.936-.04c.213.92.431,1.83.656,2.74.366,1.488.761,2.992,1.192,4.461.447,1.516.888,3.028,1.357,4.536.2.64.4,1.276.612,1.913.048.032.1.062.151.095.091.058.183.119.272.179C40.662,11.243,40.082,8.611,39.39,6.03Zm43.486,6.263c1.661-4.288,3.237-8.613,4.568-13.016.63-2.082,1.224-4.171,1.7-6.293-.117-.219-.234-.441-.348-.658-.153.449-.306.9-.457,1.347-.982,2.891-2.011,5.794-2.879,8.719-.92,3.1-1.794,6.2-2.577,9.343-.125.5-.25,1-.368,1.5C82.63,12.928,82.753,12.612,82.876,12.294Zm-24.3.117c-.149-.074-.3-.151-.447-.227.052.081.107.161.161.242Zm4.039-.479q-.725-1.163-1.437-2.329c-2.484-1.331-4.924-2.73-7.336-4.173.552.9,1.1,1.806,1.665,2.7q1.223,1.921,2.472,3.827c.294.147.592.294.89.439C60.122,12.3,61.376,12.134,62.618,11.931Zm2.243-.407c-1.091-.55-2.17-1.119-3.249-1.691q.622,1.03,1.25,2.058C63.53,11.78,64.2,11.653,64.861,11.524Zm1.439.161c-.074.016-.147.032-.219.044.115.054.225.1.338.157C66.381,11.82,66.339,11.754,66.3,11.686Zm-.242-.4q-.96-1.6-1.9-3.215c-.06-.1-.119-.205-.179-.306-.59.193-1.18.385-1.774.57a.2.2,0,0,1-.25-.129.2.2,0,0,1,.129-.252c.56-.187,1.121-.37,1.685-.554-.207-.358-.415-.717-.624-1.081-.664-.395-1.327-.8-1.973-1.2-1.2-.741-2.39-1.476-3.567-2.217q0,.006.006.006C58.8,5.1,60.062,7.254,61.348,9.394c.588.308,1.176.61,1.772.894.765.37,1.522.761,2.289,1.127C65.626,11.371,65.842,11.329,66.059,11.283Zm.191-.04c.95-.2,1.9-.381,2.851-.586.479-.1.97-.207,1.462-.292-1.029-.513-2.045-1.049-3.06-1.594C66.814,8.4,66.142,8,65.453,7.629c-.135-.072-.268-.145-.4-.219-.294.1-.59.2-.884.29q1.021,1.782,2.064,3.547A.089.089,0,0,0,66.25,11.243Zm14.825-.809c-.123-.211-.3-.362-.419-.584.016-.05.032-.1.048-.149.083-.006.167-.02.25-.028.137.211.179.449.314.652a.11.11,0,0,1-.042.151A.114.114,0,0,1,81.076,10.433Zm-12.782-4.1c-.93.3-1.858.614-2.786.922q2.461,1.326,4.965,2.563Q69.37,8.088,68.294,6.336ZM57.314,3.073C57.207,2.892,57.1,2.7,57,2.519c-.141-.087-.284-.175-.423-.266C54.165.73,51.773-.859,49.406-2.465a.083.083,0,0,0,.014.022C50.761.115,52.154,2.67,53.664,5.134,55.4,6.159,57.157,7.154,58.92,8.092c.658.354,1.323.715,1.989,1.071C59.681,7.152,58.475,5.13,57.314,3.073ZM64.565,7.14c-.356-.2-.717-.411-1.073-.618.155.27.31.546.467.815C64.161,7.273,64.364,7.208,64.565,7.14Zm3.489-1.192q-.619-1-1.224-2.013c-.483-.274-.964-.552-1.443-.829a29.573,29.573,0,0,1-3.427.662c.044.083.091.165.135.246.358.658.725,1.313,1.091,1.965q.906.51,1.826,1.013Q66.534,6.48,68.054,5.948Zm1.429-.5c.022-.006.044-.014.066-.022-.064-.036-.127-.068-.187-.1q-1.154-.61-2.3-1.258c.354.618.715,1.232,1.081,1.848ZM61.725,3.8c-.316.036-.636.068-.954.091a.225.225,0,0,1-.242-.2.222.222,0,0,1,.2-.24c.25-.018.505-.04.759-.068Q60.425,1.469,59.405-.47q-2.633-1.622-5.23-3.3C55.2-1.616,56.3.482,57.438,2.582q2.552,1.561,5.154,3.056.127.075.254.145C62.471,5.124,62.095,4.462,61.725,3.8ZM83.979,5.678l-.036-.01ZM71.336,4.826c.062-.02.129-.042.2-.066q-.912-1.446-1.8-2.921c-.487.157-.974.306-1.454.451-.634.193-1.268.38-1.907.554.077.139.155.28.236.419.767.419,1.542.835,2.307,1.26.415.234.856.455,1.295.68C70.585,5.074,70.959,4.951,71.336,4.826ZM92.551,2.509C93.606-.958,94.58-4.442,95.418-7.968q.121-.507.24-1.021-.23.625-.469,1.244c-.546,2.265-1.111,4.522-1.727,6.77-.23.84-.451,1.693-.7,2.527-.344,1.131-.654,2.279-.976,3.431C92.044,4.152,92.3,3.333,92.551,2.509Zm-27.716.272c-.368-.213-.733-.429-1.1-.646Q61.8,1,59.888-.174q.9,1.773,1.844,3.523A26.949,26.949,0,0,0,64.835,2.781Zm1.375.109c-.062.016-.125.032-.187.05.107.058.211.119.32.177C66.3,3.041,66.252,2.966,66.21,2.89Zm-.234-.4q-.492-.833-.968-1.675c-.427-.753-.85-1.516-1.256-2.283L63.2-1.32a5.857,5.857,0,0,0-1.534.513.3.3,0,0,1-.36-.209.3.3,0,0,1,.207-.36,6.222,6.222,0,0,0,1.675-.358l.37-.1q-.492-.93-.948-1.874c-.04-.081-.081-.163-.119-.246-2.035-1.17-4.057-2.355-6.06-3.575.1.234.2.471.3.707.5,1.2,1.065,2.412,1.633,3.576q.619,1.271,1.25,2.527C60.651-.1,61.7.508,62.747,1.094c.908.505,1.814,1.019,2.716,1.532C65.634,2.582,65.805,2.535,65.976,2.489Zm3.5-1.081Q68.852.351,68.253-.724c-.821-.435-1.637-.888-2.444-1.345-.588.179-1.178.352-1.766.517Q65.049.472,66.15,2.441C67.275,2.131,68.39,1.774,69.477,1.408ZM53.406-4.271q-3.585-2.334-7.1-4.773c.117.278.23.558.356.831.844,1.88,1.7,3.747,2.651,5.575Q53.023-.15,56.818,2.2C55.631.079,54.475-2.079,53.406-4.271ZM83.731,1.46a.2.2,0,0,1,.171-.225l.028-.044c.016.076.026.159.04.238s.024.161-.006.213A.221.221,0,0,1,83.731,1.46ZM70.853.939l.481-.161-.31-.141C70.285.309,69.556-.046,68.837-.42q.477.864.976,1.715C70.164,1.176,70.508,1.058,70.853.939ZM39.217.49C38.828.16,38.46-.178,38.059-.5l.058-.074c.427.344.88.652,1.325.97.223.159.473.286.554.574C39.658.967,39.452.689,39.217.49ZM74.1,0c-.8-.362-1.59-.729-2.37-1.125C70.655-1.666,69.6-2.284,68.551-2.9l-.9.272c.207.407.425.813.642,1.216.07.038.143.074.215.113,1.144.6,2.275,1.242,3.394,1.9C72.632.383,73.365.194,74.1,0ZM85.36-1.566c-.072-.248-.175-.507-.264-.753a1.122,1.122,0,0,0,.133.06c.165.477.324.95.481,1.429l-.121.034C85.5-1.046,85.434-1.308,85.36-1.566ZM55.826-7.905q-2.259-1.389-4.477-2.841c-.091-.056-.179-.115-.27-.175.072.183.147.368.221.548.254.624.5,1.256.765,1.874.207.481.425.97.622,1.456.366.912.809,1.822,1.226,2.71,1.208.884,2.42,1.635,3.646,2.372q.776.474,1.56.944C57.948-3.279,56.836-5.572,55.826-7.905ZM31.281-1.845l-.115-.125c.072.27.145.54.219.809C31.351-1.388,31.315-1.616,31.281-1.845Zm36.011-.67c-.24.072-.477.145-.715.215.378.2.759.395,1.137.59Q67.5-2.112,67.291-2.516Zm-1.983.163c-.242-.135-.479-.272-.717-.407-.521-.292-1.039-.59-1.556-.884q.4.867.823,1.719C64.342-2.061,64.827-2.2,65.308-2.353Zm.932-.292.848-.264q-.308-.6-.6-1.214c-.278-.165-.558-.332-.835-.5-.213.066-.429.135-.632.207-.469.173-.9.381-1.385.527a.3.3,0,0,1-.058.012c.815.439,1.641.87,2.462,1.295C66.105-2.6,66.172-2.622,66.24-2.645ZM30.371-9.153c-.145-1.381-.234-2.77-.34-4.153-.314-3.982-.471-7.984-.594-11.983-.542-.274-1.073-.554-1.6-.842.183.554.364,1.111.515,1.667a10.342,10.342,0,0,1,.352,1.705,7.875,7.875,0,0,1-.016,1.462,5.187,5.187,0,0,1-.316,1.2,4.865,4.865,0,0,1-.936,1.5,9.579,9.579,0,0,0,1.9-1.337.125.125,0,0,1,.179.012.127.127,0,0,1-.01.179,8.778,8.778,0,0,1-.964.785,6.639,6.639,0,0,1-1.558.856,1.732,1.732,0,0,1-.159.141c.042.556.1,1.113.2,1.659.1.119.211.238.32.352q-.048-.806-.079-1.615a.763.763,0,0,1,.723-.793.762.762,0,0,1,.715.425c.024-.066.048-.131.074-.2l.03-.068,0-.083c-.016-.238-.046-.471-.066-.707a.129.129,0,0,1,.115-.135.127.127,0,0,1,.133.115c0,.107.008.209.01.312v.072l.149-.3a.747.747,0,0,1,.171-.246.2.2,0,0,1,.3.173,2.572,2.572,0,0,1-.087.364c-.03.139-.056.288-.079.429-.079.519-.1,1.017-.127,1.538-.028.459-.008.94-.006,1.4,0,.864.028,1.729.034,2.593,0,.407-.042.777-.072,1.168.042.332.085.668.131,1,.185,1.4.437,2.776.725,4.147a.278.278,0,0,1,.209-.016.254.254,0,0,1,.149.322,3.765,3.765,0,0,0-.173.548c.163.737.336,1.47.513,2.2a2.384,2.384,0,0,0,.308.469C30.842-4.922,30.594-7.027,30.371-9.153ZM68.034-3.2c-.32-.189-.642-.378-.958-.568.121.252.246.5.374.749C67.643-3.084,67.841-3.142,68.034-3.2Zm1.4-.445c.972-.316,1.943-.636,2.913-.944-.175-.33-.35-.664-.523-1q-.568-.311-1.129-.63-1.018.323-2.025.644c-.711.23-1.421.463-2.134.685.028.064.058.127.087.187.234.133.467.266.7.393.509.282,1.011.57,1.518.858C69.037-3.518,69.236-3.585,69.433-3.649Zm-6.169-.433a.3.3,0,0,1,.2-.368c.453-.139.9-.209,1.355-.314.135-.03.272-.07.411-.115q-1.537-.93-3.064-1.886c-.223-.141-.447-.28-.668-.421.328.821.687,1.649,1.041,2.438.058.139.121.274.183.409.187.1.378.209.568.31A.2.2,0,0,1,63.265-4.082ZM61.225-6.75c-.109-.268-.215-.54-.32-.807q-3.092-1.966-6.114-4.022l.151.387c.421,1.077.858,2.142,1.3,3.207.574.342,1.154.678,1.731,1q2.063,1.16,4.133,2.309c.016.008.03.018.046.026C61.827-5.34,61.509-6.035,61.225-6.75ZM73.194-4.857q-.489-.257-.978-.519c.121.238.244.473.366.709C72.787-4.73,72.991-4.795,73.194-4.857ZM66-5.129c-.515-1.1-1.007-2.2-1.474-3.328-.316.076-.636.151-.954.221a.136.136,0,0,1-.159-.1.133.133,0,0,1,.1-.159c.3-.066.608-.137.91-.207-.135-.328-.268-.656-.4-.991-.1-.26-.205-.525-.3-.791-1.24-.805-2.464-1.659-3.672-2.5-.234-.159-.463-.32-.695-.483.1.322.2.646.3.968.3.956.566,1.949.922,2.885.193.515.378,1.035.572,1.548.014.04.03.079.044.121,1.053.648,2.114,1.278,3.179,1.915.515.308,1.035.618,1.556.922Zm1.117-.362q1.531-.5,3.06-1.023-.957-.553-1.9-1.121c-.678-.407-1.349-.827-2.015-1.25-.457.117-.914.234-1.373.344.232.574.477,1.152.731,1.7s.5,1.067.745,1.6ZM28.174-9.139c-.058,0-.068-.03-.066-.07,0-.109,0-.219,0-.33-.306-1.772-.477-3.038-.59-4.129a.448.448,0,0,1-.2.131.434.434,0,0,1-.225.016c.093.709.205,1.411.334,2.1.147.8.3,1.619.5,2.406.234.912.447,1.83.721,2.732.022.081.046.161.068.244A23.76,23.76,0,0,1,28.174-9.139ZM86.31-7.11a.18.18,0,0,1-.115-.223.181.181,0,0,1,.223-.115c.284.093.578.145.854.234.022.062.052.123.076.181l.046.089-.089.044c-.054.036-.111.074-.167.107C86.862-6.891,86.59-7.011,86.31-7.11Zm-15.129.258q-.74-1.483-1.425-2.994c-.9.258-1.79.509-2.686.749,1.325.777,2.663,1.532,4,2.283C71.1-6.826,71.142-6.838,71.181-6.852Zm1.373-.459c.7-.232,1.389-.469,2.086-.7-.314-.177-.628-.358-.944-.536-.926-.523-1.838-1.075-2.742-1.643-.3.087-.6.175-.9.26q.661,1.51,1.383,2.992C71.811-7.064,72.179-7.188,72.554-7.311ZM89.91-10.935q-.528,1.522-1.043,3.044c.109.2.219.411.33.614C89.461-8.487,89.7-9.707,89.91-10.935ZM76.6-8.247q-.293.115-.586.223c.316.175.632.35.942.536C76.838-7.74,76.719-7.994,76.6-8.247Zm-.147-.32c-.429-.94-.842-1.9-1.224-2.879-.791.232-1.58.467-2.37.7-.385.115-.769.225-1.152.338.578.342,1.16.678,1.745,1,.678.378,1.373.741,2.062,1.111C75.827-8.39,76.141-8.479,76.455-8.568ZM95.792-9.574c.2-.882.395-1.76.57-2.639.167-.846.338-1.7.507-2.563q-.181.7-.368,1.4-.565,2.54-1.178,5.067C95.484-8.737,95.637-9.157,95.792-9.574ZM54.7-10.645q-.266-.67-.509-1.345c-1.572-1.075-3.131-2.166-4.663-3.32,0,.012.008.024.012.034.455,1.351.906,2.7,1.415,4.032q.468.3.938.6c1.013.646,2.045,1.254,3.068,1.882.221.139.447.276.672.413Q55.151-9.49,54.7-10.645ZM65.96-9.079c-.383-.24-.767-.481-1.152-.721-.181-.111-.36-.223-.54-.336.123.324.25.648.376.972.046.125.1.248.145.374C65.181-8.882,65.572-8.98,65.96-9.079Zm3.69-1c-.189-.421-.376-.848-.542-1.286l-.018-.012q-1.148-.731-2.265-1.5-.918.16-1.842.294a.265.265,0,0,1-.3-.221.264.264,0,0,1,.223-.3c.439-.066.882-.123,1.325-.183-1.115-.771-2.219-1.556-3.322-2.343-.24-.169-.475-.336-.713-.509.312,1.071.656,2.134,1.021,3.171.234.668.477,1.327.725,1.983.924.58,1.862,1.144,2.808,1.7Q68.206-9.663,69.651-10.077Zm1.019-.292-1.1-.7q.193.456.389.91Zm2.611-.763,1.862-.542c-.344-.892-.66-1.8-.938-2.712l-.058-.044a.089.089,0,0,1-.02,0c-1.806.417-3.61.833-5.424,1.2.167.439.338.872.513,1.3q.417.266.844.523c.449.274.9.548,1.355.819Zm13.9-.944a.15.15,0,0,1-.064-.2.152.152,0,0,1,.2-.064,18.592,18.592,0,0,0,2.3,1.031.157.157,0,0,1,.089.2.157.157,0,0,1-.2.089A19.358,19.358,0,0,1,87.184-12.077ZM62.324-15.07c-.1-.391-.193-.783-.278-1.176-.874-.63-1.745-1.276-2.607-1.933-2.011-.145-4.02-.33-6.026-.538-.24-.024-.479-.048-.719-.077q2.473,1.918,5.035,3.7.55.384,1.1.757c-.044-.24-.091-.483-.115-.723a.079.079,0,0,1,.058-.095.082.082,0,0,1,.095.058q.145.5.3.984c1.264.856,2.537,1.691,3.823,2.521.149.1.3.2.449.288C63.013-12.546,62.647-13.82,62.324-15.07Zm14.113,3.018c.2-.058.409-.121.62-.185-.58-.419-1.152-.852-1.717-1.284-.276-.207-.548-.417-.821-.624.24.819.511,1.625.805,2.42C75.694-11.835,76.065-11.942,76.437-12.052Zm-8.081-1.109c-.274.056-.546.107-.817.157q.589.387,1.184.765C68.6-12.546,68.475-12.852,68.356-13.162ZM36.7-13.329a3.347,3.347,0,0,1-.59-1.462,2.958,2.958,0,0,1,.731,1.54c.085.262.175.519.282.769C37-12.767,36.849-13.053,36.7-13.329Zm31.485-.28c-.453-1.188-.874-2.44-1.216-3.662-.05-.175-.1-.354-.157-.536a.1.1,0,0,1-.022-.044q-2.555-.036-5.1-.185c.1.413.211.827.326,1.236.574.415,1.144.827,1.715,1.236.95.684,1.955,1.355,2.937,1.991l.284.185Q67.566-13.484,68.183-13.609Zm2.5-.536c.976-.211,1.951-.453,2.923-.7-.419-.318-.84-.638-1.258-.958-.465-.352-.932-.717-1.405-1.057-.2-.141-.4-.284-.6-.427-1.053-.1-2.1-.232-3.143-.419.008.028.016.054.026.083.28.932.556,1.854.882,2.77.137.395.282.785.427,1.172C69.25-13.826,69.967-13.989,70.679-14.144Zm-43.3-1.174.062.066-.072-.079c-.068-.072-.133-.145-.2-.219q.112.486.262.966C27.411-14.833,27.393-15.074,27.377-15.318Zm1.6-1.184c0-.318.006-.642.024-.966l-.072.3-.016.074-.052.421-.024.2a12.617,12.617,0,0,0,.185,1.613C28.983-15.409,28.975-15.96,28.975-16.5Zm44.591-.338c-.02-.091-.04-.181-.058-.274q-1.235-.024-2.462-.115c.066.048.133.1.2.143.509.36,1,.755,1.51,1.123.421.306.838.614,1.254.926C73.844-15.638,73.691-16.238,73.566-16.84Zm-11.894-1.2c-.505-.028-1.011-.06-1.514-.093q.471.347.946.682l.807.578C61.831-17.257,61.753-17.645,61.672-18.036Zm11.707.165c-1.055.034-2.114.046-3.173.044.157.109.314.221.471.332q1.389.118,2.788.145C73.433-17.52,73.407-17.7,73.379-17.871Zm-47.434.2c-.04.008-.081.014-.121.02.044.056.093.109.139.163C25.958-17.551,25.952-17.611,25.945-17.673Zm43.6-.177a.15.15,0,0,1-.024-.014c-.344.036-1.043.03-1.739.024q1.087.172,2.18.282C69.822-17.657,69.683-17.754,69.544-17.851Zm26.987-3.994c-.072.024-.145.05-.217.076-.344.125-.719.244-1.093.354a5.145,5.145,0,0,1,.558.318.153.153,0,0,1,.085.2.152.152,0,0,1-.2.085,6.738,6.738,0,0,1-1.236-.383h0c-.833.215-1.659.455-2.5.652a11.678,11.678,0,0,1,1.337.55.172.172,0,0,1,.1.219.175.175,0,0,1-.221.1,11.38,11.38,0,0,1-1.888-.715l-.582.135c.286.125.57.254.854.374,1.443.624,2.814,1.26,4.274,1.764Q96.187-19.979,96.531-21.845ZM66.707-18.209c-.06-.2-.1-.366-.141-.507-2.1.149-4.2.217-6.3.193l-.646-.006.242.177c.586.03,1.176.054,1.764.074-.012-.052-.024-.1-.034-.159.012.054.024.107.038.159C63.317-18.219,65.014-18.2,66.707-18.209Zm-7.741-.332c-.906-.016-1.82-.048-2.71-.127-.682-.062-1.367-.115-2.049-.179-.62-.058-1.238-.131-1.856-.211l.183.141c.6.064,1.21.123,1.814.173,1.105.091,2.2.185,3.308.262.5.036,1.007.066,1.512.1Zm-33.472-.167.389-.081c0-.068,0-.135,0-.2a10.593,10.593,0,0,1,.278-1.967,1.414,1.414,0,0,1,.032-.155.238.238,0,0,1,.429-.02,1.678,1.678,0,0,1,.111,1.325l-.012.054.018.159c0,.022,0,.046.006.07a3.634,3.634,0,0,0,.246-.374,5.59,5.59,0,0,0,.058-4.711c-.3-.886-.642-1.822-.874-2.726-.014-.048-.028-.107-.046-.173-.24-.147-.5-.33-.7-.483a4.876,4.876,0,0,0-.538-.423.111.111,0,0,1-.038-.147.108.108,0,0,1,.145-.038,3.4,3.4,0,0,0,.592.252c.133.054.284.127.431.2a.8.8,0,0,1,.012-.25c.093-.326.491-.467.779-.608a13.363,13.363,0,0,0,1.355-.918l.1-.056,0-.294c0-.207.006-.413-.006-.628-.052-.819-.209-1.655-.338-2.462-.062-.391-.123-.791-.191-1.18a1.223,1.223,0,0,1-.006-.626c.161-.374.65-.437.928-.711.147-.141.312-.268.465-.413-.018-.644-.036-1.29-.052-1.935a11.809,11.809,0,0,1,.149,1.842,7.6,7.6,0,0,1,.922-.8l.068-.044L30.2-38.861a.034.034,0,0,1,.014-.034,56.286,56.286,0,0,1-7.427-4.113.171.171,0,0,1-.052-.234.171.171,0,0,1,.234-.052,55.887,55.887,0,0,0,7.362,4.059.6.6,0,0,1,.147-.139c-.038-.024-.074-.05-.113-.079a.3.3,0,0,1-.091-.4c-.221-.153-.387-.272-.554-.393A14.723,14.723,0,0,1,27.8-42a.31.31,0,0,1,0-.437.313.313,0,0,1,.439.006A20.2,20.2,0,0,0,34.5-38.1a32.424,32.424,0,0,0,4.51,1.768c.592.183,1.18.378,1.78.542.85.232,1.7.449,2.569.654a36.852,36.852,0,0,0,13.42.1c.972-.185,1.909-.409,2.867-.662-.056.211-.389.223-.556.29a7.885,7.885,0,0,1-.823.232c-.358.1-.729.193-1.091.268-.387.079-.771.177-1.16.242a34.59,34.59,0,0,1-6.042.572c-.457,0-.908-.008-1.359-.02q1.67.251,3.346.441c1.641.058,3.28.083,4.922.062,1.538-.018,3.084-.1,4.62-.079,1.8.02,3.614.183,5.406.376a1.525,1.525,0,0,1-.656.215c.387-.01.771-.024,1.156-.036-1.3-.914-2.577-1.858-3.833-2.855-.588-.465-1.188-.92-1.762-1.4a.1.1,0,0,1-.016-.139.1.1,0,0,1,.137-.014c.938.745,1.89,1.464,2.857,2.17.566.413,1.146.8,1.711,1.214q.7.507,1.413,1,1.927-.079,3.855-.223-1.021-.7-2.045-1.417c-.35-.074-.7-.157-1.043-.25-.638-.169-1.258-.352-1.892-.538.052-.026.1-.054.155-.085.6.155,1.2.3,1.806.443.173.04.346.076.521.111-2.122-1.49-4.236-3-6.311-4.544l.062-.087c2.3,1.679,4.655,3.251,7.048,4.775.9.151,1.82.258,2.72.344a32.735,32.735,0,0,0,3.555.129c.429,0,.862-.018,1.29-.036q-.559-.384-1.107-.765c-3.382-2.343-6.722-4.864-9.955-7.411l-.016-.125.127-.016c3.012,2.376,6.108,4.657,9.249,6.857q1.045.731,2.11,1.437a34.524,34.524,0,0,0,5.844-.8c-1.627-.962-3.233-1.949-4.84-2.945-2.289-1.413-4.582-2.869-6.768-4.433-1.343-.962-2.655-1.939-3.948-2.97-.5-.4-.976-.815-1.47-1.22l-.008-.1.1-.008c1.454,1.278,3.064,2.47,4.636,3.6,2.394,1.717,4.914,3.308,7.445,4.814,1.178.7,2.349,1.413,3.537,2.1q.64.371,1.282.751a.068.068,0,0,1,.024-.008c.328-.026.789-.119,1.115-.179.745-.141,1.51-.232,2.261-.368.592-.107,1.188-.221,1.784-.35a5.478,5.478,0,0,1-.9-.328.183.183,0,0,1-.147-.211A.2.2,0,0,1,88-37.256c-1.894-1.129-3.743-2.311-5.567-3.549-1.079-.733-2.166-1.454-3.243-2.19-.876-.6-1.756-1.2-2.645-1.778-.934-.6-1.874-1.2-2.808-1.8-.956-.616-1.977-1.15-2.955-1.727a.085.085,0,0,1-.032-.115.086.086,0,0,1,.115-.03c.972.574,1.967,1.1,2.929,1.705.894.556,1.772,1.139,2.659,1.7.966.612,1.931,1.27,2.873,1.919.737.505,1.486,1,2.227,1.5,1.452.97,2.9,1.955,4.385,2.873q1.138.707,2.3,1.389c.566-.008,1.131-.048,1.7-.042a16.38,16.38,0,0,0,1.9-.042c.566-.2,1.121-.419,1.675-.634-.016-.064-.03-.125-.04-.179a.982.982,0,0,1,.421-.254,1.582,1.582,0,0,1,.687-.149,1.385,1.385,0,0,1,.2.064c.05-.018.1-.04.147-.062a29.044,29.044,0,0,1-3.34-1.46,71.925,71.925,0,0,1-9.663-6.261c-2.5-1.858-4.987-3.731-7.5-5.569l-.018-.109.107-.016c2.2,1.615,4.4,3.251,6.617,4.844,2.011,1.446,4.032,2.879,6.142,4.177,1.3.8,2.6,1.522,3.936,2.247s2.686,1.4,4.069,1.989c.646-.29,1.282-.6,1.921-.912A9.2,9.2,0,0,0,98.3-40.773a.3.3,0,0,1,.419-.01.3.3,0,0,1,.012.419l-.016.016c.034-.022.05,0,.06.018a.171.171,0,0,1,.006.137,2.082,2.082,0,0,0,.232-.089,5.321,5.321,0,0,0,2.831-3.187,5.045,5.045,0,0,0,.276-1.667A4.072,4.072,0,0,0,101.7-46.8c-.115-.232-.344-.479-.429-.7a.843.843,0,0,1-.058-.387,4.608,4.608,0,0,1,.111-.5,6.923,6.923,0,0,0,.127-.84,12.289,12.289,0,0,0-.125-3.249,18.927,18.927,0,0,0-1.842-5.341,18.7,18.7,0,0,0-2.277-3.644c-.232-.266-.469-.538-.723-.785-.155-.151-.417-.34-.544-.493a2.919,2.919,0,0,0-.26-.266.791.791,0,0,1-.757-.3c-.248-.306-.463-.63-.725-.932a12.488,12.488,0,0,0-3.01-2.629c-.072.024-.147.044-.215.068-.288.1-.606.284-.888.413-.2.089-.4.209-.6.288a4.954,4.954,0,0,1-1.836.411,11.743,11.743,0,0,1-6.233-2.382c-.765-.536-1.4-1.2-2.116-1.78-.2-.159-.4-.376-.61-.536a7.476,7.476,0,0,0-1.206.87c-.3.25-.554.767-.942.842a.7.7,0,0,1-.4-.038,1.733,1.733,0,0,1-.493-.447c-.266-.274-.515-.544-.8-.8a14.4,14.4,0,0,0-1.645-1.321l-.531.038c-.956.07-1.907.145-2.861.234-.519.048-1.061.091-1.578.167-.358.052-.719.093-1.079.141-.395.052-.783.143-1.174.2a4.291,4.291,0,0,0-.507.109c-.227.066-.447.121-.674.193-.048.014-.344.159-.346.159-.028.157-.246.25-.4.24-.385-.024-.769-.052-1.154-.072-.451-.024-.9-.064-1.347-.109-.139.079-.28.161-.421.244-.242.143-.664.443-.956.576.517.215,1.033.449,1.56.7a23.165,23.165,0,0,1,3.578,2.18c.125.093.258.189.393.29l.193.145-.131-.316a.308.308,0,0,1,.185-.393.308.308,0,0,1,.393.185,9.859,9.859,0,0,0,.389,1.164c.081.189.312.356.232.586a.377.377,0,0,1-.479.236,6.439,6.439,0,0,1-1.047-.745,25.536,25.536,0,0,0-5.794-3.348,23.729,23.729,0,0,0-9.613-1.8c-.161.028-.32.058-.471.091a15.019,15.019,0,0,0-1.81.521c.3.209.586.463.882.666.213.048.429.095.648.141l.058.079-.079.058c-.131,0-.274,0-.419-.014a3.1,3.1,0,0,1-1.691.23,4.194,4.194,0,0,1-1.107-.381c-.238.147-.471.312-.672.467-.147.115-.286.248-.433.36a.228.228,0,0,1-.318-.026.23.23,0,0,1,.026-.318c.306-.262.6-.5.9-.719l-.089-.04c-.336-.05-.666-.1-1-.157-.026,0-.048-.006-.072-.01-.407.133-.811.264-1.214.413a.165.165,0,0,1-.205-.1.165.165,0,0,1,.1-.205l.632-.225q-.746-.127-1.5-.258c-.439-.072-.878-.159-1.317-.236-.042.032-.085.062-.123.089-.435.282-.622.93-1.18.993a1.467,1.467,0,0,1-.423-.058,18.562,18.562,0,0,0-2.623-.455,14.257,14.257,0,0,0-2.307-.085c-.169.012-.342.01-.511.02s-.362.044-.538.048a7.869,7.869,0,0,0-1.115.157,9.1,9.1,0,0,0-3.739,1.423,5.665,5.665,0,0,0-1.611,1.53,5.965,5.965,0,0,0-.481.9c-.04.1-.066.211-.107.312a4.277,4.277,0,0,0-.209.817.255.255,0,0,1,.308.032.255.255,0,0,1,.006.354l-.391.562a3.537,3.537,0,0,0,.01.638c.032.24.046.483.083.727a11.679,11.679,0,0,0,.25,1.15.43.43,0,0,1-.308.521.429.429,0,0,1-.519-.308,4.841,4.841,0,0,1-.159-.632c-.07-.342-.137-.682-.187-1.029a15.556,15.556,0,0,1-1.282,1.268c-.234.209-.475.415-.719.622a9.557,9.557,0,0,0-.811,2.49,7.873,7.873,0,0,0-.093,1.921,7.949,7.949,0,0,1,.109.9c-.04.306-.3.308-.534.326a4.592,4.592,0,0,0-1.86.431l-.1.054c.012.058.024.113.036.165a.434.434,0,0,1-.332.515A.44.44,0,0,1,19-53.706c-.052.046-.107.095-.163.149-.1.095-.191.193-.282.3a.734.734,0,0,1-.1.942,5.167,5.167,0,0,0-1,1.2,11.781,11.781,0,0,0-.133,5.349,13.38,13.38,0,0,0,.447,1.7c.1.3.179.6.29.9a8.167,8.167,0,0,0,1.421,2.521l.215.213.29-.006a1.464,1.464,0,0,0,1.029-.1,1.583,1.583,0,0,0,.205-.123.161.161,0,0,1,.219.05.164.164,0,0,1-.052.221,1.644,1.644,0,0,1-1,.334c-.113,0-.24-.03-.35-.032a2.906,2.906,0,0,1-.493,0,5.119,5.119,0,0,1-.747-.757,10.369,10.369,0,0,1-1.576-2.587,10.935,10.935,0,0,1-.6-2.013,13.6,13.6,0,0,1-.3-3.135c-.111.393-.2.8-.272,1.21.036.151.07.3.1.429.177.662.36,1.347.515,2.011.1.411.254.827.385,1.226a8.262,8.262,0,0,0,3.328,4.55.36.36,0,0,1,.1.5.362.362,0,0,1-.5.1c-2.206-1.347-3.368-3.662-4.123-6.052,0,.044.008.085.012.123a10.124,10.124,0,0,0,.507,2.762c.109.276.2.534.324.805a4.953,4.953,0,0,0,2.458,2.537.8.8,0,0,1,1.017.083.105.105,0,0,0,.02.022.214.214,0,0,1,.083-.326.352.352,0,0,1,.481.123,11.784,11.784,0,0,0,.858,1.252c.582.793,1.218,1.641,1.725,2.48a4.231,4.231,0,0,1,.809,1.764c-.014.248-.1.523-.1.787-.006.314-.064.648-.093.964-.03.346-.056.695-.1,1.041-.028.254-.048.542-.06.8-.016.36-.064.727-.085,1.089a.05.05,0,0,0,0,.016l.028.018a.8.8,0,0,1,.28.469.9.9,0,0,1-.068.493c-.026.064-.109.127-.151.193a1.514,1.514,0,0,0-.119.306c-.03.415-.032.831-.028,1.252,0,.534,0,1.085.042,1.617.02.3.056.61.07.912.014.36.044.743.095,1.1a9.116,9.116,0,0,0,.31,1.564,4.723,4.723,0,0,0,.552,1.252,2.925,2.925,0,0,0,.372.437A3.326,3.326,0,0,0,25.495-18.708ZM23.467-20.17l0,.475v.06c.07.2.143.391.225.582a2.14,2.14,0,0,0,.771.318Q23.937-19.438,23.467-20.17Zm53.479-.469c-.1-.04-.191-.085-.284-.127-.8.048-1.6.093-2.4.127.266.1.536.2.8.3C75.7-20.436,76.32-20.534,76.947-20.639Zm-53.7-1.1a13.173,13.173,0,0,1-.227-1.419c-.014-.205-.026-.409-.036-.62a8.207,8.207,0,0,0,.185,2.657.492.492,0,0,1,.294.443c.024.042.052.081.079.119A9.781,9.781,0,0,1,23.25-21.738Zm55.07.858c-.316.024-.632.048-.948.066.056.026.111.05.165.072C77.8-20.786,78.058-20.832,78.32-20.88Zm11.049-2.935a.107.107,0,0,1-.137-.062.107.107,0,0,1,.062-.137c.01-.242.529-.5.747-.461a1.578,1.578,0,0,1,.362.153.866.866,0,0,1-.215.415C90.02-23.769,89.535-23.635,89.368-23.816ZM29.716-25.533c0,.054,0,.109.008.163.244.1.489.2.739.294s.5.183.753.264C30.713-25.042,30.209-25.283,29.716-25.533Zm6.026-.33a.17.17,0,0,1-.02-.236.17.17,0,0,1,.236-.02,1.542,1.542,0,0,0,.582.278c-.014.062-.032.129-.044.191a.158.158,0,0,1,.02.219.158.158,0,0,1-.219.02c-.062.024-.123.052-.183.076A1.861,1.861,0,0,0,35.742-25.863Zm-6.318.185c-.415-.205-.831-.4-1.234-.636-.173-.1-.344-.2-.517-.3.04.119.079.236.119.354.536.284,1.083.534,1.637.769C29.428-25.553,29.426-25.616,29.424-25.678Zm62.261-.93c-.894-.415-1.78-.835-2.67-1.258a.093.093,0,0,1-.044-.119.092.092,0,0,1,.119-.042c.745.354,1.486.7,2.243,1.023.489.213,1.055.4,1.524.638.223.115.417.234.628.366A5.367,5.367,0,0,1,91.685-26.608Zm-14.368-.33c-2.5-1.379-4.934-2.867-7.34-4.453-.236-.153-.471-.31-.7-.465-1.878.056-3.775.054-5.645,0,.966.775,1.935,1.476,2.955,2.178.525.36,1.091.711,1.639,1.035,1,.594,2,1.192,3.03,1.721q.477.248.96.489C73.917-26.56,75.612-26.773,77.317-26.938ZM29.324-29.255a.467.467,0,0,1-.087.091c-.1.081-.242.133-.352.209-.149.1-.3.211-.449.314-.24.165-.493.358-.759.536l-.362.225.022.119c.026.125.054.244.085.358.4.205.807.393,1.21.586.256.125.513.254.771.381Q29.36-27.847,29.324-29.255ZM23.083-29.5c.04-.767.147-1.546.234-2.311.032-.3.089-.612.129-.91.006-.04.016-.1.024-.161l.012-.1,0-.083a1.759,1.759,0,0,0-.127-.306,9.046,9.046,0,0,0-.594-1.021c-.381-.6-.811-1.188-1.232-1.768,0,.427.01.848.006,1.276a13.849,13.849,0,0,0,.32,4.53,3.214,3.214,0,0,0,1.123,1.6.716.716,0,0,0,.062.046C23.052-28.972,23.067-29.235,23.083-29.5Zm6.082-5.253-.141.095-.058.034.119.761c.042.26.087.517.129.777C29.2-33.64,29.181-34.2,29.165-34.752Zm49.2.713c-.034-.02-.068-.044-.1-.066a33.277,33.277,0,0,1-5.633-.217c-.662-.083-1.343-.179-2.017-.3q.885.559,1.78,1.113l.111.072Q75.437-33.667,78.36-34.039Zm1.025-.133a.05.05,0,0,0,.016,0q-.359.03-.719.048c.02.012.04.026.058.038C78.956-34.115,79.169-34.142,79.385-34.172Zm8.067-1.921-.135.024c-.739.131-1.49.234-2.225.374-.242.046-.566.109-.858.153.083.046.161.1.244.145Q85.976-35.7,87.452-36.092Zm10.082-2.247c.01,0,.024-.012.04-.02a.915.915,0,0,1-.266-.2.722.722,0,0,1-.064.288A1.152,1.152,0,0,0,97.534-38.339Zm-66.106-.445v.034a1.727,1.727,0,0,0,.167.07C30.991-39.018,30.773-39.167,31.427-38.784ZM88.744-50.223q-2.18-1.679-4.367-3.34c-.682-.519-1.4-1.007-2.078-1.532.626.439,1.258.872,1.874,1.325s1.226.916,1.842,1.367c1.6,1.174,3.153,2.4,4.779,3.541a42.007,42.007,0,0,0,5.1,3.2c.517.26,1.039.552,1.572.783a.159.159,0,0,1,.07.211.161.161,0,0,1-.211.07A50.252,50.252,0,0,1,88.744-50.223Zm-48.9,1.57a.48.48,0,0,1,.479-.479h1.119a.481.481,0,0,1,.481.479.481.481,0,0,1-.481.481H40.326A.481.481,0,0,1,39.847-48.653ZM97.214-53.42c-.54-.27-1.075-.554-1.617-.817s-1.069-.5-1.592-.769a.092.092,0,0,1-.042-.119.09.09,0,0,1,.117-.042c1.1.544,2.217,1.055,3.3,1.631.531.286,1.077.566,1.6.86s1.027.59,1.544.868a.091.091,0,0,1,.034.123.089.089,0,0,1-.121.034C99.36-52.232,98.307-52.871,97.214-53.42ZM19.855-55.089a3.993,3.993,0,0,1,.98-.268l.61-.056-.052-.374a8.845,8.845,0,0,1,.429-3.517,5.7,5.7,0,0,0-2.209,4.053,2.334,2.334,0,0,0,0,.266C19.694-55.021,19.773-55.055,19.855-55.089Zm46.427-9.527-.024-.129A.356.356,0,0,0,66.283-64.616ZM86.8-67a9.972,9.972,0,0,0-.342-1.069.538.538,0,0,1-.236-.441.411.411,0,0,1,0-.07c0-.01-.01-.02-.014-.032a3.348,3.348,0,0,0-.354-.574c-.083-.089-.149-.2-.232-.292s-.159-.165-.227-.252a4.609,4.609,0,0,0-.888-.689,2.917,2.917,0,0,0-.477-.25c-.1-.028-.209-.107-.312-.135a5.6,5.6,0,0,0-.844-.242,6.033,6.033,0,0,0-.739-.1,6.869,6.869,0,0,0-2.641.391,27.214,27.214,0,0,0,2.394,2,14.77,14.77,0,0,0,3.437,1.764,8.582,8.582,0,0,0,1.554.4C86.854-66.728,86.832-66.869,86.8-67Zm1.715.332c.2-.066.374-.119.572-.191.336-.127.654-.33.984-.467.042-.018.085-.036.127-.052a7.472,7.472,0,0,0-1.178-.389,7.2,7.2,0,0,0-.98-.161,10.048,10.048,0,0,1,.268,1.238c0,.022.006.046.008.068A1.021,1.021,0,0,0,88.513-66.665ZM56.375-70.412l-.338-.022c.157.034.316.064.477.1Zm20.032.034.056-.064a6.215,6.215,0,0,1,.662-.568c.117-.087.238-.171.36-.252l.06.036-.4-.254-1.619.054-.205.01c.175.151.342.306.505.459Zm-12.48-.213L64-70.66a2.08,2.08,0,0,1,.556-.292,3.811,3.811,0,0,0-1.3.157c-.133.048-.264.1-.389.151Zm5.635-1.188c.538-.056,1.1-.115,1.639-.147.254-.012.509-.036.765-.058a4.061,4.061,0,0,0-1.067-.3,2.808,2.808,0,0,0-1.512.157,3.431,3.431,0,0,0-.465.248,1.114,1.114,0,0,0-.147.115c-.032.028-.064.054-.095.079C68.976-71.714,69.27-71.747,69.562-71.779Z" transform="translate(-14.772 73.677)"/></g></g></svg>