<svg xmlns="http://www.w3.org/2000/svg" width="76.21" height="145.405" viewBox="0 0 76.21 145.405"><defs><style>.a{fill-rule:evenodd;}</style></defs><g transform="translate(0 0)"><path class="a" d="M42.574,70.1c-.761-.165-1.522-.318-2.277-.515a35.76,35.76,0,0,1-12.166-5.242.116.116,0,0,1-.048-.05s0,0,0-.006a.107.107,0,0,1-.024-.064v0a.111.111,0,0,1,0-.068l0-.006a.045.045,0,0,1,0-.024.091.091,0,0,1,.022-.038l0-.006a.1.1,0,0,1,.048-.046l-.1-.06a.392.392,0,0,1-.225-.4l.032-.121-.6-.272a3.138,3.138,0,0,1-.691-.417c-.2-.163-.413-.31-.453-.584a4.521,4.521,0,0,1,.2-1.445,7.515,7.515,0,0,1,2.291-3.469c.185-.177.4-.326.594-.5s.457-.332.674-.5a14.569,14.569,0,0,1,1.542-.954,18.556,18.556,0,0,1,2.132-1.031c.28-.115.574-.252.858-.348.378-.129.765-.286,1.144-.423.775-.282,1.588-.534,2.386-.747q1.622-.435,3.267-.757c.946-.183,1.919-.314,2.873-.455.854-.125,1.729-.177,2.589-.262.2-.02.429,0,.644-.01.825-.048,1.641-.068,2.468-.05a5.766,5.766,0,0,1,.876.048c.028-.23.058-.459.089-.691a.53.53,0,0,1-.972-.294c.131-1.812.236-3.618.242-5.436a.29.29,0,1,1,.58,0c0,1.733.095,3.473.223,5.2.062-.469.127-.938.185-1.407.121-.97.221-1.943.324-2.885.169-1.832.322-3.634.433-5.444.276-4.572.358-9.15.189-13.728-.1-2.672-.2-5.313-.457-7.976-.205-2.11-.443-4.22-.775-6.313-.032-.2-.064-.4-.093-.574-.056-.213-.107-.4-.155-.6-.107-.417-.234-.805-.326-1.228A.586.586,0,0,1,50.2,9.45c-.139-.747-.284-1.494-.425-2.243a.5.5,0,0,1,.056-.35c-.044-.1-.089-.2-.131-.294a13.646,13.646,0,0,0-.848-1.552C48.48,4.4,48.1,3.817,47.7,3.225c-.441-.648-.938-1.284-1.435-1.909-.185-.038-.37-.081-.552-.125A17.53,17.53,0,0,1,40.3-1.459c-.473-.314-.932-.67-1.4-1-1-.709-1.977-1.464-2.959-2.194-.731-.487-1.431-1.073-2.116-1.623a29.53,29.53,0,0,1-3.278-3.048c-.676-.743-1.309-1.466-1.951-2.237-.368-.441-.723-.934-1.057-1.4a34.33,34.33,0,0,1-2.555-4.121,41.354,41.354,0,0,1-2.674-6.432c-.389-1.208-.719-2.442-1-3.694l-.608-3.416-.175-.61c-.131-.521-.232-1.053-.36-1.576-.137-.56-.219-1.152-.33-1.719-.058-.294-.091-.59-.135-.886-.1-.652-.185-1.3-.252-1.955a52.022,52.022,0,0,1,.014-10.68c.141-1.359.334-2.7.574-4.047.143-.8.286-1.609.477-2.4.356-1.488.779-2.961,1.244-4.423a.168.168,0,0,1-.03-.1c-.006-1.651-.308-4.316.741-5.752.083-.113.169-.238.26-.342.058-.068.139-.083.205-.131s.121-.113.181-.161c.117-.093.26-.169.381-.266a.375.375,0,0,1,.519.1.383.383,0,0,1,.06.167c.052-.133.1-.268.159-.4a.388.388,0,0,1,.211-.221l.256-.008.066-.2a1.974,1.974,0,0,1-.568-.8,1.174,1.174,0,0,1-.07-.193c-.03-.185-.153-.523.058-.648.151-.091.451.044.6.077s.32.07.481.109l0,.006.058-.173-.225-.064q-.571-.157-1.141-.324c-.445.151-.89.308-1.323.473-.217.083-.429.183-.648.262a.282.282,0,0,1-.358-.169.282.282,0,0,1,.169-.358c.443-.149.886-.3,1.327-.455-.328-.1-.658-.205-.984-.312a.188.188,0,0,1-.123-.232.188.188,0,0,1,.232-.123c.489.161.986.312,1.484.457l.578-.2a.261.261,0,0,1-.042-.062c-.171-.356.264-.451.5-.542.127-.05.254-.1.381-.151a3.393,3.393,0,0,1,2.353-.244l0,0c.695-.221,1.4-.419,2.1-.616,1.957-.544,3.942-.956,5.927-1.375,2.464-.521,5.015-.85,7.515-1.142.387-.044.779-.07,1.166-.113.787-.087,1.58-.133,2.366-.173.25-.034.493-.068.739-.1,1.28-.185,2.591-.322,3.879-.437,2.265-.2,4.546-.336,6.819-.368,1.341-.02,2.676.008,4.016.034,1.276.024,2.549.135,3.821.209,1.439.085,2.915.292,4.347.475,1.035.131,2.078.342,3.1.531.817.153,1.643.326,2.46.521.773.125,1.536.25,2.307.383,2,.346,4.057.807,6.016,1.333,2.255.6,4.548,1.236,6.758,2.023q.743-.217,1.492-.445a.188.188,0,0,1,.232.123.188.188,0,0,1-.123.232q-.5.157-1,.308l.262.1c.36.137.727.232,1.085.362a.282.282,0,0,1,.169.358.282.282,0,0,1-.358.169c-.215-.074-.413-.169-.622-.252-.451-.175-.918-.326-1.379-.483-.223.066-.445.133-.666.2l.125.177c.2-.05.427-.066.453.169a1.223,1.223,0,0,1-.034.419c.064.1.125.2.185.29a16.96,16.96,0,0,1,.93,1.588c.028.062.058.123.087.183a.539.539,0,0,1,.193.131,6.7,6.7,0,0,1,.445.672,5.2,5.2,0,0,1,.511,1.8c.157.411.3.829.439,1.252a38.2,38.2,0,0,1,1.379,6.05c.072.491.145.984.189,1.48.068.749.149,1.488.205,2.239a4.184,4.184,0,0,1,.022,1.015,2.493,2.493,0,0,1-.193.548c.02.129.038.258.058.385.161,1.081.258,2.209.336,3.3A50.437,50.437,0,0,1,94.9-35.549c-.125.87-.27,1.792-.465,2.647l-.576,2.2-.079.628q-.293,1.83-.723,3.648c.06.016.123.032.185.046.207.052.423.079.628.131a.455.455,0,0,1,.344.542.455.455,0,0,1-.542.344,5.518,5.518,0,0,1-.723-.185l-.1-.03q-.29,1.123-.636,2.239a40.247,40.247,0,0,1-1.492,3.932,32.813,32.813,0,0,1-2.492,4.693A36.79,36.79,0,0,1,83.337-8.6c-.417.421-.86.862-1.3,1.248-.789.687-1.611,1.409-2.458,2.025-.668.485-1.333.98-2,1.472-1.148.848-2.285,1.693-3.453,2.513a17.139,17.139,0,0,1-4.755,2.394c-.215.062-.67.2-1.057.282a28.273,28.273,0,0,0-3.563,5.506.53.53,0,0,1,.07.372c-.147.737-.3,1.474-.437,2.211a.5.5,0,0,1,.107.27,4.783,4.783,0,0,1-.28,1.184c-.074.256-.147.515-.215.775-.215,1.347-.4,2.7-.566,4.047-.284,2.305-.5,4.659-.618,6.978-.074,1.518-.113,3.034-.173,4.552-.129,3.225-.07,6.481.046,9.706.087,2.436.238,4.892.441,7.294.191,2,.407,3.956.664,5.911.127-1.758.225-3.511.232-5.277a.29.29,0,1,1,.58,0c0,1.812.1,3.63.242,5.436a.533.533,0,0,1-1,.262c.032.24.066.483.1.725a6,6,0,0,1,.95-.052c.844-.008,1.643.03,2.482.06.139.006.258-.028.407-.01.3.036.624.042.93.072.544.054,1.085.115,1.627.175,1.2.131,2.43.358,3.612.592a25.063,25.063,0,0,1,2.615.62c.411.131.835.219,1.242.362s.817.262,1.222.4A26.426,26.426,0,0,1,82.3,54.853c.278.141.582.276.846.439.211.129.443.24.654.368s.421.272.634.4a10.883,10.883,0,0,1,2.343,2.005,5.256,5.256,0,0,1,.352.415c.143.2.288.393.425.6a7.132,7.132,0,0,1,.374.676c.044.095.079.2.127.294a3.567,3.567,0,0,1,.322,1.228,3.952,3.952,0,0,1-.038.513,1.106,1.106,0,0,1-.129.562,4.367,4.367,0,0,1-.453.32c-.308.244-.594.467-.922.687l-.113.07.038.141c.016.342-.5.542-.751.709-.8.538-1.729.986-2.577,1.456a.376.376,0,0,1-.505-.151l-.026-.256-.268,0a.329.329,0,0,1-.046-.022c-.219.133-.445.262-.678.387a21.634,21.634,0,0,1-2.273,1.039q-.492.193-.978.372.673-.1,1.359-.189l.848-.24c.672-.189,1.357-.393,2.037-.606l1.586-.531.076-.024.354-.119-.05.03.143-.042a.545.545,0,0,1,.471.92.5.5,0,0,1-.111.077l-.115.066-.056.016-.215.085c-.127.046-.262.093-.395.137a.5.5,0,0,1-.312.791l-.048.01-.091.01-.511.068c-.223.02-.449.038-.658.062-.775.093-1.552.187-2.329.272-2.291.662-4.663,1.242-6.992,1.683-1.584.3-3.159.582-4.755.811-.542.079-1.091.131-1.635.2-1.4.165-2.875.272-4.282.33-1.667.068-3.36.147-5.027.087-.225-.008-.451-.01-.674-.014-1.389.121-2.78.169-4.147.175A48.911,48.911,0,0,1,42.574,70.1Zm2.48-.59c-1.325-.294-2.653-.646-3.976-1.057-2.174-.54-4.334-1.19-6.462-1.854-.481-.149-.958-.306-1.435-.465a.349.349,0,0,1-.034.147.31.31,0,0,1-.328.185,28.453,28.453,0,0,0,6.16,2.152,56.087,56.087,0,0,0,5.6,1.037c.791.107,1.578.175,2.368.242Q46,69.72,45.054,69.509Zm10.829.038c-.447-.04-.882-.085-1.321-.129-2.649-.268-5.291-.769-7.906-1.26l.016-.1c1.588.3,3.159.582,4.757.831.646.1,1.3.171,1.955.256.759.1,1.536.191,2.311.26-.737-.169-1.474-.366-2.146-.594-.385-.129-.781-.24-1.162-.378-.3-.109-.594-.227-.892-.326.536.185,1.146.314,1.7.447a41.347,41.347,0,0,0,4.624.775c.308.04.62.07.916.095.131-.006.248-.012.364-.02.93-.05,1.9-.127,2.827-.24.3-.036.6-.048.9-.083.554-.06,1.109-.117,1.657-.171a25.644,25.644,0,0,0,2.961-.926.133.133,0,0,1,.1.246c-.3.137-.584.29-.878.429.926-.119,1.85-.246,2.774-.356,2.277-.266,4.548-.616,6.825-.906.4-.133.809-.272,1.22-.413.485-.167,1.009-.364,1.478-.57.395-.171.793-.33,1.188-.5.622-.27,1.238-.564,1.858-.842.125-.056.252-.111.378-.167a.394.394,0,0,1,.242-.308c.338-.155.676-.306,1.017-.457.07-.03.129-.091.2-.127.28-.147.606-.274.9-.415l.988-.536L85.717,63a10.138,10.138,0,0,0-.86-1.661,3.387,3.387,0,0,0-.236-.362c-.274-.336-.517-.7-.817-1.025a12.357,12.357,0,0,0-1.274-1.2,18.865,18.865,0,0,0-3.422-2.084,37.355,37.355,0,0,0-8.216-2.843c-1.544-.36-3.08-.745-4.643-1.029-.419-.077-.835-.177-1.256-.246-.125-.018-.25-.044-.374-.07.139.276-.2.594-.348.805l-.55.68.109.445a1.134,1.134,0,0,1,.054.6,3.168,3.168,0,0,1-.85,1.1,3.965,3.965,0,0,1-1.8.8l-.427.044-.129.159.038-.046a.669.669,0,0,1,.036.914.719.719,0,0,1-.26.171c.364,0,.771-.03,1.033-.042,1.4-.056,3-.151,4.143.811a1.052,1.052,0,0,1,.314.326c.062.159-.07.376-.248.58l.129-.03c.407-.1.874-.221,1.286-.286.262-.04.556-.07.809-.123a4.5,4.5,0,0,1,1.711.079c.2.044.487.052.519.306.026.2-.2.352-.32.479a7.179,7.179,0,0,1-1.2.978,18.344,18.344,0,0,1-2.434,1.264,11.628,11.628,0,0,0-2.37,1.244L63.564,64l.191.036a13.423,13.423,0,0,0,2.327.074,35.16,35.16,0,0,0,4.743-.582c.878-.161,1.743-.358,2.615-.544.091-.02.7-.151.743-.139a.4.4,0,0,1,.113.046.286.286,0,0,1,.054.429,1.063,1.063,0,0,1-.252.141c-.574.258-1.111.529-1.7.765-.906.362-1.824.7-2.758.984-.757.232-1.554.461-2.3.725l-.636.207.467.012q.293,0,.6-.024a14.48,14.48,0,0,0,1.661-.268c.868-.167,1.735-.411,2.587-.652.8-.225,1.582-.413,2.386-.6a.184.184,0,0,1,.081.358c-.831.205-1.655.387-2.478.632a26.6,26.6,0,0,1-3.183.829c-.505.083-.995.129-1.5.181a8.028,8.028,0,0,1-1.717-.01c-.225-.028-.616-.06-.467-.413.072-.173.463-.244.636-.308q.8-.293,1.613-.552c.739-.236,1.48-.463,2.219-.7l1.627-.568-.781.141q-.631.1-1.248.187a28.354,28.354,0,0,1-3.525.322,13.891,13.891,0,0,1-2.164-.119,2.636,2.636,0,0,1-.737-.185c-.234-.209-.02-.411.121-.576a5,5,0,0,1,1.2-.92,11.242,11.242,0,0,1,1.214-.614c.556-.258,1.121-.5,1.675-.765a9.273,9.273,0,0,0,2.106-1.337l.215-.2-.876.01a16.442,16.442,0,0,0-2.79.521c-.461.115-.93.232-1.4.336l-.161.032a5.082,5.082,0,0,1-1.3.288,6.292,6.292,0,0,1-.838.03l-.161-.026-.1-.018a.314.314,0,0,1-.018-.6l.131-.02a7.693,7.693,0,0,0,1.019-.07l1-.175.266-.089a6.042,6.042,0,0,0,.727-.383,3.283,3.283,0,0,0,.332-.274l.127-.147-.048-.038a1.96,1.96,0,0,0-.29-.205,7.155,7.155,0,0,0-3.559-.389,8.593,8.593,0,0,1-1.421,0,.339.339,0,0,1-.308-.413c-.308.048-.6.077-.785.1a7.01,7.01,0,0,1-1.51.056,10.791,10.791,0,0,1-3.01-.3c-.7-.149-.823-.8-.451-1.152l.01.012-.111-.135-.127-.01a3.64,3.64,0,0,1-2.539-1.3,1.805,1.805,0,0,1-.419-.781,3.132,3.132,0,0,1,.161-.823l.024-.089-.415-.481a4.743,4.743,0,0,1-.505-.735.2.2,0,0,1,.089-.276.279.279,0,0,1-.046.01c-.642.121-1.295.242-1.935.378-1.578.34-3.135.658-4.7,1.061-.689.177-1.367.342-2.051.538a32.232,32.232,0,0,0-6.378,2.508c-.6.324-1.16.642-1.739,1-.234.143-.485.33-.707.493-.085.062-.169.149-.258.2a2.008,2.008,0,0,0-.314.221,11.016,11.016,0,0,0-2.4,2.812,6.705,6.705,0,0,0-.481.991l-.151.427.491.288a22.02,22.02,0,0,0,2.668,1.172.154.154,0,0,1,.207-.209c.016.01.032.018.048.026a.987.987,0,0,0-.1-.193c-.042-.042-.087-.07-.127-.115s-.083-.147-.139-.211a.372.372,0,1,1,.5-.556l.07.048.085.03.079.038.062.056.06.062.085.03.093.022.068.048.064.054.064.05.068.05.074.04.06.056.068.048.062.054.066.05.087.024.074.04.074.038.083.028.072.042.066.052.06.056.068.044.07.05.07.046.07.05.07.044-.028.187.028.1.1.012.038.093a.4.4,0,0,1,.1.552.411.411,0,0,1-.046.054l.1.044c.24.117.481.242.727.344.517.215,1.033.469,1.556.668.473.179.944.376,1.419.546.354.127.711.25,1.063.37A69.626,69.626,0,0,0,47.577,69.1a58.349,58.349,0,0,0,6.628.453C54.762,69.561,55.317,69.559,55.883,69.547ZM33.943,65.6l.145,0-.095,0-.03-.056-.052-.022-.03,0,.014.189a.414.414,0,0,1-.123.177l.211.066q1.084.35,2.184.674Q35.038,66.146,33.943,65.6Zm-1.808.614c.171.081.342.161.513.24a.18.18,0,0,0,.169.01C32.584,66.39,32.357,66.306,32.135,66.215ZM30.6,65.442a13.328,13.328,0,0,0,1.534.773C31.616,65.97,31.1,65.72,30.6,65.442Zm3.31.081C32.642,64.925,32.773,65,33.911,65.523Zm47.238-.846a.4.4,0,0,1,.042-.558l.052-.062-.093-.232.127-.1.127-.1.181-.038.123-.1.135-.089.175-.044.167-.054a.373.373,0,0,1,.483.568l-.079.155-.07.165-.111.121-.119.107-.064.171-.119.109-.119.111-.213-.127-.068.042A.4.4,0,0,1,81.149,64.677Zm-39.636-.242a14.223,14.223,0,0,1-2.053-.829c-.552-.248-1.123-.546-1.661-.827a18.187,18.187,0,0,0-1.717-.8c-.209-.083-.429-.153-.634-.24-.3-.127-.292-.491-.012-.538l.171.018.072.01a6.173,6.173,0,0,1,1.039.332,8.644,8.644,0,0,1,.862.437l.691.389L39.506,63c.4.2.817.362,1.214.556l.147.056-.042-.048c-.133-.139-.27-.274-.409-.409a10.788,10.788,0,0,0-.9-.723c-.674-.517-1.391-.968-2.045-1.514a10.508,10.508,0,0,1-.928-.888.276.276,0,0,1,.008-.445,1.62,1.62,0,0,1,.672-.034,12.819,12.819,0,0,1,1.355.139,11.043,11.043,0,0,1,1.566.385c.487.155.974.294,1.462.459.8.272,1.637.562,2.47.781l.2.046-.2-.264a4.172,4.172,0,0,0-.358-.4,16.19,16.19,0,0,0-2.078-1.586c-.395-.274-.775-.529-1.156-.825a2.674,2.674,0,0,1-.344-.29.241.241,0,0,1,.276-.374c.513.219,1.019.4,1.524.65a6.19,6.19,0,0,0,3.38.98l.276-.04-.01-.044a1.389,1.389,0,0,0-.093-.314,5.545,5.545,0,0,0-.256-.556,7.832,7.832,0,0,0-1.441-1.741,8.2,8.2,0,0,0-.755-.622c-.139-.1-.342-.211-.461-.318a.252.252,0,0,1,.012-.387.586.586,0,0,1,.34-.046,3.162,3.162,0,0,1,1.043.169c.274.1.556.193.825.306.159.066.314.153.475.219a5.228,5.228,0,0,0,2.3.731.33.33,0,1,1,0,.66,4.7,4.7,0,0,1-2.138-.749,14.307,14.307,0,0,0-1.3-.6l-.487-.137.2.153a6.219,6.219,0,0,1,2.311,3.42c.062.264-.135.316-.336.354a4.592,4.592,0,0,1-1.264.056A5.517,5.517,0,0,1,42.94,59.3l-.374-.181.636.453a7.092,7.092,0,0,1,.964.835,6.118,6.118,0,0,1,.848,1.117.877.877,0,0,1,.1.175c.056.244-.165.36-.381.308-.6-.145-1.152-.292-1.743-.475A39.443,39.443,0,0,0,38.2,60.129c-.147-.024-.322-.048-.5-.066l-.383-.018.236.234c.682.6,1.431,1.083,2.194,1.635a8.963,8.963,0,0,1,.8.63,4.95,4.95,0,0,1,.538.489c.2.246.459.485.674.765l.372.018v.133l-.28-.014.077.113a.288.288,0,0,1-.242.425A.645.645,0,0,1,41.513,64.436Zm44.957-1.8.493-.344.389-.356-.238-.638c-.054-.133-.068-.308-.127-.441a6.814,6.814,0,0,0-.606-1.212,12.8,12.8,0,0,0-5.44-4.022c-.419-.2-.886-.391-1.319-.55a18.427,18.427,0,0,0-1.758-.62c-.28-.07-.558-.179-.835-.254-.68-.181-1.379-.409-2.068-.552-.294-.06-.584-.149-.878-.211l-1.838-.356,1.117.312c4.085,1.2,7.829,2.684,10.875,5.754a9.823,9.823,0,0,1,2.136,3.209Zm-58.343-.083.342-.761A9.83,9.83,0,0,1,30,59.523c2.782-3.108,6.511-4.659,10.406-5.893.431-.137.868-.254,1.3-.381l1.007-.272-1.135.23c-.483.081-.982.211-1.464.316-.413.091-.866.2-1.268.32-.471.147-.982.24-1.45.4-.554.2-1.137.356-1.7.546a23.429,23.429,0,0,0-3.185,1.371c-2,1.041-4.347,2.647-4.979,4.93l-.113.719.107.089c.141.145.28.314.423.479ZM57.5,56.447l.159-.04-.077-.177a.382.382,0,0,1,.228-.4.408.408,0,0,1,.161-.03l.085.01-.046-.018,1.214-.083.344-.121a10.984,10.984,0,0,0,2.589-1.824l.149-.121-.221-.96A90.546,90.546,0,0,1,60.21,36.464c-.062-2.033-.022-4.059.028-6.092.064-2.657.274-5.41.6-8.047.272-2.186.594-4.351,1.019-6.5l.236-1.1.034-.215q.136-.761.314-1.514a.119.119,0,0,1-.028,0,.75.75,0,0,1-.658-.827,16.069,16.069,0,0,1,.256-1.615.029.029,0,0,1-.012,0,.741.741,0,0,1-.515-.91,21.048,21.048,0,0,1,2.827-6.05c.034-.048.068-.1.1-.149Q64.888.211,65.43-3.01c-.129.052-.256.1-.385.151a.4.4,0,0,1,.077.523.405.405,0,0,1-.558.119c-.165-.1-.33-.2-.493-.308-.264.083-.531.161-.8.236-.332.095-.682.153-1.023.221.139.2.294.425.115.646-.266.328-.544.064-.791-.123-.145-.109-.284-.225-.423-.342a13.707,13.707,0,0,1-1.7.093L59.289-1.8l-.485.081c-.221.032-.443.062-.662.091.04.056.081.111.121.165a.273.273,0,0,0,.024.034c.314-.074.63-.143.95-.2a.308.308,0,0,1,.4.175.308.308,0,0,1-.175.4,6.865,6.865,0,0,1-2.593.995,10.468,10.468,0,0,1-5.071-.207c.376.618.765,1.226,1.156,1.826.63.972,1.135,2.045,1.774,3.014a.243.243,0,1,1-.415.254c-.238-.358-.447-.737-.695-1.089-.362-.513-.741-1.037-1.089-1.556C52.139,1.6,51.776,1,51.392.423q-.365-.544-.723-1.1a.01.01,0,0,1-.008,0A8.767,8.767,0,0,1,49.443-1.3q.172,1.039.342,2.082c.143.89.262,1.784.4,2.674A19.225,19.225,0,0,1,52.1,6.837c.4.928.7,1.834,1.019,2.788a.742.742,0,0,1-.511.914.168.168,0,0,1-.03.008c.117.536.181,1.069.27,1.609a.75.75,0,0,1-.656.829.2.2,0,0,1-.032,0q.075.335.145.67l.147.825.4,1.949c.415,2.19.731,4.383.988,6.611.268,2.323.429,4.693.507,7.03a100.058,100.058,0,0,1-.7,16.005c-.177,1.4-.4,2.8-.654,4.2-.125.7-.256,1.423-.411,2.116l-.286,1.25.7.572a11.319,11.319,0,0,0,1.508,1.1,5.257,5.257,0,0,0,.838.391l1.266.089a.389.389,0,0,1,.407.3.315.315,0,0,1-.062.3l.393.085.01,0C57.4,56.471,57.447,56.459,57.5,56.447Zm-6.364-3.674.223-.98c.2-.972.376-1.943.538-2.913a.754.754,0,0,1-.165,0,.656.656,0,0,1-.131-.024c-.137,1-.288,1.993-.4,2.986a.314.314,0,0,1-.151.227.563.563,0,0,1-.284.236.85.85,0,0,1-.264.056h.018C50.739,52.5,50.935,52.63,51.136,52.773Zm12.3-.012.1-.072a4.866,4.866,0,0,1,.525-.322l-.125-.024a.558.558,0,0,1-.4-.27.306.306,0,0,1-.147-.225c-.145-.993-.28-1.989-.413-2.984a.567.567,0,0,1-.117.02.775.775,0,0,1-.181,0q.063.347.121.695c.1.612.215,1.228.342,1.842Zm-4.7-4.041c-.246-1.216-.4-2.484-.568-3.716-.266-1.959-.536-3.91-.779-5.871-.7-5.651-1.15-11.316-1.284-17.01-.028-1.166-.028-2.327-.016-3.489l.058-2.927,0-1.057a54.306,54.306,0,0,1,.588-8.516c.095-.582.167-1.182.29-1.758.02-.095.028-.213.048-.328l.034-.151a.448.448,0,0,1,.076-.149.24.24,0,0,1,.177-.085c-.209-.189-.417-.385-.618-.572a.282.282,0,1,1,.374-.423c.334.3.676.612,1.023.906l.163.137.083-.06A2.281,2.281,0,0,0,59.3,2.174.361.361,0,0,1,60,2.38a3.2,3.2,0,0,1-1.125,1.7,1.637,1.637,0,0,1-.572.308c-.2.006-.34-.2-.477-.32-.056-.046-.111-.093-.165-.141l0,.052c-.225,1.812-.292,3.658-.387,5.486-.155,2.965-.207,5.877-.111,8.846.151,4.64.66,9.253,1.178,13.863.7,6.233,1.506,12.454,2.235,18.685a.324.324,0,0,1-.644.072c-.3-2.436-.592-4.858-.924-7.29-.4-2.929-.831-5.858-1.252-8.786l-.074-.517c.187,1.705.4,3.388.618,5.061q.384,2.893.781,5.782c.169,1.248.368,2.47.481,3.726.1,1.061.07,2.132.089,3.195C59.31,50.989,58.971,49.864,58.74,48.72Zm-.225-16.855-.056-.056q.3-9.6.62-19.192l.056-.056.056.056q-.314,9.6-.62,19.192Zm-2.432,0-.056-.056q-.314-9.6-.62-19.192l.056-.056.056.056q.3,9.6.62,19.192Zm-6.9-33.331c-.266-.173-.521-.358-.773-.558a6.68,6.68,0,0,1-.85-.7.419.419,0,0,1,.274-.7,1.8,1.8,0,0,1,.568.137c.165.048.332.095.5.141-.121-.723-.24-1.448-.362-2.172C48.3-5.512,48.044-5.7,47.8-5.9c-.878-.717-1.794-1.407-2.631-2.17-.9-.819-1.749-1.713-2.682-2.488-.358-.3-.709-.584-1.1-.846-.087-.058-.227-.169-.314-.213l-.01,0a.124.124,0,0,1-.064.179.192.192,0,0,1-.254-.093c-.064-.121-.125-.246-.185-.37l-.131-.117c-.225-.189-.453-.372-.678-.56-.336-.278-.691-.554-1.013-.846-.252-.225-.5-.455-.745-.685a.319.319,0,0,0,.016.036.121.121,0,0,1-.018.117l.344.312c.787.729,1.586,1.456,2.337,2.221,1.089,1.111,2.039,2.364,3.078,3.523a13.067,13.067,0,0,0,1.272,1.27A11.976,11.976,0,0,1,46.51-5.287a4.217,4.217,0,0,1,.628.864c.048.191-.163.441-.358.383l-.236-.135-.157-.1c-.117-.1-.23-.217-.348-.312-.475-.372-.938-.809-1.4-1.2-1.053-.888-2.06-1.824-3.056-2.774C40.836-9.273,40.1-10,39.324-10.676a6.675,6.675,0,0,0-.978-.809c-.272-.157-.572-.242-.835-.419-.131-.089-.284-.246-.413-.35-.487-.393-.962-.829-1.433-1.244-.785-.691-1.594-1.4-2.335-2.136-.991-.984-1.9-2.039-2.887-3.03-.012-.01-.022-.02-.032-.03.225.453.455.908.672,1.359a13.329,13.329,0,0,0,.819,1.474l-.068.04c-.3-.461-.588-1.017-.846-1.5l-.123-.232c.225.457.435.86.656,1.264.232.427.483.892.751,1.295a.12.12,0,0,1-.042.163.12.12,0,0,1-.163-.042c-.286-.433-.556-.928-.805-1.385-.554-1.007-1.049-2.021-1.51-3.06-.155-.141-.312-.278-.471-.415.34,1.146.773,2.273,1.208,3.382.34.872.711,1.766,1.067,2.629-.4-.88-.793-1.808-1.142-2.71-.439-1.125-.854-2.227-1.184-3.344l-.1-.087c-.137-.115-.225-.1-.344-.173l-.23-.227c-.117-.149-.348-.344-.489-.485-.026-.024-.052-.05-.079-.077.052.137.109.274.167.409.3.7.612,1.357.932,2.043.236.507.519,1.075.8,1.558a.151.151,0,0,1-.064.2.151.151,0,0,1-.2-.064c-.3-.521-.564-1.093-.846-1.629a24.334,24.334,0,0,1-1.375-3.11c-.2-.2-.4-.407-.6-.612-.582-.592-1.111-1.258-1.683-1.864a.148.148,0,0,1,.006-.207.148.148,0,0,1,.207.006c.564.61,1.178,1.16,1.758,1.745a20.264,20.264,0,0,1-.56-2.209.21.21,0,0,1,.165-.246.206.206,0,0,1,.147.028.259.259,0,0,1,.306-.068l.1.085.274.221c.1.1.2.2.3.3q-.492-1.4-.94-2.816l-.131.046c-.145.052-.26.161-.415.133-.179-.032-.36-.24-.481-.354l-.081-.074c-.723.189-1.445.378-2.162.584l-.248.076-.008,0q.088.226.181.453l.1.074c.014.02.077.23.093.272l-.012.02-.016.028c.2.463.4.924.612,1.375.31.664.614,1.385.968,2.027.217.395.411.813.638,1.2a52.055,52.055,0,0,0,3.278,5.1c.485.64.962,1.29,1.476,1.909.431.519.872,1.031,1.3,1.548.5.6,1.1,1.17,1.6,1.737.4.437.864.884,1.3,1.286A33.688,33.688,0,0,0,40.46-5.466c1.325.8,2.712,1.51,4.047,2.3.5.292,1.023.59,1.494.92A16.309,16.309,0,0,1,48.676-.068c.29.312.678.642.459,1.125a.779.779,0,0,1-.423.387c-.028.008-.058.016-.091.022.445.5.874,1.035,1.276,1.584Q49.554.788,49.179-1.467Zm16.19,3.634c.181-.221.378-.433.558-.654.012-.014.024-.028.036-.044a.4.4,0,0,1-.079-.022A.74.74,0,0,1,65.406.86a.734.734,0,0,1,.163-.544A4.7,4.7,0,0,1,66-.153a16.389,16.389,0,0,1,2.551-2.062c-.113-.074-.225-.151-.336-.23-.169.252-.34.5-.5.751a.462.462,0,0,1-.638.127.462.462,0,0,1-.127-.638c.165-.258.34-.511.513-.767-.278-.2-.556-.395-.835-.588q-.465.242-.946.445-.516,3.071-.98,6.148C64.914,2.738,65.14,2.446,65.369,2.166ZM69.8-.739a10.73,10.73,0,0,0,1.365-.63,34.025,34.025,0,0,0,4.9-3.29C77.115-5.448,78.188-6.195,79.224-7a33.775,33.775,0,0,0,4.127-3.823c-.026-.012-.052-.024-.077-.038-.085-.038-.171-.087-.262-.133l-.282.31a32.794,32.794,0,0,1-4.137,3.9c-1.031.791-2.031,1.48-3.131,2.176-1.5.948-3.129,1.766-4.683,2.682a.43.43,0,0,1-.163.324c-.421.348-.854.674-1.27,1.027C69.5-.632,69.65-.686,69.8-.739ZM44.619-1.1c-.213-.167-.431-.332-.64-.505a.428.428,0,0,1-.165-.312q-.281-.166-.562-.326c-1.391-.781-2.835-1.546-4.179-2.4A35.232,35.232,0,0,1,34.36-8.172c-.628-.562-1.2-1.154-1.792-1.749A48.666,48.666,0,0,1,27.9-15.528L26.331-17.9l1.131,2.074a33.321,33.321,0,0,0,4.681,5.941,34.36,34.36,0,0,0,4.707,3.99c1,.735,1.993,1.48,2.994,2.213A22.582,22.582,0,0,0,44.71-.771l.459.141.006,0C44.994-.789,44.81-.952,44.619-1.1Zm11.1.179c.431-.072.854-.113,1.284-.207.286-.062.57-.131.856-.2-.109-.077-.217-.151-.326-.23-1.105.119-2.215.185-3.32.2a18.948,18.948,0,0,1-3.187-.221c.044.079.089.159.135.238a9.2,9.2,0,0,0,3.368.5A10.212,10.212,0,0,0,55.72-.924Zm-8.834-.771c-.2-.3-.417-.6-.6-.906a.462.462,0,0,1,.127-.638.462.462,0,0,1,.638.127c.187.3.4.61.6.906a.462.462,0,0,1-.127.638A.462.462,0,0,1,46.886-1.695Zm10.952.147L57.8-1.586a.083.083,0,0,0-.022,0Zm-3.066-.886-.163-.04a18.009,18.009,0,0,1-2.247-.765c.169.242.338.485.5.735a4.488,4.488,0,0,0,.735.066Zm-2.885-.413q-.335-.3-.668-.6a7.787,7.787,0,0,0-1.29-1.039c-.187-.083-.455-.131-.632-.232a3.8,3.8,0,0,1-.489-.381q.169,1.009.338,2.019c.03.008.06.016.091.022a.463.463,0,0,1,.228-.5.461.461,0,0,1,.624.181c.095.2.193.4.294.6.2.04.4.079.608.109.409.064.823.115,1.238.155C52.114-2.631,52-2.744,51.887-2.847ZM74.079-5.434c.85-.513,1.723-1.055,2.529-1.635q.314-.226.622-.459a.462.462,0,0,1-.288-.05c-.109-.056-.217-.119-.328-.173a18.812,18.812,0,0,1-1.824-1.073c-.66-.423-1.3-.846-1.951-1.288-1.961-1.343-3.859-2.816-5.681-4.343-.143-.119-.286-.238-.427-.358.109.238.219.473.33.709a.182.182,0,0,1-.089.238.182.182,0,0,1-.238-.089c-.225-.485-.455-.966-.693-1.443q-2.5-2.138-4.9-4.385c.095.169.189.336.288.5a35.762,35.762,0,0,1,2.2,4.628l-.1.04c-.141-.344-.274-.693-.417-1.037a19.1,19.1,0,0,0-1.222-2.424c-.205-.338-.387-.693-.6-1.025-.3-.451-.586-.912-.874-1.367q-1.437-1.35-2.851-2.718l-.368-.352c.4.755.8,1.514,1.2,2.281.354.687.733,1.363,1.067,2.058.451.938.862,1.85,1.264,2.806.109.1.219.2.33.294A80.794,80.794,0,0,0,70.207-8.8c.6.4,1.236.805,1.882,1.188l.769.417-.244-.234c-.151-.133-.31-.244-.451-.391a3.4,3.4,0,0,1-.358-.389c-.064-.1-.131-.177-.187-.282a1.553,1.553,0,0,1-.167-.455,1.666,1.666,0,0,0-.024-.25c.079.3.517.588.771.723.622.33,1.655.664,1.931,1.389.032.087.074.177.1.264a1.506,1.506,0,0,1-.03.882.428.428,0,0,1-.376.191A5.811,5.811,0,0,1,72.593-6.4c-.64-.4-1.278-.8-1.907-1.218-.932-.626-1.822-1.317-2.716-1.993-.848-.642-1.679-1.351-2.488-2.043-1.542-1.315-3.026-2.692-4.506-4.075.091.258.179.515.28.763a.1.1,0,0,1-.062.131.1.1,0,0,1-.131-.062c-.157-.374-.282-.771-.431-1.152-.874-.817-1.747-1.633-2.631-2.44-1.123-1.019-2.239-2.084-3.4-3.068.813,1.683,1.747,3.352,2.674,4.963.779,1.361,1.582,2.744,2.418,4.073,2.585,1.953,5.208,3.867,7.747,5.879.358.286.713.58,1.063.876a.533.533,0,0,1,.376.322c.534.457,1.065.92,1.607,1.375a.415.415,0,0,1,.042.582.415.415,0,0,1-.582.042q-.731-.625-1.464-1.248c-.026.016-.052.034-.076.05-.387.27-.779.509-1.184.751l-.016.01c.278.2.558.391.831.586a.563.563,0,0,1,.147.064.514.514,0,0,1,.127.129c.254.181.509.366.763.55C70.694-3.577,72.42-4.427,74.079-5.434ZM58.414-2.744l.443-.06c.342-.054.682-.115,1.023-.181-.437-.37-.886-.725-1.355-1.057a12.644,12.644,0,0,0-1.514-.731,5.3,5.3,0,0,1-.864-.594c-.3-.234-.6-.455-.9-.687-.554-.427-1.115-.835-1.653-1.284s-1.039-.932-1.554-1.4c-.385-.35-.8-.689-1.174-1.041a3.653,3.653,0,0,0-.823-.644l-.68-.276.674.574c.536.4,1.093.761,1.594,1.2.366.322.676.658,1.015,1,.574.59,1.152,1.172,1.723,1.764a40.582,40.582,0,0,1,2.889,3.348c.23.018.461.03.693.044Zm-2.629-.995c-.274-.3-.562-.6-.848-.888-.4-.4-.767-.835-1.17-1.232-.513-.505-1.007-1.043-1.53-1.538a18.724,18.724,0,0,1-1.349-1.333c-.417-.485-.787-1.009-1.2-1.5a11.3,11.3,0,0,0-1.081-1.047c-.9-.811-1.878-1.552-2.845-2.3.074.225.149.449.227.67a.246.246,0,0,1-.155.308.246.246,0,0,1-.308-.155c-.135-.391-.254-.8-.4-1.186-.024-.06-.048-.123-.07-.185-.141-.111-.282-.221-.421-.334-.664-.534-1.29-1.093-1.923-1.663l-.552-.491q.269.483.538.97c.23.419.475.831.695,1.256.4.763.838,1.536,1.2,2.317q.217.477.437.954.082.075.169.145c.385.32.773.646,1.172.948,1.2.91,2.47,1.727,3.69,2.611.829.6,1.641,1.236,2.466,1.844.785.578,1.588,1.139,2.368,1.719a8.6,8.6,0,0,1,.707.817c.2.036.391.064.58.083.135.014.276.034.415.054C56.322-3.169,56.048-3.451,55.784-3.738Zm4.81.608-.012-.02-.207-.314a4.234,4.234,0,0,1-.383-.6c.064-.087.135-.169.2-.256l.02-.1.1.02c.1-.028.209-.05.312-.083a3.012,3.012,0,0,1,.364.515c.149.217.3.435.439.654q.531-.127,1.057-.27c-.606-.425-1.2-.864-1.8-1.3a103.542,103.542,0,0,1-8.369-7.024q-.921-.846-1.828-1.7.471.939.956,1.872a.292.292,0,0,1-.127.389.292.292,0,0,1-.389-.127c-.582-1.1-1.15-2.215-1.707-3.334q-1.779-1.7-3.535-3.412c.324.666.654,1.333.984,2,.646,1.3,1.2,2.623,1.727,3.97.4.33.805.654,1.2.993a2.289,2.289,0,0,1,.427.576,2.563,2.563,0,0,0,.139.244,4.085,4.085,0,0,0,.4.332c.171.1.387.292.558.415.284.2.572.4.86.594,1.081.735,2.17,1.439,3.217,2.227.415.312.838.632,1.26.93a6.844,6.844,0,0,1,.9.676,12.815,12.815,0,0,0,1.25,1.246,12.19,12.19,0,0,0,1.611.974C60.354-3.08,60.473-3.1,60.594-3.13Zm-8.816-.042L51.3-3.72c-.143-.07-.286-.143-.427-.217-.113-.058-.225-.117-.342-.179.171.135.344.262.505.389Zm2.9-.1c-.27-.141-.5-.332-.757-.5-.558-.36-1.111-.8-1.647-1.2-.976-.723-1.933-1.429-2.869-2.209-1.156-.962-2.243-2.021-3.384-3.008l-.894-.715c.032.066.062.135.095.2a16.792,16.792,0,0,0,1.441,1.441A24.529,24.529,0,0,1,48.666-7.67c.608.656,1.226,1.339,1.8,2.023.372.443.741.872,1.1,1.319.358.165.717.324,1.093.461.177.066.38.157.562.205.256.068.511.175.771.244s.566.155.86.23C54.79-3.213,54.732-3.239,54.675-3.269ZM65.307-4.485c-1.027-.733-2.047-1.486-3.05-2.239A117.318,117.318,0,0,1,47.8-19.274c.205.453.413.9.62,1.349q.673,1.465,1.383,2.917c1.117,1.037,2.239,2.066,3.376,3.088,1.433,1.292,2.931,2.506,4.423,3.731.8.656,1.641,1.315,2.478,1.923,1.011.735,2.019,1.456,3.054,2.158.115.079.229.157.346.234Q64.4-4.153,65.307-4.485Zm2.211-.934.072-.036C66.5-6.372,65.4-7.278,64.28-8.163c-2.144-1.693-4.3-3.37-6.436-5.079q-1.078-.864-2.128-1.743c.439.7.888,1.4,1.341,2.086a.149.149,0,0,1-.046.2.149.149,0,0,1-.2-.046c-.63-.954-1.258-1.925-1.868-2.9-1.23-1.055-2.426-2.138-3.584-3.269.717,1.081,1.423,2.17,2.134,3.255a.219.219,0,0,1-.062.3.219.219,0,0,1-.3-.062c-.815-1.25-1.659-2.474-2.486-3.714q-.516-.77-1.011-1.534-.329-.347-.648-.7c-.646-.711-1.286-1.431-1.87-2.194a.2.2,0,0,1,.03-.284.2.2,0,0,1,.284.03c.346.457.719.91,1.105,1.355a22.719,22.719,0,0,1-1.254-2.492q-.867-.03-1.735-.072c.26.733.519,1.46.783,2.188.31.866.666,1.731,1.041,2.587a88.652,88.652,0,0,0,9.273,8.47c2.231,1.774,4.492,3.469,6.768,5.182.769.582,1.556,1.142,2.345,1.7.026-.151.052-.3.081-.451a.117.117,0,0,1,.131-.095.117.117,0,0,1,.095.131c-.036.187-.066.374-.1.56l.026.018A16.7,16.7,0,0,0,67.518-5.419Zm-17.4.344L50-5.212,49.755-5.5c-.3-.328-.6-.668-.906-.989-.27-.282-.55-.542-.811-.833-.542-.608-.92-1.355-1.458-1.935-.254-.274-.56-.534-.84-.783-.121-.1-.242-.209-.364-.314.074.161.149.322.225.483a.161.161,0,0,1-.081.209.161.161,0,0,1-.209-.081c-.159-.344-.312-.7-.467-1.047-.709-.564-1.448-1.1-2.15-1.655-.572-.451-1.109-.948-1.653-1.431-.517-.457-1.053-.906-1.562-1.371.223.507.467,1.017.695,1.516s.437.995.664,1.488a2.229,2.229,0,0,1,.2.173c.1.115.135.242.27.362s.24.24.362.354c.334.312.7.6,1.067.878.8.612,1.653,1.164,2.478,1.739.8.556,1.54,1.178,2.3,1.788.457.368.924.737,1.373,1.115l.006.006c.02-.036.04-.024.062-.012C49.316-5.572,49.713-5.313,50.119-5.075ZM44.156-7.413c-.292-.3-.584-.6-.89-.886-1-.932-2.112-1.764-3.153-2.655-1.182-1.015-2.305-2.12-3.475-3.151.02-.131.038-.264.062-.395l-.006-.107.107-.006c.129-.032.26-.058.389-.093.159.157.324.308.489.459-.044-.1-.093-.191-.143-.284-.111-.1-.221-.193-.332-.288a.151.151,0,0,1-.018-.207.044.044,0,0,0,.008-.01.282.282,0,0,1,.161-.344.281.281,0,0,1,.362.153,2.158,2.158,0,0,0,.076.517c.453.364.918.707,1.367,1.077.316.264.634.529.948.8-.463-.874-.924-1.75-1.421-2.607a.327.327,0,0,1,.143-.437.327.327,0,0,1,.437.143c.02.052.04.1.062.155l0-.006.04-.145a.151.151,0,0,1-.014-.209.158.158,0,0,1,.234.01l.225-.087c.648.558,1.3,1.137,1.929,1.721.538.5,1.087.97,1.594,1.5l.187.211.161.137c.087.072.213.167.288.246.046.048.133.1.173.145.1.115.131.278.262.389.012.012.026.024.04.036-.077-.157-.155-.312-.234-.465q-.492-.933-.982-1.866c-.556-1.057-1.184-2.1-1.78-3.141l-.151-.26c-.372-.332-.741-.666-1.1-1.009.024-.127.05-.254.076-.378l0-.044-.093-.095a.149.149,0,0,1-.01-.207.147.147,0,0,1,.113-.046,53.887,53.887,0,0,1-3.195-6.378c-.348-.028-.695-.058-1.041-.093a.491.491,0,0,1-.451-.527.491.491,0,0,1,.527-.451c.189.018.38.036.574.052l-.085-.234c-.266-.006-.529-.006-.793-.006a.17.17,0,0,1-.173-.165.17.17,0,0,1,.165-.173c.03,0,.06,0,.093,0-.083-.01-.163-.022-.244-.034a.212.212,0,0,1-.183-.236.212.212,0,0,1,.236-.183q.329.048.658.091c-.1-.314-.2-.63-.29-.952a.324.324,0,0,1,.219-.4.324.324,0,0,1,.4.219c.113.411.23.813.352,1.212.314.034.628.066.942.095l.658-.087c-.133-.358-.262-.719-.383-1.085a15.15,15.15,0,0,1-.423-1.486c-.427.034-.85.079-1.262.143a5.254,5.254,0,0,1-.872,0,5.02,5.02,0,0,0-.717.046L35-29.854a4.614,4.614,0,0,0,.838-.2,3.827,3.827,0,0,1,.7-.2c.421-.046.846-.117,1.27-.193a.421.421,0,0,1,.614-.25c.044.036.089.072.133.111.314-.058.628-.119.94-.171,1-.165,1.973-.276,2.98-.368l.473-.042c-.018-.095-.034-.189-.05-.284a.458.458,0,0,1,.36-.538.458.458,0,0,1,.538.36c.022.127.046.254.07.381q4.608-.4,9.211-.63c-.077-.284-.147-.57-.211-.852-.028-.113-.056-.232-.085-.352-1.168-.026-2.335-.038-3.5-.01-.63.016-1.258.04-1.888.058-1.846.054-3.7.244-5.538.427a.143.143,0,0,1-.137-.068q-1.54.154-3.074.36l.169.1a.076.076,0,0,1,.083.066.076.076,0,0,1-.066.083,2.167,2.167,0,0,1-.751.534,7.745,7.745,0,0,1-1.337.081c-.713.034-1.425.111-2.134.2a.372.372,0,0,1-.417-.32A.372.372,0,0,1,34.5-32c.791-.1,1.55-.272,2.331-.417a6.114,6.114,0,0,1,1.119-.167.845.845,0,0,1,.23.046c3.483-.521,6.968-.848,10.511-1.093q2.014-.136,4.047-.225a.336.336,0,0,1,.207-.129.333.333,0,0,1,.306.109c1.393-.054,2.788-.087,4.177-.1,2.241-.014,4.477.034,6.718.093q4.11.106,8.218.409c1.307.095,2.607.209,3.91.334,1.1.1,2.182.215,3.278.4.825.137,1.641.372,2.454.566a.094.094,0,0,1,.079.1.094.094,0,0,1-.1.079c-.427-.008-.858-.018-1.343-.034l1.427.1a.337.337,0,0,1,.312.356.341.341,0,0,1-.046.149.583.583,0,0,1,.352.586.51.51,0,0,1-.477.479.222.222,0,0,0,.036,0,.458.458,0,0,1,.36.538.462.462,0,0,1-.447.37c0,.008,0,.016,0,.024a.148.148,0,0,1,.145.149.148.148,0,0,1-.149.145c-.01.068-.014.137-.022.2l-.032.2.074-.008.058-.032c.028-.246.322-.407.383-.56a.563.563,0,0,1-.33.558l-.05.016,0,.074a.1.1,0,0,1-.081.109.1.1,0,0,1-.109-.081c-.068-.441-.785-.393-.449-.914a43.2,43.2,0,0,0-5.053-.886.33.33,0,0,1-.046,0,13.026,13.026,0,0,0,.618,3.08c.354-.038.711-.074,1.067-.107.149-.012.3-.024.453-.034-.034-.054-.062-.117,0-.155l.081.008a1.469,1.469,0,0,0,.242.129c.326-.016.65-.028.976-.036a3.782,3.782,0,0,1,.044-1.009.506.506,0,0,1,.56-.443.506.506,0,0,1,.443.56c-.038.3-.079.586-.1.872.288-.006.576-.012.864-.02.087-.018.171-.038.256-.062a.279.279,0,0,1,.328.211.279.279,0,0,1-.211.328c-.411.1-.817.217-1.224.324.02.111.056.225.083.336.266-.087.531-.175.8-.268a.445.445,0,0,1,.562.276.445.445,0,0,1-.276.562l-.471.157a.68.68,0,0,1,.238.274c-.036.109-.07.219-.1.328l-.064.044.153.159a.332.332,0,0,1,0,.467.329.329,0,0,1-.338.083c.024.052.05.1.081.157a.156.156,0,0,1,0,.137.171.171,0,0,1,.008.046.175.175,0,0,1-.175.175q-1.114.121-2.233.187c.336.213.689.4,1.009.632a1.743,1.743,0,0,1,.65.6c-.046.1-.095.205-.139.31-.135.085-.268.173-.4.258l-.1-.028a3.394,3.394,0,0,1-.588-.668c-.274-.37-.505-.735-.775-1.087l-.06,0c.459.86.954,1.7,1.443,2.517a.175.175,0,0,1-.062.236.175.175,0,0,1-.236-.062c-.531-.884-1.061-1.776-1.582-2.668-.177.008-.354.014-.531.02-.783.028-1.574,0-2.357-.014-.145,0-.29,0-.433-.008.143.272.288.542.437.813.427.332.856.664,1.288.991.459.348.9.719,1.365,1.065.173.129.731.491.793.664a2.267,2.267,0,0,1,.089.463c-.624.151-.747-.056-1.21-.407-.485-.364-.956-.733-1.421-1.115l.29.54c.149.284.324.57.457.86.093.2.2.4.3.6.03.064.058.129.089.2l.346.234a.461.461,0,0,1,.121.636.461.461,0,0,1-.636.121c-.995-.678-1.993-1.373-2.929-2.132-1.077-.872-2.114-1.764-3.151-2.666l.111.219c.737.652,1.484,1.292,2.267,1.9.608.475,1.21.952,1.826,1.419.181.139.362.282.546.417a3.274,3.274,0,0,1,.276.2,3.3,3.3,0,0,1,.193.312c.093.151.217.288.322.431a.13.13,0,0,1,.024.181.13.13,0,0,1-.181.024c-.137-.052-.28-.117-.417-.161-.107-.034-.256-.058-.354-.1a7.5,7.5,0,0,1-1.047-.749c-.509-.366-1.021-.745-1.52-1.123l-.743-.562c.125.217.248.433.372.646.548.948,1.1,1.9,1.669,2.837a.145.145,0,0,1-.05.2.145.145,0,0,1-.2-.05c-.6-.986-1.184-1.981-1.8-2.955-.268-.423-.54-.858-.8-1.29-.785-.61-1.556-1.236-2.287-1.919-.193-.177-.4-.362-.6-.558l-.052,0c.223.5.441,1.017.66,1.512.34.779.729,1.548,1.063,2.327.173.411.354.821.529,1.236,1.059.6,2.132,1.174,3.161,1.844a.459.459,0,0,1,.133.632.459.459,0,0,1-.632.133,18.079,18.079,0,0,1-2.307-1.709c.161.433.306.868.463,1.3a.128.128,0,0,1-.081.161.128.128,0,0,1-.161-.081c-.109-.282-.189-.584-.3-.862q-.19-.471-.4-.93c-.821-.713-1.629-1.443-2.488-2.1-.3-.23-.64-.538-.95-.739a.759.759,0,0,0-.147-.07q.516,1.018,1.053,2.027c1.079.914,2.16,1.828,3.269,2.708q1.268,1.009,2.571,1.969c.429.318.874.618,1.3.932.684.5,1.445.94,2.156,1.4a21.608,21.608,0,0,1,1.985,1.522.163.163,0,0,1,.056.221.163.163,0,0,1-.221.056,12.451,12.451,0,0,1-1.826-.793,20.023,20.023,0,0,1-2.053-1.407c-1.383-1-2.716-2.146-4.012-3.261-.93-.8-1.844-1.619-2.75-2.444.719,1.351,1.445,2.7,2.138,4.057a.2.2,0,0,1-.085.258.2.2,0,0,1-.258-.085c-.882-1.729-1.824-3.42-2.766-5.116-1.343-1.226-2.688-2.454-4.075-3.628-.511-.429-1.021-.86-1.538-1.288l-.07-.006c.534,1.1,1.109,2.184,1.657,3.233.747,1.443,1.534,2.875,2.253,4.332l.157.326c.01.006.018.014.028.02a76.291,76.291,0,0,0,8.184,5.734l1.7.952L75.764-9.6a6.077,6.077,0,0,1-.507-.548,3.219,3.219,0,0,1-.509-1.166,4.3,4.3,0,0,1,1.031.415,5.913,5.913,0,0,1,1.5,1.79A3.229,3.229,0,0,1,77.63-8a.463.463,0,0,1-.036.2,30.913,30.913,0,0,0,3.412-3.076c.123-.137.248-.274.372-.409-.016-.008-.034-.016-.05-.026-1.15-.558-2.219-1.216-3.32-1.86-.435-.256-.866-.529-1.295-.8a5.276,5.276,0,0,1-.5-.3,4.292,4.292,0,0,1-.362-.542.033.033,0,0,1-.014-.008c-.036.046-.062.091-.054.123a.142.142,0,0,1-.06.189.142.142,0,0,1-.189-.06c-.07-.054-.32.012-.4.022.145-.089.3-.169.443-.252q.109-.051.217-.109a.125.125,0,0,1,.018-.083.13.13,0,0,1,.177-.044,4.145,4.145,0,0,1,.58.048,3.064,3.064,0,0,1,.618.332c.393.209.773.445,1.168.652,1.073.564,2.158,1.156,3.243,1.691a1.573,1.573,0,0,1,.435.32c.133-.143.264-.288.395-.431A22.143,22.143,0,0,0,80.531-14.1c-.725-.584-1.506-1.17-2.192-1.792a.459.459,0,0,1-.054-.646.459.459,0,0,1,.646-.054c.5.427.962.848,1.435,1.3a19.589,19.589,0,0,1,2.221,2.676c.417-.461.821-.93,1.2-1.417l.115-.147a5.74,5.74,0,0,0-1.041-.8c-.089-.048-.425-.282-.483-.3l-.052,0c-.27-.056-.54.238-.829.03-.205-.147-.447-.28-.66-.427-.419-.286-.809-.6-1.242-.868l-.03-.358a.131.131,0,0,1-.04-.177.131.131,0,0,1,.177-.04c.111-.04.223-.081.332-.125.439.284.9.505,1.351.765a4.693,4.693,0,0,1,.737.447c.221.191.081.6.352.761a7.433,7.433,0,0,0,1.172.592c.169.066.338.123.507.177.413-.527.821-1.051,1.222-1.584a.381.381,0,0,1-.083,0,5.347,5.347,0,0,1-.954-.306c-.678-.27-1.351-.56-2.005-.884.135.453.258.928.427,1.365a.171.171,0,0,1-.1.217.171.171,0,0,1-.217-.1,8.606,8.606,0,0,0-.644-1.381c-.129-.205-.26-.4-.395-.592-.171-.1-.338-.2-.5-.3a.276.276,0,0,1-.107-.372.264.264,0,0,1,.076-.087.535.535,0,0,1,.266-.646.531.531,0,0,1,.709.238c.076.3.167.6.26.908q.027.015.06.03a13.732,13.732,0,0,0,2.418.964l.153.042-.119-.29c-.064-.113-.137-.248-.207-.354-.03-.046-.089-.1-.115-.147-.064-.127.072-.362.119-.481l.093-.01c-.219-.165-.435-.332-.646-.505-.519-.417-1.029-.864-1.532-1.3a.333.333,0,0,1-.042-.465.333.333,0,0,1,.465-.042c.219.181.437.362.656.54-.062-.111-.117-.23-.191-.336a5.279,5.279,0,0,1-.509-.725.507.507,0,0,1,.173-.693.507.507,0,0,1,.693.173,9.9,9.9,0,0,1,.449.918,3.668,3.668,0,0,1,.225.425c.072.3.1.662.173.989a.174.174,0,0,0,.032.02,11.853,11.853,0,0,0,1.037.63,7.057,7.057,0,0,1,.713.378,3.238,3.238,0,0,1,.37.3l-.01-.083a7.761,7.761,0,0,0-1.941-2.776c-.262-.246-.531-.56-.775-.827a3.776,3.776,0,0,1-.312-.342c-.074-.117.06-.358.1-.469.153-.058.36-.213.529-.145a5.12,5.12,0,0,1,.8,1.017,21.865,21.865,0,0,1,1.468,3.028,6.14,6.14,0,0,0,.286.586c.666-1,1.29-2.039,1.872-3.092q-.29-.456-.586-.91a3.751,3.751,0,0,1-.034.564,2.334,2.334,0,0,1-.042.264c-.068.145-.2.04-.29,0a3.82,3.82,0,0,0-.8-.358c-.292-.044-.632.048-.916-.018.079.191.157.378.238.562.115.264.242.578.334.85.137.4.276.831.427,1.224a.1.1,0,0,1-.06.121.1.1,0,0,1-.121-.06,12.072,12.072,0,0,0-2.13-3.555c-.016-.02-.032-.04-.048-.062-.25-.185-.5-.368-.747-.554a.332.332,0,0,1-.085-.459.33.33,0,0,1,.256-.141c.04-.087.1-.171.131-.242a.146.146,0,0,1,.018-.173.191.191,0,0,1-.032-.107.211.211,0,0,1,.2-.217,3.025,3.025,0,0,0,.634-.125,3.327,3.327,0,0,1,.427-.038c.236-.016.485-.052.721-.087l.149-.018a6.242,6.242,0,0,1-.493-.763,3.754,3.754,0,0,1-.165-.36c-.25.016-.511.05-.715.074a.458.458,0,0,1-.459-.455.458.458,0,0,1,.455-.459c.113.012.225.022.34.032l-.262-.062a.361.361,0,0,1-.256-.437.361.361,0,0,1,.437-.256l.038.012c0-.02-.008-.04-.012-.062a.272.272,0,0,1-.252-.159.274.274,0,0,1,.016-.264.467.467,0,0,1-.167-.274.487.487,0,0,1,.076-.383.447.447,0,0,1,.278-.284.345.345,0,0,0,.042-.014A.3.3,0,0,1,85-29.135a.351.351,0,0,1,.1-.125.336.336,0,0,1-.05-.344.339.339,0,0,1,.441-.183c.068.034.137.064.209.095v-.02a.516.516,0,0,1,.57-.54.477.477,0,0,1,.254.095,3.524,3.524,0,0,1,.576.68,4.355,4.355,0,0,1,1.107-.477c.077-.018.141-.068.219-.064a2.836,2.836,0,0,1,.4.032.279.279,0,0,1,.364.143.281.281,0,0,1-.054.3l-.066.054a.5.5,0,0,1,0,.135c.054.052.107.1.149.135a.093.093,0,0,1,.113.064.093.093,0,0,1-.064.113c-.064.193-.115.509-.31.616a.779.779,0,0,1-.115.05c.171.046.342.1.5.151a8.225,8.225,0,0,1,1.17.381.729.729,0,0,1,.161.181.554.554,0,0,1,.046.372c.109.048.217.095.326.137s.193.085.29.127l.84-2.553.262-1.564a56.143,56.143,0,0,0,.525-7.513c.008-1.383-.04-2.778-.109-4.159-.03-.62-.1-1.248-.139-1.87-.095-1.4-.29-2.79-.461-4.177-.143-1.154-.334-2.331-.546-3.473-.2-1.063-.395-2.118-.608-3.179-.427-2.122-.972-4.252-1.534-6.342-.348-1.3-.743-2.6-1.133-3.879-.034-.111-.07-.219-.1-.33a8.339,8.339,0,0,1-1.747,1.439c-.358.2-.7.4-1.071.58-.491.232-1,.445-1.514.64l.109.006a.148.148,0,0,1,.151.143.148.148,0,0,1-.143.151c-.519.074-1.043.145-1.558.205q-.719.227-1.419.413a.169.169,0,0,1-.207-.115.171.171,0,0,1,.012-.123c-.258.024-.513.046-.769.066-1.625.129-3.261.2-4.888.316-3.928.282-7.852.656-11.781.928-3.724.258-7.435.5-11.167.574-2.172.044-4.326.02-6.5-.044-1.536-.044-3.08-.153-4.61-.284-.5-.042-.988-.111-1.484-.157s-.982-.113-1.474-.181c-.411-.056-.829-.1-1.238-.171-1.472-.262-3-.471-4.445-.866-1.482-.407-2.972-.91-4.407-1.46-.751-.288-1.494-.588-2.233-.908-.01,0-.02-.008-.034-.012-.5,1.7-1.015,3.4-1.427,5.12-.5,2.092-1.021,4.177-1.4,6.3-.346,1.929-.632,3.823-.9,5.764-.169,1.236-.284,2.506-.368,3.751-.077,1.123-.139,2.241-.177,3.366-.038,1.144-.016,2.305.014,3.449a52.291,52.291,0,0,0,.723,7.523l.1.465.572,1.679v0c.085-.036.171-.07.258-.1.215-.083.431-.171.646-.256a.39.39,0,0,1-.095-.026,4.222,4.222,0,0,0-.439-.131l-.131-.046a.456.456,0,0,1-.336-.461c.008-.364.25-.443.517-.427h.079l.07.018a3.191,3.191,0,0,1,.318.072,6.187,6.187,0,0,0,.759.141l.215.02.052-.068h.515l.149.123.143.123.077.016c.177-.05.354-.1.529-.147-.068-.227-.139-.457-.205-.687a.269.269,0,0,1,.032-.219l-.24.024-.318.02-.318.026-.314.034-.314.044-.312.056a.374.374,0,0,1-.437-.292.374.374,0,0,1,.292-.437l.308-.068.306-.081.246-.072c.391-.187.765-.395,1.162-.6.209.064.316.248.461.395-.01.054-.014.111-.02.165l.077.054a.077.077,0,0,1,.089.06.077.077,0,0,1-.06.089l-.24.417-.121.066.03-.016a.27.27,0,0,1,.207.185c.06.238.125.473.189.709l.294-.077a.582.582,0,0,1,.711.413.593.593,0,0,1-.081.473.388.388,0,0,1,.024.191.4.4,0,0,1-.157.256l-.038.048.02-.026c.022,0,.044,0,.068,0l.079-.091,0,.135-.042.387a.094.094,0,0,1,.081.1.094.094,0,0,1-.1.081c-.03.173-.048.35-.083.521-.062.022-.05-.1-.079-.141a.364.364,0,0,1-.046-.006c.2.7.413,1.4.634,2.1a.156.156,0,0,1,.032-.014.164.164,0,0,1,.2.111c.109.358.213.719.465,1.48.161.081.33.143.461.205a3.8,3.8,0,0,1,1,.88c-.064.083-.135.163-.2.246v.1l-.131.02.1.123a3.77,3.77,0,0,1,.322.352,3.752,3.752,0,0,0,.286.387.151.151,0,0,1-.008.209.151.151,0,0,1-.209-.008,4.482,4.482,0,0,0-.368-.31,4.131,4.131,0,0,1-.449-.473.229.229,0,0,1-.048-.149l-.008-.087-.081-.07c-.089-.085-.181-.183-.27-.286l-.123-.147c.1.314.209.626.326.936a21.833,21.833,0,0,0,.829,2.021.957.957,0,0,0,.127.129c1.256,1.15,2.635,2.122,3.9,3.245.878.779,1.743,1.572,2.631,2.339.248.213.489.459.737.662a3.111,3.111,0,0,1,.27.242c.042.048.111.179.151.24a3.487,3.487,0,0,0,.493.67c.374.366.846.711,1.256,1.043.848.689,1.731,1.335,2.6,2,.58.447,1.158.89,1.725,1.351l.787.654A7.07,7.07,0,0,0,44.156-7.413Zm39.393-3.632-.006,0-.223-.288c-.095.107-.189.213-.286.318.109.052.217.1.312.139l.022.012.016.008C83.438-10.922,83.493-10.982,83.549-11.044Zm.1-.109c.431-.487.89-1,1.278-1.524.1-.143.215-.284.324-.427-.095-.054-.187-.111-.276-.171-.509.626-1.035,1.242-1.57,1.846l.209.312A.3.3,0,0,0,83.646-11.153ZM46.5-15.711c-.463-.886-.906-1.784-1.383-2.664-.161-.294-.32-.59-.483-.89q-1.057-1.03-2.122-2.07l-.527-.507c.461.914.93,1.826,1.393,2.74.308.61.658,1.262.922,1.89.28.664.594,1.315.868,1.985.072.181.143.364.209.546l.238.244,1.319.942c.286.223.566.465.842.7A22.423,22.423,0,0,0,46.5-15.711Zm9.116-2.817c-.25-.435-.483-.878-.731-1.313-.509-.894-1-1.808-1.472-2.732-.117-.1-.234-.2-.352-.3-.437-.354-.888-.7-1.317-1.059l-.014-.123.123-.014c.453.387.918.761,1.383,1.135-.28-.564-.55-1.133-.8-1.707-.03-.062-.058-.127-.087-.191l-.1,0-1.59-.036c.324.926.7,1.838,1.091,2.692.308.668.64,1.319.962,1.979.435.89.972,1.768,1.464,2.627q.353.619.723,1.238c1.272,1.071,2.579,2.106,3.916,3.129C57.725-14.966,56.642-16.734,55.615-18.528Zm30.539,4.194c.523-.8,1.019-1.572,1.484-2.368l.646-1.218-.749,1.168c-.628.948-1.3,1.868-2,2.766.091.044.181.091.272.143C85.929-14,86.043-14.167,86.154-14.334ZM44.261-16.075c-.874-1.989-2-3.916-3-5.84-.223-.425-.455-.848-.682-1.274q-.655-.622-1.309-1.25a.221.221,0,0,1-.008-.31.221.221,0,0,1,.31-.008c.135.133.272.264.407.393q-.239-.483-.463-.978c-.6-.038-1.2-.081-1.794-.127.068.185.141.368.215.554.447,1.117.978,2.172,1.492,3.257.33.695.723,1.385,1.087,2.066.141.266.286.531.431.8.771.693,1.526,1.407,2.3,2.106.419.383.835.757,1.246,1.141C44.412-15.725,44.335-15.9,44.261-16.075Zm3.4-1.937q-.689-1.4-1.329-2.837-.818-.9-1.609-1.826a.174.174,0,0,1,.016-.242.174.174,0,0,1,.242.016q.447.525.91,1.041c-.453-1.059-.88-2.128-1.266-3.213l-1.262-.06c-.266-.012-.529-.024-.793-.038.608,1.655,1.331,3.237,2.126,4.884.131.274.262.546.395.819.815.783,1.635,1.566,2.458,2.341.336.32.672.636,1.011.952Q48.106-17.092,47.661-18.012Zm16.1-1.629c-.785-1.4-1.562-2.748-2.285-4.113-.908-.1-1.8-.223-2.7-.37.5,1.073,1.085,2.118,1.663,3.1.113.193.221.387.332.582.755.676,1.516,1.349,2.291,2,.819.695,1.643,1.389,2.476,2.068C64.971-17.471,64.371-18.55,63.761-19.641Zm22.268,2.67c.077-.109.155-.219.232-.332a2.479,2.479,0,0,1-1.029-.453,5.336,5.336,0,0,1,.352.819,2.273,2.273,0,0,1,.1.447C85.8-16.649,85.914-16.808,86.029-16.971ZM59.6-18.391c-.817-1.721-1.824-3.4-2.748-5.071q-.239-.426-.477-.856l-.336-.32c-.244-.05-.489-.1-.733-.151-.719,0-1.439-.006-2.154-.02.378.912.775,1.808,1.2,2.714l.06.133c.012.008.022.018.034.026,2,1.689,3.958,3.467,5.911,5.222C60.119-17.277,59.865-17.833,59.6-18.391Zm-5.611,1.2c-.558-.924-1.129-1.836-1.649-2.782-.5-.9-.944-1.8-1.405-2.72-.286-.57-.538-1.182-.779-1.772-.058-.137-.115-.278-.169-.421-.668-.014-1.337-.03-2.005-.052a26.239,26.239,0,0,0,2.245,4.3c.042.042.085.087.129.129,1.21,1.226,2.456,2.382,3.739,3.491C54.059-17.07,54.025-17.128,53.991-17.187Zm16.217-2.162c-.274-.536-.586-1.073-.886-1.6-.477-.831-.948-1.667-1.421-2.5q-.927.012-1.852-.008.332.734.687,1.46a1.464,1.464,0,0,1,.25.25c.25.332.272.8.62,1.063.664.505,1.319,1.031,2.029,1.47.3.187.608.368.916.548C70.437-18.892,70.322-19.119,70.207-19.349Zm6.73-.354c-.113-.236-.26-.469-.389-.7-.217-.387-.439-.767-.662-1.148-.844-.711-1.685-1.441-2.539-2.146l-.854-.03c-.554.062-1.105.113-1.659.155.022.048.044.1.068.143,2.049,1.48,4.2,2.851,6.293,4.266C77.109-19.341,77.022-19.522,76.937-19.7ZM29.16-20.714c-.117-.282-.23-.564-.34-.848.048.252.107.5.175.741-.066-.081.012.238.141.542a.676.676,0,0,0,.034.155.445.445,0,0,0,.087.129c.129.145.256.288.385.423Q29.4-20.134,29.16-20.714Zm37.531-.215a1.147,1.147,0,0,1-.381-.127,5.719,5.719,0,0,1-.719-.578c-.584-.5-1.144-1-1.7-1.532-.143-.137-.286-.272-.427-.409-.322-.022-.64-.048-.958-.076.415.334.829.674,1.248,1.007.7.564,1.379,1.168,2.076,1.739.538.441,1.071.888,1.6,1.335C67.187-20.021,66.938-20.474,66.69-20.929Zm-37.555.65a.553.553,0,0,1-.042-.127c-.038-.135-.072-.272-.1-.415a6.933,6.933,0,0,1-.232-.886c-.074-.185-.147-.372-.217-.56a2.09,2.09,0,0,1-.268-.286,4.667,4.667,0,0,1-.5-.658.948.948,0,0,1,.032-.135l-.085-.032c-.064-.054-.145-.181-.211-.25-.157-.165-.334-.344-.487-.531a19.461,19.461,0,0,0,.624,2.388c.268.274.542.546.815.819a5.067,5.067,0,0,0,.387.391l.23.225a1.525,1.525,0,0,1,.095.2C29.1-20.229,29.1-20.247,29.135-20.279Zm12.76-4.51c-.062-.141-.123-.284-.181-.425-.461-.026-.924-.05-1.385-.079.334.767.695,1.524,1.067,2.275.453.429.9.856,1.351,1.286q.592.574,1.186,1.148C43.208-21.962,42.513-23.355,41.9-24.789Zm16.178.544c-.465-.083-.93-.169-1.4-.264.111.209.219.417.33.624.719.674,1.439,1.347,2.174,2.005q.384.347.771.695C59.3-22.194,58.649-23.2,58.074-24.245Zm29.558,2.891-.056-.179a4.416,4.416,0,0,0-.483-.835,2.754,2.754,0,0,0-.213-.294c-.089-.091.135-.316.193-.385.064-.032.115-.06.159-.083-.076-.115-.155-.23-.232-.346s-.163-.24-.244-.362c-.227.008-.455.012-.676,0-.34-.01-.695,0-1.031-.016-.054,0-.107-.008-.157-.014a4.733,4.733,0,0,1,.536,1.079c.038.02.077.04.115.058a4.106,4.106,0,0,1,.779.4c.2.2.292.463.485.656a1.542,1.542,0,0,0,.783.308Zm1.828-1.359c.022-.046.046-.095.07-.143a4.084,4.084,0,0,0-.4-1.025l-.066-.1c-.177.014-.352.026-.529.034-.32.016-.646.04-.97.064l.167.35c.217.451.443.9.687,1.341.1.181.2.391.306.562l.095.155Q89.145-22.092,89.46-22.713Zm-24.1-.761c-.155,0-.31-.01-.467-.018.191.155.381.308.57.453.064.052.131.1.2.157C65.557-23.077,65.458-23.275,65.359-23.474Zm24.765-.612c-.113.018-.244.026-.34.034s-.207.02-.31.028c.062.143.113.292.179.433a2.717,2.717,0,0,1,.1.272C89.882-23.573,90-23.828,90.124-24.086Zm-15.5.429-.25-.006c.157.121.312.244.469.364C74.765-23.418,74.693-23.538,74.62-23.657Zm-4.377.117c.163,0,.081,0,0,0l.006,0ZM80.783-25c-.131-.117-.262-.234-.395-.35-.187.058-.378.117-.568.169-.54.155-1.079.3-1.621.433.052.109.107.217.161.326.958.052,1.913.115,2.871.183C81.089-24.491,80.934-24.744,80.783-25Zm-2.953.513c-.115-.028-.232-.046-.362-.087-.133.03-.266.062-.4.091q.377.012.755.03a.106.106,0,0,0,.026,0A.326.326,0,0,1,77.829-24.489Zm-6.8-1c-.326.03-.654.058-.98.087.06.157.123.314.187.467.034.089.07.175.107.262.626.028,1.254.052,1.88.074C71.83-24.907,71.431-25.2,71.031-25.489Zm2.907.674c-.169-.3-.336-.6-.493-.908-.431.042-.862.087-1.292.127-.089.01-.175.018-.262.026q.356.257.7.521l.459.356C73.348-24.73,73.644-24.771,73.938-24.815Zm-4.61-.527c-.28.022-.562.044-.842.064.23.185.459.37.687.552l.465.022C69.533-24.916,69.43-25.129,69.327-25.342Zm19.188.531c-.087-.121-.173-.24-.262-.36a.411.411,0,0,1-.4.022c.036.135.056.268.081.4Zm-21.31-.125c-.034-.083-.066-.165-.1-.248q-.882.057-1.762.1c.022.056.046.113.07.169q.918.051,1.838.1C67.236-24.857,67.22-24.9,67.206-24.936Zm22.417.022a2.4,2.4,0,0,1,.622-.032,1.513,1.513,0,0,1,.236.068c.151-.348.3-.7.445-1.051-.093.026-.185.05-.278.07a1.787,1.787,0,0,1-.395.074c-.068-.008-.127-.05-.189-.036a.984.984,0,0,1-.093.425c-.125.129-.266,0-.368-.089-.02-.014-.038-.03-.058-.046-.29.008-.6.036-.89.032.127.2.256.407.368.61a.186.186,0,0,0,.014.028C89.232-24.875,89.43-24.891,89.623-24.914Zm-13.07-.374-.1-.1c-.2-.2-.419-.378-.64-.556-.314.03-.63.052-.946.07-.306.034-.61.068-.914.1.131.3.27.6.413.9Q75.464-25.056,76.553-25.288Zm-11.94.24h-.006c-.284.014-.568.026-.85.036.3.02.6.038.9.054C64.639-24.988,64.627-25.018,64.612-25.048Zm4.113.081-.346-.3c-.018,0-.038,0-.058,0ZM79.6-26.051a3.935,3.935,0,0,1-.461-.417.312.312,0,0,1-.042.008c-.509.095-1.023.187-1.534.274.083.2.169.407.258.61C78.413-25.721,79.005-25.88,79.6-26.051Zm-2.629-.042-.107.016c.058.04.117.081.175.119C77.012-26,76.99-26.047,76.968-26.093Zm-25.689-.578a.9.9,0,0,1,.258-.064,28.7,28.7,0,0,1-1.073-3.175.448.448,0,0,1,.3-.554.448.448,0,0,1,.554.3c.308,1.109.658,2.275,1.055,3.366.344-.026.695-.044,1.035-.064l.181-.008c-.052-.062-.1-.125-.157-.189-.109-.129-.248-.272-.342-.407l-.117-.159.064,0,.465.441c.107.1.215.2.322.306q.583-.03,1.166-.05c-.083-.175-.165-.35-.242-.527-.32-.715-.622-1.421-.92-2.146-.113-.272-.2-.556-.3-.831-.072-.187-.139-.378-.2-.574q-4.666.169-9.309.556a30.818,30.818,0,0,0,.84,3.215c.068.217.135.435.2.656q.837.079,1.671.155a15.525,15.525,0,0,1-.441-1.723.384.384,0,0,1,.3-.449.384.384,0,0,1,.449.3,14.669,14.669,0,0,0,.447,1.941c.435.04.868.081,1.3.123.244.026.487.05.733.072a19.6,19.6,0,0,1-.862-3.505.427.427,0,0,1,.354-.487.427.427,0,0,1,.487.354c.111.767.215,1.5.381,2.257.1.481.232.966.374,1.454.28.028.56.054.84.081A.477.477,0,0,1,51.279-26.671ZM42.2-26.24a.319.319,0,0,1,.014.04c.187.008.372.018.56.024C42.578-26.2,42.386-26.218,42.2-26.24Zm-.916-.1-.354-.042c-.076-.008-.151-.016-.223-.026a1.079,1.079,0,0,1-.238.115.155.155,0,0,1-.089,0c.26.016.6.036.942.054C41.3-26.278,41.291-26.313,41.279-26.345Zm-1.047.038-.125-.006a.918.918,0,0,0,.268.014C40.273-26.3,40.252-26.3,40.232-26.307Zm-.29-.034c-.179-.322-.115-.153-.046.016l.211.012ZM39-26.52l-.336-.068a10.593,10.593,0,0,0-1.4-.163c.028.089.056.175.087.262q.855.063,1.711.115Zm51.245-.056.127-.016c-.026-.012-.052-.024-.079-.038ZM43.1-30.373l-1.315.121c-.6.058-1.2.125-1.808.161-.292.018-.586.032-.882.048.31.3.61.616.92.916a.425.425,0,0,1,0,.6.425.425,0,0,1-.6,0l-.413-.411.026.1c.133.465.28.928.439,1.385a4.309,4.309,0,0,1,.483.02,2.511,2.511,0,0,1,.618.113.815.815,0,0,1,.28.282l.193.022c-.087-.258-.171-.513-.252-.773a.455.455,0,0,1,.306-.564.455.455,0,0,1,.564.306q.148.577.318,1.135c.7.081,1.4.161,2.1.236C43.7-27.893,43.367-29.123,43.1-30.373ZM88.111-26.81c-.131-.125-.258-.256-.381-.389l-.221-.242.119.236c.089.165.181.328.278.5A.468.468,0,0,1,88.111-26.81Zm-1.693-.817a3.216,3.216,0,0,1-.389.179l.024.02a4.626,4.626,0,0,1,.376.417l.081.1c.183.058.362.121.534.193A9.2,9.2,0,0,1,86.418-27.627Zm-13.533.719q-.079-.184-.151-.374c-.2-.509-.354-1-.513-1.524a11.227,11.227,0,0,1-.328-1.792.421.421,0,0,1,.018-.173c-.157-.014-.314-.028-.471-.04-1.047-.081-2.114-.117-3.157-.223-.056,0-.113-.01-.169-.016q-1.634-.036-3.271-.064-4-.066-8,.01c.1.27.189.582.215.691a6.03,6.03,0,0,1,.081.713c.03.3.077.618.129.912a17.832,17.832,0,0,0,.431,1.8q.761-.006,1.522,0l.7.008A27.172,27.172,0,0,1,58.859-29.9a.509.509,0,0,1,.35-.628.509.509,0,0,1,.628.35c.193.727.385,1.423.6,2.144.107.358.236.711.37,1.061.55.014,1.1.028,1.653.036.451.008.906.018,1.359.03-.179-.455-.344-.916-.475-1.367-.085-.286-.191-.58-.266-.868-.095-.364-.179-.733-.27-1.1a.477.477,0,0,1,.362-.564.477.477,0,0,1,.564.362,20.584,20.584,0,0,0,.922,3.559l1.846.06a11.6,11.6,0,0,1-.538-2.48c-.028-.34-.177-.787.2-.991a.569.569,0,0,1,.312-.048c.654.07.88.391,1.242.92a2.4,2.4,0,0,1,.2.326c.052.123-.081.437-.113.566a.892.892,0,0,1-.566-.081,1.549,1.549,0,0,1-.268-.407l-.05-.068a14.134,14.134,0,0,0,.519,2.291c.423.012.846.024,1.268.032-.07-.173-.141-.348-.207-.527-.165-.435-.31-.866-.453-1.309a1.8,1.8,0,0,1-.143-.578,1.086,1.086,0,0,1,.318-.538,1.917,1.917,0,0,1,1.393-.93,3.393,3.393,0,0,1-.1.848,3.307,3.307,0,0,1-.542.779l.34,1.437c.072.278.157.556.248.833.5.006.993.01,1.49.006C71.661-26.79,72.273-26.846,72.885-26.909Zm-19.154.034.008.01-.346-.336.28.336-.006-.006Zm3.1-.1a11.085,11.085,0,0,1-.479-2.035,5.568,5.568,0,0,1-.1-1.5,2.746,2.746,0,0,1,.157-.578q-1.247.024-2.49.068a29.024,29.024,0,0,0,1.544,4.083C55.919-26.961,56.376-26.971,56.831-26.979ZM73.811-27c.87-.089,1.735-.2,2.6-.3a13.138,13.138,0,0,1-.948-3.316,2.348,2.348,0,0,0-.779-.1c-.306.022-.61.095-.916.1a7.7,7.7,0,0,1-.805-.06c-.064,0-.129-.008-.191-.014a.026.026,0,0,0,0,.012,7.754,7.754,0,0,0,.083,1.162,12.924,12.924,0,0,0,.624,2.549C73.591-26.979,73.7-26.991,73.811-27Zm15.224-.111.147-.1c-.252-.137-.5-.276-.751-.415a.381.381,0,0,1-.02.127c.113.173.225.346.344.513A2.5,2.5,0,0,0,89.035-27.114Zm-3.471-.236a1.5,1.5,0,0,1-.26-.01c.058.052.123.113.183.169l.246.064C85.677-27.2,85.62-27.279,85.564-27.35ZM55.909-32.012q-1.145-.091-2.291-.191.03.145.066.29C54.426-31.95,55.168-31.984,55.909-32.012Zm13.571-.219c-2.462-.2-4.93-.4-7.4-.534-2.305-.127-4.6-.219-6.9-.268q-.867-.018-1.733-.04c.024.133.048.266.074.4a.281.281,0,0,1,.109-.018c3.412.286,6.853.387,10.278.433q1.018.015,2.033.032c1,0,2.005.014,3,.042.552.018,1.107.034,1.663.048Q70.036-32.184,69.48-32.232Zm5.8-.254c-2.307-.219-4.634-.368-6.95-.491l-.9-.044c2.456.183,4.906.381,7.36.566.932.072,1.866.141,2.782.207C76.825-32.324,76.052-32.411,75.283-32.485Zm-41.166.044a.242.242,0,0,1,.189-.282c1.852-.36,3.706-.719,5.575-1,1.448-.221,2.9-.413,4.349-.6,1.514-.193,3.07-.389,4.592-.5,1.331-.1,2.657-.246,3.992-.338.513-.036,1.067-.111,1.576-.1a13.422,13.422,0,0,1,2.543.4,13.129,13.129,0,0,1-2.281.586c-.435.058-.85.06-1.286.079-.642.026-1.284.042-1.927.062-1.321.042-2.651.127-3.97.211-1.979.127-3.936.308-5.907.536-.556.064-1.121.125-1.675.205-1.85.27-3.656.58-5.488.936A.242.242,0,0,1,34.116-32.441ZM20.726-47.949l.336-2.571q.293-1.9.66-3.743l.791-3.533-.185.664c-.223.942-.461,1.931-.618,2.885-.079.483-.189.974-.29,1.454-.119.562-.2,1.148-.294,1.715-.145.854-.26,1.711-.352,2.573Zm73.034-.739-.2-1.679q-.205-1.41-.477-2.833c-.177-.922-.358-1.842-.558-2.758l-.191-.8L93.5-50.641Zm-.282-8.019v0c-.149-1-.35-2.015-.6-3.018-.006.244-.012.481-.014.7a.159.159,0,0,1-.038.1C93.049-58.182,93.265-57.441,93.478-56.706Zm-.984-4.407c-.149-.487-.306-.968-.475-1.441-.272-.757-.576-1.437-.918-2.162l-.03-.06c-.129-.1-.258-.185-.4-.28a.217.217,0,0,1-.048-.036c.161.409.324.819.479,1.23.447,1.194.878,2.4,1.286,3.606.048.147.1.292.145.437C92.534-60.252,92.524-60.691,92.494-61.113Zm-68.534-3.97-.036.026a2.531,2.531,0,0,0-.463.326c-.044.038-.058.1-.1.145s-.1.1-.149.149c-.995,1.041-1.146,2.748-1.146,4.115,0,.159,0,.32,0,.479C22.649-61.609,23.293-63.354,23.959-65.083Zm33.6,3.173c-.1,0-.209,0-.314-.006-.133,0-.268.008-.4.01-1.019.018-2.06-.079-3.076-.155-.181-.012-.36-.026-.54-.05a14.255,14.255,0,0,1-2.388-.095,10.1,10.1,0,0,1-1.645-.286c-.149-.01-.258-.022-.366-.036a132.935,132.935,0,0,1-13.7-2.347,34.594,34.594,0,0,1-4.584-1.051c-.117-.024-.147-.032-.177-.04l-3.819-.926a2.788,2.788,0,0,0,.723,1.3,4.223,4.223,0,0,0,3.378.978.153.153,0,0,1,.167.135.153.153,0,0,1-.135.167,5.1,5.1,0,0,1-2.806-.37,5.615,5.615,0,0,1-.952-.608,3.282,3.282,0,0,1-.616-.552c-.028-.034-.052-.066-.077-.1-.081.252-.161.5-.234.753a.1.1,0,0,1-.006.014c.173.066.348.131.517.191,1.007.376,2,.689,3.036.97.912.248,1.892.507,2.823.666.517.089,1.019.234,1.532.336,1.232.248,2.5.507,3.747.658,1.1.133,2.184.274,3.286.389.966.1,1.951.145,2.921.205,1.542.1,3.116.129,4.661.133C51.531-61.613,54.538-61.741,57.556-61.911Zm16.969-1.3q1.764-.133,3.527-.244c.916-.056,1.83-.113,2.748-.109.753.006,1.494.046,2.237.093a13.73,13.73,0,0,0,3.382-1.858,10.037,10.037,0,0,0,.886-.721,6.484,6.484,0,0,0,.727-.84l-3.787.92.05-.012a.571.571,0,0,1-.7.232.494.494,0,0,1-.087-.042c-1.923.453-3.847.892-5.778,1.3-1.794.376-3.584.713-5.387,1.031-1.967.346-3.99.654-5.975.868-.1.012-.191.022-.28.03-.131.026-.262.048-.372.068C68.637-62.718,71.58-62.988,74.526-63.207Zm-16.07.163c.54-.058,1.087-.066,1.629-.113,1.524-.129,3.05-.227,4.57-.4,2.1-.244,4.183-.5,6.179-.767,2.953-.449,5.812-.95,8.639-1.552q1.978-.417,3.928-.886a2.08,2.08,0,0,1,.966-.858c.181-.1.407-.185.62-.3l-.918-.483-.119-.054a.5.5,0,0,1-.489.27c-4.194-.4-8.341-.918-12.514-1.51-3.1-.439-6.209-.878-9.321-1.244-.668-.079-1.341-.141-2.011-.215-2.784-.31-5.631-.556-8.431-.634-1.152-.032-2.323-.064-3.475-.046-1.107.018-2.206.06-3.312.107q-.9.039-1.8.109a70.138,70.138,0,0,0-13.221,3.4c-.467.177-.93.36-1.393.552a8.028,8.028,0,0,0,1.613.521c2.227.538,4.481,1.063,6.779,1.526.833.117,1.683.219,2.543.314,1.514.167,3.036.244,4.556.336,2.859.175,5.754.177,8.617.141,1.137-.014,2.279-.018,3.416-.044,2.319-.052,4.645-.03,6.964-.1.864-.028,1.76-.014,2.619-.081-.393.04-.805.117-1.2.177-.511.079-1.029.145-1.542.213-1.951.258-3.932.479-5.895.608-2.965.2-5.856.246-8.828.2-.147,0-.292,0-.437-.008q1.208.145,2.422.28c1.4.155,2.79.278,4.19.387.886.068,1.78.109,2.661.2.288.032.576.066.862.1Q57.885-62.982,58.456-63.044Zm32.119-2.531a.522.522,0,0,1,.044-.054c-.107-.191-.211-.387-.328-.572-.072-.109-.143-.219-.217-.328a3.612,3.612,0,0,1-.268.3l.064.185.27.008a.4.4,0,0,1,.213.221q.076.211.157.423A.373.373,0,0,1,90.575-65.575Zm-.65-1.18c-.072-.109-.145-.217-.215-.328l-.137-.177-.1.024.242.725.022.062A1.773,1.773,0,0,0,89.925-66.754Zm-65.013.117.209-.606-.578-.141.008.175,0-.046a.1.1,0,0,1,.038-.022.1.1,0,0,1,.131.066Zm62.328-.568c.232-.052.465-.109.7-.165-.008-.036-.018-.072-.026-.109q-1.359.377-2.7.725C85.862-66.891,86.551-67.046,87.239-67.205Zm.582-.733a.653.653,0,0,1,.441-.8.684.684,0,0,1,.689.171.4.4,0,0,1,.238-.153c-.26-.081-.521-.159-.777-.248-1.262-.421-2.611-.761-3.9-1.087q-1.6-.4-3.213-.735c.544.2,1.079.415,1.607.636.854.362,1.715.763,2.537,1.194.254.133.819.358.958.6.183.316,0,.57-.171.815C87.261-67.777,87.541-67.856,87.821-67.938Zm-60.2-.181c.918-.366,1.826-.729,2.752-1.075.691-.258,1.387-.5,2.088-.731q-1.048.266-2.084.56c-.695.2-1.381.421-2.066.656l-1.472.521-.008,0c.149.072.3.139.455.205C27.4-68.029,27.509-68.073,27.621-68.119Zm-2.8-.332c-.02-.014-.046-.036-.077-.062l-.147.048c.1.03.207.06.31.089C24.879-68.4,24.849-68.425,24.821-68.452Zm65.15-.018c-.167-.056-.336-.109-.505-.161a1.733,1.733,0,0,1,.219.244C89.78-68.413,89.874-68.442,89.971-68.47Zm-63.191-.6c.437-.159.874-.31,1.313-.457-.807.23-1.611.465-2.41.715.058.03.117.064.177.1A4.829,4.829,0,0,1,26.78-69.07Zm-.825-.378q.525-.166,1.055-.324a2.844,2.844,0,0,0-1.617.507Zm55.559-.068c-.956-.389-1.985-.727-2.974-1.027a56.96,56.96,0,0,0-7.334-1.689c-2.388-.2-4.781-.312-7.167-.342-.354,0-.711-.006-1.067-.006.61.159,1.214.348,1.818.525-.161.143-.648.091-.864.089-.785,0-1.576-.016-2.362-.058-1.174-.062-2.349-.225-3.523-.31l-.672-.046c-.187.014-.37.024-.552.034,1.051.093,2.1.209,3.153.318.821.085,1.643.171,2.462.276,1.238.159,2.48.3,3.718.467,5.261.695,10.509,1.4,15.786,1.943Z" transform="translate(-19.19 74.238)"/></g></svg>