<svg xmlns="http://www.w3.org/2000/svg" width="113.188" height="145.368" viewBox="0 0 113.188 145.368"><defs><style>.a{fill-rule:evenodd;}</style></defs><g transform="translate(0 0)"><g transform="translate(0)"><path class="a" d="M91.722,71.319a8.163,8.163,0,0,1-.878-.342c-.674.006-1.351.01-2.025.008-2.327,0-4.663.026-6.988.048H75.5c-2.692-.008-5.383-.046-8.075-.074-.858-.008-1.719-.018-2.577-.04-6.2.139-12.41.143-18.61.048-1.1-.016-2.2-.018-3.308-.02-.54.028-1.089.062-1.641.107-.445.036-.932.022-1.367.085-.459.064-1.137.227-1.423-.246-2.331-.056-4.655-.137-6.984-.223-.6-.02-1.222-.024-1.824-.06-.411-.026-.835-.006-1.246-.032.022-.046.05-.091.072-.137.811-.046,1.647-.1,2.456-.165.425-.034.858-.036,1.284-.062,1.411-.089,2.849-.121,4.266-.151.586-.01,1.18-.016,1.77-.022l-.137-.852a.8.8,0,0,1-.089-.227l-.026-.219-.008.05,0-.171-.014-.119-.02-.362-.115-.729c-.225-1.46-.457-2.851-.556-4.328-.06-.858-.089-1.715-.111-2.575-.129-.529-.256-1.057-.381-1.586-.163,0-.326,0-.485,0,.044.155.091.308.139.461a.59.59,0,0,1-1.137.316c-.083-.258-.159-.523-.232-.789-1.087-.016-2.174-.038-3.257-.06a.173.173,0,1,1-.016-.346q1.54-.166,3.078-.336c-.085-.326-.167-.654-.254-.976C34.182,55.4,33.755,53.6,33.29,51.8c-.01-.032-.018-.068-.026-.1-.183-.455-.336-.92-.485-1.383-.171-.523-.342-1.061-.483-1.59-.153-.564-.324-1.119-.471-1.683-.4-1.56-.781-3.12-1.125-4.7-.628-2.863-1.17-5.746-1.653-8.645-.181-.829-.364-1.669-.546-2.508-.232-1.067-.473-2.134-.678-3.207C26.9,23.138,26,18.319,25.233,13.445c-.336-2.144-.674-4.312-.926-6.471a.3.3,0,0,1-.111-.252.269.269,0,0,1,.062-.169c-.018-.163-.036-.33-.052-.493-.129-1.224-.268-2.432-.366-3.648-.215-.014-.433-.026-.644-.044a.3.3,0,0,1,.032-.6c.183.016.374.026.566.036-.026-.378-.048-.755-.062-1.133A.908.908,0,0,1,23.892.1c-.417.02-.835.042-1.25.058A.17.17,0,0,1,22.465,0a.17.17,0,0,1,.161-.177c.346-.016.695-.032,1.043-.05-.3-.087-.594-.181-.882-.29a6.778,6.778,0,0,1-.948-.419.511.511,0,0,1-.242-.678.511.511,0,0,1,.676-.242,8.649,8.649,0,0,0,2.035.759c-.022-.288-.038-.574-.054-.862a.216.216,0,0,1,.2-.23.216.216,0,0,1,.23.2c.018.33.04.658.062.988a14.023,14.023,0,0,0,1.882.236q-.483-4.361-.856-8.737-.109-1.244-.211-2.484-.507-3.274-1-6.545c-.334-2.2-.642-4.4-.956-6.6-.378-2.655-.789-5.307-1.148-7.966-.254-1.874-.5-3.755-.761-5.631a3.5,3.5,0,0,1-1.514-.654,3.187,3.187,0,0,1-.378-.376,3.887,3.887,0,0,1-.467.234,3.326,3.326,0,0,1-1.663.24,4.922,4.922,0,0,1-1.969-.763,1.175,1.175,0,0,1-.554-.538c-.048-.109-.093-.217-.133-.324-.093.447-.171.9-.227,1.369a8.932,8.932,0,0,0-.077,1.226,13.018,13.018,0,0,0,.109,1.369.282.282,0,0,1-.242.312.281.281,0,0,1-.312-.244,15.2,15.2,0,0,1,.391-5.349c-.044-.246-.077-.491-.1-.747l-.008-.115-.028-.052a.044.044,0,0,0-.006-.01c-.318.018-.634.038-.952.054a.184.184,0,0,1-.2-.171.183.183,0,0,1,.171-.193h.02l-.364-.048c-1.272-.179-2.543-.421-3.813-.62,1.631.123,3.269.2,4.9.288.04,0,.079.006.117.008a.1.1,0,0,1,0-.024,11.63,11.63,0,0,1,.133-2.591l.016-.1.014-.26a28.806,28.806,0,0,1,.4-2.965,11.221,11.221,0,0,1,1.4-3.962.523.523,0,0,1-.04-.3.537.537,0,0,1,.608-.449c.127.01.248.03.368.044.083-.352.159-.707.209-1.067.032-.238.02-.634.207-.8a.847.847,0,0,1,.558-.123c.187-.008.372-.028.56-.024.109,0,.211.028.318.03l.525.01a10.326,10.326,0,0,0,3.682-.29.458.458,0,0,1,.57.3.455.455,0,0,1-.3.57q-.172.048-.338.091l.137.006a2.152,2.152,0,0,1,.328.066.664.664,0,0,1,.244.133.647.647,0,0,1,.058-.165c.024-.074.091-.2.127-.286.085-.2.151-.437.215-.648.095-.308.185-.622.272-.936a.015.015,0,0,1-.01,0c-.773-.032-1.57-.056-2.337-.119a.312.312,0,0,1-.292-.322.312.312,0,0,1,.322-.292c.821.068,1.653.093,2.482.115.266-1.009.5-2.031.725-3.046.387-1.737.753-3.5,1.061-5.251.2-1.117.457-2.225.656-3.346a7.912,7.912,0,0,0,.149-.984,3.276,3.276,0,0,0,.036-.374c-.042-.733.525-1,1.113-1.148.143-.036.334-.046.487-.07l.312-.05c.081-.246.163-.487.248-.733a.546.546,0,0,1,.691-.334.545.545,0,0,1,.334.689c-.026.077-.052.147-.079.219.107-.008.215-.02.32-.026.419-.024.844-.087,1.264-.113.67-.04,1.363-.077,2.031-.133.372-.034.751-.036,1.123-.06.4-.026.8-.052,1.2-.062.664-.014,1.335-.06,2-.087q1.942-.072,3.882-.127l1.425-.04c3.068-.179,6.13-.268,9.206-.32,2.444-.038,4.9,0,7.36.072q2.525-.015,5.053-.028c3.04-.012,6.08.04,9.118.036.856,0,1.713.026,2.569.034.179,0,.358,0,.544.01,1.9-.111,3.805-.141,5.712-.131,3.5.024,7.032.123,10.533.346.111-.008.225-.016.338-.026.817-.062,1.645-.133,2.464-.179,1.876-.1,3.729-.272,5.611-.25a19.113,19.113,0,0,1,2.776.155,5.852,5.852,0,0,1,1.073.181,1.525,1.525,0,0,1,.636.666c-.016-.044-.03-.091-.046-.137a.545.545,0,0,1,.334-.689.546.546,0,0,1,.691.334c.888,2.668,1.655,5.367,2.416,8.069.646,1.52,1.307,3.034,2.043,4.508.342.678.7,1.349,1.069,2.015.133.244.3.511.445.743a1.752,1.752,0,0,1,.221.421,1.087,1.087,0,0,1,.048.447l.225.008c.161.006.334.02.5.012.123-.006.268-.018.413-.024l.286,0a1.267,1.267,0,0,1,.67-.312,2.087,2.087,0,0,1,.219.024l.149.016c.06.026.139.07.2.1a.771.771,0,0,1,.135.068,3.758,3.758,0,0,1,.509.7c.421-.018.838-.04,1.238-.058.244-.01.505.028.755.032a.473.473,0,0,1,.449.211,2.805,2.805,0,0,1,.127.741,12.566,12.566,0,0,0,.34,1.586c.272,1,.572,1.987.821,2.988a12.967,12.967,0,0,1,.429,2.43c.016.376.022.727.006,1.107-.006.165-.032.33-.048.5.107.435.217.87.328,1.3.248-.012.5-.024.745-.04-.242.034-.485.068-.727.1.2.747.4,1.492.65,2.219a.281.281,0,0,1-.191.348.279.279,0,0,1-.115.01l.006.28a.976.976,0,0,1,.4.952.967.967,0,0,1-.534.709,4.611,4.611,0,0,1-.217.741,1.5,1.5,0,0,1-.662.908,3.466,3.466,0,0,1-1.556.022,5.87,5.87,0,0,1-1.818-.656,3.153,3.153,0,0,1-.92.825,4.267,4.267,0,0,1-1.067.391,2.195,2.195,0,0,1-1,.036c.423.183.856.358,1.284.523a.428.428,0,0,1,.242.554.429.429,0,0,1-.554.244c-.348-.119-.723-.278-1.063-.431q-.054.9-.113,1.8c-.274,4.248-.687,8.51-1.111,12.746-.008.072-.016.141-.022.209.01.006.022.014.034.02a.326.326,0,0,1,.109.445.321.321,0,0,1-.205.147q-.287,2.814-.608,5.627c-.032.817-.066,1.637-.1,2.452-.07,1.59-.179,3.193-.29,4.781q-.239,3.415-.521,6.813c.6.016,1.172-.032,1.514.574a4.713,4.713,0,0,1,.155,1.967c.423.022.842.042,1.266.062a.17.17,0,0,1,.161.177.17.17,0,0,1-.177.161c-.421-.016-.842-.038-1.262-.058-.01.234-.05.485-.076.713a13.679,13.679,0,0,1-.2,1.431,16.206,16.206,0,0,1-.5,1.786c-.064.191-.133.381-.2.57-.064.507-.127,1.015-.2,1.522.064.038.127.079.191.117a.183.183,0,1,1-.185.316c-.02-.01-.042-.02-.06-.03-.439,3.159-.982,6.311-1.592,9.456-.5,4.618-1.045,9.217-1.707,13.827-.205,1.415-.445,2.829-.691,4.248-.417,3.388-.85,6.791-1.421,10.161q-.465,2.757-1.019,5.494c-.354,1.762-.765,3.545-1.222,5.281-.068.262-.139.523-.211.781.072,0,.143,0,.215-.01a.884.884,0,1,1,.008,1.768h-.719c-.072.256-.141.509-.211.765.618.068,1.236.135,1.858.2a.173.173,0,1,1-.016.346q-1.434.03-2.871.052c-.326,1.506-.668,3.008-1.015,4.508q.9.679,1.814,1.331-.951-.507-1.884-1.035c-.058.258-.119.513-.177.769a.113.113,0,0,1-.133.091.116.116,0,0,1-.091-.133c.046-.29.095-.582.143-.874-.107-.06-.211-.121-.316-.183-.02.123-.044.248-.064.37a.993.993,0,0,1-.137.354l-.252.26-.334,1.637-.01.046q.855.486,1.711.954a.391.391,0,1,1-.376.685c-.505-.264-1-.536-1.5-.813l-.081.4c-.173.92-.326,1.844-.439,2.774.6.008,1.206.018,1.81.034,1.617.046,3.225.131,4.838.189.926.032,1.858.135,2.782.185-.026.044-.052.089-.074.133-.31.018-.624.008-.934.024-.266.012-.554.026-.817.024-.805,0-1.639.077-2.448.089-.437.008-.88.04-1.317.05-1.035.026-2.07.07-3.1.1-.294.01-.588.018-.884.024a.852.852,0,0,1-.286.352c-.463.342-1.035.054-1.524-.074-.328-.087-.662-.169-1-.246l-2.229.016q-1.078.015-2.154.028c.3.215.606.433.914.642a.76.76,0,0,1-.288.048A10.869,10.869,0,0,1,91.722,71.319ZM38.3,70.067l-.006-.028Zm1.391-.326.364-.036c.268-.036.536-.081.8-.1.711-.064,1.421-.125,2.132-.185a12.244,12.244,0,0,1-1.321-.383c-.3-.107-.3-.441,0-.5a2.194,2.194,0,0,0,.278-.018c.312-.1.38-.215.515-.515a1.667,1.667,0,0,0,.127-.356c.268-1.317-.161-2.752.079-4.091a.179.179,0,1,1,.354.054,5.532,5.532,0,0,0-.06,1.367,15.124,15.124,0,0,1,0,2.734,2.209,2.209,0,0,1-.157.64,1.085,1.085,0,0,1-.2.288l-.121.1.676.179a18.954,18.954,0,0,0,2.011.324c.9-.056,1.794-.068,2.688-.127,1.439-.093,2.915-.1,4.359-.131,1.137-.028,2.293-.054,3.431-.046.934.006,1.87-.014,2.8-.01,1.47.006,2.945.014,4.415.01,3.34-.01,6.688.058,10.028.066,3.026.012,6.088,0,9.126-.1-.1-.07-.211-.139-.314-.209-2.166-1.4-4.306-2.855-6.5-4.208-1.445-.894-2.917-1.735-4.387-2.587l.054-.1c2.748,1.586,5.583,3.05,8.3,4.685,1.252.753,2.454,1.58,3.672,2.39.312-.012.626-.026.938-.042,1-.046,2.015-.081,3.02-.141-.668-.409-1.333-.821-1.981-1.26-1.226-.825-2.428-1.715-3.62-2.591-1.355-1-2.714-1.993-4.065-3-1.373-1.023-2.782-2-4.185-2.978-.234-.163-.471-.318-.711-.477-2.3.058-4.594.111-6.9.129-3.149.024-6.279-.014-9.424-.089-.92-.022-1.846-.077-2.772-.141l-4.459.248c-2.259.127-4.514.26-6.775.334-.876.028-1.749.044-2.625.054.177,1,.344,2,.525,2.984.348,1.888.729,3.769,1.011,5.667a.311.311,0,0,1-.614.1c-.378-1.945-.64-3.922-.966-5.877-.159-.958-.328-1.917-.491-2.875h-.527a30.612,30.612,0,0,0,.57,4.061c.119.63.25,1.26.372,1.89.066.332.149.682.187,1.019.107.94.167,1.856.2,2.827l-.02.183.022.123Zm57.794-.455-.062-.018c-.614-.409-1.224-.829-1.846-1.238l-.779-.507a1.849,1.849,0,0,0,.157.485c.165.334.169.338.451.491.155.085.391-.048.523.135a.237.237,0,0,1-.02.316l-.008,0c.135.014.266.038.4.064.272.056.544.119.815.171Zm.374-.217.185-1.345c.1-.614.217-1.226.334-1.836q-1.836-1.087-3.614-2.261a16.56,16.56,0,0,1-.008,2.718c-.006.193-.014.4-.012.6.946.63,1.882,1.262,2.812,1.907C97.657,68.921,97.76,68.994,97.858,69.068Zm-3.048-.294.1-.03-.139-.139a2.416,2.416,0,0,1-.383-1.349c-2.311-1.51-4.63-3.012-6.938-4.53s-4.628-3.038-6.925-4.59c-1.8.064-3.6.127-5.4.171-.753.022-1.5.04-2.255.06.419.278.838.556,1.254.829.974.642,1.929,1.335,2.893,1.993,2.714,1.85,5.381,3.741,8.16,5.492.449.284.884.59,1.335.866q.843.522,1.689,1.035c.8-.064,1.6-.125,2.4-.139.644-.01,1.276.022,1.919.066.747.05,1.538.137,2.277.262A.007.007,0,0,0,94.81,68.774ZM73.621,66.787c-1.029-.57-2.045-1.142-3.094-1.671a.105.105,0,0,1,.093-.189c1.043.554,2.17,1.033,3.255,1.51.666.292,1.337.662,2,.98a.226.226,0,0,1-.2.4C74.992,67.494,74.277,67.149,73.621,66.787Zm20.764-.23c0-.308.016-.624.034-.93.022-.332.03-.662.044-.995.012-.236-.014-.463-.02-.7,0-.109-.04-.223-.044-.332a.178.178,0,0,1,.072-.169q-.818-.544-1.633-1.1c-1.8-1.236-3.527-2.553-5.273-3.865-.089,0-.179-.01-.268-.016l-6.08-.338-.3.01c2.086,1.363,4.2,2.684,6.311,4,2.394,1.5,4.793,3.018,7.155,4.582C94.383,66.656,94.383,66.606,94.385,66.558Zm4.739-4.339c-1.288-.8-2.549-1.651-3.779-2.571q-.553-.411-1.1-.831c-1.8-.074-3.592-.175-5.387-.276l.33.242c1.486,1.1,3.038,2.2,4.588,3.215.888.582,1.77,1.172,2.663,1.743q1.039.664,2.106,1.3C98.732,64.1,98.927,63.159,99.125,62.219Zm3.02-3.318c-.155,0-.31.006-.463.006v.01c-.036.232-.079.463-.1.695-.03.26-.04.529-.074.787-.121.856-.254,1.715-.4,2.567.1.081.2.157.306.234Q101.765,61.052,102.144,58.9Zm-2.829,2.416c.165-.779.308-1.562.449-2.345,0-.016.006-.032.008-.052q-1.993.006-3.984-.048c.155.119.31.236.467.352,1.007.771,2.005,1.552,3.008,2.329C99.282,61.474,99.3,61.4,99.316,61.317Zm2.8-3.457c.028-.107.058-.217.091-.326l-.922.006h-.079a.713.713,0,0,1,.507.542c.123.014.246.028.368.038A.839.839,0,0,1,102.116,57.86Zm-65.5.121c-.04-.173-.081-.342-.119-.513-.083-.354-.161-.709-.24-1.067-.2-.03-.393-.062-.588-.095.149.574.29,1.152.439,1.725Zm.628-.068a.368.368,0,0,1,.026-.032.281.281,0,0,1,.139-.087l.137-.008.052-.874a.341.341,0,0,1,.171-.274c-.292-.042-.582-.089-.874-.133l.036.167c.085.417.167.831.25,1.248C37.2,57.919,37.222,57.917,37.242,57.913Zm62.8-.1.1-.1s0,0,0-.008l-.256-.145c-1.019.014-2.035.028-3.054.05q1.582.139,3.161.3A.8.8,0,0,1,100.039,57.81Zm-61.468-.028c-.044-.242-.083-.485-.115-.729-.016-.1-.03-.211-.044-.316-.074-.012-.149-.024-.221-.034a.349.349,0,0,1,.093.256c-.032.284-.048.57-.054.856C38.341,57.806,38.456,57.794,38.571,57.782Zm2.967-.26c.616-.046,1.232-.089,1.844-.125q-2.244-.266-4.483-.59c.026.119.054.24.079.356.038.191.074.378.113.57C39.9,57.657,40.719,57.585,41.538,57.522Zm14.244-.793c-2.515-.125-5.055-.236-7.57-.288-2.045-.04-4.091-.111-6.144-.153q1.232.118,2.45.209c1.772.137,3.567.236,5.343.282,1.188.03,2.376.06,3.565.074a.312.312,0,0,0,.044,0Q54.624,56.789,55.782,56.729Zm21.417-.88q-1.238-.867-2.462-1.758c-4.741.032-9.484.066-14.225.072-2.456,0-4.92.036-7.376.008-2.023-.024-4.049-.018-6.072-.026-1.615-.008-3.235-.054-4.85-.089-.785-.018-1.607-.089-2.394-.141-.527-.034-1.069-.05-1.6-.081.091.423.183.844.282,1.264.03.135.06.27.095.4l5.873.034c2.651.02,5.3.087,7.952.125,3.487.052,7,.143,10.481.272,1.935.07,3.869.135,5.816.2Q72.943,55.973,77.2,55.849Zm6.8-.163c-.167-.137-.334-.276-.5-.415-.491-.407-.976-.817-1.462-1.234-1.142.01-2.285.02-3.429.024l-3.588.028q1.244.882,2.508,1.749Q80.764,55.749,84,55.686Zm18.7.1c.008-.032.018-.064.026-.1.052-.272.1-.544.153-.813-.1.221-.217.439-.33.652-.032.062-.081.159-.137.262Zm-12.438-.2q-.939-.788-1.868-1.584c-.574,0-1.148.012-1.719.012q-1.8.006-3.6.02c.095.077.191.149.286.223q.888.71,1.776,1.411Q87.7,55.619,90.262,55.581Zm6.5-.07c-.159-.111-.32-.219-.479-.332q-.87-.592-1.723-1.21c-1.405,0-2.812.032-4.216.02h-.854q1.006.791,2.017,1.574Q94.132,55.533,96.759,55.511Zm1.319-.006,2.629-.01c.02-.137.042-.272.064-.409.05-.318.1-.636.153-.956-.076-.056-.149-.113-.223-.167-.135,0-.27,0-.4,0-1.472-.02-2.947.008-4.419.012.383.27.767.542,1.152.811C97.373,55.028,97.725,55.265,98.078,55.5Zm-59.851,0,.022,0q-.118-.84-.238-1.677c-.227-.016-.449-.032-.668-.058a.3.3,0,1,1,.038-.6c.171.018.35.032.534.044q-.106-.682-.225-1.361l.131-.024c.085.465.173.928.268,1.4.415.016.838.02,1.224.014.962-.012,1.917,0,2.879-.026.316-.01.64.02.958.016.695-.008,1.389.014,2.084.012,2.823-.008,5.645.032,8.468.016,5.414-.028,10.829-.024,16.243-.052q1.776-.009,3.553-.02-.912-.682-1.812-1.381l-.014-.1.1-.014c.32.256.66.5.988.751s.66.5.995.743c2.408-.016,4.816-.038,7.223-.052l-1.381-1.2c-.755-.65-1.526-1.282-2.279-1.935-.225-.193-.447-.389-.67-.584-5.6.038-11.216.083-16.818.089-2.521,0-5.051.036-7.572.008-2.074-.022-4.151-.018-6.227-.026-1.657-.008-3.32-.054-4.975-.089-.809-.018-1.649-.091-2.458-.141-.84-.052-1.711-.068-2.543-.151a.3.3,0,0,1,.038-.6,17.593,17.593,0,0,0,1.983.068c.986-.012,1.967,0,2.953-.026.324-.01.658.02.984.016.713-.008,1.425.014,2.138.012,2.9-.008,5.79.032,8.687.016,5.554-.028,11.111-.024,16.668-.052q3.053-.015,6.11-.038-.7-.622-1.4-1.24a.169.169,0,1,1,.219-.258c.59.507,1.184,1,1.784,1.494q2.824-.021,5.649-.038c-1.506-1.264-3.022-2.515-4.564-3.722q-2.479.009-4.957.03-7.794.066-15.592.072H49.889c-2.3-.022-4.6-.03-6.9-.054-1.78-.016-3.575-.046-5.347-.181-.95-.074-1.927-.072-2.873-.167a.3.3,0,0,1,.036-.6c.592.06,1.238.06,1.836.068.759.008,1.518.008,2.277-.006.362-.008.753-.03,1.113-.018,1.53.052,3.078.012,4.61.028,2.686.03,5.375-.008,8.061.012,1.78.014,3.559-.016,5.337-.006,2.788.014,5.585-.014,8.375-.034q4.859-.03,9.716-.052c-.284-.219-.57-.437-.852-.654-.628-.477-1.278-.928-1.9-1.411a.141.141,0,0,1,.165-.227c.548.421,1.115.827,1.671,1.232.471.344.934.7,1.4,1.059q2.552-.012,5.11-.026c-.064-.052-.129-.1-.189-.159Q79.4,41.86,77.253,40.126c-.034-.026-.066-.054-.1-.079q-2.582.009-5.16.03-7.987.066-15.979.072H48.977c-2.357-.022-4.713-.03-7.07-.052-1.82-.018-3.658-.046-5.474-.183-.976-.074-1.977-.072-2.947-.167h0c.01.052.018.1.03.157q.2,1.042.4,2.084.263,1.075.521,2.152c.292,1.224.59,2.45.866,3.676.24,1.051.457,2.106.7,3.157a.525.525,0,0,1-.163.5c.282,1.343.57,2.68.85,4.02Zm-2.637-2.249q-.184-.858-.364-1.717a.518.518,0,0,1-.246-.34c-.252-1.073-.471-2.156-.713-3.229-.721-3.181-1.5-6.368-2.3-9.527q-.679-2.648-1.351-5.309c.995,5.2,2.06,10.372,3.215,15.542.346,1.55.721,3.094,1.087,4.638.085.366.173.737.262,1.105l.523,1.039.008.014.109.018.242,0Q35.82,54.374,35.589,53.254Zm65.776,2.237.342,0,.586-1.113c.06-.137.123-.272.183-.411a.473.473,0,0,1-.054,0c-.2,0-.4,0-.6,0,.048.036.095.07.143.1a.344.344,0,0,1-.417.548.541.541,0,0,1-.046-.034c-.048.306-.1.612-.147.916ZM86.129,53.1c.4,0,.805,0,1.21,0q-.894-.764-1.786-1.528c-.868-.733-1.731-1.47-2.6-2.206-1.52.012-3.04.026-4.56.034l-1.065.006q.187.151.368.3c.878.727,1.741,1.464,2.625,2.184.515.419,1.041.825,1.566,1.232Q84.012,53.1,86.129,53.1Zm7.175-.046c-1.037-.769-2.062-1.552-3.076-2.335-.6-.457-1.19-.922-1.776-1.389-.594,0-1.188.012-1.78.012l-3.014.014q2.331,1.881,4.679,3.735C89.993,53.071,91.647,53.051,93.3,53.049Zm10.378-2.362c.07-.381.143-.763.211-1.141-.028-.018-.056-.032-.087-.05-.123-.064-.246-.131-.366-.2-.193,0-.385,0-.574-.008-.141.634-.282,1.272-.421,1.9a.523.523,0,0,1-.455.409q-.121.719-.236,1.439h.1c.324,0,.664,0,1,0C103.173,52.274,103.449,51.487,103.683,50.687Zm-8.941,2.362c1.019.006,2.045-.026,3.064-.008.564.01,1.129.008,1.693.006-1.546-1.178-3.094-2.353-4.626-3.551-.087-.064-.173-.133-.258-.2-1.391,0-2.788.032-4.177.02h-.8c.642.5,1.282,1,1.931,1.494q1.5,1.138,3.024,2.239Zm6.674-1.931a.485.485,0,0,1,.01-.143c.016-.072.032-.145.046-.215q.121-.734.246-1.474c-.209,0-.417,0-.622,0-1.792.008-3.59.016-5.379.01q.864.664,1.731,1.327,1.57,1.217,3.159,2.418l.491,0Q101.252,52.08,101.416,51.118Zm-15.3-2.7c.4,0,.811,0,1.214,0-1.51-1.23-3-2.482-4.5-3.731q-2.5.015-5.011.026c.566.433,1.135.874,1.685,1.319,1,.809,2.011,1.6,3.022,2.4Q84.313,48.429,86.113,48.422Zm18.7-3.863a.4.4,0,0,1-.139.024,6.625,6.625,0,0,1-.745.042q-.2.858-.4,1.711-.226,1-.449,1.993l.064.038a8.777,8.777,0,0,1,.958.04Q104.459,46.485,104.812,44.559ZM93.443,48.378q-2.352-1.854-4.685-3.728c-.8,0-1.6.01-2.4.016-.928.01-1.854.014-2.782.02Q86,46.552,88.444,48.4l.018.016C90.121,48.4,91.782,48.378,93.443,48.378Zm1.508,0c1.047,0,2.1-.028,3.145-.01,1.226.02,2.46,0,3.692,0-1.651-.968-3.284-1.975-4.842-3.092-.31-.221-.622-.439-.934-.658l-.282,0c-.574.012-1.17.012-1.743.006-.991-.014-1.991.01-2.982.012l-1.307,0c1.6,1.256,3.207,2.494,4.816,3.733Zm7.56-3.771c-.525,0-1.059-.006-1.572.006-.976.022-1.963-.02-2.941,0-.294.008-.588.008-.884.006,1.353.894,2.722,1.758,4.1,2.613.252.159.507.312.767.465C102.159,46.669,102.334,45.64,102.511,44.607Zm3.225-5.281q.223-1.83.419-3.67-.435,1.733-.864,3.449s0,.006,0,.01a.415.415,0,0,1-.169.8.157.157,0,0,1-.032,0q-.474,1.893-.936,3.793c.177.006.354.022.527.044a.424.424,0,0,1,.264.1Q105.345,41.59,105.736,39.327Zm-18.6,4.421.485,0L86.069,42.5c-1.007-.8-1.991-1.639-2.97-2.486q-2.763.018-5.528.028,2.416,1.863,4.828,3.733Q84.766,43.764,87.14,43.748Zm5.973-.032q.815,0,1.635-.01c-.97-.723-1.921-1.47-2.879-2.209-.642-.5-1.276-1.007-1.9-1.524q-1.806.006-3.612.02-1.241.012-2.478.018c.94.741,1.88,1.48,2.81,2.231q.93.755,1.868,1.5C90.073,43.732,91.593,43.728,93.113,43.715Zm5.2-.02c1.425.014,2.855,0,4.28,0,.022,0,.048,0,.072,0q.181-1.045.364-2.094a28.874,28.874,0,0,1-3.551-1.663c-1.224,0-2.444.012-3.664.006-.55,0-1.1.014-1.647.006-1.017-.014-2.041.01-3.058.012-.133,0-.266,0-.4,0q1.534,1.2,3.1,2.351.957.7,1.929,1.375Q97.029,43.688,98.313,43.7ZM87.635,41.171c-.254-.119-.5-.252-.751-.376a3.586,3.586,0,0,1-.465-.26l.072-.121a8.185,8.185,0,0,0,1.2.616,14.452,14.452,0,0,1,1.357.678c.223.145.431.274.646.417a.1.1,0,0,1-.121.163A11.09,11.09,0,0,0,87.635,41.171Zm15.683-1.224c-.755.006-1.51,0-2.263,0,.081.042.161.087.244.129.608.326,1.216.654,1.83.966C103.191,40.674,103.256,40.311,103.318,39.947Zm.7,0-.079,0c-.052.322-.107.64-.161.96C103.854,40.587,103.932,40.269,104.015,39.949Zm-70.5-.805c.61.06,1.266.06,1.882.068.777.008,1.556.008,2.333-.006.372-.008.773-.03,1.142-.018,1.568.05,3.153.012,4.723.028,2.754.03,5.51-.008,8.262.012,1.824.014,3.648-.014,5.47-.006,2.857.014,5.724-.014,8.58-.034q5.055-.03,10.114-.054l-.7-.548c-1.027-.785-2.058-1.576-3.078-2.368a.1.1,0,0,1-.02-.131.094.094,0,0,1,.131-.02c1.176.9,2.362,1.788,3.539,2.69l.489.376q2.83-.012,5.661-.028c-.346-.3-.695-.6-1.041-.9q-1.643-1.413-3.278-2.833-3.047.015-6.092.036-8.181.066-16.366.072H48.065c-2.414-.022-4.828-.03-7.24-.052-1.868-.018-3.753-.044-5.613-.183-.868-.064-1.754-.072-2.623-.133q.387,2.032.779,4.065A.344.344,0,0,1,33.52,39.143Zm53.63-.068,1.719-.008c-1.456-1.21-2.887-2.432-4.308-3.68-.02-.016-.042-.034-.06-.05q-3.186.018-6.372.032c1.216,1.023,2.446,2.033,3.686,3.018q.45.359.9.715Q84.933,39.089,87.15,39.075Zm6.12-.032c1.526-.008,3.056-.028,4.582-.024-.151-.089-.3-.179-.453-.272a57.6,57.6,0,0,1-5.081-3.457c-.366,0-.731.006-1.1.006q-2.437,0-4.876.024L85,35.332c1.5,1.262,3.016,2.51,4.554,3.731C90.8,39.057,92.032,39.053,93.27,39.043Zm11.588-2.456-.314-.219q-.226,1.326-.451,2.655c.05,0,.1,0,.151,0Q104.552,37.8,104.858,36.587Zm-.846-.592c-.34-.24-.676-.479-1.013-.719-.64,0-1.276-.008-1.915-.008-1.683,0-3.366.018-5.047.01-.564,0-1.127.014-1.689.006-.284,0-.566,0-.848,0q.486.335.972.658c1.337.894,2.635,1.79,4.03,2.591.29.169.58.332.876.5,1.2,0,2.4,0,3.608,0,.159,0,.324,0,.493,0Q103.744,37.509,104.013,35.995Zm1.184-.727c-.157.008-.312.012-.471.012-.028.169-.056.34-.087.509.121.085.24.167.36.254C105.066,35.783,105.13,35.526,105.2,35.268Zm-1.059.006c-.077,0-.155,0-.23,0l.2.145C104.119,35.369,104.127,35.322,104.138,35.274Zm-47.514-.725c2.927.014,5.863-.014,8.792-.034q5.635-.033,11.27-.056-.64-.559-1.278-1.117a.117.117,0,0,1-.012-.161.119.119,0,0,1,.163-.012q.743.646,1.5,1.288,3.2-.015,6.406-.032-2.123-1.866-4.244-3.735-3.965.018-7.932.042-8.377.066-16.754.072h-7.38c-2.47-.022-4.938-.03-7.409-.052-1.913-.018-3.839-.046-5.744-.183-.751-.052-1.516-.066-2.269-.107.242,1.345.489,2.686.745,4.03.554.038,1.133.04,1.685.046.8.008,1.594.008,2.392-.006.383-.008.791-.03,1.17-.018,1.607.052,3.229.012,4.84.03,2.821.028,5.643-.01,8.462.01C52.889,34.569,54.757,34.541,56.623,34.549ZM87.164,34.4q1.987-.012,3.978-.018-1.289-1.012-2.533-2.053-1-.836-1.993-1.685c-.093,0-.187,0-.28,0-2.243.02-4.485.028-6.724.04q2.144,1.881,4.316,3.733C85.008,34.414,86.087,34.41,87.164,34.4Zm19.321-4.192c-.02-.014-.04-.026-.056-.038a.417.417,0,0,1-.417.393c-.163.018-.326.03-.491.036q-.317,1.878-.636,3.755c.181.006.362.016.536.034Q105.954,32.3,106.485,30.211ZM93.433,34.37c1.818-.01,3.642-.036,5.458-.02.938.01,1.876.008,2.819.006q-.637-.453-1.264-.908-1.993-1.425-4-2.843H96.4c-.618.014-1.252.014-1.87.006-1.067-.014-2.14.012-3.205.014q-1.975,0-3.944.014,1.3,1.045,2.621,2.072c.719.566,1.464,1.125,2.215,1.667C92.626,34.376,93.029,34.374,93.433,34.37Zm11.52-3.763c-.159,0-.32,0-.479-.008-.811-.012-1.661-.02-2.472,0-1.051.024-2.112-.018-3.163,0-.582.014-1.164,0-1.743,0q2.642,1.809,5.283,3.606c.07.05.141.1.217.151.26,0,.523,0,.789,0,.294,0,.6,0,.914-.006C104.518,33.1,104.735,31.856,104.953,30.607ZM31.14,30.424c-.052-.006-.107-.01-.159-.014l.519,2.045Q31.316,31.441,31.14,30.424Zm-.193-.626c.028,0,.056.006.085.008-.23-1.339-.459-2.68-.68-4.024-.189-.008-.378-.02-.564-.036q.13.5.262,1,.4,1.534.781,3.066A.373.373,0,0,1,30.947,29.8Zm24.966.079c3,.014,6-.014,9-.034q6.638-.039,13.275-.064-1.247-1.1-2.5-2.206a.123.123,0,0,1,.161-.185q1.356,1.2,2.718,2.392l6.99-.036c-1.445-1.244-2.879-2.5-4.324-3.735-3.435.016-6.869.026-10.3.052q-8.57.066-17.143.072H46.237c-2.527-.022-5.053-.03-7.58-.052-1.953-.018-3.926-.044-5.873-.183-.618-.044-1.244-.06-1.868-.087.147.852.292,1.705.443,2.559.085.493.171.982.258,1.472.435.02.878.022,1.3.026.815.01,1.629.01,2.444-.006.393-.008.811-.028,1.2-.018,1.643.05,3.306.012,4.953.03,2.887.028,5.776-.01,8.663.01C52.09,29.9,54,29.869,55.913,29.877Zm50.792-.527.091-.368c.052-.574.1-1.15.163-1.723.048-.505.1-1.011.147-1.518q-.127-.06-.254-.127a.416.416,0,0,1-.395.28l-.139.016c-.111.66-.223,1.323-.334,1.985l-.223,1.3c.28.193.556.387.833.58C106.63,29.635,106.666,29.492,106.7,29.349Zm-19.53.38c2.138-.014,4.28-.018,6.418-.03.521,0,1.045-.008,1.568-.012-.165-.119-.33-.236-.493-.354q-2.362-1.688-4.717-3.376-1.812,0-3.622.018Q84.055,26,81.789,26q1.389,1.166,2.778,2.331.846.707,1.7,1.4Zm17.99-.34q-2.358-1.437-4.7-2.9-.465-.287-.932-.572c-.137,0-.272,0-.409,0-.829.018-1.665-.01-2.492.008-.63.014-1.284.014-1.915.006-1.091-.014-2.188.014-3.28.014l-1.069,0q2.688,1.875,5.391,3.726c1.142-.01,2.285-.016,3.424-.006,1.532.014,3.068,0,4.6,0,.427,0,.886-.012,1.337,0C105.132,29.581,105.148,29.484,105.164,29.389Zm.6-3.455c-.292,0-.588,0-.878-.008-.831-.012-1.7-.02-2.531,0-.556.014-1.113.008-1.673,0,.066.038.129.076.193.115,1.047.628,2.114,1.28,3.129,1.959.421.284.84.568,1.254.856Q105.511,27.392,105.762,25.935ZM55.2,25.206c3.064.012,6.138-.016,9.2-.036q7.876-.045,15.762-.074-1.262-1.069-2.535-2.118c-.658-.54-1.333-1.1-2.009-1.609a.089.089,0,0,1-.022-.016q-2.208.015-4.417.03c-6.03.046-12.075.1-18.1.079-2.257-.008-4.516.024-6.772,0-4.093-.042-8.192.006-12.281-.117-.713-.02-1.429-.087-2.142-.107-.517-.016-1.039-.068-1.556-.081-.064,0-.131,0-.2,0q.332,2.017.674,4.028c.3.006.586.008.872.01.833.01,1.667.01,2.5-.006.4-.008.829-.028,1.228-.018,1.683.052,3.38.012,5.065.03,2.953.028,5.909-.01,8.86.01C51.288,25.224,53.247,25.2,55.2,25.206Zm-25.5-3.368c-.038-.234-.074-.465-.113-.7-.33-.014-.664-.032-.988-.058q.5,2.029,1.021,4.047a.185.185,0,0,1,.032,0c.191.02.391.034.588.04Q29.971,23.508,29.707,21.838Zm57.482,3.219c.5,0,1,0,1.5-.008q-2.567-1.854-5.116-3.733-3.754.012-7.509.034c1.113.882,2.213,1.774,3.316,2.668q.655.531,1.309,1.075Q83.938,25.075,87.188,25.057Zm20.34-3.443c-.147-.091-.294-.181-.437-.274q-.287,1.7-.572,3.388c.217.115.435.227.654.34Q107.346,23.342,107.528,21.614ZM93.751,25.027C95.163,25.019,96.582,25,98,25c-.616-.368-1.234-.739-1.844-1.115-.727-.445-1.443-.9-2.166-1.355q-1-.625-2-1.258c-2.223.012-4.443.034-6.664.038l-1.454.006q2.582,1.887,5.2,3.731Q91.41,25.038,93.751,25.027Zm11.93-.02c-2.164-1.146-4.266-2.412-6.324-3.751q-2.546.009-5.093.01l-1.379,0c1.125.666,2.251,1.325,3.376,1.987q1.456.864,2.9,1.747c.1,0,.2,0,.3,0,1.566.014,3.139,0,4.7,0C104.655,25.011,105.174,24.992,105.682,25.007Zm.878-3.759c-.481.026-.956,0-1.441.006-.868.008-1.735,0-2.6,0-.733,0-1.462,0-2.194,0,.489.3.98.582,1.468.878,1,.612,2.08,1.192,3.116,1.743l1.105.588Q106.287,22.856,106.559,21.248Zm1.488-4.316-.2-.109q-.3,1.8-.6,3.59c.125.087.252.175.378.266Q107.829,18.806,108.047,16.932ZM49.313,20.539c2.14.016,4.28-.008,6.42-.01q4.889-.006,9.776-.038,4.454-.024,8.913-.038c-.155-.123-.314-.246-.469-.37a.14.14,0,0,1,.169-.223q.384.3.775.592,3.736-.012,7.469-.034-1.594-1.19-3.181-2.4L79.17,17.9l.117-.016q1.667,1.28,3.36,2.533c1.188-.008,2.376-.014,3.563-.026q2.174-.018,4.351-.024c-1.884-1.208-3.751-2.44-5.579-3.724q-7.066.018-14.135.07c-6.167.046-12.343.1-18.508.079-2.305-.008-4.614.024-6.917,0-3.519-.036-7.04-.01-10.557-.077-.729-.012-1.476-.012-2.2-.05-.656-.034-1.327-.081-1.983-.1-.431-.01-.864-.048-1.292-.068q.311,2.011.642,4.02c1.522.058,3.072-.024,4.6-.016,3.274.022,6.557.052,9.833.038C46.076,20.537,47.7,20.525,49.313,20.539ZM28.879,16.485c-.431-.012-.884-.03-1.321-.058.05.294.1.59.149.886.24,1.053.491,2.1.747,3.149.344.03.693.034,1.039.04Q29.179,18.5,28.879,16.485ZM95.42,20.342c.85-.006,1.7,0,2.559,0q-1.519-1.021-3.006-2.074Q93.8,17.448,92.658,16.6c-2.4.01-4.8.034-7.2.04.205.139.413.278.62.415,1.731,1.15,3.5,2.241,5.285,3.31C92.712,20.356,94.065,20.352,95.42,20.342Zm4.884-.01h2.11c.666,0,1.337-.012,2,0,.362.008.735,0,1.105,0-1.081-.727-2.15-1.49-3.213-2.237q-1.075-.755-2.15-1.512c-1.911,0-3.817.012-5.726.01l-1.142,0c.948.682,1.911,1.347,2.869,1.981.9.6,1.794,1.192,2.7,1.77Q99.585,20.346,100.3,20.332Zm7.044-3.783c-.61.064-1.214.028-1.824.032-.886.008-1.772,0-2.657,0h-1.431q1.03.686,2.062,1.361c1.075.7,2.158,1.4,3.227,2.114l.032.024Q107.056,18.315,107.349,16.549Zm1.061-2.567c.157-1.246.33-2.5.521-3.757l0,0q-.477,2.935-.964,5.867c.054.034.109.066.165.1Q108.266,15.088,108.41,13.982ZM48.49,15.867c2.184.016,4.377-.008,6.561-.01q4.995-.006,9.992-.038c6.223-.034,12.45-.04,18.671-.083-1.649-1.194-3.263-2.438-4.822-3.749-.515,0-1.031.008-1.544.016-2.917.046-5.844.03-8.762.044-6.708.034-13.416.072-20.122.072-4.3,0-8.611.01-12.911-.058-1.258-.02-2.515-.034-3.773-.058-.483-.008-.968-.05-1.452-.066-.437-.016-.894-.032-1.331-.064-.1-.006-.207-.012-.312-.02q.29,2.005.6,4.01c1.391.024,2.8-.038,4.194-.032,3.348.02,6.7.052,10.05.038C45.18,15.865,46.839,15.852,48.49,15.867Zm-19.705-.02q-.293-2.005-.574-4.012a.056.056,0,0,1-.018,0c-.415,0-.833-.052-1.246-.06h-.139c.1.691.211,1.381.328,2.07l.32,1.967c.4.016.8.016,1.192.032C28.692,15.844,28.738,15.844,28.784,15.846Zm79.369-4.171a.418.418,0,0,1-.356.2,14.173,14.173,0,0,1-1.705.034c-.62-.006-1.238.006-1.858,0-1-.01-2.005-.008-3.008,0,.761.5,1.54.97,2.305,1.468s1.558.938,2.323,1.423c.258.165.517.33,1.625.974Q107.821,13.723,108.154,11.675ZM86.2,15.716q2.624-.021,5.246-.026-2.4-1.827-4.747-3.733c-.356,0-.713,0-1.067,0-2.152.01-4.308.006-6.462.024.211.173.425.344.638.513,1.411,1.129,2.851,2.2,4.326,3.235C84.823,15.728,85.511,15.724,86.2,15.716Zm9.414-.046c1.085-.006,2.174.006,3.259.006q-2.1-1.492-4.185-2.994c-.352-.25-.7-.505-1.053-.757-2.166.008-4.33.022-6.5.03,1.466,1.148,2.949,2.257,4.439,3.376.155.119.316.236.473.356Q93.832,15.681,95.614,15.669Zm4.993-.01h2.154c.682,0,1.365-.01,2.047,0h.936c-.689-.411-1.377-.821-2.064-1.244-1.307-.8-2.605-1.645-3.888-2.508-.634,0-1.272.006-1.9.006-1.113,0-2.225,0-3.336.006q1.277.882,2.563,1.747,1.48,1,2.963,2C100.254,15.667,100.429,15.663,100.606,15.659ZM108.426,10c-.254-.117-.505-.234-.753-.358-1.089-.542-2.126-1.15-3.173-1.768q-.541-.314-1.075-.638c-2.887,0-5.772.014-8.659.012h-.29c1.562,1.139,3.145,2.261,4.751,3.328l.626.417,1.111-.006c1.425-.006,2.851,0,4.278,0a23.047,23.047,0,0,1,2.559.052.414.414,0,0,1,.4.324C108.279,10.914,108.353,10.457,108.426,10ZM77.835,11.079c-.326-.284-.646-.572-.966-.864l-.006-.121.121-.006c.364.336.735.666,1.107.988q3.742-.015,7.479-.032-1.2-.984-2.412-1.977-1.069-.876-2.126-1.762-5.433.021-10.867.06c-6.432.046-12.877.1-19.309.076-2.4-.008-4.81.024-7.215,0-3.672-.034-7.34-.01-11.01-.077-.682-.01-1.375-.016-2.058-.04-.769-.026-1.54-.089-2.309-.107-.074,0-.149,0-.223-.006q.263,1.984.55,3.966c.676,0,1.359,0,2.039-.012.5-.01,1.009-.024,1.506-.014,1.814.044,3.64.01,5.454.028,3.215.028,6.434.016,9.647.01Q62.537,11.164,77.835,11.079Zm-49.715.1q-.269-1.99-.531-3.986c-.326-.018-.656-.04-.982-.048-.1,0-.2,0-.3-.008.081.974.165,1.951.26,2.923q.075.553.153,1.1c.415.012.831.014,1.238.018C28.009,11.178,28.066,11.178,28.12,11.178Zm58.589-.139q2.836-.012,5.675-.02-2.561-1.857-5.106-3.733c-.682,0-1.365.006-2.045.006L81.388,7.3q2.28,1.893,4.594,3.739C86.224,11.043,86.467,11.041,86.709,11.039ZM98.452,11c-.34-.234-.682-.467-1.019-.7Q95.286,8.806,93.2,7.252c-1.749,0-3.5.02-5.255.028q2.645,1.878,5.3,3.737Q95.849,11.008,98.452,11Zm11.059-4.206c.1-.536.2-1.069.314-1.6l-.081-.044q-.353,2.268-.721,4.532a.028.028,0,0,0-.008-.006C109.169,8.707,109.332,7.745,109.511,6.791Zm-.264-1.927-.457-.258q-1.773-.991-3.505-2.053c-.691,0-1.379,0-2.062.008H101.21q-1.948.009-3.894.014c1.586,1.029,3.2,2.031,4.82,2.986l1.264.753h.056c.711,0,1.423-.01,2.134,0,.87.018,1.8-.044,2.655.054a.416.416,0,1,1,0,.831,18.791,18.791,0,0,1-1.9.034c-.463,0-.922,0-1.385,0,.072.04.143.083.215.125.763.441,1.534.876,2.287,1.327.36.217.717.441,1.073.668Q108.9,7.113,109.247,4.864Zm2.591,1.425a.107.107,0,0,1-.03-.016c-.014.006-.026.012-.038.016q-.148.794-.284,1.588c-.028.354-.06.707-.089,1.059C111.548,8.055,111.7,7.173,111.838,6.29Zm-65,.232c2.283.016,4.566-.008,6.847-.01q5.212-.006,10.422-.038c5.285-.028,10.571-.036,15.856-.062q-.981-.827-1.957-1.659a.116.116,0,0,1-.014-.159.118.118,0,0,1,.161-.014q1.075.918,2.164,1.83,2.86-.015,5.718-.036-1.356-1-2.706-1.993-1.187-.87-2.372-1.745-5.569.021-11.135.06c-6.565.046-13.142.1-19.707.076-2.454-.008-4.91.024-7.366,0-3.131-.03-6.259-.014-9.388-.056-.968-.014-1.935-.022-2.9-.04-.381-.006-.771,0-1.152-.022-.155,0-.31-.012-.465-.02l.012.054a.31.31,0,1,1-.612.1c-.014-.06-.026-.125-.038-.187l-.751-.036c.077.644.153,1.286.236,1.929.083.674.169,1.351.256,2.025,1.081-.006,2.162-.04,3.237-.034,3.493.02,6.99.05,10.483.038C43.39,6.519,45.12,6.507,46.839,6.521Zm-19.335,0q-.254-1.987-.489-3.974l-.755-.036c-.1,0-.205-.008-.306-.014.077,1.335.191,2.67.3,4C26.669,6.517,27.087,6.523,27.5,6.523Zm64.484-.181q-2.374-1.806-4.661-3.731c-.709,0-1.415.008-2.122.008l-3.733.012q2.579,1.884,5.18,3.737C88.43,6.354,90.21,6.35,91.988,6.342ZM96,6.324c1.731-.012,3.477.022,5.208-.01h.727c-.372-.232-.739-.471-1.105-.715-1.508-1-3.026-1.983-4.506-3.024H94.937c-2.253,0-4.5.018-6.758.032.974.743,1.957,1.47,2.937,2.192.7.517,1.417,1.021,2.122,1.538Q94.618,6.332,96,6.324Zm14.324-3.487c-.034-.278-.062-.56-.093-.84l-.393,2.549c.036.02.07.042.1.064C110.067,4.019,110.2,3.429,110.324,2.837ZM109.964.23a.785.785,0,0,1-.463-.31q-3.763-.16-7.523-.29c.988.624,2,1.218,2.988,1.838.089.058.177.115.266.171.252,0,.5,0,.751,0,.89.018,1.832-.044,2.71.054a.416.416,0,1,1,0,.831,17.189,17.189,0,0,1-1.85.036H106.7q1.32.833,2.643,1.671Q109.66,2.231,109.964.23ZM46.018,1.848c2.327.016,4.659-.008,6.988-.01q5.318-.006,10.638-.038c5.367-.028,10.737-.036,16.106-.062Q78.11.527,76.48-.694q-4.122,0-8.234.02-6.864.033-13.74-.02c-1.945.006-3.9.024-5.858.052q-4.859.075-9.718.169-1.842.042-3.68.1c-.622.095-1.242.185-1.864.268C32.05.073,30.735.2,29.392.288c-.2.014-.4.026-.6.032.044.5.089,1,.131,1.494.37,0,.739,0,1.111,0,3.565.02,7.135.05,10.7.038C42.495,1.846,44.26,1.834,46.018,1.848ZM26.928,1.83c-.034-.308-.07-.616-.1-.924C26.8.7,26.775.5,26.751.29c-.437-.03-.874-.076-1.3-.143a.948.948,0,0,1,.131.431c.01.26.024.517.038.775a.229.229,0,0,1,.068-.014.211.211,0,0,1,.219.2c0,.1.008.2.01.292C26.256,1.834,26.592,1.832,26.928,1.83Zm1.135-.01Q27.928,1.08,27.8.334c-.2,0-.4-.008-.608-.016.056.5.117,1.007.175,1.508ZM86.172,1.7h.074q-.535-.447-1.067-.9C84.6.314,84.033-.183,83.468-.682Q80.2-.7,76.933-.7C77.815-.044,78.7.6,79.582,1.244c.221.165.443.328.668.491Q83.207,1.724,86.172,1.7Zm8.864-.04C93.983.906,92.924.159,91.877-.6q-3.9-.057-7.805-.079.64.531,1.282,1.057.812.667,1.643,1.315C89.677,1.675,92.358,1.671,95.036,1.657Zm1.156-.006c1.77-.01,3.551.022,5.317-.01h2.307q-1.6-1.006-3.183-2.053c-.582-.018-1.166-.032-1.749-.05q-3.138-.079-6.277-.129,1.353.939,2.724,1.856c.191.131.387.26.582.389C96,1.653,96.1,1.653,96.191,1.651Zm14.892-.519q.051-.568.107-1.139c-.119,0-.236-.01-.35-.016l.081,1.194c0,.022,0,.042,0,.064A.934.934,0,0,1,111.083,1.132Zm.163-1.79-.31-.012c-.008.07-.016.143-.024.211,0,.03-.01.06-.016.089l.326.014C111.23-.457,111.24-.557,111.246-.658Zm-1.886.05c0-.042.006-.085.01-.125l0,0-7.964-.308-.449.03c.117.072.236.147.35.221q1.365.045,2.732.1,2.654.112,5.319.246A.718.718,0,0,1,109.36-.608ZM27.6-.735l-.016-.074-.221-.908.038.9,0,.076ZM29.3-.769c.745-.036,1.508-.121,2.251-.213.592-.072,1.186-.157,1.774-.25q-1.347-.106-2.694-.223a.116.116,0,0,1-.113-.117.115.115,0,0,1,.115-.111c2.285-.109,4.574-.205,6.861-.25.191-.034.385-.066.578-.1,1.335-.221,2.712-.459,4.061-.552,2.412-.165,4.822-.27,7.234-.4,3.779-.2,7.568-.35,11.351-.487,1.735-.064,3.5-.072,5.236-.087q5.182-.039,10.362-.056,1.936-.009,3.877,0c-1.54-1.407-3.054-2.861-4.5-4.349a.119.119,0,0,1,0-.165h.165c1,1.025,2.041,2.017,3.092,2.986q.833.773,1.681,1.53,3.675.015,7.344.087Q82.08-7.989,76.309-12.615l.079-.1c3.974,3.151,7.986,6.231,12.087,9.2.159,0,.316,0,.475.006,2.281.044,4.57.062,6.849.143l.479.018c-1.715-1.162-3.427-2.327-5.116-3.525Q87.227-9.658,83.329-12.5c-1.313-.954-2.609-1.937-3.916-2.9a.189.189,0,0,1-.04-.264.191.191,0,0,1,.264-.04Q87.624-9.748,95.928-4.256c.473.316.952.628,1.431.94.783.022,1.564.04,2.347.066q3.141.109,6.281.223Q100.4-6.767,94.9-10.646C89.5-14.449,84.092-18.324,78.9-22.415l-.016-.117L79-22.546C87.977-15.471,97.58-9.259,107.123-2.985l.175.006c.761.03,1.52.064,2.281.1l.362-3.606.008-.914c0-.054,0-.109,0-.163l-.5-.3c-.483-.284-.978-.546-1.456-.844-2.462-1.53-4.951-3.016-7.419-4.54q-4.548-2.805-9.051-5.671c-2.011-1.28-4.016-2.583-6-3.916-.737-.5-1.474-.986-2.207-1.492-.427-.3-.882-.58-1.292-.9-1.144-.89-2.251-1.816-3.422-2.68l-.016-.109.109-.018c.689.515,1.456,1.051,2.188,1.5.521.316,1.091.642,1.59.98.284.191.562.395.844.586,2.134,1.441,4.274,2.9,6.471,4.246.415.252.817.521,1.232.773,1.456.874,2.891,1.788,4.353,2.649,1.393.823,2.774,1.665,4.165,2.488,1.943,1.15,3.888,2.307,5.814,3.483,1.1.67,2.2,1.335,3.288,2.021.447.284.876.59,1.319.876.04-1.619.107-3.239.187-4.86.1-2.08.236-4.163.389-6.243-.592-.227-1.186-.455-1.77-.695-.7-.284-1.381-.6-2.068-.9-1.4-.626-2.768-1.4-4.123-2.124-2.839-1.518-5.6-3.225-8.295-4.985a136.322,136.322,0,0,1-12.748-9.466c-.366-.137-.735-.274-1.1-.417-.548-.213-1.061-.453-1.6-.693a8.954,8.954,0,0,1-2.482-1.754c-.157-.161-.292-.328-.435-.5q-2.99-.069-5.973-.135c.185.121.37.24.548.35.713.459,1.435.88,2.158,1.317l2.108,1.282c.272.165.576.358.858.5a.3.3,0,0,1,.107.4.3.3,0,0,1-.4.1c-.678-.4-1.357-.811-2.029-1.23-.34-.209-.707-.413-1.031-.64-.366-.256-.737-.511-1.107-.763-.248-.169-.513-.344-.755-.523-.376-.28-.791-.536-1.174-.813l-.894-.016q-2.247-.039-4.487-.091A26.015,26.015,0,0,0,66.43-39.2c.348.254.687.529,1.043.769,1.21.815,2.388,1.611,3.652,2.335.5.284.988.572,1.5.829.417.213.866.415,1.266.64.272.151.513.328.773.5a.112.112,0,0,1,.058.145.114.114,0,0,1-.147.058,5.657,5.657,0,0,1-.84-.221c-.4-.163-.775-.368-1.168-.56-.7-.346-1.409-.761-2.082-1.162-.88-.523-1.747-1.1-2.575-1.7-.562-.409-1.137-.789-1.687-1.218-1.037-.807-1.983-1.651-2.941-2.551q-3.98-.091-7.964-.219-1.945.015-3.892.016.83.595,1.665,1.176c1,.7,2.027,1.411,3.056,2.072.783.5,1.562,1.049,2.325,1.576.467.322.956.62,1.429.93a3.6,3.6,0,0,1-.9-.372c-.7-.332-1.4-.7-2.072-1.093-1.379-.807-2.637-1.709-3.94-2.627q-1.157-.812-2.3-1.661-2.3,0-4.6-.018c.238.193.477.383.717.576a41.855,41.855,0,0,0,4.781,3.257c.5.294.993.6,1.5.87a.259.259,0,0,1,.1.348.256.256,0,0,1-.348.1c-.435-.207-.888-.477-1.309-.719-.968-.564-1.886-1.168-2.812-1.794-.378-.256-.737-.54-1.113-.8-.646-.447-1.278-.978-1.894-1.47-.155-.121-.31-.248-.461-.372-1.52-.014-3.036-.034-4.556-.064.487.481.982.954,1.478,1.427a31.93,31.93,0,0,0,2.69,2.339c.731.56,1.439,1.133,2.223,1.619.278.175.542.366.829.525a.286.286,0,0,1,.095.391.286.286,0,0,1-.391.095,27.449,27.449,0,0,1-4.016-3.082c-.61-.546-1.236-1.109-1.808-1.693-.54-.548-1.1-1.081-1.647-1.631q-2.3-.045-4.6-.121c-.085,0-.169,0-.254-.008.117.083.232.167.348.25,1.337.988,2.657,1.975,4.008,2.941.711.509,1.462.952,2.206,1.407a.3.3,0,0,1,.095.4.3.3,0,0,1-.407.095,50.055,50.055,0,0,1-4.079-2.905c-.572-.439-1.148-.872-1.715-1.317-.4-.314-.813-.608-1.228-.9q-2.072-.066-4.151-.151c.505.435,1.021.85,1.568,1.268,1.331,1.029,2.78,1.977,4.2,2.873,1.059.666,2.112,1.345,3.171,2.013a.376.376,0,0,1,.1.521.378.378,0,0,1-.521.1c-1.208-.817-2.388-1.693-3.594-2.515-.874-.592-1.727-1.232-2.573-1.866a37.938,37.938,0,0,1-2.941-2.424q-.453-.018-.906-.042c-.874,0-1.747.008-2.621,0-.459,0-.914,0-1.371-.008,0,.143-.008.286-.01.429.479.4.995.793,1.5,1.156,1.234.884,2.458,1.739,3.751,2.549.723.451,1.482.92,2.237,1.315.342.179.729.437,1.081.578a.255.255,0,0,1,.107.342.257.257,0,0,1-.342.109,34.5,34.5,0,0,1-3.9-2.376c-.97-.642-1.973-1.329-2.893-2.043-.515-.4-1.037-.777-1.544-1.186-.016.98-.028,1.957-.032,2.937.87.523,1.745,1.039,2.605,1.576a.343.343,0,0,1,.109.467.34.34,0,0,1-.467.107c-.761-.461-1.506-.95-2.249-1.439q-.012,5.387.211,10.775c.356,2.17.727,4.339,1.083,6.507.328,2.017.646,4.037.982,6.054.115.691.193,1.381.3,2.072.163,1.1.338,2.2.505,3.308.1.634.123,1.246.171,1.882.052.674.093,1.351.143,2.023l.066.838.1.678c.115.864.213,1.739.3,2.617C28.893-.749,29.094-.759,29.3-.769ZM99.823-.95q-.755.042-1.514.068c-.141.006-.282.012-.421.01q1.057.012,2.112.04ZM39.5-.873c-.175,0-.352,0-.529-.012-.1,0-.2-.006-.294-.01l-.272.038C38.774-.865,39.138-.869,39.5-.873ZM26.928-3.046l-.087-1.144-.308-1.687q.242,2.392.5,4.781C27-1.749,26.967-2.4,26.928-3.046Zm85.121-7.777q-.184,1.428-.372,2.835c-.024.209-.044.421-.066.624a.377.377,0,0,1,0,.383.412.412,0,0,1-.042.056q-.172,1.685-.344,3.364c-.026.246-.05.491-.072.739.093.006.189.01.284.014C111.655-5.476,111.876-8.147,112.05-10.823ZM104.49-17.5c-4.212-2.132-8.258-4.477-12.325-6.869-1.568-.922-3.1-1.949-4.636-2.929-3.906-2.5-7.729-5.144-11.556-7.757a.156.156,0,0,1-.04-.213.155.155,0,0,1,.213-.042c1.983,1.387,4.016,2.718,6.05,4.028,3.245,2.094,6.525,4.095,9.871,6.024,1.474.85,2.925,1.733,4.409,2.571,1.951,1.1,3.93,2.172,5.911,3.225.548.29,1.107.57,1.651.866.739.4,1.49.8,2.239,1.186,1.039.54,2.064,1.105,3.1,1.641a.251.251,0,0,1,.115.334.254.254,0,0,1-.334.117C107.594-16.027,106.02-16.728,104.49-17.5Zm6.156-3.354c.072-.966.147-1.939.225-2.909-4.649-2.645-9.206-5.46-13.779-8.23q-5.258-3.183-10.374-6.589c-1.125-.747-2.251-1.512-3.362-2.291-1.562-.03-3.127-.089-4.685-.125-.244,0-.483-.01-.725-.016C79.093-40,80.265-39,81.452-38.028l.636.27c.624.268,1.212.562,1.81.878a7.137,7.137,0,0,1,.93.57c.165.131.356.244.517.378.179.149.346.314.531.455a10.611,10.611,0,0,0-1.162-.821,17.58,17.58,0,0,0-2.6-1.192c.238.193.479.385.721.576,1.28,1.013,2.573,1.991,3.877,2.97,1.2.9,2.448,1.745,3.682,2.6s2.5,1.659,3.775,2.456c.489.306.98.618,1.478.912,1.421.84,2.841,1.669,4.29,2.46,2.49,1.361,5.047,2.589,7.614,3.795,1.017.479,2.029.978,3.048,1.46C110.616-20.464,110.63-20.659,110.646-20.859Zm3.306-9.806c.23-2.406.421-4.812.588-7.219-.042-.02-.083-.036-.127-.056-.2,3.078-.449,6.156-.717,9.229-.153,1.735-.312,3.471-.467,5.1C113.485-25.892,113.723-28.282,113.952-30.665Zm-2.812,3.99q.133-1.247.276-2.5a30.752,30.752,0,0,1-3.493-1.776c-1.971-1.077-3.926-2.245-5.844-3.412-2.9-1.766-5.78-3.555-8.679-5.317-.717-.435-1.435-.864-2.154-1.292-.862.028-1.721.056-2.583.074-1.58.038-3.165.048-4.745.028,3.576,2.452,7.292,4.731,11.02,6.887,2.12,1.228,4.252,2.436,6.384,3.646,1.228.7,2.47,1.373,3.686,2.088.86.505,1.711,1.015,2.571,1.518.572.332,1.152.662,1.715,1.013s1.105.693,1.653,1.041C111-25.342,111.067-26.011,111.14-26.675ZM24.748-31.259c.014.032,0,.038-.022.044a.233.233,0,0,1-.29-.147,13.438,13.438,0,0,1-.624-3.243c-.119-1.2-.185-2.406-.344-3.6-.048.072-.1.147-.149.219.05.34.093.682.141,1.019.095.687.205,1.373.3,2.06.312,2.154.65,4.3.995,6.456,0,.028.008.056.012.089Q24.746-29.814,24.748-31.259ZM112.062-34.5a.448.448,0,0,1-.443-.032c-.306-.2-.608-.427-.906-.64-.276-.2-.574-.383-.858-.574-.767-.517-1.586-1.007-2.38-1.48-.64-.383-1.288-.773-1.939-1.133-1.629-.9-3.247-1.824-4.874-2.728-.169-.093-.336-.183-.5-.278-2.172.1-4.345.209-6.517.3q.9.278,1.8.531a.152.152,0,0,1,.1.185.151.151,0,0,1-.185.1c-.892-.221-1.754-.515-2.627-.783l-.372.014q1.764,1.051,3.535,2.1c2.657,1.586,5.337,3.191,8.049,4.689,1.741.964,3.485,1.935,5.242,2.871.785.423,1.566.811,2.325,1.268Q111.78-32.292,112.062-34.5ZM24.684-37.589l-.121-.081-.59-.387c.006.066.014.135.022.2.135,1.335.205,2.668.364,4a12.161,12.161,0,0,0,.344,1.838Q24.67-34.8,24.684-37.589ZM66.21-35.455q-.74-.544-1.488-1.079-2.114-1.507-4.24-3c-.614-.431-1.222-.876-1.838-1.3a.155.155,0,0,1-.038-.213.154.154,0,0,1,.213-.036c1.635,1.178,3.322,2.293,4.989,3.429.538.364,1.093.715,1.623,1.091.7.493,1.405.986,2.106,1.472a.244.244,0,0,1,.054.338.243.243,0,0,1-.336.056C66.9-34.933,66.553-35.2,66.21-35.455Zm46.413-3.376c-.693-.372-1.381-.753-2.07-1.152-.938-.536-1.858-1.105-2.792-1.651-1.357.024-2.712.054-4.071.111-.858.038-1.711.077-2.569.117,1.524.819,3.062,1.607,4.576,2.4,1.542.809,3.076,1.661,4.57,2.559.626.381,1.23.8,1.852,1.178a.248.248,0,0,0,.036.028Q112.386-37.035,112.623-38.831Zm-87.9-2.42c-.06-.052-.123-.1-.181-.155a.122.122,0,0,1-.02-.187c.026.062-.008.081-.044.093a2.266,2.266,0,0,1-.652.217c.03.2.048.4.064.538a7.573,7.573,0,0,1,.058,1.3,1.928,1.928,0,0,1-.115.451c.01.068.02.137.032.2l.282.173c.177.113.356.219.536.328Q24.7-39.771,24.728-41.251Zm52.966.225c-.4-.01-.791-.018-1.188-.026.143.155.294.3.459.455a12.934,12.934,0,0,0,3.892,2.315Q79.256-39.634,77.694-41.025Zm39.449.695a7.154,7.154,0,0,1-1.035-.8c-.407.012-.815.018-1.212,0-.036.612-.072,1.22-.109,1.83a1.89,1.89,0,0,0,.385.05A2.511,2.511,0,0,0,117.143-40.331Zm-95.574.684c-.316-.209-.632-.421-.946-.63l-.209.133a2.93,2.93,0,0,0,1.093.769l.107.04C21.6-39.439,21.583-39.544,21.569-39.646Zm93.18-1.488c-.036,0-.072,0-.109-.008a.174.174,0,0,1-.03,0c-.01.147-.022.294-.026.431q-.042.658-.081,1.317a1.07,1.07,0,0,0,.133.052Q114.7-40.241,114.749-41.134Zm-91.66,1.645,0,0a6.072,6.072,0,0,0-.026-.628,3.745,3.745,0,0,0-.159-.646l-.052-.135.2,1.429Zm89.54-2.156c-.668-.01-1.337-.016-2-.024-.511,0-1.025,0-1.54.008.821.459,1.637.922,2.46,1.373q.565.314,1.154.61C112.682-40.333,112.654-40.989,112.629-41.645Zm.346.167a.173.173,0,0,1-.032-.02.343.343,0,0,1-.181-.141c.02.451.036.9.056,1.347C112.871-40.689,112.921-41.086,112.976-41.478Zm-91.554.743c-.119.056-.23.117-.342.177.133.089.266.175.4.262C21.46-40.441,21.44-40.588,21.422-40.735Zm98.856-.348c-.27-.044-.542-.085-.815-.119s-.574-.064-.862-.1a4.389,4.389,0,0,0,1.125.378l.5.044C120.241-40.945,120.264-41.011,120.278-41.084Zm-101.169-.1c0-.024-.008-.044-.01-.068-.032-.205-.072-.423.1-.58.141-.125.27-.095.439-.1.278-.02.58-.016.872-.008a.161.161,0,0,0,.032-.016c.145-.066.288-.127.431-.179-.181-.008-.364-.016-.548-.028-.447-.024-.894-.076-1.339-.113a22.387,22.387,0,0,1-2.585-.358c.02.157.042.314.07.473a3.493,3.493,0,0,0,.1.429l.046.143.205.123a2.82,2.82,0,0,0,1.562.453A2.318,2.318,0,0,0,19.109-41.18Zm5.629-.513c0-.107,0-.215.008-.324l-.089,0a.325.325,0,0,1,.038.074.344.344,0,0,1,0,.238A.113.113,0,0,1,24.738-41.694Zm-.993-.326a.518.518,0,0,0,.089-.016c-.133,0-.266-.006-.4-.01.036.02.068.036.1.054C23.6-42,23.673-42.012,23.745-42.02Zm-2.6-.511c-.417-.04-.829-.079-1.242-.125-1.158-.117-2.309-.258-3.459-.413.008.07.018.141.026.211l.262.048c.374.072.779.107,1.16.147a25.627,25.627,0,0,0,2.724.133C20.8-42.529,20.973-42.529,21.15-42.531Zm.034,0v0a.207.207,0,0,1-.034,0Zm66.734-.234c-.419-.173-.835-.35-1.244-.525-.2-.085-.4-.169-.6-.256q-2.962,0-5.925-.016.516.381,1.033.759.77.021,1.54.04c1.435.068,2.9.02,4.336.008C87.345-42.755,87.631-42.759,87.919-42.763Zm-8.26-.8q-3.231-.027-6.456-.083c-4.441-.076-8.886-.127-13.328-.185-4.214-.058-8.425-.113-12.639-.121q-6.731-.009-13.468.052c-.908.008-1.818.034-2.724.038-1.554.012-3.121.085-4.675.133-.483.018-.964.032-1.448.044-.006.143-.01.284-.014.427,1.222.079,2.444.155,3.666.219l.085-.008c-.127-.129-.252-.26-.376-.393a.178.178,0,0,1,.006-.252.18.18,0,0,1,.252,0,8.066,8.066,0,0,0,.562.59l.044-.006c1.176-.133,2.353-.258,3.525-.4.769-.095,1.55-.189,2.319-.264.5-.046,1.029-.052,1.534-.07.813-.028,1.645-.079,2.46-.076h1.462c.232,0,.469.018.7.014.654-.008,1.387.06,2.035.1,1.278.072,2.559.131,3.839.183,3.582.149,7.179.284,10.763.354,3.785.074,7.57.165,11.355.225,3.839.062,7.684.131,11.526.227C80.327-43.063,79.993-43.312,79.659-43.564Zm15.661.513c.6-.026,1.2-.056,1.8-.085-.272-.167-.54-.334-.805-.507-.165,0-.328.006-.493.008q-4.572.079-9.15.089.752.308,1.512.6a.288.288,0,0,1,.04-.187.3.3,0,0,1,.4-.1c.24.151.485.3.727.441C91.343-42.853,93.341-42.954,95.32-43.051ZM99.3-43.24q-.592-.217-1.184-.441c-.308.008-.618.016-.928.022.262.161.527.324.793.481Q98.64-43.211,99.3-43.24Zm19.379.01-.044-.141,0,.038-.036-.139c-.07-.242-.127-.477-.159-.62-.068-.294-.159-.6-.258-.9q-1.558.208-3.118.383c-.018.374-.034.745-.048,1.117.725.036,1.452.083,2.18.125C117.691-43.334,118.184-43.286,118.677-43.23Zm-14.046-.234a.32.32,0,0,1,.022-.25.122.122,0,0,1,.191-.058c-.022-.01-.036-.018-.052-.026-.062-.026-.123-.056-.185-.085-.091,0-.181.008-.272.01q-2.685.1-5.365.171l1.047.427C101.555-43.345,103.093-43.411,104.631-43.463ZM24.79-43.681c-.729.022-1.462.042-2.192.066,0,.07.008.143.014.211q1.081.066,2.166.135C24.78-43.4,24.784-43.542,24.79-43.681Zm87.755.107c-.012-.258-.024-.517-.034-.777l-.529.044c-.256.02-.507.042-.757.06a.287.287,0,0,1-.344.075.948.948,0,0,1-.1-.042c-1.647.123-3.292.213-4.942.284.29.135.576.272.864.409C108.641-43.572,110.592-43.594,112.545-43.574Zm-91.5.024-.606.03.5.024c.04,0,.079.006.117.008C21.052-43.51,21.05-43.528,21.046-43.55Zm93.889-1.045q-1.145.127-2.293.232c.01.264.022.527.034.791.739.01,1.474.038,2.209.074C114.9-43.864,114.918-44.228,114.934-44.595Zm-93.941.676c-.052-.389-.1-.781-.135-1.164-.016-.191-.062-.385-.081-.572v-.056l0-.058.006-.165a.834.834,0,0,1,.083-.276.7.7,0,0,1,1.288.143l.032.177.006-.072.042.328.034.286.068.542.062.489c-.042-.711-.081-1.419-.117-2.13l.131-.008q.082,1.229.161,2.454c.383-.02.765-.038,1.148-.06l1.085-.052q.021-.737.05-1.472l.131,0q-.03.731-.05,1.462c2.146-.095,4.292-.147,6.442-.207,2.386-.064,4.767-.147,7.155-.189,1.536-.026,3.072-.016,4.608-.024,1.82-.01,3.642-.02,5.46-.008,2.051.014,4.1,0,6.152.018,5.806.04,11.62.1,17.426.095,3.962,0,7.924.012,11.888,0a63.335,63.335,0,0,1-6.893-3.676l-.028-.109.109-.026a58.958,58.958,0,0,0,7.31,3.807q2.509-.012,5.021-.048,3.08-.045,6.16-.121c-2.09-.862-4.127-1.768-6.187-2.7a106.044,106.044,0,0,1-9.5-4.844l-.03-.109.109-.03a129.14,129.14,0,0,0,16.531,7.66q2.944-.076,5.889-.183c-1.309-.594-2.615-1.188-3.916-1.792-2.025-.94-4.049-1.876-6.066-2.831-1.548-.733-3.1-1.472-4.618-2.275-2.1-1.115-4.163-2.341-6.181-3.6a.1.1,0,0,1-.034-.141.106.106,0,0,1,.143-.036,70.585,70.585,0,0,0,6.277,3.475c1.516.773,3.032,1.514,4.574,2.233,3.09,1.437,6.223,2.76,9.331,4.153.572.258,1.144.511,1.717.767q2.516-.094,5.031-.213c-1.456-.678-2.881-1.4-4.326-2.128-1.973-.984-3.936-2-5.893-3.012-4.059-2.108-8.1-4.264-12.091-6.5-.316-.008-.632-.016-.946-.026-.672-.018-1.347-.032-2.019-.032-.248-.006-.509-.014-.753,0-.348.016-.739,0-1.091,0H79.427c-1.454,0-2.907-.006-4.361-.018-2.136-.016-4.268-.064-6.338-.1-1.931.026-3.791.06-5.653.089-2,.032-4,.034-5.991.026-.868,0-1.737.006-2.6,0s-1.754.008-2.627.032c-2.9.076-5.8.207-8.7.3-5.589.169-11.169.385-16.752.737a.269.269,0,0,1-.282-.252.268.268,0,0,1,.252-.282c4.049-.23,8.1-.531,12.148-.789-.8-.034-1.6-.064-2.4-.085-.9-.02-1.8-.062-2.7-.1-.463-.02-.932-.026-1.393-.05-1.091-.06-2.194-.089-3.29-.129-.892-.032-1.786-.076-2.678-.117-.05.169-.1.338-.141.505a10.66,10.66,0,0,1-.666,1.909.668.668,0,0,1-.894.292.726.726,0,0,1-.121-.077.864.864,0,0,1-.089.3,1.618,1.618,0,0,1-.64.5,5.3,5.3,0,0,1-2.782.678c-.117,0-.24.006-.362,0l-.109-.006-.145,0-.1-.01-.1-.012a1,1,0,0,1-.346-.151l-.044-.036a11.453,11.453,0,0,1-1.174.221,1.332,1.332,0,0,1-.018.173c-.153.819-.26,1.649-.4,2.466-.258,1.454-.491,2.911-.789,4.361-.157.769-.32,1.586-.538,2.364l-.1.312.57.03Q19.024-43.815,20.993-43.918Zm91.479-1.327c-.006-.113-.01-.223-.014-.336l.131,0c0,.111.008.221.014.332.785-.028,1.572-.058,2.36-.083.016-.372.032-.743.052-1.117l.131,0c-.02.37-.034.739-.052,1.109q1.471-.045,2.937-.087c-.062-.179-.127-.354-.189-.525-.9-2.392-2.007-4.675-2.821-7.1-.145-.429-.284-.886-.4-1.343l-.115-.55L113.7-55c-.552-.054-1.1-.139-1.659-.23-.59-.1-1.23-.2-1.81-.342a.979.979,0,0,1-.455-.217c-2.021-.123-4.053-.242-6.07-.326l.6.26c1.137.5,2.263,1.029,3.4,1.536a.4.4,0,0,1,.2.521.4.4,0,0,1-.521.2q-2.857-1.271-5.705-2.6c-2.2-.083-4.4-.151-6.6-.223l.56.282c2.474,1.26,4.977,2.428,7.511,3.555,1.365.61,2.808,1.174,4.214,1.683,1.238.451,2.488.854,3.731,1.292a.282.282,0,0,1,.183.352.282.282,0,0,1-.352.183,47.685,47.685,0,0,1-4.777-1.6q-2.111-.818-4.177-1.745c-1.4-.634-2.8-1.272-4.167-1.973-1.313-.668-2.6-1.363-3.886-2.07-2.309-.081-4.62-.173-6.934-.242,3.98,2.17,8.013,4.224,12.1,6.215q3.15,1.537,6.332,3.012c1.627.757,3.237,1.514,4.832,2.329C110.978-45.185,111.725-45.215,112.472-45.245Zm8.182-4.618c-.264-1.111-.626-2.239-1-3.32a16.053,16.053,0,0,1-.57-2.047l-.05-.306h-.527c-.149-.006-.274-.018-.427-.018l-.278.006c.5.952,1,1.88,1.433,2.875.342.783.7,1.556,1.007,2.353.066.171.129.338.193.509a.5.5,0,0,1,.274.221C120.694-49.682,120.672-49.773,120.654-49.863ZM19.516-53.624l.187-.044Zm-.179-1.156.1-.032.044-.048.274-.163a.918.918,0,0,1,.238-.034l.1-.008.139,0,.735-.246c.2-.062.419-.135.65-.2-.721.018-1.435-.022-2.164-.044-.2-.006-.364.014-.55.016l-.529,0-.07.383c-.044.213-.095.433-.151.652A9.921,9.921,0,0,0,19.336-54.78Zm2.291-.731.006,0-.01,0Zm87.809-1.246a1,1,0,0,1,.211-.443q-4.228-.009-8.45,0l.908.393q3.663.251,7.334.471A1.046,1.046,0,0,1,109.436-56.757ZM99.531-57.2l-3.141.01c1.025.062,2.049.133,3.074.2.2.016.4.03.6.042C99.886-57.03,99.708-57.113,99.531-57.2Zm-63.664-.908c1.824-.016,3.652-.058,5.476-.1.638-.014,1.288-.012,1.927,0,1.19.018,2.392,0,3.584,0,12.172-.016,24.346-.171,36.516-.288-.334-.193-.67-.387-1-.58a.093.093,0,0,1-.034-.127.092.092,0,0,1,.127-.034q.64.371,1.288.737,3.21-.03,6.422-.056c-.262-.149-.521-.3-.783-.447-1.327-.751-2.657-1.5-3.978-2.259-1.214-.7-2.4-1.454-3.614-2.154a.085.085,0,0,1-.032-.113.085.085,0,0,1,.113-.032c1.043.6,2.1,1.164,3.169,1.723,1.188.622,2.364,1.321,3.535,1.979.787.443,1.584.87,2.382,1.295,3.7-.028,7.407-.05,5.748.016a.411.411,0,0,1-.093-.044c-2.935-1.421-5.814-2.891-8.629-4.546-.932-.548-1.88-1.113-2.78-1.717-.308-.209-.632-.4-.94-.614-1.045-.723-2.1-1.446-3.1-2.229a.157.157,0,0,1-.03-.213.155.155,0,0,1,.211-.03,57.591,57.591,0,0,0,6.3,4.194c1.7.958,3.386,1.876,5.142,2.742,1.709.842,3.437,1.631,5.176,2.4q6.517-.03,13.036-.016c-.278-.515-.546-1.035-.787-1.57-.381-.829-.783-1.663-1.137-2.5-.242-.568-.481-1.137-.729-1.7-.228-.517-.445-1.039-.66-1.558-.175-.06-.443-.2-.6-.276-.213-.1-.435-.183-.644-.292-.391-.209-.787-.423-1.186-.62-1.127-.554-2.263-1.027-3.433-1.492-1.437-.574-2.907-1.093-4.332-1.685-.656-.272-1.357-.534-2-.862-.765.01-1.532.008-2.3,0-.35.022-.7.042-1.047.058.338.137.68.266,1.015.411.383.167.761.374,1.139.54.342.149.691.342,1.021.519.668.358,1.325.723,1.981,1.1,2.4,1.4,4.769,2.885,7.24,4.145a.389.389,0,0,1,.169.519.388.388,0,0,1-.519.169,40.816,40.816,0,0,1-5.162-3.108c-.64-.441-1.288-.864-1.939-1.286-.334-.217-.676-.455-1.019-.652-.725-.421-1.423-.856-2.17-1.238-.429-.219-.852-.417-1.278-.6l-.449-.187.721.566a.131.131,0,0,1,.022.183.131.131,0,0,1-.183.02c-.385-.308-.833-.624-1.2-.95-.036-.03-.1-.068-.159-.111-.491.018-.984.036-1.476.044-.817.016-1.619-.024-2.434-.06-.4-.018-.767-.095-1.174-.109-.87-.028-1.758-.121-2.629-.127-.523,0-1.065-.022-1.586-.048-1.011-.048-2.062-.062-3.074-.068-1.262-.008-2.531-.064-3.793-.056-1.063.006-2.138-.012-3.2-.028-.584-.01-1.166,0-1.749-.01-.928-.02-1.868,0-2.8-.008-2.949-.022-5.9,0-8.848.012l-2.947.012c-1.772.081-3.537.151-5.307.207-2.754.089-5.524.167-8.278.143-.689-.006-1.373-.03-2.066-.054-1.391.044-2.79.095-4.19.155-1.578.072-3.143.165-4.713.3-.419.036-.833.093-1.246.143-.221.6-.441,1.2-.652,1.806-.193.54-.381,1.083-.564,1.627-.221,1.019-.485,2.053-.761,3.034-.314,1.113-.6,2.245-.9,3.36-.2.743-.421,1.49-.61,2.235-.036.145-.077.29-.121.433,1.381.054,2.792.074,4.171.064h3.511C34.575-58.081,35.223-58.1,35.867-58.105Zm65.655-2.362c-1.117-.542-2.229-1.065-3.326-1.647q-1.3-.689-2.593-1.393c-.5-.27-1-.531-1.482-.823-1.824-1.089-3.68-2.15-5.575-3.112-1.274-.648-2.549-1.17-3.869-1.709a.124.124,0,0,1-.066-.157.12.12,0,0,1,.155-.066c.819.334,1.643.646,2.458.995,1.335.57,2.68,1.192,3.98,1.838.872.433,1.745.858,2.613,1.3.419.211.848.411,1.258.634,1.6.876,3.205,1.764,4.844,2.555.765.37,1.53.731,2.3,1.087.928.427,1.892.815,2.833,1.226a.324.324,0,0,1,.183.415.322.322,0,0,1-.415.181A22.643,22.643,0,0,1,101.522-60.467Zm5.466-7.155c-.191-.443-.372-.93-.586-1.357-.248-.493-.461-1.019-.7-1.52-.145-.3-.308-.626-.469-.916l-.066-.113a5.871,5.871,0,0,0-.594-.074c-.221-.026-.459-.038-.678-.058-.586-.048-1.234-.04-1.826-.038l-.385,0a3.289,3.289,0,0,1-.737.308,4.174,4.174,0,0,1-.777.064c-.387.018-.777.022-1.166.03q-.8.018-1.6.052c.286.117.576.234.866.342,1.86.719,3.735,1.409,5.573,2.19.747.318,1.484.656,2.2,1.029a5.9,5.9,0,0,1,1.087.658c.06.054.121.107.179.157C107.2-67.117,107.1-67.368,106.988-67.622Z" transform="translate(-9.385 73.708)"/></g></g></svg>