<svg xmlns="http://www.w3.org/2000/svg" width="139.01" height="159.077" viewBox="0 0 139.01 159.077"><defs><style>.a{fill-rule:evenodd;}</style></defs><g transform="translate(-4.484 -1.142)"><g transform="translate(4.484 1.142)"><path class="a" d="M76.853,85.056a5.991,5.991,0,0,1-1.747-2.67c-.353-.851-.585-1.717-.853-2.594-.144-.463-.271-.982-.369-1.455a28.444,28.444,0,0,1-.524-3.028l-.048-.916-.009-.076c-.074-.183-.207-.423-.305-.609a10.111,10.111,0,0,0-1.148-1.826c-.694-.829-1.427-1.634-2.042-2.518a7.812,7.812,0,0,1-1.353-3.748c-.035.146-.076.295-.118.445.037-.157.079-.325.113-.493-.017-.209-.026-.419-.024-.63l.015.081a8.956,8.956,0,0,1-.17-1.038c-.225-.231-.447-.467-.663-.707a.127.127,0,0,1,0-.179.131.131,0,0,1,.179,0c.146.157.292.31.443.463-.052-.7-.05-1.407-.059-2.114a11.39,11.39,0,0,0-.846-2.727c-.384-.881-.8-1.728-1.211-2.592-.14-.295-.29-.585-.434-.879-.07-.146-.194-.436-.251-.524-.118-.192-.218-.415-.327-.615-.257-.469-.5-.925-.731-1.4-.192-.388-.391-.774-.58-1.165-.039-.044-.074-.089-.109-.135a5.312,5.312,0,0,1-.641-1.532c-.065-.205-.19-.419-.275-.622a14.357,14.357,0,0,1-.84-2.136c-.279-1.152.325-2.323.637-3.4a6.148,6.148,0,0,0,.214-.923c.02-.133.089-.321.124-.463.05-.205.107-.412.157-.622.238-.982.532-1.959.766-2.941.177-.75.38-1.49.563-2.236.035-.144.065-.288.1-.432,0-.351,0-.7-.007-1.043-.02-.879.017-1.767,0-2.648-.024-1.346-.059-2.692-.059-4.038,0-.478-.011-.962-.011-1.444-.255-.465-.515-.918-.737-1.348a12.54,12.54,0,0,1-.958-2.291.286.286,0,0,1-.083.02.368.368,0,0,1-.41-.319,7.219,7.219,0,0,1-.074-1.076c-.3-.421-.6-.849-.923-1.257-.225-.279-.443-.565-.668-.846A3.785,3.785,0,0,1,60,19.042a4.98,4.98,0,0,1-.037-.6,1.022,1.022,0,0,1-.031-.14c-.017-.044-.046-.076-.065-.129s-.118-.166-.155-.238a.771.771,0,0,1-.052-.742c-.059-.031-.118-.061-.175-.094a4.855,4.855,0,0,1-1.407-1.276c-.19-.26-.336-.48-.5-.753a5.605,5.605,0,0,1-.421-.949,1.45,1.45,0,0,1-.127-.716c0,.007-.007.007-.009,0A.4.4,0,0,1,56.8,12.9c0-.007.007-.015.009-.022-.026-.131-.048-.262-.065-.395a.026.026,0,0,1-.011-.011c-.3-.24-.6-.458-.9-.668L55,11.241l.29,1.156-.094.022c-.083-.34-.17-.685-.257-1.023-.015-.057-.1-.268-.039-.305a4.111,4.111,0,0,1,.681.406c.388.257.764.532,1.137.812a9.773,9.773,0,0,1-.07-1.045,1.3,1.3,0,0,1-.041-.327.5.5,0,0,1,.041-.24c0-.29.02-.591.039-.892a.79.79,0,0,1,.63-.724.819.819,0,0,1-.031-.4c.059-.423.168-.846.233-1.272A9.537,9.537,0,0,0,57.611,3.7a3.353,3.353,0,0,0-.233-.711c-.059-.113-.113-.271-.177-.377s-.157-.236-.229-.353c-.024-.035-.046-.07-.072-.107.007.041.009.079.015.118.068.611.024,1.228.057,1.839a.449.449,0,1,1-.9,0c-.022-.445,0-.89-.05-1.335A12.831,12.831,0,0,0,55.8,1.423c-.057-.031-.113-.057-.172-.087-.36-.177-.72-.349-1.076-.532-.554-.284-1.1-.569-1.638-.873-.1-.024-.2-.046-.3-.072A.778.778,0,0,1,51.578-.22a1.707,1.707,0,0,1-.153-.155,1.14,1.14,0,0,1-.072-.118,3.792,3.792,0,0,1-1.244-.7.459.459,0,0,1-.1-.639.489.489,0,0,1,.094-.1c-.061-.076-.122-.153-.181-.229-.2-.244-.391-.513-.591-.746s-.428-.465-.641-.7a4.836,4.836,0,0,0-.67-.53,3.5,3.5,0,0,0-.589-.305A5.354,5.354,0,0,0,45.3-4.81l-.172.007.127,0c-.116.028-.231.055-.345.072l-.113.011-.2.225a8.594,8.594,0,0,1-3.255,1.516c-.188.061-.393.1-.582.151-.722.19-1.455.338-2.19.467q-.825.147-1.654.262a7.494,7.494,0,0,1-1.148.161c-.083.007-.166.009-.253.009-.846.092-1.7.161-2.557.207a11.411,11.411,0,0,1-2.812-.1,1.094,1.094,0,0,1-.55-.4,2.243,2.243,0,0,1-.469-.661l-.181.1c-.321.19-.652.43-.956.646a8.138,8.138,0,0,1-2.956,1.4,8.826,8.826,0,0,1-4.387-.4,7.658,7.658,0,0,1-1.464-.63c-.14-.092-.29-.161-.428-.257a4.3,4.3,0,0,1-.676-.541.113.113,0,0,1-.05-.013,11.137,11.137,0,0,1-3.979-3.41l-1.06-1.579-.641-.63a23.133,23.133,0,0,1-2.653-3.218A33.836,33.836,0,0,1,6.654-17c-.026-.031-.055-.059-.081-.087a14.713,14.713,0,0,1-1.361-1.651,3.285,3.285,0,0,1-.726-1.787A.929.929,0,0,1,4.8-21.27c-.026-.068-.055-.137-.081-.207a.763.763,0,0,1,.421-.993.745.745,0,0,1,.5-.024.89.89,0,0,1-.02-.327c.079-.295.177-.589.251-.884,0-.02.011-.041.015-.065a.754.754,0,0,1-.255-.947,9.516,9.516,0,0,0,.4-.969c.063-.209.146-.434.194-.646a15.463,15.463,0,0,0,.3-1.826,5.608,5.608,0,0,0,.063-.9,9.883,9.883,0,0,0-.4-3.358c-.079-.569-.233-1.126-.356-1.638-.079-.323-.155-.652-.223-.988a4.654,4.654,0,0,1-.537-1.084c-.833-2.515.58-4.968,2.04-6.942q.628-.851,1.274-1.7c.161-.26.327-.521.493-.783.284-.449.572-.9.857-1.346a4,4,0,0,1-.264-1.041.1.1,0,0,1,.083-.111.1.1,0,0,1,.109.081,3.9,3.9,0,0,0,.209.86q.658-1.011,1.316-2.02a7.99,7.99,0,0,0-.569.582.551.551,0,0,1-.777.048.551.551,0,0,1-.048-.777,5.831,5.831,0,0,1,.676-.7c.229-.17.432-.382.67-.545.53-.367,1.054-.722,1.6-1.067a12.444,12.444,0,0,0,.5-1.693.834.834,0,0,1,1.019-.593.833.833,0,0,1,.517.406c.556-.356,1.128-.7,1.689-1.049.061-.037.124-.076.188-.118-.159-.312-.321-.617-.473-.938a.115.115,0,0,1,.055-.153.115.115,0,0,1,.153.055c.144.308.288.622.452.918.271-.172.561-.364.846-.572l.087-.074,1.073-.91c.076-.081.151-.164.216-.244a.1.1,0,0,1,.011-.076.092.092,0,0,1,.083-.046l.013-.017c.148-.209.281-.406.41-.626l.17-.377.081-.506c.013-.151,0-.334,0-.489a4.076,4.076,0,0,1,.3-1.734,2.145,2.145,0,0,1,.388-.559,3.784,3.784,0,0,1,.343-1.37,1.47,1.47,0,0,1,1.084-.792c-.251-.449-.478-.908-.681-1.359a.142.142,0,0,1,.068-.188.143.143,0,0,1,.188.068,14.1,14.1,0,0,0,.7,1.394c.07-.024.137-.048.205-.074a4.994,4.994,0,0,0,1.549-1.03,13.171,13.171,0,0,0,1.209-1.355c-.137-.24-.271-.482-.388-.731a.128.128,0,0,1,.052-.17.128.128,0,0,1,.17.05c.1.218.214.425.334.633.039-.055.083-.111.124-.168.244-.329.493-.661.726-.995A13.224,13.224,0,0,1,28.385-69.6a.515.515,0,0,0-.009-.146l-.009-.055a.626.626,0,0,1,.513-.718.392.392,0,0,1,.491.353.234.234,0,0,1,.07-.05.624.624,0,0,1,.646-.386c.532.094,1.106.116,1.645.19.825.116,1.706.181,2.542.238a31.1,31.1,0,0,0,3.55.1c.1,0,.209-.007.316-.007.371-.3.724-.633,1.065-.951a5.734,5.734,0,0,1,2.363-1.512c.785-.122,1.575-.194,2.365-.238a6.566,6.566,0,0,1,1.488-.831,7.075,7.075,0,0,1,2.413-.233c.423.02.89.024,1.311.081.587.079,1.191.127,1.78.2,1.337.166,2.675.371,4.016.526a11.823,11.823,0,0,0,1.206-.262c.347-.1.606-.233.929-.353a.783.783,0,0,1,.388-.07.77.77,0,0,1,.574-.111c.061.026.161.028.227.05s.14.059.207.076a4.183,4.183,0,0,1,.554.266h.133a1.9,1.9,0,0,1,.458.044c.212.028.545.216.7.227.048,0,.127-.013.192-.009a.738.738,0,0,1,.3.1,3.59,3.59,0,0,1,.772.829,1.533,1.533,0,0,1,.068.369,3.9,3.9,0,0,1-.164,1.217c0,.013,0,.026.007.037a7.732,7.732,0,0,0,.532,2.038c.057.146.14.281.205.425a6.06,6.06,0,0,0,.5.914.908.908,0,0,1-.142,1.093,9.653,9.653,0,0,0,3.454,2.245c.161.022.323.044.484.068-.065-.113-.135-.227-.2-.34a.115.115,0,0,1,.041-.153.113.113,0,0,1,.151.041c.1.166.2.332.292.5a4.712,4.712,0,0,1,1.817.639,5.391,5.391,0,0,1,.556.434c.26.1.515.2.764.3a9.24,9.24,0,0,1,2.485,1.433.1.1,0,0,1-.011-.022l.137-.065a.689.689,0,0,0,.039.089,3.846,3.846,0,0,1,.668.694,6.36,6.36,0,0,1,1.619.6,5.493,5.493,0,0,1,.589.384.853.853,0,0,1,.993-.175c.183.039.41.1.6.131a3.335,3.335,0,0,0,1.233-.079l.081-.039,0-.251a8.534,8.534,0,0,1,.031-1.719,2.029,2.029,0,0,1,.34-.932,3.122,3.122,0,0,1,1.623-.565,9.27,9.27,0,0,1,2.836.236.525.525,0,0,1,.113-.652.525.525,0,0,1,.74.05c.161.185.323.371.493.548a7.5,7.5,0,0,0,.829.726c.074.024.146.048.22.068a18.766,18.766,0,0,0,3.015.737c.471.074.94.166,1.418.207s.973.072,1.451.122c.192.022.388.015.587.037,2.044.233,4.1.351,6.152.38-.076-.072-.148-.142-.216-.216l.055-.059c.087.092.19.185.29.275.558.009,1.117.007,1.68,0a.475.475,0,0,1,.38.188c.157.007.3.028.465.037a2.5,2.5,0,0,1,.454.129,7.652,7.652,0,0,1,1.894,1.222,3.517,3.517,0,0,0,.382.242,2.131,2.131,0,0,1,.353.175.7.7,0,0,1,.251.347,4.139,4.139,0,0,1-.017,1.036c-.013.057-.065.17-.07.214s0,.089,0,.133c.432.439.86.877,1.285,1.326.292.308.6.628.877.956.312.371.628.75.945,1.121a17.41,17.41,0,0,1,2.029,2.941,5.253,5.253,0,0,1,.617,1.468,3.082,3.082,0,0,1,.013.491.693.693,0,0,1-.085.559q.373.753.8,1.475c.582.993,1.23,1.953,1.878,2.906.617.905,1.272,1.791,1.891,2.7a23.566,23.566,0,0,1,1.385,2.195,9.8,9.8,0,0,1,.781,4.038c.118.229.231.458.343.687.214.443.421.914.6,1.368.116.286.22.591.349.868-.412-.722-.792-1.468-1.244-2.173a8.546,8.546,0,0,0,.347,1.881l.373.87,2.127,3.689c.351.565.713,1.124,1.108,1.656.29.375.622.755.927,1.121.591.716,1.156,1.46,1.739,2.184v.007a.3.3,0,0,1,.1.039,1.57,1.57,0,0,1,.336.312,8.126,8.126,0,0,1,1.008,1.407,9,9,0,0,1,.613,1.241c.063.076.124.155.188.231.585.735,1.2,1.451,1.8,2.184l.923,1.128.652.061a9.6,9.6,0,0,0,2.823-.707c.678-.238,1.3-.482,1.926-.67a9.071,9.071,0,0,1-1.043-1.374,8.511,8.511,0,0,0,1.078,1.364,6.779,6.779,0,0,1,2.374-.31,8.894,8.894,0,0,1,2.544.689,5.214,5.214,0,0,1,2.323-.3,3.936,3.936,0,0,1,.635.188,1.889,1.889,0,0,1,.552.384c.02.02.039.039.061.059a.874.874,0,0,1,1.137.482.875.875,0,0,1-.484,1.134.117.117,0,0,1-.024.011c.013.175.015.351.015.524a5.313,5.313,0,0,1-.5,1.717,2.228,2.228,0,0,0-.122.382,1.22,1.22,0,0,1-.124.589,28.008,28.008,0,0,1-1.881,3.137c-.548.8-1.1,1.593-1.675,2.376q-.815,1.113-1.652,2.217c-.072.118-.144.244-.214.367a13.6,13.6,0,0,0-.674,1.361c-.14.332-.384.733-.558,1.067a22.734,22.734,0,0,1-1.2,2.009c-.347.524-.676,1.054-1.043,1.562-2.343,3.253-5.044,6.135-7.62,9.2-.34.4-.7.8-1.047,1.2-.223.255-.43.526-.65.783a24.787,24.787,0,0,0-2.332,3.344,11.592,11.592,0,0,0-.726,1.394c-.12.292-.271.58-.382.875s-.218.6-.319.9c-.074.212-.135.428-.19.644.292.227.288.421.439.755a5.619,5.619,0,0,1,.279.8c.035.031.072.061.109.089.271.214.561.469.816.7a.193.193,0,0,1,.024.271.191.191,0,0,1-.271.022c-.168-.127-.332-.26-.5-.393a.952.952,0,0,0,.026.107,12.8,12.8,0,0,1,.209,2.8,16.868,16.868,0,0,1-.063,1.878c.4.362.807.716,1.224,1.049a.215.215,0,0,1,.024.3.218.218,0,0,1-.3.024c-.332-.277-.659-.558-.982-.84.017.205.033.412.048.62.113,1.769.1,3.51.107,5.282,0,1.126-.011,2.258-.022,3.386,0,.382,0,.764,0,1.148A3.942,3.942,0,0,1,121,39.3a4.555,4.555,0,0,1-.349.866c-.172.364-.327.759-.487,1.132a22.136,22.136,0,0,1-1.889,3.726c-.028.12-.059.242-.089.364-.059.231-.168.412-.236.611a6.438,6.438,0,0,1-.67.9c-.476.6-.993,1.145-1.486,1.726-.375.443-.805.853-1.191,1.287-.681.772-1.409,1.512-2.134,2.251.626.482,1.278.888,1.933,1.329a.132.132,0,1,1-.144.22,23.811,23.811,0,0,1-1.979-1.355q-.511.517-1.006,1.041c-.367.388-.744.785-1.084,1.2-.061.074-.135.153-.205.233l-.048.12-.044.53-.013.177q1.263,1.047,2.577,2.044c-.325.031-.622-.325-.877-.5a20.759,20.759,0,0,1-1.7-1.348c0,.192,0,.386,0,.576,0,.807.087,1.689.155,2.5a11.56,11.56,0,0,1-.037,1.344,8.568,8.568,0,0,1-.19,1.643c-.131.257-.347.292-.582.415a6.43,6.43,0,0,0-.79.541.806.806,0,0,1,.31.565,1.061,1.061,0,0,1,0,.118c.076.059.153.118.227.177a.121.121,0,0,1,.024.166.119.119,0,0,1-.166.026,1.559,1.559,0,0,1-.148-.1.809.809,0,0,1-.5.454c-.039.2-.079.4-.127.606a.442.442,0,1,1-.86-.205c.022-.092.041-.183.061-.275a1.893,1.893,0,0,0-1.226.591,1.951,1.951,0,0,0-.36.873c.151.133.3.271.456.4a.147.147,0,1,1-.2.218l-.312-.275c-.022.185-.037.367-.048.528a21.88,21.88,0,0,1-.218,2.614,3.187,3.187,0,0,1-.31,1,2.493,2.493,0,0,1-.244.236c-.694.633-1.444,1.237-2.169,1.837-.264.216-.526.434-.794.654a69.119,69.119,0,0,1-5.4,5.568,38.266,38.266,0,0,1-3.083,2.646c-.36.266-.718.582-1.089.831-.024.039-.05.076-.074.116a6.162,6.162,0,0,1-.419.6c-.377.443-.753.805-1.161,1.213a.837.837,0,0,1-.539.262h-.628c-.43.007-.86-.013-1.289-.035-.19-.011-.384,0-.574-.033-.4-.057-.84-.044-1.235-.122-.454-.087-.905-.157-1.353-.244a1.018,1.018,0,0,1-.113.007,29.45,29.45,0,0,0-5.365.853C78.779,84.905,77.559,85.5,76.853,85.056ZM77.9,83.4c.421-.133.929-.225,1.374-.323.6-.129,1.2-.266,1.8-.391-.055-.055-.1-.12-.155-.172a2.607,2.607,0,0,0-.517-.388,2.878,2.878,0,0,0-.956-.275.466.466,0,1,1,.135-.923c.111.022.227.026.336.05a3.541,3.541,0,0,1,1.071.395c-1-1.152-2-2.319-3.024-3.456-.731-.814-1.5-1.656-2.293-2.413-.2-.194-.41-.391-.613-.589a1.486,1.486,0,0,0,.028.22c.05.268.055.552.118.822.044.2.07.415.107.617a24.741,24.741,0,0,0,.556,2.459c.183.639.347,1.35.593,1.966.175.436.325.862.515,1.294.1.223.227.436.327.65a2.331,2.331,0,0,0,.247.384l.122.129C77.782,83.428,77.88,83.407,77.9,83.4Zm10.238-.563a3.27,3.27,0,0,0,1.37-.72c-.388-.31-.785-.615-1.176-.921-1.028-.8-2.059-1.689-3.03-2.559-.844-.753-1.634-1.556-2.428-2.361a26.472,26.472,0,0,1-1.806-2.025,31.48,31.48,0,0,1-2-2.677.155.155,0,0,1,.255-.175,33.574,33.574,0,0,0,5.541,6.253c.279.249.548.51.829.755q2.039,1.783,4.171,3.456a.229.229,0,0,1,.074.129c.271-.168.528-.343.764-.506.161-.111.321-.223.48-.338A33.966,33.966,0,0,1,93.1,77.931q-1.077-1.086-2.127-2.2c-1.062-1.126-2.09-2.332-3.094-3.512-.554-.652-1.108-1.316-1.651-1.979-.338-.415-.7-.829-1.017-1.254l.113-.094c.349.467.761.951,1.143,1.39.535.609,1.045,1.244,1.582,1.85q2.533,2.863,5.216,5.587.17-.213.353-.412a4.912,4.912,0,0,1,1.353-.969c.576-.327,1.113-.74,1.662-1.106-.7-.718-1.39-1.438-2.116-2.125-.99-.934-2-1.848-3-2.777-.929-.864-1.843-1.806-2.736-2.714l-.611-.62-.07.059c-.242-.266-.493-.558-.722-.836a1.643,1.643,0,0,1-.236-.273l-.011-.072.1.007.055.039c.065.059.129.133.144.148q.367.353.74.7c.7.648,1.433,1.285,2.164,1.9,2.007,1.671,3.877,3.438,5.742,5.26.332.325.65.672.975,1.01.406-.295.809-.62,1.2-.921.478-.369.949-.746,1.418-1.124a.133.133,0,0,1-.1-.007,6.757,6.757,0,0,1-1.4-.947,20.386,20.386,0,0,1-2.714-2.858c-.79-.956-1.573-1.929-2.334-2.9-.388-.5-.8-.958-1.209-1.436a9.105,9.105,0,0,0-.7-.748c-.144-.131-.292-.292-.441-.408s-.31-.233-.436-.349l.072-.094c.161.146.367.264.521.423.135.137.3.266.439.408.227.233.449.473.67.711.388.419.744.864,1.11,1.3.993,1.176,1.937,2.411,2.969,3.556a13.46,13.46,0,0,0,3.574,3.118.124.124,0,0,1,.052.166c.7-.554.836-.665.973-.779a22.1,22.1,0,0,0,2-2.585c.1-.161.207-.319.3-.487l.12-.242.124-.452a2.375,2.375,0,0,0,.063-.515c.011-.674-.148-1.392-.076-2.057a3.363,3.363,0,0,1,.362-1.3c-.851-.79-1.7-1.588-2.539-2.385-2.343-2.21-4.682-4.448-6.9-6.781l.068-.068c1.809,1.9,3.715,3.7,5.642,5.478,1.18,1.093,2.4,2.149,3.589,3.229l.3.275a5.059,5.059,0,0,1,2.535-1.654.83.83,0,0,1,.851.181l.007,0-.375-.31c-1.407-1.174-2.683-2.371-4.008-3.637-1.065-1.021-2.125-2.081-3.146-3.148-.371-.388-.742-.8-1.124-1.178-.517-.513-1-1.073-1.5-1.6-.425-.447-.857-.916-1.263-1.381l.116-.1c.783.9,1.641,1.811,2.478,2.662,1.019,1.041,2.014,2.1,3.07,3.107,1.636,1.562,3.246,3.135,4.981,4.584.334.281.672.567,1.014.849l.079-.059c.057-1.324-.031-2.651.035-3.973-.161-.14-.325-.277-.487-.419-1.75-1.49-3.467-3.006-5.146-4.573-1.911-1.782-3.848-3.543-5.757-5.325,2.8,2.607,5.738,5.092,8.635,7.59.921.8,1.841,1.614,2.775,2.415a9.964,9.964,0,0,1,.482-2.55,3.958,3.958,0,0,1,.314-.668c.011-.124.026-.253.041-.377a29.21,29.21,0,0,1-3.283-3.268,3.337,3.337,0,0,1-.386-.338c-.225-.218-.449-.439-.663-.67-2.345-2.173-2.921-2.766-3.495-3.36l.094-.094c1.124,1.163,2.247,2.326,3.4,3.454-.875-.67.024.233,1.049,1.008.99,1,2.138,2.062,3.314,3.089a4.3,4.3,0,0,1,.484-1,16.071,16.071,0,0,1,1.793-2.345c-1.8-1.569-3.445-3.323-5.083-5.053-1.326-1.4-2.64-2.8-3.988-4.176-.541-.552-1.145-1.062-1.68-1.614l.046-.05c.264.271.563.524.836.785.292.281.58.565.87.849.79.774,1.553,1.58,2.328,2.369,2.265,2.308,4.424,4.6,6.853,6.685.868-.993,1.765-1.961,2.664-2.926-.467-.428-.938-.851-1.422-1.272-1.346-1.161-2.736-2.275-4.091-3.43-.722-.615-1.418-1.272-2.112-1.922-.663-.626-1.272-1.318-1.878-2a.113.113,0,0,1,.011-.157.115.115,0,0,1,.155.011,42.258,42.258,0,0,0,5.694,5.356c1.189.984,2.365,1.966,3.521,2.982.094.085.19.17.284.257.266-.286.535-.574.8-.86.417-.447.82-.9,1.228-1.353.166-.183.369-.406.559-.626-.223-.164-.445-.325-.663-.484a50.6,50.6,0,0,1-5.568-4.843c-1.625-1.571-3.209-3.194-4.786-4.813-.822-.844-1.682-1.658-2.494-2.509v-.122h.122c.884.921,1.824,1.815,2.727,2.72,1.59,1.595,3.187,3.2,4.848,4.725.744.683,1.479,1.39,2.251,2.035.6.506,1.2,1.017,1.806,1.521.637.53,1.289,1.034,1.948,1.536.087-.111.166-.22.231-.323.033-.155.063-.308.1-.46.083-.319.124-.672.19-.995.127-.639.223-1.287.323-1.931q-1.973-1.836-3.944-3.667c-2.76-2.559-5.522-5.129-8.074-7.9a.114.114,0,0,1,.166-.157c2.69,2.9,5.607,5.6,8.545,8.242,1.132,1.019,2.251,2.059,3.371,3.094.031-.192.065-.384.1-.576.072-.375.12-.772.172-1.152q.111-.776.227-1.556c-.236-.2-.476-.4-.716-.606-.668-.567-1.3-1.187-1.931-1.8-.755-.724-1.49-1.46-2.223-2.206-1.706-1.734-3.4-3.5-5.184-5.155-.432-.4-.864-.816-1.309-1.2-.292-.251-.6-.5-.888-.764a.109.109,0,0,1-.009-.151.107.107,0,0,1,.151-.011c.572.526,1.182,1.03,1.765,1.549.537.482,1.054,1,1.582,1.492s1,1,1.51,1.486c1.213,1.172,2.4,2.391,3.6,3.58s2.437,2.321,3.709,3.416c.033-.209.065-.421.1-.633.2-1.283.377-2.581.548-3.879-.633-.558-1.259-1.126-1.894-1.684-1.649-1.438-3.242-2.965-4.813-4.492a62.95,62.95,0,0,1-7.841-9.006l.02-.127.129.02a48.345,48.345,0,0,0,3.266,4.128,89.783,89.783,0,0,0,9.39,9.1c.6.524,1.2,1.038,1.809,1.553.048-.358.092-.718.14-1.076.1-.77.218-1.56.286-2.328,0-.063.011-.124.017-.19-.083-.336-.161-.672-.233-1.019-.072-.329-.133-.668-.181-1.012a110.414,110.414,0,0,1-11.15-13.181.121.121,0,0,1,.024-.168.123.123,0,0,1,.168.022c1.086,1.451,2.177,2.9,3.316,4.309,1.353,1.671,2.742,3.275,4.182,4.869,1.091,1.206,2.258,2.433,3.447,3.545l.007.007a8.279,8.279,0,0,1-.164-1.425c-.092-.458-.179-.921-.262-1.383a21.557,21.557,0,0,1-.367-2.47c-1.11-1.1-2.175-2.254-3.2-3.386-1.765-1.935-3.547-3.909-5.4-5.762-.565-.567-1.158-1.106-1.721-1.669l0-.146.144,0c.561.559,1.148,1.091,1.71,1.649.476.471.934.966,1.414,1.433.578.569,1.132,1.174,1.691,1.763.587.62,1.18,1.233,1.771,1.852,1.172,1.235,2.367,2.437,3.574,3.628,0-.116,0-.236.009-.358a8.371,8.371,0,0,1,1.335-3.126c.061-.1.124-.2.188-.3A68.152,68.152,0,0,1,108.2,3.507l.12-.081c.465.737,1.03,1.462,1.556,2.16A45.47,45.47,0,0,0,113.229,9.5c2.046,2.147,4.171,4.178,6.364,6.165.6-.942,1.237-1.87,1.894-2.784-.332-.247-.657-.5-.956-.746-.574-.467-1.152-.921-1.7-1.412s-1.082-1-1.617-1.518c-1.961-1.913-3.772-3.933-5.609-5.969-.493-.548-.993-1.086-1.479-1.638l.1-.1a84.3,84.3,0,0,0,11.464,11.1c.764-1.052,1.553-2.088,2.343-3.111q1.047-1.358,2.105-2.705c-.567-.353-1.1-.737-1.643-1.126a17.352,17.352,0,0,1-1.577-1.281c-.624-.572-1.239-1.119-1.837-1.719-1.344-1.353-2.6-2.786-3.837-4.237-.039-.046-.081-.094-.122-.137a.157.157,0,0,1-.041-.044c-.011-.013-.02-.026-.033-.044-.746-.87-1.523-1.732-2.265-2.614-.323-.382-.683-.737-1.01-1.117-.729-.849-1.584-1.649-2.365-2.454l.085-.085c.74.761,1.5,1.5,2.223,2.28.966,1.041,1.9,2.105,2.847,3.166l.133.153c-.015-.026-.028-.052-.044-.081a29.6,29.6,0,0,0-1.726-2.459c-.216-.288-.471-.563-.7-.84-.572-.689-1.2-1.35-1.8-2.018-2.055-2.291-4.093-4.555-5.17-7.487l.089-.035c1.071,2.912,3.1,5.19,5.157,7.455.6.661,1.2,1.32,1.787,2,.179.209.353.439.539.641.2.223.395.5.583.742a18.439,18.439,0,0,1,1.551,2.385c1.148,1.3,2.3,2.651,3.536,3.859.593.582,1.18,1.148,1.791,1.713a34.423,34.423,0,0,0,3.515,2.79c.172.124.345.244.519.367q1.041-1.322,2.083-2.64a.127.127,0,0,1-.1-.02A31.229,31.229,0,0,1,124.035.472a69.781,69.781,0,0,1-5.221-5.5c-2.446-2.83-4.843-5.674-7.389-8.412l.055-.05c1.3,1.4,2.566,2.819,3.846,4.239,1.431,1.588,2.819,3.229,4.285,4.786.633.668,1.261,1.333,1.9,2A48.934,48.934,0,0,0,126.9,2.523c.5.388,1.023.8,1.553,1.154a.134.134,0,0,1,.059.1c.179-.223.358-.449.539-.678.838-1.062,1.7-2.114,2.529-3.187.942-1.224,1.907-2.448,2.864-3.661.172-.218.345-.436.51-.654a10.766,10.766,0,0,1,.622-1.012c.382-.554.759-1.115,1.141-1.671a18.783,18.783,0,0,0,1.606-2.638c.155-.336.26-.661.388-1a3.7,3.7,0,0,0,.161-.626l.085-.567-.015-.432a3.381,3.381,0,0,1,.166-.864c-.079-.057-.159-.111-.242-.166-.419-.279-.853-.543-1.274-.82-.216-.14-.425-.277-.63-.408a19.773,19.773,0,0,1-5.2,1.309,4.988,4.988,0,0,1-1.019-.028A68.815,68.815,0,0,0,136.808-9.2a.249.249,0,0,1,.083.336.246.246,0,0,1-.334.083c-1.091-.622-2.193-1.348-3.224-2.064q-1.98-1.371-3.84-2.9c-.061-.022-.124-.041-.183-.059-.133-.031-.236-.039-.367-.061l.076,0a2.689,2.689,0,0,1-.873-.111,4.6,4.6,0,0,0-.606-.2l-.116-.013a.953.953,0,0,1-.692-.135c-.146-.1-.29-.2-.434-.3a4.093,4.093,0,0,1-.7-.692,7.437,7.437,0,0,1-.914-1.462c-.207-.445-.393-.914-.6-1.368a37.181,37.181,0,0,1-2.566-3.414,1.693,1.693,0,0,1-.238-.247c-1.028-1.2-1.99-2.435-2.941-3.7a.166.166,0,0,1,.031-.229.173.173,0,0,1,.1-.031c-.122-.192-.247-.386-.367-.58a32.082,32.082,0,0,1-2.485-2.912c-.041-.083-.157-.214-.218-.314a4.764,4.764,0,0,1-.447-.879,5.76,5.76,0,0,1-.179-.55c-.1-.471-.144-.932-.214-1.4l-.177-.9-.146-.369a4.47,4.47,0,0,0-.458-.7c-.353-.473-.729-.929-1.082-1.407a5.075,5.075,0,0,1-.465-.748l-.26-.82.013.046-.015-.052-.161-.687c-.12-.774-.107-1.619-.155-2.361-.011-.151-.024-.305-.046-.465-1.75-2.293-3.534-4.566-5.127-6.968a.2.2,0,0,1-.037-.113c-.19-.185-.391-.382-.561-.576a21.516,21.516,0,0,1-2.965-4.643c-.281-.545-.6-1.115-.851-1.667-.271-.589-.576-1.152-.875-1.723a11.812,11.812,0,0,0-.672-1.15c-.127-.183-.255-.375-.384-.565l-.039-.015-.179-.07c-.292-.094-.58-.172-.877-.249-.275-.072-.582-.081-.853-.142a6.075,6.075,0,0,0-.892-.068c-.456-.026-.9-.028-1.357-.026-1.449.009-2.869.144-4.326.085a15.587,15.587,0,0,1-2.771-.332c.678.879,1.313,1.741,1.926,2.67.947,1.438,1.811,2.974,2.694,4.455a28.745,28.745,0,0,0,5.664,7.37.206.206,0,0,1,.015.288.2.2,0,0,1-.288.013c-.3-.266-.646-.545-.916-.833-.231-.247-.471-.484-.7-.733a19.917,19.917,0,0,1-2.208-2.9c-1.043-1.7-1.942-3.436-2.926-5.168-.305-.535-.6-1.1-.921-1.623-.358-.576-.7-1.15-1.078-1.715-.425-.644-.894-1.237-1.361-1.85a10.14,10.14,0,0,1-2.2-.77c-.443-.111-.888-.238-1.344-.362l-.1-.026a.822.822,0,0,1-.111.295.815.815,0,0,1-1.121.253,5.786,5.786,0,0,0-2.116-1.093l-.181,0v.332a10.834,10.834,0,0,1-.089,2.127c-.07.36-.1.831-.395,1.078a1.044,1.044,0,0,1-.838.135,3.3,3.3,0,0,0-.48-.028c.037.055.079.118.133.194.015.02.022.031.031.041.076.118.159.236.244.353a11.685,11.685,0,0,1,.805,1.141A46.79,46.79,0,0,0,83.7-51.18a.894.894,0,0,0,.107.133,7.769,7.769,0,0,0,1.158,1.161c-.118.022-.469-.338-.561-.43a3.711,3.711,0,0,1-.6-.731c-.179-.129-.316-.3-.107-.133a4.358,4.358,0,0,1-.624-.77c-.172-.288-.382-.567-.559-.86-.65-1.08-1.276-2.169-1.95-3.231-.122-.188-.253-.367-.382-.543-.127-.244-.29-.467-.275-.395-.041-.057-.087-.124-.142-.194-.286,0-.585.017-.829.017a22.727,22.727,0,0,1-4.383-.12.9.9,0,0,0,.048.076A39.86,39.86,0,0,0,76.8-53.761c.292.391.572.8.879,1.178.2.251.423.5.62.753-.055.015-.111.022-.166.033a33.3,33.3,0,0,1-3.785-5.524,4.193,4.193,0,0,1-.748-.255,2.222,2.222,0,0,1-.99-.77.748.748,0,0,1-.135-.24c-.02-.079-.041-.329-.061-.373a1.337,1.337,0,0,0-.089-.185c-.554,0-1.11,0-1.667.007a1.475,1.475,0,0,1-.86-.1.805.805,0,0,1-.212-.209,4.086,4.086,0,0,1-.216-.491c-.076-.166-.157-.325-.236-.486a3.579,3.579,0,0,0-1.069-1.364.569.569,0,0,1-.079-.028c.229.38.46.761.7,1.141,1.512,2.461,3.074,4.9,4.577,7.365.624,1.023,1.25,2.051,1.885,3.067a.115.115,0,0,1-.037.153.114.114,0,0,1-.153-.037c-1-1.6-1.987-3.214-2.978-4.819-1.156-1.876-2.332-3.739-3.486-5.613-.288-.465-.569-.932-.849-1.4-.3-.124-.6-.253-.905-.384-.641-.129-1.385-.155-1.981-.268-.181-.033-.362-.07-.541-.109,1.97,2.535,3.883,5.1,5.766,7.716a7.782,7.782,0,0,1-1.283-1.6c-.8-1.126-1.645-2.245-2.483-3.342-.72-.945-1.446-1.881-2.177-2.816-1.922-.456-3.77-1.344-4.448-3.366a5.3,5.3,0,0,1-.124-2.371L57.4-71.057c-1.119-.041-2.236-.157-3.353-.3-1.119.1-2.249.113-3.39.122-1.621.015-3.262-.057-4.891-.063.452.606.927,1.193,1.379,1.806.692.938,1.392,1.894,2.11,2.812a27.529,27.529,0,0,0,3.506,3.964l0,.135-.137,0a26.885,26.885,0,0,1-3.462-3.9c-.659-.84-1.278-1.715-1.924-2.568-.548-.72-1.113-1.44-1.649-2.164l.011-.089c-.249,0-.5,0-.742,0-.161.111-.31.216-.432.295-.587.386-1.158.807-1.754,1.182a15.984,15.984,0,0,1-1.723.927,4.465,4.465,0,0,1-.792.288,8.324,8.324,0,0,1-1.527.212c.657.945,1.311,1.9,1.983,2.832a3.688,3.688,0,0,1-.953-1.119c-.41-.552-.8-1.134-1.2-1.706-.072,0-.142,0-.209,0-.168.113-.343.22-.526.323a4.567,4.567,0,0,1-3.336.412.188.188,0,0,0,.015.022c.482.79.964,1.582,1.451,2.369A20.447,20.447,0,0,0,38.678-61.4l-.124.035c-.214-.236-.421-.456-.63-.694a14.865,14.865,0,0,1-.971-1.3c-.611-.877-1.2-1.819-1.743-2.744-.29-.5-.611-1.038-.932-1.525a.122.122,0,0,1-.013-.017,2.416,2.416,0,0,1-.391-.041c-.36-.085-.7-.2-1.056-.3-.2-.057-.4-.127-.6-.2a.847.847,0,0,1-.377-.1,1.526,1.526,0,0,0-.406-.148c-.131-.037-.262-.074-.393-.113-.188-.055-.4-.074-.6-.133a.565.565,0,0,1-.1-.031l-.262.046a2.792,2.792,0,0,0-.91.591,5.345,5.345,0,0,1-.262.569,5.99,5.99,0,0,1-.5.757,17.465,17.465,0,0,1-1.34,1.665q-.373.416-.755.814c.236.358.493.713.737,1.047A69.083,69.083,0,0,0,32.365-57a.156.156,0,0,1-.011.216.156.156,0,0,1-.216-.011c-.351-.369-.689-.766-1.03-1.145-.888-.99-1.75-1.983-2.609-3-.569-.676-1.121-1.394-1.625-2.118-.242-.345-.5-.687-.729-1.043-.759.785-1.54,1.54-2.332,2.3-.122.12-.249.238-.373.351q.3.383.633.742c1.021,1.121,2.206,2.142,3.283,3.222a22.248,22.248,0,0,1,1.5,1.769.151.151,0,0,1-.026.209.154.154,0,0,1-.212-.026A17.435,17.435,0,0,0,26.906-57.5c-.38-.353-.761-.742-1.134-1.108-.473-.46-1.012-.921-1.453-1.407-.268-.295-.539-.587-.805-.886-.1-.107-.2-.22-.29-.336-.218.2-.434.395-.648.591-.135.124-.281.251-.425.371,0,.072.007.133.011.181a9.126,9.126,0,0,1-.068,2.452,2.929,2.929,0,0,1-1.283,1.715l-.286.24c.065.068.129.137.19.212.857,1.047,1.444,2.256,2.286,3.3a5.471,5.471,0,0,0,1.025.932.134.134,0,0,1,.026.183.134.134,0,0,1-.183.026c-1.311-.884-1.992-2.515-2.886-3.768a5.777,5.777,0,0,0-.62-.742c-.151.129-.3.26-.458.386a1.047,1.047,0,0,1-.085.068,8.353,8.353,0,0,1-1.907,1.549l-.2.129a33.125,33.125,0,0,0,3.111,3.541c.676.694,1.3,1.436,1.931,2.169a.117.117,0,0,1-.013.166.118.118,0,0,1-.166-.013c-.622-.718-1.226-1.425-1.881-2.114a40.3,40.3,0,0,1-3.111-3.519c-.026-.031-.05-.063-.074-.1l-.116.07a2.752,2.752,0,0,1-.617.48l-1.065.561-.009.007-.491.439c-.205.159-.419.305-.637.447,0,0,.009,0,.015.007.151.107.323.244.467.36a8.037,8.037,0,0,1,1.126,1.246c.644.82,1.213,1.771,1.791,2.644a9.227,9.227,0,0,0,2.131,2.4,3.233,3.233,0,0,0,.689.415.1.1,0,0,1,.048.14.107.107,0,0,1-.142.046,3.06,3.06,0,0,1-.659-.377,8.667,8.667,0,0,1-2.057-2.2,23.93,23.93,0,0,0-3.037-4.112,3.317,3.317,0,0,0-.524-.384c-1.261,1.791-2.478,3.63-3.656,5.487a14.682,14.682,0,0,0,2.467,1.931,10.7,10.7,0,0,1,.973.713,6.151,6.151,0,0,1,.918.942c.1.131.181.275.281.4a.11.11,0,0,1-.028.151.113.113,0,0,1-.151-.031c-.1-.137-.19-.3-.292-.428a7.06,7.06,0,0,0-1.065-1.041c-.443-.373-1-.7-1.477-1.049-.41-.3-.84-.578-1.224-.921a6.155,6.155,0,0,1-.508-.5c-.161.253-.321.506-.482.759-.321.513-.668,1.019-.977,1.538a10.477,10.477,0,0,1-.65,1.017c-.076.1-.133.231-.205.336-.266.386-.491.805-.735,1.178a3.547,3.547,0,0,0-.286.543,5.627,5.627,0,0,0-.471,1.719c.068.065.135.131.2.2.469.515.969,1,1.4,1.547a24.249,24.249,0,0,0,5.345,5.474.139.139,0,0,1,.035.192.14.14,0,0,1-.194.037,22.3,22.3,0,0,1-5.2-5.4c-.34-.432-.726-.875-1.1-1.276-.168-.177-.34-.349-.515-.517a7.731,7.731,0,0,0,.124,1.994c0,.031.011.059.02.1.1.251.166.513.238.768a4.168,4.168,0,0,1,.19,1.42c.024.122.048.244.074.369.137.694.338,1.4.443,2.1.037.247.072.489.1.735.635.755,1.34,1.449,2.077,2.193.844.851,1.728,1.656,2.531,2.553.321.36.6.761.908,1.121a.173.173,0,0,1-.033.242.173.173,0,0,1-.242-.033,20.482,20.482,0,0,0-1.961-2.293c-.463-.449-.918-.916-1.372-1.374-.652-.657-1.283-1.3-1.861-1.977a8.082,8.082,0,0,1,.033.923c0,.151.011.336,0,.48l-.1.822-.24,1.438,0-.022a5.569,5.569,0,0,1,.665.657c.247.3.508.609.759.905.3.358.587.8.862,1.182.408.572.807,1.165,1.2,1.752A27.879,27.879,0,0,0,14-18.377a8.051,8.051,0,0,0,.731.713c-.05.017-.107.033-.157.048a24.421,24.421,0,0,1-3.741-4.869A25.881,25.881,0,0,0,8.256-25.98c-.168-.168-.336-.323-.506-.478l-.079.478a7.31,7.31,0,0,1-.683,1.911.778.778,0,0,1-.081.131q-.069.259-.144.511a4.365,4.365,0,0,1-.24,2.358c.151.375.305.753.465,1.128C8.3-18.447,9.663-16.972,11.1-15.6c.659.633,1.324,1.239,2,1.85.975.879,2,1.747,3.061,2.531,1,.74,1.994,1.486,3.059,2.125a.12.12,0,0,1,.039.161.12.12,0,0,1-.161.039c-.482-.255-1-.613-1.453-.918a35.875,35.875,0,0,1-4.274-3.338c-.936-.862-1.9-1.715-2.784-2.629-1.15-1.18-2.258-2.367-3.349-3.591l.945,2.123-.007-.013c.05.05.1.1.153.157l-.009,0,.048-.007a.832.832,0,0,1,.327.12l.214.177.059.055c.166.177.305.388.443.561.476.6.971,1.163,1.46,1.752.654.792,1.333,1.571,2,2.352,1.49,1.741,2.984,3.488,4.5,5.2.5.567,1,1.141,1.516,1.7.185.2.371.425.563.613.3.3.528.633.286,1.045l-.092.076.877.319a10.74,10.74,0,0,0,1.089.251,13.438,13.438,0,0,0,3.462.146.8.8,0,0,1,.63-.648c-.257-.238-.5-.5-.753-.746-.449-.436-.892-.886-1.335-1.329-.7-.7-1.412-1.4-2.105-2.11a35.536,35.536,0,0,1-2.354-2.7,57.285,57.285,0,0,0,4.778,5.094c.6.589,1.185,1.193,1.787,1.785.007,0,.013,0,.017,0,.295.022.807-.4,1.047-.532.118-.07.231-.159.349-.233a3.749,3.749,0,0,1,1.575-.606,4.973,4.973,0,0,1,.971.061,1.581,1.581,0,0,1,.179,0,6.65,6.65,0,0,1,1.322.209c.862.22,1.708.443,2.557.685A8.865,8.865,0,0,0,35-3.483c.759-.087,1.508-.172,2.262-.279a.232.232,0,0,0,.041-.015c.323-.124.646-.225.971-.36.4-.166.794-.343,1.187-.521A30.683,30.683,0,0,1,34.808-9.1c-.746-.827-1.518-1.665-2.317-2.441-.419-.41-.846-.794-1.274-1.2a.114.114,0,0,1-.009-.161.118.118,0,0,1,.161-.009c.251.244.535.463.779.707.624.622,1.259,1.224,1.867,1.865,1.13,1.2,2.249,2.435,3.447,3.563.585.552,1.18,1.047,1.8,1.553.172.144.353.277.539.408.709-.323,1.42-.644,2.153-.914a11.173,11.173,0,0,1,1.106-.338c-1.59-1.42-3.183-2.856-4.708-4.331a46.377,46.377,0,0,1-4.61-4.9.133.133,0,0,1,.017-.188.137.137,0,0,1,.188.017A33.2,33.2,0,0,0,36.636-12.5c.91.925,1.909,1.848,2.888,2.7.949.827,1.872,1.678,2.812,2.515.41.369.822.737,1.235,1.11a9.422,9.422,0,0,1,1.353-.164c.081-.024.164-.05.233-.074.591-.183,1.069-.434,1.6-.591-.223-.194-.441-.391-.661-.589C44.032-9.435,42.086-11.4,40.173-13.4l0-.122.122,0c1.069,1.137,2.214,2.234,3.349,3.307s2.269,2.107,3.436,3.124a3.566,3.566,0,0,1,.611-.065A2.006,2.006,0,0,1,49.2-6.5a4.248,4.248,0,0,1,.26.774,4.061,4.061,0,0,0,.192.452,5.043,5.043,0,0,0,.417.779q.35.311.7.615c-.153-.1-.305-.205-.46-.31l.216.264.157.033c.6.281,1.224.517,1.826.8s1.211.587,1.793.925a.657.657,0,0,1,.305-.369.657.657,0,0,1,.888.257c.087.223.22.454.323.672.035.079.068.153.1.227a.7.7,0,0,1,.633.511.75.75,0,0,1,.017.277l-.017.05.168.168c.133.153.312.327.484.519A.739.739,0,0,1,58.481.3c.079.209.185.412.26.626a9.247,9.247,0,0,1,.319,1.224,11.669,11.669,0,0,1,.216,2.073c.312.371.62.757.929,1.128a18.778,18.778,0,0,0,4.069,4.056.154.154,0,0,1,.041.214.156.156,0,0,1-.216.041c-.052-.031-.107-.061-.164-.1V9.6l-1.276,1.276h-.137v-.135L63.8,9.465c-.137-.094-.268-.2-.384-.295a13.369,13.369,0,0,1-1.047-.905c-.452-.456-.877-.916-1.3-1.4-.582-.663-1.145-1.366-1.7-2.051-.033-.037-.061-.074-.094-.111,0,.358-.024.735-.052,1.132a7.941,7.941,0,0,1-.059.884c-.015.092-.026.183-.037.275a4.428,4.428,0,0,1-.181,1.18c-.02.094-.037.185-.055.279.94.862,1.887,1.719,2.825,2.579a.127.127,0,1,1-.17.188q-1.352-1.237-2.71-2.474c-.013.07-.026.142-.037.212s-.028.116-.109.116a7.67,7.67,0,0,1-.478,2.271,5.152,5.152,0,0,0,.055.681c.022.146.039.3.061.452.118.17.236.327.338.46.654.877,1.385,1.719,2.123,2.548.316.253.635.506.956.753.14.109.281.218.428.329.325.035.707.041.888.31a1.31,1.31,0,0,1,.124.314c.009.031.02.063.026.1a9.59,9.59,0,0,0,2,1.01.186.186,0,1,1-.137.345,8.754,8.754,0,0,1-1.782-.857,6.042,6.042,0,0,1-.015.842c.037.065.076.127.113.19a8.146,8.146,0,0,1,.783,1.527,10.44,10.44,0,0,1,.07,1.283,8.1,8.1,0,0,0,.493,1.913c.083.218.181.441.288.661a1.009,1.009,0,0,1,.142-.011.671.671,0,0,1,.644.692c-.013.247-.024.491-.033.735a11.482,11.482,0,0,1,1.651,4.241c.015.122,0,.29,0,.419a4.843,4.843,0,0,1-.046,1.023,2.267,2.267,0,0,1-.1.336c-.022.068-.087.175-.1.24a.927.927,0,0,1-.415.436q-.131.782-.255,1.569c.881.921,1.817,1.75,2.753,2.651a19.721,19.721,0,0,1,2.686,2.943.128.128,0,1,1-.209.148c-.432-.593-.846-1.121-1.333-1.684-.449-.515-1-1.047-1.5-1.521-.822-.779-1.645-1.556-2.424-2.38v0c-.087.541-.148,1.106-.253,1.641q-.124.638-.262,1.265c.541.484,1.062.98,1.573,1.51,1.03,1.069,2.011,2.245,2.965,3.384.685.818,1.368,1.651,2.079,2.448.548.611,1.069,1.241,1.645,1.824a.207.207,0,1,1-.3.281c-1.3-1.3-2.439-2.871-3.6-4.3-.764-.938-1.5-1.867-2.3-2.773-.242-.275-.487-.563-.742-.822-.46-.463-.9-.9-1.366-1.324-.19.846-.393,1.689-.593,2.533a.705.705,0,0,1,.155.7c-.264.722-.526,1.446-.772,2.173-.007.024-.015.048-.022.072.336.262.674.521,1.008.792a19.692,19.692,0,0,1,1.623,1.512c.343.356.72.709,1.041,1.08.393.452.807.888,1.2,1.337a47.807,47.807,0,0,0,4.619,4.826.155.155,0,0,1-.2.236A23.807,23.807,0,0,1,71.754,50.3c-1.176-1.23-2.273-2.561-3.4-3.837A30.073,30.073,0,0,0,65.584,43.7c-.316-.275-.646-.526-.975-.779-.072.225-.14.449-.207.676l-.022.118c-.089.358-.207.718-.34,1.1-.079.312-.157.661-.2.96-.057.382-.1.733-.148,1.115l-.007.052.089.284c.133.356.319.707.465,1.041a14.349,14.349,0,0,1,.707,1.822l-.015-.048c.177.628,1.058,1.134,1.545,1.558A3.056,3.056,0,0,1,67.6,53.215l.013.052.068.074a2.872,2.872,0,0,1,.218.281,1.842,1.842,0,0,1,.205.436c.161.161.323.329.487.5.82.873,1.608,1.782,2.409,2.675.319.353.626.733.96,1.071s.65.724.995,1.071a20.583,20.583,0,0,0,2.716,2.43,4.037,4.037,0,0,0,1.326.639.109.109,0,1,1-.065.207c-1.575-.38-3.408-2.437-4.459-3.532-.5-.521-.971-1.082-1.455-1.619-.958-1.065-1.881-2.147-2.862-3.187-.026-.026-.055-.055-.083-.079a.606.606,0,0,1,.118.41l0,.052.5,1.466c.161.534.308,1.1.443,1.658a49.868,49.868,0,0,0,6.628,7.524l0,.151-.151,0a53.421,53.421,0,0,1-6.37-7.219c.041.17.079.338.118.5.076.334.164.67.233,1.006a5.99,5.99,0,0,1,.157.753,2.242,2.242,0,0,1-.124.652,9.209,9.209,0,0,0,.251,1.477c.135.569.238,1.2.345,1.776.046.247.118.489.179.731.052.209.109.432.168.657a.7.7,0,0,1,.26-.085.641.641,0,0,1,.7.567c.009.142.02.286.031.425q.743.671,1.5,1.329c.633.552,1.268,1.106,1.9,1.662a13.64,13.64,0,0,1,1.115,1.045l.011.144-.144.011a15.638,15.638,0,0,1-1.5-1.235c-.659-.567-1.3-1.148-1.944-1.732q-.448-.4-.894-.809a15.106,15.106,0,0,0,.364,2.26c.172.2.347.4.526.613a16.716,16.716,0,0,1,1.63,2.149c.2.323.371.67.532.99a2.815,2.815,0,0,1,.384,1.017q.01.144.013.288c.244.24.5.473.744.709.737.709,1.512,1.473,2.2,2.227.552.606,1.121,1.2,1.675,1.8.86.929,1.7,1.891,2.526,2.851l.894.251c.026.009.057.015.087.024.264-.033.528-.059.794-.076.31-.022.6,0,.905,0a.806.806,0,0,1,.443.131,1.689,1.689,0,0,1,.82.279l.151.118.037.028.133.013.2,0,.386-.007a3.442,3.442,0,0,1,.465.076l.308.007h.039A2.139,2.139,0,0,0,88.138,82.837Zm-7.151-5.253a23.973,23.973,0,0,1-4.173-5.7.169.169,0,0,1,.074-.225.167.167,0,0,1,.223.076,25.724,25.724,0,0,0,4.806,6.279c.779.818,1.595,1.551,2.4,2.334.646.63,1.355,1.259,2.042,1.848a.2.2,0,0,1-.268.3C84.292,80.95,82.625,79.3,80.987,77.584Zm7.782.82A96.8,96.8,0,0,1,80.71,69a.107.107,0,1,1,.168-.133,104.313,104.313,0,0,0,7.3,8.513c.674.683,1.368,1.324,2.094,1.948.377.323.772.674,1.169.971a.171.171,0,0,1,.026.238.174.174,0,0,1-.24.026C90.368,79.862,89.565,79.179,88.769,78.4Zm11.144-9.772a22.615,22.615,0,0,1-4.184-4.06c-1.18-1.388-2.326-2.821-3.464-4.239l.055-.044c1.329,1.649,2.681,3.275,4.1,4.856a17.171,17.171,0,0,0,5.513,4.3.135.135,0,0,1-.113.244A12.768,12.768,0,0,1,99.912,68.633Zm.415-2.941c-1.83-1.8-3.532-3.717-5.214-5.655l.1-.089a57.921,57.921,0,0,0,8.035,7.9.16.16,0,0,1,.024.227.164.164,0,0,1-.227.024A30.038,30.038,0,0,1,100.327,65.692Zm27.515.761a2.012,2.012,0,0,1-1.283-.79,5.855,5.855,0,0,1-1.041-2.738c-.046-.041-.094-.085-.137-.127-.19-.168-.532-.382-.637-.6a.96.96,0,0,1-.074-.4,3.24,3.24,0,0,1,.484-1.785c-.026-.151-.057-.3-.089-.428l-.127-.305-.118-.118a1.161,1.161,0,0,1-.264-.995,2.046,2.046,0,0,1,.369-.524,1.973,1.973,0,0,0,.135-.251c.05,0,.118-.052.168-.024l.188.083.194-.423c.127-.238.316-.511.5-.8-.12.022-.238.044-.36.068-.159.035-.321.113-.48.153a.3.3,0,1,1-.179-.567c.31-.07.6-.194.923-.255-.19-.231-.382-.463-.565-.7l.1-.085c.2.257.432.5.633.759h0l.314-.026a2.114,2.114,0,0,0,.216-.6,2.3,2.3,0,0,0-.041-1.056l-.135-.345-.157-.249a3.226,3.226,0,0,1-.281-1.137,6.078,6.078,0,0,1,.556-2.653l.2-.393a2.313,2.313,0,0,1-.048-1.117c.1-.489.711-.9,1.056-1.2l.179-.177.009-.079a.655.655,0,0,1,.192-.452,3.462,3.462,0,0,1,.567-.351c.031-.013.061-.031.085-.044a11.561,11.561,0,0,1,3.521-1.931l-.681.253a16.91,16.91,0,0,1,1.747-.8l.816-.26.264-.487c.161-.244.338-.48.484-.683a.679.679,0,0,1,.157-.166.385.385,0,0,1,.028-.044c.351-.548.685-1.108,1.041-1.658a8.347,8.347,0,0,1,.814-.986,3.053,3.053,0,0,1,1.281-.873,1.621,1.621,0,0,1,1.091.543,1.881,1.881,0,0,1,.7-.094.711.711,0,0,1,.463.31,7.767,7.767,0,0,1,.388,1.54c.035.177.076.358.107.534a8.089,8.089,0,0,1-.262,4.621,3.771,3.771,0,0,1-.439.8l-.146.168c1.058.958,2.116,1.924,3.187,2.869a.107.107,0,0,1,.007.151.111.111,0,0,1-.151.007c-1.071-.942-2.129-1.909-3.185-2.867l-.268.308-.5,1.139q-.275.553-.563,1.1c-.17.641-.369,1.292-.576,1.911-.063.177-.129.351-.194.526.113.074.227.146.345.214a.181.181,0,0,1,.052.247.178.178,0,0,1-.244.052c-.094-.057-.188-.118-.277-.179-.026.076-.052.153-.076.229l.015-.05c-.131.384-.264.812-.375,1.2-.065.229-.172.482-.251.711-.284.825-.6,1.641-.923,2.454-.393,1.01-.827,2-1.252,3-.373.873-.8,1.715-1.206,2.572a12.27,12.27,0,0,1-2.1,3.229,7.1,7.1,0,0,1-1.942,1.067,4.435,4.435,0,0,1-.971.216.864.864,0,0,1-.129.083A.644.644,0,0,1,127.842,66.453Zm1.185-1.518a7.015,7.015,0,0,0,.67-.24l.868-.487.227-.194a3.664,3.664,0,0,0,.305-.377c.155-.205.295-.423.428-.641a.709.709,0,0,1,.07-.449c.471-.982,1.049-1.924,1.431-2.952.153-.417.275-.833.425-1.244a11.565,11.565,0,0,0,.323-1.22,39.812,39.812,0,0,1-4.4-4.363l-.838-.923a6.254,6.254,0,0,1-.22,2.448,2.469,2.469,0,0,1-.386.785c1.156,1.361,2.409,2.679,3.687,3.916-.223,0-.34-.188-.487-.323-.273-.249-.556-.539-.809-.807-.84-.884-1.673-1.771-2.467-2.7l-.017.017a.02.02,0,0,1,0,.022,4.216,4.216,0,0,1-.545,1.014c-.094.133-.2.271-.321.412.377.5.746,1,1.1,1.521.4.6.827,1.237,1.261,1.813.286.375.552.805.86,1.163a.251.251,0,1,1-.415.284c-.7-1.1-1.353-2.23-2.049-3.334-.279-.443-.578-.87-.866-1.307l-.205.257a.454.454,0,0,1,.264.36c0,.113.024.236.037.349a3.7,3.7,0,0,1-.364,1.715.222.222,0,0,0-.02.055,7.374,7.374,0,0,1,.336,1.774c.052.432.107.853.181,1.274a9.4,9.4,0,0,1,.86,1.22c.168.29.375.6.515.9.046.1.1.209.151.323A1.522,1.522,0,0,0,129.026,64.935Zm-20.6-3.3.022-.017.277-.205-.1-1.357c-.031-.242-.083-.489-.12-.735l-.015-.013C108.445,60.078,108.445,60.857,108.425,61.632ZM67.1,56.972c-.17-.633-.384-1.257-.611-1.87-.035-.1-.072-.539-.028-.528l-.081-.109A1.209,1.209,0,0,1,66,53.944c-.107-.321-.044-.465-.321-.724l-.039-.035c.085.205.164.417.244.611.362.888.681,1.8,1.023,2.7.081.216.159.428.238.641C67.129,57.079,67.114,57.026,67.1,56.972Zm66.821-.469a9.621,9.621,0,0,1,.327-1.342q.262-.74.574-1.451c-.214-.229-.43-.458-.646-.692-.34-.362-.7-.8-1.069-1.128-.4-.362-.774-.733-1.185-1.089-.24-.207-.513-.388-.759-.6a.146.146,0,0,1-.026-.205.148.148,0,0,1,.205-.024c.24.2.515.38.748.587.441.388.884.79,1.287,1.215.528.556,1.034,1.137,1.54,1.715.428-.962.914-1.891,1.418-2.821a24.376,24.376,0,0,1-3-3.995.183.183,0,0,1,.05-.251.186.186,0,0,1,.253.05,25.594,25.594,0,0,0,2.871,3.875c.107-.192.214-.384.321-.58.129-.229.253-.465.369-.7.388-1.473.722-2.943,1.054-4.433.129-.572.253-1.185.4-1.73.011-.116.035-.229.048-.343a5.878,5.878,0,0,0,.022-.742l-.009-.683-.109-.644a8.35,8.35,0,0,0-1.843,1.451c-.164.271-.314.537-.454.774a4.872,4.872,0,0,1-1.372,1.682,5.506,5.506,0,0,1-.543.209c-.484.192-.988.356-1.479.535-.4.146-.864.316-1.246.5-.251.118-.493.247-.74.373l-.026.017-.275.161-.465.273a5.026,5.026,0,0,0-1.475,1.7,3.375,3.375,0,0,0-.223.55,4.134,4.134,0,0,1-.164.58,2.268,2.268,0,0,1-.118.229c.052.24.1.48.144.709.061.391.122.8.168,1.211.371.408.746.816,1.119,1.213a42.894,42.894,0,0,0,4.243,4.086C133.88,56.669,133.9,56.586,133.922,56.5ZM68.914,50.929a20.009,20.009,0,0,0-1.85-1.85,4.892,4.892,0,0,0-.5-.4c-.168-.113-.325-.244-.491-.353-.212-.137-.439-.253-.65-.393l-.028-.116.113-.028c.231.151.5.281.718.443a14.093,14.093,0,0,1,2.3,2.02c.467.528.934,1.045,1.39,1.586A22,22,0,0,0,74.459,56.4l.024.131-.131.022C72.19,55.126,70.585,52.873,68.914,50.929Zm58.745,1.3c-.046-.312-.1-.62-.175-.923-.031.168-.055.336-.072.48a2.24,2.24,0,0,0,.14,1.008c.065.129.111.214.157.319A5.7,5.7,0,0,0,127.658,52.233ZM103.2,37.392A58.518,58.518,0,0,1,93.173,27.153l.02-.131.131.02a45.3,45.3,0,0,0,6.988,7.437c2.014,1.793,4.08,3.523,6.128,5.28a.149.149,0,0,1-.194.227C105.22,39.135,104.215,38.253,103.2,37.392ZM70.665,32.269c-.753-.986-1.355-2.035-2.2-2.95a3.3,3.3,0,0,0-.5-.463c-.094-.063-.181-.135-.273-.2s-.251-.122-.36-.192a.105.105,0,0,1-.046-.137.107.107,0,0,1,.14-.046,3.663,3.663,0,0,1,.79.513,2.9,2.9,0,0,0,.244.218c.129.113.249.268.375.393a11.133,11.133,0,0,1,.916,1.163,16.468,16.468,0,0,0,2.409,2.939,5.231,5.231,0,0,0,.731.467.17.17,0,0,1-.166.3A6.424,6.424,0,0,1,70.665,32.269Zm34.934-.188c-.185-.142-.391-.271-.58-.408-.439-.321-.86-.681-1.27-1.038a61.347,61.347,0,0,1-4.612-4.765c-.7-.757-1.409-1.479-2.123-2.219v-.133h.131c.484.515.99,1.01,1.475,1.525,1.265,1.346,2.491,2.723,3.783,4.049a23.513,23.513,0,0,0,3.953,3.412C106.23,32.531,105.72,32.175,105.6,32.082ZM71.684,26.953a18.723,18.723,0,0,1-1.412-1.442c-.692-.768-1.313-1.612-2-2.376-.295-.325-.587-.672-.9-.982-.268-.271-.561-.517-.829-.781a4.4,4.4,0,0,0-.349-.284,10.441,10.441,0,0,0-1.357-.9c-.225-.122-.469-.223-.7-.336a.114.114,0,0,1-.052-.148.112.112,0,0,1,.146-.052c.19.1.388.185.58.275a9.185,9.185,0,0,1,1.822,1.2,56.079,56.079,0,0,1,4.125,4.392c.24.26.491.5.75.733l.347.3-.05-.391a4.1,4.1,0,0,1,.044-.984,4.122,4.122,0,0,1,.465,1.5c.022.181.161.515-.07.606C72.064,27.365,71.811,27.068,71.684,26.953Zm-4.712-8.958c-.785-.624-1.357-1.449-2.11-2.116a3.826,3.826,0,0,0-1.006-.624c-.12-.05-.247-.087-.367-.144a.159.159,0,1,1,.116-.3c.2.089.4.155.6.251a5.18,5.18,0,0,1,1.344.995c.329.308.67.707.982,1.043a6.4,6.4,0,0,0,1.062.877,4.619,4.619,0,0,0,.755.467c-.065.087-.262.022-.358.007A2.257,2.257,0,0,1,66.972,17.995Zm52.66-11.349a55.891,55.891,0,0,1-5.373-5.456c-.415-.463-.82-.942-1.246-1.392-.41-.436-.805-.9-1.228-1.32-.142-.14-.268-.3-.412-.432-.233-.214-.449-.454-.678-.676-.3-.29-.611-.567-.905-.86l0-.137.137,0c.284.281.583.545.868.822.744.724,1.5,1.5,2.188,2.269.9,1.008,1.815,2.02,2.738,3A37.856,37.856,0,0,0,120.9,7.281a16.442,16.442,0,0,0,1.6,1.036c.161.092.319.2.484.281.329.159.663.323.988.489a.141.141,0,0,1-.124.253A19.754,19.754,0,0,1,119.632,6.646Zm-14.185-.3c-1.012-1.248-2-2.529-3-3.794l.116-.089q2.386,3.04,4.791,6.069A13.438,13.438,0,0,1,105.447,6.345Zm7.479-.231c-.2-.231-.395-.473-.589-.711-.868-1.056-1.717-2.129-2.59-3.179-.628-.753-1.263-1.518-1.872-2.286-.373-.471-.779-.918-1.161-1.381-.7-.855-1.44-1.7-2.166-2.531s-1.51-1.645-2.273-2.461c-.268-.29-.561-.563-.829-.853a.149.149,0,0,1,0-.212.15.15,0,0,1,.209,0c.484.524,1,1.032,1.5,1.553,1.215,1.281,2.419,2.686,3.528,4.058,1.261,1.562,2.542,3.111,3.77,4.7,1.071,1.385,2.155,2.788,3.264,4.141A3.778,3.778,0,0,1,112.926,6.114Zm13.369-9.041c-2.219-1.937-4.217-4.032-6.253-6.152-.777-.807-1.545-1.627-2.31-2.446,1.021,1.68,2.038,3.364,3.078,5.033a.116.116,0,0,1-.057.159.106.106,0,0,1-.135-.046c-1.185-1.9-2.345-3.831-3.512-5.749a.112.112,0,0,1-.013-.085c-1.675-1.789-3.353-3.582-5.107-5.293a.149.149,0,0,1,0-.214.149.149,0,0,1,.214,0c.757.768,1.523,1.523,2.273,2.3,1.523,1.566,3.019,3.157,4.529,4.734A88.54,88.54,0,0,0,130.737.1a.211.211,0,0,1,.046.292.209.209,0,0,1-.292.044A49.694,49.694,0,0,1,126.295-2.927ZM59.965-1.653c-.737-.722-1.468-1.462-2.195-2.2l.059-.059Q59.573-2.145,61.343-.4A9.513,9.513,0,0,1,59.965-1.653ZM55.052-3.547c-.572-.375-1.2-.792-1.732-1.222A37.769,37.769,0,0,1,50.23-7.436c-.713-.716-1.457-1.438-2.107-2.217-.423-.506-.836-1-1.25-1.518l.015-.122.122.015A18.311,18.311,0,0,0,48.4-9.618c.244.255.478.528.722.785.349.367.722.711,1.073,1.073.48.5,1.049.949,1.571,1.407A33.473,33.473,0,0,0,54.528-4.2c1.331.936,2.646,1.846,4.038,2.69.277.168.548.349.831.508A49.434,49.434,0,0,1,55.052-3.547Zm73.767-3.366c-5.36-4.352-9.926-9.754-14.294-15.071a.156.156,0,0,1,.022-.22.158.158,0,0,1,.22.02q1.685,2.062,3.423,4.073c.964,1.121,1.939,2.262,2.958,3.331,1.091,1.145,2.175,2.265,3.294,3.384,1.1,1.1,2.265,2.118,3.43,3.144a46.058,46.058,0,0,0,6.052,4.514.214.214,0,0,1,.063.295.217.217,0,0,1-.3.063A46.3,46.3,0,0,1,128.819-6.913ZM25.4-5.246c-.648-.565-1.235-1.145-1.826-1.767-.613-.646-1.215-1.348-1.852-1.961-.439-.423-.881-.838-1.322-1.259l.063-.068c.264.253.541.493.807.742.517.484,1.019,1.017,1.508,1.532A21.477,21.477,0,0,0,26.559-4.6a.1.1,0,0,1,.024.14.1.1,0,0,1-.14.022A7.644,7.644,0,0,1,25.4-5.246Zm5.382.127A17.814,17.814,0,0,1,28.776-6.5a30.982,30.982,0,0,1-4.913-4.974.109.109,0,0,1,.015-.155.109.109,0,0,1,.155.015,28.306,28.306,0,0,0,1.911,2.182A21.606,21.606,0,0,0,27.626-7.8q.674.56,1.35,1.119c.358.3.785.561,1.169.827a16.448,16.448,0,0,0,1.536.881.154.154,0,0,1,.065.2.154.154,0,0,1-.205.063A6.932,6.932,0,0,1,30.785-5.12Zm3.761-.295-.122,0c-.3-.281-.58-.587-.866-.879-.445-.458-.9-.91-1.353-1.366Q31.07-8.82,29.937-9.982c-.879-.9-1.7-1.854-2.518-2.806l.083-.068c1.128,1.388,2.4,2.675,3.656,3.951,1.113,1.13,2.251,2.265,3.39,3.368Zm82.566-2.954c-.707-.663-1.39-1.366-2.062-2.062-1.021-1.054-2.066-2.088-3.155-3.063a.03.03,0,0,1-.009-.007s-.007,0-.009-.009c-.862-.77-1.782-1.442-2.657-2.195.467.369.949.733,1.416,1.1.22.179.445.362,1.241,1.093-.362-.362-.166-.194.009.009h0s0,0,0,.007a12.812,12.812,0,0,1,1.137,1c1.617,1.566,3.148,3.268,4.819,4.769C117.706-7.753,117.248-8.239,117.112-8.368ZM17.08-10.763c-.434-.471-.844-.96-1.27-1.438-.731-.814-1.473-1.621-2.21-2.433a70.553,70.553,0,0,1-6.364-7.7.128.128,0,0,1,.031-.177.126.126,0,0,1,.177.033A60.842,60.842,0,0,0,13.923-14.8c.737.781,1.5,1.564,2.221,2.363.417.465.833.934,1.257,1.392a.218.218,0,0,1-.017.3A.218.218,0,0,1,17.08-10.763ZM139.356-13.85a.926.926,0,0,1,1.228-.449.947.947,0,0,1,.323.251c.013-.037.026-.079.044-.118l.026-.325a5.306,5.306,0,0,1-1.023-.074,9.065,9.065,0,0,1-1.669-.48c-.38.116-.75.242-1.119.367.347.2.7.393,1.043.6.264.161.543.314.8.484.061.044.122.085.185.129C139.243-13.6,139.3-13.724,139.356-13.85ZM132.329-15l.676-.061c.615-.127,1.224-.305,1.846-.5.153-.046.305-.1.46-.146l-.116-.083-.017,0-1.612.4c-.34.113-.683.242-1.028.373Zm3.244-.794-.133,0-.1,0,.072.048C135.469-15.755,135.519-15.772,135.573-15.792ZM14.912-35.093c-.528-.508-1-1.145-1.54-1.636-.325-.3-.672-.674-.975-1-.53-.569-1.1-1.126-1.586-1.732-.445-.554-.918-1.078-1.364-1.634-.188-.231-.423-.484-.587-.729l.015-.137.14.015c.3.447.74.9,1.082,1.331a39.011,39.011,0,0,0,3.128,3.395c.46.452.894.929,1.348,1.388.179.181.343.4.526.569a.129.129,0,0,1-.009.179A.125.125,0,0,1,14.912-35.093Zm99.862-.781a7.94,7.94,0,0,0-.12-.844q-.749-1.077-1.527-2.136c.015.236.039.471.076.707.026.175.092.345.124.5a1.55,1.55,0,0,0,.068.3,3.012,3.012,0,0,0,.122.295,10.769,10.769,0,0,0,1.126,1.534c.055.065.109.135.164.2C114.793-35.5,114.782-35.689,114.774-35.874Zm-1.193-3.253-.316-.554c-.063-.109-.127-.216-.192-.327,0,.046,0,.094,0,.137.111.146.22.292.329.436Zm-2.337-3.12-.015-.041-.277-.482c-.321-.541-.716-1.045-1.041-1.577a9.725,9.725,0,0,0-.58-.84c-.286-.364-.539-.788-.816-1.165-.456-.62-.87-1.283-1.324-1.9-.345-.471-.648-.984-.986-1.46-.67-.945-1.287-1.981-1.876-2.98a15.246,15.246,0,0,1-1.3-2.646c-.024-.068-.05-.137-.076-.209l-.613-.617c-.434-.432-.873-.9-1.32-1.313l-.768-.744.137.055c.48.674.925,1.394,1.326,2.083.445.772.844,1.569,1.259,2.356.325.62.624,1.281.98,1.883.482.816.938,1.558,1.5,2.328a12.174,12.174,0,0,0,1.215,1.361.218.218,0,0,1,.168.089c1.353,2.044,2.893,3.96,4.424,5.873ZM94.423-45.3a43.314,43.314,0,0,1-6.224-8.65c-.722-1.244-1.446-2.557-2.079-3.851a.118.118,0,0,1,.05-.155.117.117,0,0,1,.155.048c.395.809.842,1.614,1.278,2.4a58.762,58.762,0,0,0,3.078,5.04,35.392,35.392,0,0,0,3.947,4.968.146.146,0,0,1,0,.2A.146.146,0,0,1,94.423-45.3Zm6.218-2.7C98-50.377,96.252-53.495,94.389-56.49a.162.162,0,0,1,.052-.223.168.168,0,0,1,.225.052c.626,1.012,1.25,2.042,1.909,3.035.421.637.833,1.294,1.294,1.9a22.314,22.314,0,0,0,2.225,2.677,12.5,12.5,0,0,0,2.834,2.208.191.191,0,0,1,.063.26.193.193,0,0,1-.26.065A13.132,13.132,0,0,1,100.641-48Zm-10.69.329a32.465,32.465,0,0,1-2.275-2.987C86.882-51.813,86.109-53,85.391-54.2c-.62-1.034-1.263-2.062-1.859-3.107-.281-.5-.6-.975-.875-1.473l.1-.059c.249.454.539.929.812,1.37.3.482.582.986.875,1.477.452.753.914,1.5,1.366,2.251.482.807,1.008,1.634,1.542,2.406a42.417,42.417,0,0,0,2.74,3.67C90.049-47.666,90-47.668,89.951-47.672ZM32.888-63.965a4.4,4.4,0,0,0-1.23-1.27,4.773,4.773,0,0,0-.735-.377c-.094-.039-.223-.07-.308-.116a.116.116,0,0,1-.07-.146.117.117,0,0,1,.146-.072c.181.085.388.142.576.231a4.428,4.428,0,0,1,1.741,1.5,9.932,9.932,0,0,1,.713,1.259,14.452,14.452,0,0,0,1.4,2.668,4.8,4.8,0,0,0,.733.74.142.142,0,0,1,.011.194.142.142,0,0,1-.194.011C34.219-60.465,33.868-62.5,32.888-63.965Zm37.69,3.281.059.122h.175C70.733-60.6,70.655-60.646,70.578-60.683ZM59.962-62a6.308,6.308,0,0,1-.561-.572c-.188-.2-.38-.4-.561-.606a4.33,4.33,0,0,1-.8-1.176,7.763,7.763,0,0,1-1.143-1.68,9.7,9.7,0,0,1-1.374-2.018l.087-.041A11.443,11.443,0,0,0,56.9-66.033a3.552,3.552,0,0,0,1.143,1.68,21.007,21.007,0,0,0,2.35,2.635C60.215-61.676,60.078-61.905,59.962-62ZM56.9-62.045l-.081-.013-.122-.02c-.044-.035-.172-.284-.229-.345-.118-.129-.218-.343-.327-.484-.194-.255-.395-.508-.589-.764A19.343,19.343,0,0,0,54.3-65.154c-.687-.737-1.346-1.551-1.961-2.352a10.539,10.539,0,0,1-.99-1.486l.127-.076a10.631,10.631,0,0,0,.9,1.359c.6.814,1.272,1.6,1.948,2.354.517.572,1.03,1.178,1.5,1.791.153.2.338.412.476.617C56.5-62.647,56.692-62.335,56.9-62.045Zm4.4-4.08a.4.4,0,0,0,.131.4,2.175,2.175,0,0,0,.6.515C60.082-67.732,59.356-68.633,61.3-66.124Zm-1.514-3.824a.32.32,0,0,0,.009-.037,1.03,1.03,0,0,1-.059-.273l-.083-.842-.489.039c-.548.026-1.093.026-1.638.009.648.8,1.3,1.606,1.955,2.409A9.086,9.086,0,0,1,59.788-69.949Zm-31.429.535.013-.022Zm.013-.022.214-.321c-.068.05-.135.1-.2.157A1.337,1.337,0,0,0,28.372-69.436Z" transform="translate(-4.484 73.858)"/></g></g></svg>