<svg xmlns="http://www.w3.org/2000/svg" width="92.042" height="145.483" viewBox="0 0 92.042 145.483"><defs><style>.a{fill-rule:evenodd;}</style></defs><g transform="translate(0 0)"><g transform="translate(0 0)"><path class="a" d="M58.387,71.011c-1.268.01-2.581-.044-3.851-.119-2.154-.127-4.238-.3-6.378-.6-.984-.137-1.943-.326-2.919-.521a21.168,21.168,0,0,1-2.362-.61c-2.178-.7-5.122-1.913-5.856-4.294-.058-.046-.129-.109-.165-.145a2.759,2.759,0,0,1-.544-2.134,5.673,5.673,0,0,1,.014-.876,3.812,3.812,0,0,1,.556-.687,7.588,7.588,0,0,1,1.383-1.192,13.538,13.538,0,0,1,5.037-1.9c.225-.111.449-.213.662-.3.666-.286,1.359-.5,2.047-.719.334-.109.672-.221,1.009-.316s.693-.2,1.025-.318c.525-.189,1.059-.35,1.586-.54.378-.139.751-.232,1.131-.356A8.006,8.006,0,0,0,52.49,54.6l.066-.177c-.012-.594,0-1.2-.01-1.784-.016-.9-.036-1.8-.066-2.7-.072-2.1-.223-4.22-.381-6.32-.109-1.482-.264-2.963-.374-4.445a.123.123,0,1,1,.246-.02c.111,1.429.266,2.855.378,4.284.157,1.983.316,3.962.431,5.947.068,1.176.1,2.343.133,3.519,0,.145.006.294.01.441.111-.368.215-.743.3-1.121.06-.266.1-.542.159-.807.028-.125.064-.266.085-.391a28.836,28.836,0,0,0-.1-8.468c-.111-.791-.276-1.609-.435-2.392A16.326,16.326,0,0,1,52.5,38a15.222,15.222,0,0,0-.294-2.009c-.125-.03-.252-.062-.378-.089a3.745,3.745,0,0,1-.606-.236c-.232-.032-.461-.076-.685-.1A27.073,27.073,0,0,1,47.5,34.94c-1.5-.376-2.99-.781-4.471-1.236a.257.257,0,0,1,.143-.493c.244.074.487.145.727.211-1.154-.463-2.285-.986-3.4-1.56-.757-.387-1.532-.819-2.249-1.274-.562-.354-1.1-.729-1.653-1.1a19.9,19.9,0,0,1-2.432-2.066,30,30,0,0,1-2.8-3.032c-.31-.381-.632-.785-.912-1.186a30.907,30.907,0,0,1-2.271-3.7c-.165-.209-.312-.433-.473-.646-.433-.574-.888-1.2-1.262-1.818-.143-.236-.3-.465-.427-.711-.155-.316-.312-.628-.467-.942-.272-.56-.507-1.18-.727-1.764a22.116,22.116,0,0,1-1.063-3.7c-.083-.427-.171-.838-.23-1.27a25.264,25.264,0,0,1-.33-3.372,18.625,18.625,0,0,1,.137-2.045c-.024-.03-.05-.058-.074-.089l.01-.111.1.008h-.012c.012-.1.024-.207.036-.312a.1.1,0,0,1,.058-.089,38.5,38.5,0,0,1-.324-4.061c-.032-1.137-.036-2.309.03-3.445,0-.123.014-.246.024-.368a.312.312,0,0,1-.244-.016.3.3,0,0,1-.129-.407,2.641,2.641,0,0,0,.236-.56c-.187-.2-.372-.4-.554-.6l0-.119.119.006q.245.272.5.538c.02-.046.04-.091.062-.133.066-.127.133-.254.2-.383,0-.038.008-.077.014-.115s.012-.091.018-.139a.326.326,0,0,1-.254.016.346.346,0,0,1-.219-.437c.268-.825.546-1.653.827-2.478-.117-.149-.232-.3-.342-.447l.113-.091c.091.127.187.252.286.376.06-.175.119-.348.179-.523q.208-1,.451-1.991a46.845,46.845,0,0,1,3.8-10.471,31.488,31.488,0,0,1,1.868-3.11c.417-.89.835-1.776,1.264-2.666.364-.755.713-1.548,1.144-2.269.246-.415.5-.809.771-1.2-.346-3.239-.725-6.473-1.357-9.674-.028-.016-.056-.034-.081-.05-.109-.062-.215-.157-.326-.219-.26-.147-.515-.282-.777-.423a.135.135,0,0,1-.06-.179.134.134,0,0,1,.177-.062c.171.1.439.213.628.3q.169.079.344.169c-.31-1.5-.723-2.945-1.15-4.413-.091-.3-.191-.6-.294-.9a.174.174,0,0,1-.1.159.173.173,0,0,1-.225-.091c-.185-.411-.372-.825-.556-1.238a1.145,1.145,0,0,1-.322-.213,1.2,1.2,0,0,1-.213-.264,3.227,3.227,0,0,1-.091-.477,3.736,3.736,0,0,1-.115-.568.9.9,0,0,1,.441-.852c.924-.483,1.792-1.053,2.754-1.476.23-.1.485-.23.721-.308a12.682,12.682,0,0,1,2.13-.6c.5-.074.968-.119,1.46-.165-.03-.089-.058-.177-.089-.268-.221-.674-.423-1.359-.636-2.037-.552-1.745-1.135-3.463-1.721-5.194-.187-.548-.393-1.105-.6-1.649-.042-.109-.1-.276-.155-.417a16.893,16.893,0,0,1-2.726-.24c-.505-.066-1.091-.125-1.582-.242-.4-.1-.8-.219-1.208-.32-.854-.209-1.7-.441-2.549-.666-.97-.262-1.937-.554-2.915-.771a12.169,12.169,0,0,0-1.2-.232c-.175-.02-.374-.066-.552-.068a2.517,2.517,0,0,0-.427.012.622.622,0,0,1-.125.018l-.27.068A.747.747,0,0,1,19.25-66a.847.847,0,0,1-.676-.755c0-.018-.008-.036-.012-.056l-.113-.036a.342.342,0,0,1-.234-.423.337.337,0,0,1,.278-.242,5.718,5.718,0,0,1,.163-1.464,5.391,5.391,0,0,1,.423-2.263,5.321,5.321,0,0,1,.316-.6c-.225,0-.455,0-.684-.006a.263.263,0,0,1-.262-.266.264.264,0,0,1,.266-.264,9,9,0,0,0,1.087-.044,4.583,4.583,0,0,1,1.254-1.045,1.759,1.759,0,0,1,.332-.165c-.211-.095-.419-.2-.626-.294a.285.285,0,0,1-.141-.376A.288.288,0,0,1,21-74.442c.2.1.407.191.61.28a.532.532,0,0,1,.268-.215h.348a.516.516,0,0,1,.326.592c.6.221,1.206.407,1.818.566a8.343,8.343,0,0,1,1.15-.046c.32.014.652.066.968.074a.477.477,0,0,1,.27.133c1.051.034,2.1.1,3.157.213.521.058,1.057.1,1.574.177,1.427.219,3.716.485,4.866,1.413a.761.761,0,0,1,.292.5,1.388,1.388,0,0,1,.133.189c.111.042.219.087.326.131.314.135.626.274.942.4a.568.568,0,0,1,.294.741.568.568,0,0,1-.717.3c.072.141.145.286.217.427a.673.673,0,0,1,.211.3c.077.227.159.455.256.67.437.922.8,1.9,1.19,2.845.225.55.423,1.115.626,1.675.028.079.054.157.085.232.139.328.28.656.413.984q.758,1.869,1.51,3.743c.346.862.7,1.723,1.047,2.585.066-.012.133-.018.2-.028.272-.034.548-.062.819-.095s.56-.089.844-.111c1.256-.095,2.533-.169,3.793-.223,2.9-.123,5.82-.074,8.719-.046,1.435.014,2.875.07,4.308.117,1.178.04,2.394.07,3.563.167,1.476.123,2.951.246,4.419.453.022,0,.042.008.064.01q2.482.136,4.946.471v0l.383-.862c.129-.262.26-.527.395-.787a.459.459,0,0,1,.058-.147,8.713,8.713,0,0,1,.548-.982c.143-.258.29-.513.441-.773.378-.648.8-1.286,1.212-1.915l.84-1.276c.652-1.46,1.347-2.905,2.094-4.282a.265.265,0,0,1,.352-.115.266.266,0,0,1,.115.352c-.173.316-.342.634-.507.958.372-.548.747-1.1,1.109-1.653a.3.3,0,0,1-.252-.232.038.038,0,0,1,0-.016c-.3-.028-.61-.048-.916-.07a.28.28,0,0,1-.232-.32.283.283,0,0,1,.32-.232c.342.1.7.2,1.057.276.087-.016.171-.032.258-.052a.118.118,0,0,1,.127-.06.115.115,0,0,1,.044.022.236.236,0,0,0,.036-.008.482.482,0,0,0,.026-.042c.1-.155.191-.312.288-.467-.215-.113-.431-.23-.644-.352a.4.4,0,0,1-.157-.542.4.4,0,0,1,.542-.157q.269.163.55.314a.477.477,0,0,1,.179-.109.6.6,0,0,0,.081-.022c.1-.157.2-.314.3-.471a.627.627,0,0,1,.66-.284c.487-.606.872-1.405,1.264-1.874.03-.038.064-.079.1-.121A5.815,5.815,0,0,0,82.6-70.023a7.269,7.269,0,0,0-1.858,2.053c-.159.268-.31.513-.449.793a2.225,2.225,0,0,1-.256.465l-.089.046a2.372,2.372,0,0,1-.294,0,2.618,2.618,0,0,0-.413.079,2.059,2.059,0,0,0-.932.719.222.222,0,0,1-.31.024.219.219,0,0,1-.024-.308,2.4,2.4,0,0,1,1.371-.922,1.872,1.872,0,0,1,.28-.022l.121-.008.143-.3c.066-.143.137-.284.213-.415.113-.189.211-.393.332-.576a9.72,9.72,0,0,1,1.417-1.739,7.406,7.406,0,0,1,6.4-1.687,10.468,10.468,0,0,1,1.178.221,24.747,24.747,0,0,1,3.344,1.188c.668.292,1.315.606,1.973.914a18.62,18.62,0,0,0,3.422.691c.544.048,1.081.127,1.629.163.34.022.68.052,1.021.072.109,0,.213,0,.322.016a.815.815,0,0,1,.7.584,1.564,1.564,0,0,1-.058.777c-.04.28-.113.6-.141.872-.018.2-.07.4-.087.6a11.165,11.165,0,0,0-.054,1.3,17.942,17.942,0,0,1,1.842,3.253c.9.672,1.951,1.2,2.9,1.768.423.254.833.507,1.248.773a4.21,4.21,0,0,1,.54.364.9.9,0,0,1,.254.749,1.206,1.206,0,0,1-.234.509c-.064.1-.109.223-.163.332-.064.129-.143.25-.205.378a4.968,4.968,0,0,0-.521,1.965c-.095,2.341,1.47,4.3,2.49,6.287.364.713.87,1.949.415,2.74l-.081.095-.018.125a2.179,2.179,0,0,1-.083.234,1.994,1.994,0,0,1-.84.759c-.254.095-.4.093-.527.318a2.145,2.145,0,0,0-.113,1.043,10.4,10.4,0,0,0,.314,1.814,3.185,3.185,0,0,1,.137,1.1,5.222,5.222,0,0,1-1.4,2.037c-.221.26-.431.521-.642.789a3,3,0,0,0-.529.922,1.015,1.015,0,0,1-1.327.538,1.013,1.013,0,0,1-.606-.769c-.083.006-.165.01-.25.012,0,.02-.006.038-.01.056a1.068,1.068,0,0,1-1.031.835.3.3,0,0,1-.034.018,1.011,1.011,0,0,1-1.214-.268c-.085-.014-.171-.028-.256-.04-.266-.03-.558-.089-.823-.133-.366-.06-.739-.1-1.107-.153-.141.123-.284.246-.425.366-.026-.075.087-.242.207-.4-.153-.022-.31-.04-.467-.058-3.946.151-7.807.364-11.592-.362a.213.213,0,0,1-.238-.04.053.053,0,0,1-.012-.01,21.233,21.233,0,0,1-2.319-.6,5.055,5.055,0,0,0,.958.594.372.372,0,0,1,.161.5.373.373,0,0,1-.5.159,7.987,7.987,0,0,1-1.071-.656,5.9,5.9,0,0,1-.58-.542c-.068-.064-.133-.127-.2-.2-.113.7-.209,1.4-.284,2.106a.254.254,0,0,1-.278.219.252.252,0,0,1-.219-.278c.081-.749.149-1.5.215-2.249a3.493,3.493,0,0,1-.467.02.286.286,0,0,1-.306-.264.286.286,0,0,1,.246-.306c-.062-.028-.129-.06-.193-.091-.044.173-.085.344-.125.519-.06.781-.091,1.56-.1,2.333a24.229,24.229,0,0,0,.2,3.453.427.427,0,0,1,.455-.334.421.421,0,0,1,.374.461,3.873,3.873,0,0,0-.274.991.249.249,0,0,1-.274.223.217.217,0,0,1-.083-.022c.04.234.085.469.131.7a14.444,14.444,0,0,0,.519,1.858,6.9,6.9,0,0,0,.292.751c.145.3.284.584.437.88a.455.455,0,0,1-.189.612.122.122,0,0,1-.022.012c.27.509.548,1.021.779,1.538.521,1.178,1.081,2.345,1.649,3.5.707,1.441,1.411,2.891,2.142,4.32.695,1.349,1.361,2.752,1.985,4.135.205.451.417.916.6,1.373.083.207.213.463.276.654.115.35.268.7.389,1.049a30.756,30.756,0,0,1,.926,3.191c.072.322.163.652.213.978.042.284.107.576.161.858.074.378.123.781.183,1.164.087.548.131,1.1.193,1.651a32.9,32.9,0,0,1,.183,4.5A35.6,35.6,0,0,1,90.321,17a31.071,31.071,0,0,1-1.566,2.978,25.068,25.068,0,0,1-3.076,4.075c-.189.207-.368.431-.558.636-.471.507-.914,1.047-1.391,1.55a22.02,22.02,0,0,1-2.486,2.3,21.229,21.229,0,0,1-3.179,1.963c-1.222.634-2.436,1.278-3.686,1.874a51.964,51.964,0,0,1-6.628,2.692c-.612.2-1.286.391-1.973.546a.925.925,0,0,1-.765.743q-.918.133-1.836.217a4.448,4.448,0,0,0-.219.918c-.3,3.11-.417,6.235-.427,9.355-.006,1.631.064,3.286.133,4.912.018.453.038.91.064,1.363,0,.089.008.179.014.268.2.127.4.268.61.4,0-.282.012-.562.018-.84.024-1.286.081-2.559.149-3.843.181-3.322.5-6.65.8-9.961a.122.122,0,1,1,.244.02c-.205,2.287-.409,4.582-.556,6.875-.068,1.117-.117,2.235-.177,3.352-.062,1.184-.079,2.376-.1,3.561-.006.348,0,.7,0,1.057q.072.039.145.072c.507.244,1,.519,1.516.749.417.185.84.356,1.256.544.9.4,1.888.745,2.814,1.093l.385.147c1,.171,2.005.316,3,.511a13.7,13.7,0,0,1,5.156,1.921,8.247,8.247,0,0,1,1.731,1.572,1.875,1.875,0,0,1,.223.292,5.058,5.058,0,0,1,.024.936c0,.1,0,.215,0,.326a3.134,3.134,0,0,1,.413,2.476,4.56,4.56,0,0,1-.676,1.431,4.816,4.816,0,0,1-.431.556,7.065,7.065,0,0,1-.527.568,10.173,10.173,0,0,1-2.923,1.7,25.77,25.77,0,0,1-4.117,1.292,15.964,15.964,0,0,1-1.721.25c-.572.068-1.146.131-1.717.179-1.78.149-3.614.31-5.4.328-.7.008-1.415.048-2.122.05C59.963,71.017,59.174,71.005,58.387,71.011Zm2.482-1.852c-.085-.026-.171-.054-.256-.083a.121.121,0,1,1,.062-.234c.389.1.783.2,1.188.292L63.1,69.1c1.321-.044,2.661-.119,3.994-.23a9.849,9.849,0,0,1-1.16-.272c-.809-.248-1.613-.509-2.406-.809a19.019,19.019,0,0,0,2.559.682c.32.058.638.131.956.2.145.034.3.056.455.076,2.039-.121,2.476-.173,2.911-.232a8.812,8.812,0,0,0,1.3-.264c.536-.131,1.067-.278,1.588-.459a17.5,17.5,0,0,0,3.215-1.367l.872-.644.471-.509c.1-.141.191-.286.29-.423a1.688,1.688,0,0,0,.187-.389,1.572,1.572,0,0,0,.1-.678,1.622,1.622,0,0,0-.36-.755,6.419,6.419,0,0,0-1.854-1.454c-.431-.234-.852-.447-1.292-.666-.471-.234-.972-.453-1.462-.65-.556-.223-1.1-.465-1.669-.666-.6-.211-1.194-.455-1.79-.676-.57-.213-1.148-.419-1.715-.644-1.419-.564-2.867-1.069-4.24-1.741-.161-.076-.32-.155-.477-.232a.551.551,0,0,0-.01.1c-.006-.04-.012-.076-.02-.117-.2-.1-.395-.2-.59-.306a4.424,4.424,0,0,0,.232.481,2.6,2.6,0,0,1,.558.4c.1.1.185.205.284.3a.317.317,0,0,1-.308.523.3.3,0,0,1-.187.256.161.161,0,0,1,.026.038,3.194,3.194,0,0,1,.115.4.406.406,0,1,1-.8.133.946.946,0,0,1-.024-.123.851.851,0,0,1-.725-.453c-.056-.133-.107-.266-.155-.4-.018.342-.036.685-.052,1.027.717.693,1.45,1.365,2.19,2.037a.44.44,0,0,1,0,.618h-.618c-.588-.626-1.162-1.254-1.749-1.876a.394.394,0,0,1-.25.068A.38.38,0,0,1,61.143,59c.008-.087.018-.171.028-.258l-.36-.368a.323.323,0,0,1,0-.455h.451c.054-.477.107-.954.151-1.433-.431-.161-.548-.584-.693-1.011a10.88,10.88,0,0,1-.348-1.345,2.387,2.387,0,0,1-.519-.833.9.9,0,0,1,.205-1.246.088.088,0,0,1,.03-.016,10.332,10.332,0,0,1-.217-1.713,32.79,32.79,0,0,1-.076-3.358c.026-.717.07-1.431.121-2.148a22.952,22.952,0,0,1,.266-2.406c.155-.884.336-1.747.558-2.617.163-.638.33-1.339.55-1.957a2.194,2.194,0,0,1,.217-.383c.113-.179.213-.368.326-.548.046-.074.093-.151.137-.225a33.109,33.109,0,0,1-3.406.036c-.974-.04-2-.064-2.963-.191-.65-.085-1.321-.129-1.967-.252-.095-.014-.185-.032-.274-.046.008.091.018.183.028.278.038.113.083.223.127.332.169.435.348.884.5,1.323a7.59,7.59,0,0,1,.183.745c.3,1.3.6,2.583.833,3.9.1.552.189,1.1.266,1.653.024.191.062.385.074.576.026.385.087.771.113,1.156.058.805.058,1.588.054,2.394a15.986,15.986,0,0,1-.155,1.959c-.038.278-.079.548-.121.815a.311.311,0,0,1,.085.284c-.076.3-.155.582-.244.882a3.476,3.476,0,0,1-.127.346c0,.028-.012.06-.018.095-.079.346-.177.691-.284,1.033.056.9.127,1.8.215,2.7.074.757.135,1.558.252,2.309a.378.378,0,1,1-.753.062c-.032-.521-.066-1.041-.1-1.562-.107.34-.236.674-.35.978a.8.8,0,0,1-.205.274c.165.209.334.413.5.612.515.648,1.053,1.3,1.623,1.9.457.483.884.876,1.375,1.313a5.678,5.678,0,0,0,.721.584.243.243,0,1,1-.268.4,8.46,8.46,0,0,1-.793-.54,5.7,5.7,0,0,1-.437-.419,19.068,19.068,0,0,1-1.633-1.88c-.433-.55-.85-1.107-1.28-1.659-.038-.048-.077-.1-.117-.149a.769.769,0,0,1-.538-.044.8.8,0,0,1-.393-1.057,4.935,4.935,0,0,0,.3-.578c.038-.121.095-.24.137-.358a5.988,5.988,0,0,0,.143-.668c.022-.1.042-.207.06-.306-.064.034-.127.07-.191.1l-.183.1c-.012.1-.026.2-.038.294-.014-.085-.022-.169-.034-.256a14.689,14.689,0,0,1-1.341.618c-.141.091-.282.177-.427.264a3.463,3.463,0,0,1-.4.225c-1.55.646-3.157,1.067-4.725,1.613l-1.534.6-.6.318c-.193.1-.415.223-.6.344-.425.284-.894.525-1.325.823-.594.413-1.146.813-1.713,1.256a5.233,5.233,0,0,0-1.405,1.526l.022.348a3.423,3.423,0,0,0,.1.366c.4,1.206,2.035,2.023,3.125,2.494a10.035,10.035,0,0,0,1.174.435c.511.139,1.011.294,1.526.427a54.661,54.661,0,0,0,11.6,1.357C57.74,69.2,59.3,69.2,60.869,69.159Zm-2.817-7.324c-.3-.348-.592-.711-.876-1.067-.215-.272-.459-.54-.691-.8a3.57,3.57,0,0,0-.4-.413c-.054-.04-.119-.111-.171-.159s-.151-.1-.215-.165a.211.211,0,1,1,.258-.334c.133.119.3.258.447.374a7.808,7.808,0,0,1,.739.785c.332.374.672.763.995,1.148a8.949,8.949,0,0,0,1.985,1.923.275.275,0,0,1-.308.455A9.26,9.26,0,0,1,58.053,61.835Zm-5.345,1.51a7.1,7.1,0,0,1-2.188-1.983c-.376-.455-.777-.956-1.182-1.387-.165-.175-.336-.344-.5-.519a.124.124,0,0,1,.179-.171c.519.546.995,1.091,1.494,1.657a12.571,12.571,0,0,0,1.949,1.911,6.278,6.278,0,0,0,.914.656A3.109,3.109,0,0,1,52.707,63.345Zm9.931-.3c-.336-.356-.666-.723-1.021-1.061-.872-.829-1.794-1.663-2.607-2.547a9.138,9.138,0,0,1-.878-1.035.182.182,0,0,1,.288-.221,6.87,6.87,0,0,0,.852.974,26.06,26.06,0,0,0,2.364,2.025c.455.368.966.751,1.407,1.17l.211.219.052-.026c.137-.064.276-.117.425-.175h.129V62.5c-.119.31-.3.966-.723.926C62.953,63.41,62.761,63.178,62.639,63.049ZM37.053,62.88A9.618,9.618,0,0,1,40.115,59.9c.3-.219.622-.443.944-.648-.244.087-.483.177-.721.268-.141.054-.28.133-.421.189a7.958,7.958,0,0,0-1.2.672,7.288,7.288,0,0,0-1.411,1.222l-.3.366-.01.536c-.008.191-.032.413-.044.642A1.328,1.328,0,0,1,37.053,62.88ZM52.14,59.868c-.3-.445-.61-.87-.912-1.309a.187.187,0,1,1,.3-.217c.334.483.687.972,1.031,1.45A13.22,13.22,0,0,0,55.083,62.7a.267.267,0,0,1-.354.4A14.766,14.766,0,0,1,52.14,59.868Zm-4.429.827a.311.311,0,1,1,.59-.2,2.03,2.03,0,0,0,.687,1.1.312.312,0,1,1-.431.451A2.606,2.606,0,0,1,47.711,60.7Zm31.571.648v-.139l-.334-.4a8.5,8.5,0,0,0-1.141-1.029,13.1,13.1,0,0,0-4.487-1.844,33.749,33.749,0,0,1,3.294,1.494,11.084,11.084,0,0,1,2.672,1.882ZM52.846,55.707a.016.016,0,0,1-.008-.008l-.026.022ZM61.8,47.1a2.456,2.456,0,0,0-.022.437c0,.465.01.936.026,1.433C61.8,48.282,61.8,47.632,61.8,47.1Zm.3-.644a.392.392,0,0,1,.05,0c.056-2.09.2-4.183.368-6.267.026-.348.056-.7.089-1.053-.05.193-.095.389-.137.578-.211.976-.306,1.953-.431,2.941a29.684,29.684,0,0,0-.223,4.091A.286.286,0,0,1,62.1,46.452ZM59.657,35.073c.674-.026,1.373-.1,2.045-.165.177-.016.356-.034.536-.052a1,1,0,0,1,.03-.268c-.278-.006-.558-.012-.844-.024a7.014,7.014,0,0,1-1.007-.1,9.463,9.463,0,0,1-1.82-.56c.169,0,.364-.012.534-.024.455-.028.942-.044,1.4-.032.717.018,1.425.091,2.148.087a.207.207,0,0,1,.034,0,1.069,1.069,0,0,1,.515-.191c.089-.634.179-1.268.282-1.9l.111.014c-.1.626-.193,1.25-.278,1.876a18.876,18.876,0,0,0,5.408-1.325c1.288-.473,2.561-1.017,3.805-1.6.805-.374,1.6-.761,2.388-1.158.381-.189.759-.4,1.139-.586.3-.149.6-.32.9-.477l.995-.538,1.47-.93a21.417,21.417,0,0,0,3.684-3.495c.435-.5.89-.982,1.3-1.468.429-.505.868-1,1.262-1.542.179-.244.348-.5.527-.745s.34-.519.505-.773a28.977,28.977,0,0,0,1.528-2.812,20.5,20.5,0,0,0,.964-2.331,34.262,34.262,0,0,0,1.949-9.754,35.321,35.321,0,0,0-.374-7.876,37.336,37.336,0,0,0-.856-3.839L89.3-9.439l-.586-1.476c-.4-.982-.89-2.005-1.359-2.957-.842-1.719-1.675-3.455-2.5-5.184-.546-1.144-1.1-2.283-1.6-3.449-.157-.368-.34-.727-.489-1.1-.2-.5-.356-1.033-.531-1.54-.048-.131-.091-.26-.135-.391a66.053,66.053,0,0,0,1.437,6.829.108.108,0,0,1-.081.131.111.111,0,0,1-.133-.081c-.306-1.154-.572-2.327-.844-3.491-.368-1.582-.7-3.219-.936-4.828-.034-.228-.066-.457-.1-.687q-.248-.87-.473-1.756a27.868,27.868,0,0,1-.894-5.285c-.022.083-.046.163-.064.242a.17.17,0,0,1-.187.141.167.167,0,0,1-.139-.187,8.138,8.138,0,0,1,.107-1.309,13.039,13.039,0,0,1,.324-1.307A11.747,11.747,0,0,1,80.4-38.78a.113.113,0,0,1,.133-.087.113.113,0,0,1,.089.133q-.066.272-.115.544c.044-.107.091-.213.141-.32.081-.171.161-.35.256-.527.012-.266.026-.536.046-.8.008-.129.018-.26.028-.395-.01-.014-.022-.026-.034-.042a.25.25,0,0,1,.012-.35.318.318,0,0,1,.066-.044c.07-.66.173-1.335.3-1.961.095-.479.183-1,.324-1.476q-.679-.673-1.351-1.353a6.525,6.525,0,0,1-.7.3c-.7.3-1.425.584-2.148.829-.942.322-1.882.632-2.849.884a43.66,43.66,0,0,1-6.064,1.117,58.928,58.928,0,0,1-7.972.4c-.986-.022-1.989-.044-2.974-.125-.866-.072-1.719-.139-2.583-.238-2.357-.264-4.683-.713-7-1.206-.234-.046-.463-.1-.695-.151a.783.783,0,0,1-.284.3.981.981,0,0,1-.409.109.744.744,0,0,1-.24-.02.945.945,0,0,1-.463-.286,1.26,1.26,0,0,1-.159-.308l-.052-.125a.774.774,0,0,1-.089-.095c-.191-.05-.385-.1-.574-.153-.821-.217-1.653-.437-2.464-.693-.242-.075-.481-.149-.723-.221.163.213.33.423.505.624a.2.2,0,0,1-.03.278.2.2,0,0,1-.28-.03,11.982,11.982,0,0,1-.815-1.029c-.264-.042-.529-.089-.791-.139a.887.887,0,0,1-.37.181.89.89,0,0,1-.976-.441c-.618-.121-1.24-.246-1.844-.4-.723-.189-1.448-.411-2.154-.656a13.449,13.449,0,0,1,1.113,1.218c.3.389.622.767.926,1.158a17.328,17.328,0,0,0,1.82,2.094c-.433-.389-.833-.783-1.23-1.21-.838-.906-1.6-1.937-2.484-2.794-.173-.169-.391-.4-.574-.554l-.157-.125c-.02-.008-.036-.014-.048-.02-.471-.177-1-.366-1.458-.59a32.073,32.073,0,0,1,1.5,5.669c.113.63.191,1.258.256,1.886.161.234.314.481.473.751a6.547,6.547,0,0,1,.322.854.166.166,0,0,1-.072.219.167.167,0,0,1-.219-.072c-.137-.2-.27-.393-.4-.592.038.451.07.9.107,1.355.01.135.018.264.024.395.187.149.366.3.544.467a.186.186,0,0,1,.1,0,65.912,65.912,0,0,0,8.476,2.156,64.336,64.336,0,0,0,20.927.95A56.979,56.979,0,0,0,72.3-34.971c1.941-.517,3.829-1.043,5.728-1.7-.04.238-.4.3-.578.4a7.537,7.537,0,0,1-.755.338c-.427.179-.864.374-1.3.536-.835.31-1.661.62-2.515.878-.872.264-1.764.5-2.664.711.326.352.662.693.993,1.039.393.417.775.844,1.172,1.258.572.6,1.127,1.206,1.705,1.8.489.5,1,1.017,1.51,1.484.338.306.7.6,1.031.91a20.717,20.717,0,0,0,2.43,1.923.159.159,0,0,1,.04.217.159.159,0,0,1-.215.04,22.617,22.617,0,0,1-4.975-4.4c-.827-.924-1.655-1.86-2.494-2.776-.449-.487-.912-.962-1.359-1.452-.846.193-1.7.36-2.543.5-1.252.205-2.51.4-3.775.525a61.9,61.9,0,0,1-10.944.121c-1.373-.107-2.736-.268-4.1-.443-1.007-.131-2.029-.3-3.028-.489-.833-.155-1.681-.306-2.5-.5-2.355-.56-4.715-1.262-7.022-2.015.244.236.483.471.725.707A13.607,13.607,0,0,0,40.7-32.281a.135.135,0,0,1,.06.177.137.137,0,0,1-.177.06,9.6,9.6,0,0,1-.98-.531A13.923,13.923,0,0,1,37.336-34.5c-.286-.278-.582-.568-.858-.856-.3-.31-.628-.6-.924-.9a.117.117,0,0,1-.028-.01.2.2,0,0,1-.131-.151c-.123-.115-.268-.246-.385-.336.01.636-.02,1.262-.05,1.909a9.774,9.774,0,0,1-.07,1.111c-.081.473-.175.936-.278,1.4a35.063,35.063,0,0,0,3.36,2.98c.475.372,1,.769,1.51,1.093a.113.113,0,0,1,.026.151.111.111,0,0,1-.151.024,21.9,21.9,0,0,1-1.874-1.381,34.472,34.472,0,0,1-2.927-2.619c-.026.113-.05.225-.077.336-.06.264-.123.542-.205.8s-.145.552-.238.819c-.012.036-.024.072-.036.107.066.1.135.191.2.282a1.742,1.742,0,0,0,.219-.348.224.224,0,0,1,.282-.137.224.224,0,0,1,.139.282,2.056,2.056,0,0,0-.044.429c-.01.056-.052.151-.068.213a1.861,1.861,0,0,0-.042.183,12.029,12.029,0,0,0,4.826,3.5.234.234,0,0,1,.121.306.234.234,0,0,1-.306.121,11.768,11.768,0,0,1-3.507-2.128c-.28-.266-.542-.55-.815-.813a4.75,4.75,0,0,1-.449-.523c-.054.153-.113.3-.163.455s-.2.26-.219.393a.307.307,0,0,1-.207.191,18.338,18.338,0,0,0,1.818,1.85c.393.34.8.618,1.22.92-.05.018-.1.04-.153.056a14.442,14.442,0,0,1-3-2.819.19.19,0,0,1-.06-.016.3.3,0,0,1-.2-.3c-.227-.276-.461-.544-.691-.817-.173.366-.348.731-.517,1.1-.143.31-.284.616-.425.924.652.687,1.331,1.347,1.957,2.064.648.743,1.288,1.49,1.933,2.237a.141.141,0,0,1-.018.193.141.141,0,0,1-.193-.018c-.654-.761-1.27-1.57-1.945-2.313-.334-.37-.666-.751-1.009-1.109-.272-.282-.548-.56-.819-.842q-.58,1.271-1.133,2.551-.622,1.437-1.226,2.9a21.075,21.075,0,0,0,2.1,2.166,27.513,27.513,0,0,0,3.922,2.812c.2.125.395.258.6.374a.139.139,0,0,1,.044.189.141.141,0,0,1-.189.044c-.558-.318-1.071-.707-1.6-1.063a15.446,15.446,0,0,1-1.427-1.081c-.481-.413-.988-.8-1.445-1.242a26.991,26.991,0,0,1-2.017-2.144c-.489,1.186-.956,2.382-1.387,3.573-.344.948-.668,1.9-1.017,2.853-.06.161-.119.322-.177.483,1.085,1.162,2.2,2.349,3.356,3.447a23.151,23.151,0,0,0,3.39,2.8.1.1,0,0,1,.028.133.1.1,0,0,1-.133.026A17.646,17.646,0,0,1,30.729-10c-1.343-1.278-2.617-2.629-3.879-3.978-.213.588-.421,1.174-.618,1.768-.062.183-.119.368-.171.554.409.36.825.717,1.234,1.065.868.747,1.727,1.524,2.627,2.229.636.5,1.248,1.027,1.9,1.5.751.55,1.506,1.083,2.3,1.564a.136.136,0,0,1,.042.185.139.139,0,0,1-.187.044,30.426,30.426,0,0,1-3.586-2.561c-1.077-.894-2.086-1.844-3.133-2.77-.413-.366-.831-.735-1.246-1.105-.081.278-.155.558-.236.833-.054.185-.117.37-.177.556a.218.218,0,0,1,0,.205,6.46,6.46,0,0,0-.3.763c-.044.165-.093.342-.127.517l0,0c.687.761,1.375,1.506,2.106,2.225,1.574,1.548,3.284,3.036,5,4.421.664.536,1.323,1.079,2,1.6a.136.136,0,0,1,.02.189.134.134,0,0,1-.187.02C32.65-1.294,31.2-2.5,29.809-3.722c-1.252-1.1-2.436-2.311-3.592-3.515-.374-.389-.729-.793-1.085-1.2a20.279,20.279,0,0,0-.453,2.782c-.022.262-.044.519-.064.777C25.952-3.595,27.353-2.393,28.8-1.2,30.3.047,31.9,1.277,33.5,2.4a.108.108,0,0,1,.024.149.111.111,0,0,1-.149.026,69.62,69.62,0,0,1-7.4-5.919c-.463-.435-.924-.868-1.375-1.307-.052.749-.087,1.5-.1,2.245.314.364.638.725.976,1.063a36.285,36.285,0,0,0,6.334,5.12.106.106,0,1,1-.115.179c-1.176-.763-2.271-1.55-3.374-2.416a34.387,34.387,0,0,1-3.068-2.814c-.262-.258-.511-.534-.757-.815a31.142,31.142,0,0,0,.151,3.358c.077.773.147,1.542.242,2.315.05.415.109.829.173,1.24a40.923,40.923,0,0,0,5.611,3.992c.644.411,1.288.825,1.931,1.238.461.3.908.614,1.367.91a.132.132,0,0,1,.038.179.135.135,0,0,1-.181.038c-.483-.312-.956-.642-1.439-.952-1.1-.709-2.211-1.4-3.3-2.134A32.732,32.732,0,0,1,25.1,5.086c.185,1.125.419,2.245.682,3.354q.118.507.254,1.011l.25.205c1.5,1.254,3.016,2.486,4.528,3.726,1.069.876,2.162,1.689,3.276,2.508.721.529,1.526,1.113,2.3,1.568-.054.014-.141.052-.193.03a5.573,5.573,0,0,1-.477-.316c-.775-.489-1.522-1.053-2.265-1.586C31.53,14.206,29.68,12.62,27.858,11.1c-.586-.485-1.176-.966-1.764-1.448.352,1.309.777,2.605,1.26,3.879.038.07.076.141.119.207a.137.137,0,0,1,.01.1c.066.185.139.368.211.55.8.654,1.621,1.286,2.436,1.9a56.872,56.872,0,0,0,7.352,4.8.115.115,0,1,1-.113.2C36.046,20.58,34.79,19.815,33.525,19c-.5-.328-.991-.678-1.49-1.013-.735-.5-1.431-1.049-2.148-1.57-.455-.33-.908-.695-1.347-1.051-.223-.181-.447-.358-.67-.538.556,1.351,1.176,2.674,1.852,3.952.139.264.282.521.429.777.682.534,1.369,1.049,2.076,1.554,1.637,1.174,3.37,2.239,5.067,3.322,1.019.652,2.033,1.313,3.064,1.941a6.1,6.1,0,0,1-1.264-.711c-.276-.159-.55-.344-.819-.513-.5-.318-1-.626-1.506-.94-1.572-.988-3.167-1.967-4.675-3.05-.61-.439-1.2-.884-1.788-1.337.213.362.433.727.65,1.089.236.4.505.767.739,1.162.076.131.155.258.232.387.288.173.576.346.862.523.447.282.888.58,1.333.868,1.121.721,2.2,1.52,3.322,2.245a30.831,30.831,0,0,0,5.967,3.211,5.527,5.527,0,0,1-1.057-.37c-.183-.085-.387-.161-.574-.24a15.909,15.909,0,0,1-1.425-.709c-.217-.119-.449-.23-.658-.36-.463-.286-.928-.552-1.387-.85-1.345-.872-2.637-1.806-3.964-2.7-.781-.525-1.556-1.019-2.349-1.5.36.582.737,1.144,1.131,1.691a19.65,19.65,0,0,0,2.659,2.37,19.51,19.51,0,0,0,2.913,2,11.555,11.555,0,0,0,1.349.652c-.1.091-.3-.05-.4-.093-.006,0-.01,0-.006,0,.544.334,1.061.711,1.6,1.065.862.57,1.745,1.089,2.657,1.57a19.527,19.527,0,0,0,2.929,1.1,23.967,23.967,0,0,0,4.866.918c.378.03.809.079,1.19.079l.06,0c-.024-.2-.052-.4-.081-.61-.066-.481-.143-.964-.2-1.448l.113-.014c.04.378.109.763.163,1.142.042.31.087.622.129.93.38.006.761.024,1.146.006.62-.028,1.242-.079,1.864-.081.381,0,.761.03,1.139.038.153,0,.32.026.471.02a11.3,11.3,0,0,1-1.743.546,7.848,7.848,0,0,1-1.248.121c-.525.012-1.031.022-1.54.02.012.093.024.181.038.268.221.042.447.079.68.109A31.861,31.861,0,0,0,59.657,35.073ZM53.03,34.59c-.125,0-.248,0-.37-.006a.543.543,0,0,1,.137.109l.131.012a.138.138,0,0,1,.119.129.022.022,0,0,1,.01,0C53.046,34.753,53.036,34.673,53.03,34.59Zm-.755-.018c-.111-.006-.219-.014-.33-.022.087.024.171.04.258.058A.305.305,0,0,1,52.275,34.572Zm-3.167-.256a35.371,35.371,0,0,1-5.11-1.7.376.376,0,0,1-.036-.014c-.052-.022-.117-.052-.181-.081a1.159,1.159,0,0,1-.185-.1A28.988,28.988,0,0,1,40.636,31c-.34-.185-.693-.364-1.027-.566.477.34.974.656,1.474.972A23.369,23.369,0,0,0,47.8,34.326a12.989,12.989,0,0,0,1.466.24.026.026,0,0,0,.012,0A.389.389,0,0,1,49.108,34.316ZM37.948,29.09a26.668,26.668,0,0,1-2.36-1.937,2.255,2.255,0,0,0,.181.161c.207.179.413.368.624.544s.425.334.618.513c.441.415.922.8,1.407,1.176C38.254,29.4,38.1,29.247,37.948,29.09Zm.332-.606c-.238-.127-.457-.282-.687-.423a18.539,18.539,0,0,1-1.729-1.22q.752.637,1.536,1.23c.469.219.946.427,1.4.684C38.615,28.671,38.446,28.575,38.281,28.484Zm15.766-4.494c-.9-.719-1.814-1.415-2.688-2.16l.042-.05c.842.715,1.737,1.393,2.613,2.066,1.518,1.166,3.07,2.287,4.622,3.408a.087.087,0,0,1,.02.123.089.089,0,0,1-.125.02C57.016,26.286,55.516,25.164,54.046,23.991Zm-1.319,3.139a7.722,7.722,0,0,1-1-.791c-.777-.666-1.506-1.454-2.307-2.076-.2-.157-.421-.348-.628-.485a6.367,6.367,0,0,1-.628-.447c.234.149.481.29.7.451.415.3.8.632,1.192.962A32.151,32.151,0,0,0,53.088,27.3C52.957,27.347,52.828,27.186,52.728,27.129Zm2.025-1.017c-.5-.383-1.021-.829-1.48-1.254-1.675-1.556-3.35-3.114-4.991-4.709l.058-.058c.932.906,1.884,1.8,2.827,2.7a49.837,49.837,0,0,0,4.218,3.743C55.19,26.515,54.916,26.237,54.753,26.112Zm6.513-2.223c-2.639-1.915-5.051-4.167-7.584-6.229,2,1.592,3.968,3.225,5.989,4.789.91.707,1.836,1.429,2.786,2.078.552.372,1.1.719,1.659,1.071.4.254.833.523,1.252.741l-.175.079A29.844,29.844,0,0,1,61.266,23.89Zm-2.076,1.3c-1.045-.765-2.033-1.566-3.01-2.418-1.737-1.51-3.422-3.078-5.1-4.659,1.061.966,2.16,1.9,3.235,2.853a52.336,52.336,0,0,0,6.615,5.212l.026.115-.115.024C60.277,25.992,59.717,25.579,59.19,25.194Zm4.107-3a72.6,72.6,0,0,1-7.8-6.644l.05-.054c1.466,1.427,3,2.76,4.6,4.037.886.707,1.81,1.377,2.724,2.047,1.826,1.341,3.682,2.6,5.593,3.815a.111.111,0,1,1-.121.187C66.629,24.492,64.934,23.381,63.3,22.191Zm7.147,2.134c-1.071-.884-2.178-1.752-3.3-2.577q-1.884-1.389-3.749-2.812c-.829-.636-1.665-1.266-2.472-1.931-.493-.409-.995-.8-1.486-1.214-.58-.481-1.137-.995-1.691-1.5-.35-.326-.729-.668-1.057-1.015l.107-.1a64.21,64.21,0,0,0,7.155,5.919c1.085.8,2.156,1.609,3.237,2.408.668.493,1.315,1,1.971,1.51A23.134,23.134,0,0,1,71.5,24.977h-.23A6.8,6.8,0,0,1,70.444,24.325Zm3.962-2.541c-.8-.4-1.558-.858-2.329-1.307-1.81-1.053-3.586-2.267-5.281-3.5-2.869-2.082-5.7-4.212-8.546-6.33l.054-.074A148.745,148.745,0,0,0,74.156,21.383c.546.3,1.083.618,1.627.924.246.137.489.292.741.419C75.8,22.43,75.1,22.134,74.406,21.784Zm3.286-2.9c-.4-.135-.773-.292-1.168-.447a18.791,18.791,0,0,1-1.836-.942,31.24,31.24,0,0,1-3.525-2.3c-1.7-1.24-3.306-2.649-4.872-4.051q-2.419-2.162-4.834-4.32l.083-.093c.314.284.64.558.96.835.26.227.511.467.779.691.292.248.576.517.862.771.614.548,1.228,1.093,1.848,1.633,1.661,1.448,3.336,2.909,5.126,4.2.976.7,1.921,1.363,2.943,1.993A28.337,28.337,0,0,0,77.229,18.5c.519.232,1.061.509,1.594.7C78.449,19.086,78.068,19.012,77.692,18.889ZM27.133,17.057c-.076-.123-.151-.246-.227-.37.1.193.2.385.3.576Q27.167,17.16,27.133,17.057Zm-.58-2.215c-.225-.566-.443-1.139-.646-1.721A37.715,37.715,0,0,1,24.538,8.38a.306.306,0,0,0-.026-.02l-.012.012c-.25-1.065-.459-2.142-.62-3.229a1.883,1.883,0,0,1-.052-.316c.022.133.034.264.046.395.066.9.133,1.909.284,2.8.121.707.24,1.4.374,2.1s.356,1.387.54,2.076c.085.318.2.628.3.94.054.173.113.358.175.542.391.737.8,1.476,1.236,2.207C26.7,15.545,26.618,15.2,26.554,14.842Zm48.607-2.319c-1.047-.622-2.064-1.311-3.094-1.961-1.115-.7-2.2-1.478-3.294-2.215-1.021-.691-2.021-1.4-3.03-2.106-.66-.463-1.341-.918-1.989-1.391l-.02-.1.107-.02c1.222.844,2.472,1.655,3.694,2.5,1.206.835,2.426,1.649,3.654,2.454,1.6,1.045,3.195,2.094,4.832,3.076,1.45.87,2.913,1.687,4.393,2.5a.127.127,0,0,1,.052.167.125.125,0,0,1-.167.05C78.549,14.534,76.866,13.538,75.161,12.523Zm4.874-.715c-.872-.4-1.758-.837-2.607-1.284-.6-.318-1.238-.62-1.826-.968-.733-.435-1.464-.868-2.194-1.307A41.225,41.225,0,0,1,68.98,5.108a37.314,37.314,0,0,1-2.8-2.553V2.421h.137A35.656,35.656,0,0,0,73.967,8.2c1.387.8,2.825,1.578,4.26,2.291.62.306,1.248.6,1.862.92.823.425,1.607.892,2.414,1.347C81.678,12.459,80.838,12.175,80.035,11.808ZM33.288,7.77a8.713,8.713,0,0,1-1.15-.608c-.236-.137-.471-.26-.7-.409-.326-.207-.658-.407-.984-.614C29.96,5.825,29.477,5.455,29,5.11a36.219,36.219,0,0,1-3.582-3.032l.093-.1a36.013,36.013,0,0,0,3.553,2.994c.519.376,1.061.783,1.607,1.117.385.236.759.485,1.148.713.693.4,1.4.777,2.1,1.16C33.729,8.054,33.465,7.84,33.288,7.77ZM76.039,5.016c-.459-.225-.9-.487-1.353-.719-.288-.147-.568-.318-.846-.481-.8-.475-1.58-.964-2.368-1.47C69.4,1.018,67.4-.406,65.409-1.853a.131.131,0,0,1-.028-.181.128.128,0,0,1,.179-.028C67.37-.754,69.2.542,71.1,1.72c1.405.876,2.8,1.673,4.254,2.466,1.59.868,3.243,1.576,4.9,2.3a.148.148,0,1,1-.1.276A28.743,28.743,0,0,1,76.039,5.016ZM65.123-4.954a.092.092,0,0,1-.016-.127.092.092,0,0,1,.125-.018C69.9-1.4,75.505,1.01,81.005,3.164a.1.1,0,0,1-.07.179C75.411,1.177,69.81-1.241,65.123-4.954Zm13.05,3.527c-.455-.2-.922-.4-1.381-.59-.668-.28-1.339-.638-1.991-.954-.922-.447-1.828-.964-2.716-1.474a44.932,44.932,0,0,1-7.151-5.071.145.145,0,0,1-.018-.2.145.145,0,0,1,.2-.018A43.684,43.684,0,0,0,74.664-3.48c1.061.517,2.126.991,3.207,1.456.64.274,1.325.5,1.933.829a.167.167,0,0,1,.1.215.167.167,0,0,1-.215.095A7.413,7.413,0,0,1,78.173-1.426Zm-1.252-4.8c-.691-.3-1.365-.63-2.043-.952A43.273,43.273,0,0,1,65.1-13.834a.115.115,0,0,1-.01-.157.115.115,0,0,1,.157-.01c.572.525,1.21,1.043,1.822,1.524a43.328,43.328,0,0,0,5.548,3.722c.666.378,1.347.717,2.017,1.083.294.161.608.3.91.445.952.457,1.913.864,2.867,1.309a.14.14,0,0,1,.072.179.141.141,0,0,1-.179.074A14.3,14.3,0,0,1,76.921-6.224ZM24.871-8.239c-.062.137-.127.286-.2.431-.016.1-.028.2-.042.3C24.707-7.758,24.788-8,24.871-8.239ZM34.8-9.594a37.885,37.885,0,0,1-4.373-3.98c-.64-.666-1.315-1.3-1.957-1.963l0-.131.129,0c.8.817,1.629,1.623,2.442,2.422A29.367,29.367,0,0,0,36.412-8.8a.118.118,0,0,1,.04.159.118.118,0,0,1-.159.04C35.78-8.926,35.281-9.228,34.8-9.594Zm-9.589-.515A.218.218,0,0,1,25.3-10.2c.014-.066.026-.135.04-.2.064-.318.161-.622.246-.934.038-.145.077-.294.119-.441-.074-.066-.151-.135-.223-.2q-.26,1.1-.471,2.2A2.369,2.369,0,0,0,25.211-10.11Zm50.913-1.125c-.842-.356-1.707-.745-2.513-1.178-.548-.292-1.1-.588-1.633-.91a43.935,43.935,0,0,1-4.453-3.133c-.972-.769-1.965-1.6-2.863-2.46l-.006-.119.119-.006a40.692,40.692,0,0,0,8.055,5.826c.88.5,1.79.95,2.706,1.375a9.245,9.245,0,0,1,1.617.791C76.977-10.869,76.325-11.148,76.123-11.235Zm-40.14-.838c-.23-.181-.419-.409-.646-.592-.278-.223-.548-.465-.821-.7s-.55-.435-.823-.652c-.938-.747-1.86-1.514-2.75-2.317a16.833,16.833,0,0,1-2.3-2.46l.089-.068a17.064,17.064,0,0,0,3.056,3.016c.7.556,1.433,1.091,2.126,1.657.459.376.934.731,1.377,1.127.284.254.59.487.854.765a3.147,3.147,0,0,1,.362.523A2.809,2.809,0,0,1,35.984-12.072Zm-10.074-.469c.286-1.045.546-2.086.87-3.118.109-.352.23-.7.354-1.049q-.6,1.419-1.168,2.849-.242.861-.447,1.721c.074.068.149.137.225.205C25.8-12.137,25.853-12.338,25.909-12.542ZM72.33-16.3c-.568-.308-1.115-.628-1.665-.972-.356-.223-.707-.481-1.045-.733-.638-.471-1.262-.942-1.872-1.454-1.184-.991-2.38-1.969-3.565-2.957a.117.117,0,0,1-.014-.163.119.119,0,0,1,.163-.016c1.123.954,2.291,1.884,3.465,2.778.749.57,1.526,1.154,2.321,1.653.574.36,1.137.741,1.727,1.073.185.1.372.227.562.318.519.248,1.049.57,1.586.769.8.3,1.611.6,2.4.92a.094.094,0,0,1,.066.113.093.093,0,0,1-.113.066A10.987,10.987,0,0,1,72.33-16.3ZM33.386-21.472c-.471-.461-.946-.928-1.427-1.377-.292-.27-.6-.534-.882-.811l-.006-.133L31.2-23.8c.576.566,1.206,1.089,1.78,1.661.6.6,1.258,1.238,1.9,1.79a23.626,23.626,0,0,0,2.827,2.184,8.19,8.19,0,0,0,.835.477.1.1,0,0,1,.042.139.1.1,0,0,1-.139.042A20.866,20.866,0,0,1,33.386-21.472Zm40.182,1.023a34.5,34.5,0,0,1-7.924-6.676.2.2,0,0,1,.016-.276.2.2,0,0,1,.276.014,32.608,32.608,0,0,0,4.184,4.018c1.093.872,2.273,1.645,3.439,2.416.848.56,1.737,1.133,2.613,1.647a.209.209,0,0,1,.066.284.209.209,0,0,1-.284.064C75.153-19.413,74.352-19.958,73.568-20.449Zm2.823-.876a15.726,15.726,0,0,1-1.667-1.007c-.781-.56-1.48-1.152-2.209-1.774-1.073-.914-2.14-1.911-3.153-2.893-.568-.552-1.166-1.075-1.735-1.625a.231.231,0,0,1-.012-.322.229.229,0,0,1,.324-.012c.558.542,1.148,1.057,1.711,1.6a65.615,65.615,0,0,0,5.057,4.433c.912.709,1.776,1.462,2.738,2.108A8.309,8.309,0,0,1,76.391-21.325Zm-41.068.294-.113-.024c.042-.024.1,0,.145-.016a.135.135,0,0,1,.147-.123.135.135,0,0,1,.123.145c.04.02.127.012.139.046a.367.367,0,0,1-.115,0,.165.165,0,0,1-.177.151A.166.166,0,0,1,35.323-21.031ZM33.674-28.44c.083-.215.161-.435.242-.652.032-.087.072-.181.115-.278-.06-.085-.117-.167-.173-.252l-.181.513a.415.415,0,0,1-.529.248.406.406,0,0,1-.155-.1c-.02.04-.038.081-.058.125.153.185.314.368.471.552.066.083.137.165.209.246C33.668-28.146,33.63-28.327,33.674-28.44Zm47.969-1.586a.1.1,0,0,0,0,.024.087.087,0,0,0,.01.024C81.462-30.334,81.386-30.721,81.644-30.026Zm-.57-2.6c0-.03,0-.064,0-.095a33.062,33.062,0,0,1-.242-4.57c0-.062,0-.125,0-.189-.068.181-.135.368-.2.558a11.26,11.26,0,0,0-.28,1.121l-.012.06a16.67,16.67,0,0,0,.743,4.1C81.076-31.971,81.064-32.3,81.074-32.63ZM38.651-36.658c-.582-.461-1.154-.96-1.723-1.437l.079-.095c.914.771,1.836,1.542,2.758,2.3A3.63,3.63,0,0,1,38.651-36.658Zm-5.387-1.264c-.022-.01-.044-.02-.066-.032.044.346.087.691.125,1.031C33.308-37.252,33.29-37.586,33.264-37.922Zm57.868,1.141c-.519-.085-1.049-.161-1.57-.232l-.087-.012c.083.083.161.161.244.24a5.721,5.721,0,0,0,.664.07c.467.03.944.046,1.425.052C91.577-36.7,91.347-36.745,91.132-36.781Zm-2.472-.346-.759-.091c-.324-.038-.658-.054-.98-.1-.036,0-.074-.008-.111-.014.072.074.143.145.217.217.217.042.437.083.658.113.431.064.852.119,1.272.163C88.857-36.932,88.758-37.028,88.66-37.127Zm17.592-2.084a6.449,6.449,0,0,0,.562-.634c.048-.068.119-.147.185-.232l-.318-1.576a5.566,5.566,0,0,1-.123-1.792,2.594,2.594,0,0,1,1.109-2.047l.576-.252.079-.262.074-.1-.107-.536a5.47,5.47,0,0,0-.306-.664c-.074-.143-.149-.306-.236-.437-.173-.27-.348-.6-.507-.878-.221-.4-.455-.785-.666-1.188a8.911,8.911,0,0,1-.37.952,28.231,28.231,0,0,1,.042,2.825c-.012.33-.018.662-.036.991-.016.284-.052.57-.07.852-.03.509-.115,1.059-.2,1.566a9.959,9.959,0,0,1-1.586,4.385c-.058.215-.125.433-.193.65-.032.1-.066.2-.1.292.185,0,.374.014.568.028A11.99,11.99,0,0,1,106.251-39.211ZM86.2-37.375c-.127-.006-.252-.012-.383-.02.161.042.318.083.475.121C86.262-37.308,86.232-37.34,86.2-37.375Zm15.808-.344.173-.465c-.062-.161-.115-.322-.163-.487-.081.131-.165.258-.252.389-.113.167-.229.326-.348.481C101.613-37.775,101.81-37.749,102.007-37.719Zm-1.206-.4c.2-.389.417-.771.594-1.17q.175-.4.35-.8c0-.024,0-.048-.006-.07a9.159,9.159,0,0,1,1.28-4.995,20.134,20.134,0,0,0-1.536-6.181,27.225,27.225,0,0,0-6.324-9.047,28.278,28.278,0,0,0-2.521-2.076,21.372,21.372,0,0,0-1.832-1.2L88.889-64.7l-2.14-.952c-.689-.284-1.373-.566-2.049-.864-.221.292-.443.584-.656.88-.542.743-1.051,1.512-1.562,2.279s-1.027,1.544-1.5,2.327c-1.081,1.8-2.194,3.577-3.284,5.373q-.362.595-.723,1.19l.038.006a.171.171,0,0,1,.141.2.17.17,0,0,1-.2.143l-.179-.03c-.028.048-.056.093-.083.137a.871.871,0,0,1,.034.3.833.833,0,0,1-.682.749c-.072.117-.145.236-.219.352-.058.155-.119.306-.185.447a5.122,5.122,0,0,1-.469.652c-.07.089-.139.181-.2.27q-.592.936-1.194,1.858c-.435.668-.886,1.325-1.347,1.975-.044.072-.089.147-.131.221s-.093.159-.141.24c.179-.03.358-.058.54-.091,1.506-.252,3-.507,4.5-.787.6-.113,1.2-.252,1.794-.374.417-.085.819-.2,1.232-.3a6.2,6.2,0,0,0,.687-.193c.1-.034.217-.07.33-.109l.306-.121.372-.179a7.114,7.114,0,0,0,2.535-2.035c-.016-.012-.032-.024-.046-.036a6.921,6.921,0,0,1-.972-.97,2.55,2.55,0,0,1,1.1.147c.076.024.149.054.223.085a.925.925,0,0,1,1.079-.449.921.921,0,0,1,.614,1.146c-.044.095-.068.2-.109.29,0,0,0,.006.008.006.1.085.209.209.308.3.058.056.163.143.266.238.077-.048.151-.1.227-.147-.046.079-.093.157-.137.236a.83.83,0,0,1,.217.3.349.349,0,0,1-.016.167.161.161,0,0,1,.056.054.128.128,0,0,1-.054.171l-.068.038c1.367,1.679,2.814,3.269,4.349,4.832.63.644,1.3,1.244,1.941,1.876.477.469.942.948,1.419,1.419.23.225.443.469.678.689-.848-.634-1.655-1.226-2.452-1.927-.731-.638-1.429-1.349-2.114-2.039A55.689,55.689,0,0,1,86.93-49.3c-.25.481-.489.95-.7,1.45.425.592.85,1.178,1.3,1.754.572.735,1.174,1.431,1.772,2.142.8.952,1.691,1.88,2.561,2.768.6.614,1.186,1.254,1.774,1.88a.132.132,0,0,1,0,.183.134.134,0,0,1-.185,0,49.189,49.189,0,0,1-7.7-8.669c-.209.566-.4,1.125-.56,1.717a.251.251,0,0,1-.288.177,43.967,43.967,0,0,0,3.34,4.677c.785.962,1.649,1.856,2.486,2.774l.246-.018a13.715,13.715,0,0,1,1.627-.058c1.6.1,3.195.217,4.791.318.638.04,1.282.1,1.919.163.459.048.916.1,1.371.149C100.723-37.967,100.761-38.041,100.8-38.118Zm-15.29-.03c-.5-.588-.976-1.2-1.441-1.812-.133.632-.258,1.262-.368,1.89l.05.02C84.343-38.083,84.927-38.116,85.511-38.148Zm2.058-.109A64.654,64.654,0,0,1,83.3-43.577c-.125.409-.24.817-.35,1.216-.02.068-.04.139-.058.207a.215.215,0,0,1,.074.06c.534.753,1.117,1.52,1.691,2.243.449.57.9,1.133,1.367,1.675C86.542-38.2,87.057-38.228,87.568-38.256Zm-54.391,0A14.763,14.763,0,0,0,33.024-40c-.079-.469-.163-.936-.248-1.4l-.074-.07c.1.65.2,1.3.29,1.949.058.421.115.838.167,1.258Zm55.676-.074c.393-.024.785-.046,1.178-.072a16.531,16.531,0,0,1-2.2-2.434,55.155,55.155,0,0,1-3.582-5.22,16.19,16.19,0,0,0-.787,2c.709.96,1.423,1.89,2.17,2.821.815,1.017,1.689,2,2.6,2.941C88.432-38.3,88.642-38.317,88.853-38.331Zm-5.607-1.8a.421.421,0,0,1,.427-.356q-.281-.374-.56-.749a6.09,6.09,0,0,0-.556.562c-.028.135-.05.268-.077.4a.278.278,0,0,1,.157,0,.276.276,0,0,1,.175.346c-.079.24-.153.475-.225.709.052.058.1.115.155.171.111.127.23.26.356.4C83.143-39.136,83.192-39.634,83.246-40.129Zm19.377.395c-.038.07-.07.137-.1.2.008.04.016.081.026.121C102.573-39.521,102.6-39.627,102.623-39.734ZM82.948-41.455c-.058-.074-.115-.151-.171-.23-.04.165-.079.33-.113.493C82.757-41.28,82.851-41.367,82.948-41.455Zm-50.315-.727c-.149-.785-.334-1.629-.568-2.482.129.59.252,1.18.378,1.774.05.242.1.485.139.725.02.014.04.026.056.036C32.638-42.146,32.636-42.164,32.634-42.182Zm31.7-.435c.449-.028.9-.044,1.351-.077.926-.068,1.85-.161,2.772-.268a50.732,50.732,0,0,0,5.041-.846c.864-.189,1.723-.368,2.585-.568,1.391-.322,2.782-.713,4.151-1.139-.064-.064-.129-.131-.193-.2a.194.194,0,0,1,0-.276h.276q.725.737,1.46,1.466a16.255,16.255,0,0,1,1.365-3.187l-.157.064c-.064.028-.131.054-.2.083l-.248.131a5.434,5.434,0,0,1-.966.368c-.25.074-.5.147-.737.213-.169.054-.334.1-.5.153-.568.171-1.125.354-1.7.513-.942.264-1.9.487-2.855.693a43.515,43.515,0,0,1-5.418.8.326.326,0,0,1-.2.014q-1.223.1-2.444.133c-.066.01-.129.018-.193.024-.986.113-1.979.242-2.959.364-.256.032-.525.056-.785.079-.225.016-.487.068-.709.066a5.308,5.308,0,0,0-.618.04c-.443.054-.972.032-1.425.044-1.371.036-2.752.008-4.125-.024-3.169-.072-6.37-.254-9.537-.57a1.345,1.345,0,0,1,.048.479A69.534,69.534,0,0,0,56.8-42.754c1.814.125,3.569.205,5.387.193C62.9-42.565,63.633-42.571,64.338-42.617Zm30.617-2.422a24.694,24.694,0,0,1-2.1-2.462c-.469-.608-.87-1.258-1.3-1.894a.172.172,0,0,1,.048-.232.17.17,0,0,1,.232.048,22.834,22.834,0,0,0,5.8,6.382.19.19,0,0,1,.032.262.188.188,0,0,1-.262.032A24.07,24.07,0,0,1,94.955-45.039Zm-49.445.554.006-.05-.064-.2c-.093-.01-.185-.022-.278-.034-.592-.07-1.18-.153-1.772-.234.7.187,1.4.366,2.106.531ZM62-45.679c.536-.044,1.065-.052,1.6-.115,1.711-.2,3.429-.407,5.144-.654a2.085,2.085,0,0,1-.54-.312,2.3,2.3,0,0,1-.451-.529,2.712,2.712,0,0,1-.165-.372,3.421,3.421,0,0,1-.189-1.069,3.16,3.16,0,0,0,.278.6,2.449,2.449,0,0,0,2.283,1.5s0,0,0,0a17.735,17.735,0,0,1,1.168-2.128c.459-.739.938-1.48,1.437-2.211L74.058-53l.05-.117c-.531-.052-1.067-.111-1.6-.183-1.238-.163-2.48-.332-3.718-.5-.509-.07-1.021-.151-1.534-.2-.813-.085-1.625-.147-2.422-.223-.165,0-.346-.022-.517-.028l-.234-.006-.135.006c-1.176.064-2.412.022-3.59-.022a1.393,1.393,0,0,1,.318-.149c-.433-.018-.862-.032-1.284-.036-.517,0-1.039-.036-1.556-.044-.9-.012-1.794-.034-2.692-.052l.8.207a3.1,3.1,0,0,1-1.087.131,24.672,24.672,0,0,1-3.038-.054c-.819-.064-1.635-.109-2.456-.153-.286-.014-.572-.038-.86-.064.23.288.459.57.687.852.829,1.047,1.673,2.074,2.527,3.1.344.415.715.811,1.067,1.218.755.874,1.514,1.677,2.319,2.494.183.189.387.385.6.576.781.07,1.55.068,2.339.167.242.03.485.072.729.115a20.868,20.868,0,0,1-1.735-1.4,16.218,16.218,0,0,1-4.145-5.561.2.2,0,0,1,.1-.266.206.206,0,0,1,.268.1,16.444,16.444,0,0,0,3.976,5.4c.453.449.912.92,1.347,1.389.107.119.217.244.33.362.157.03.314.058.471.087.481.089.972.151,1.468.228C61.225-45.641,61.63-45.649,62-45.679Zm-6.309-.58c.23.2.467.4.7.574.223.006.449.008.672.014C56.6-45.85,56.17-46.054,55.7-46.259Zm-5.329-5.166c-.652-.829-1.309-1.679-1.975-2.494-.161-.2-.344-.411-.515-.626-.874.008-1.752.03-2.617.091-.37.024-.747,0-1.117.022-.169.008-.338.016-.507.026l.471,1.178c.4,1.013.787,2.031,1.19,3.046.258.66.5,1.331.747,2q.414.381.833.759c.461.421.908.86,1.359,1.292.316.026.636.052.954.077-.091-.107-.179-.213-.264-.316a28.157,28.157,0,0,1-1.909-2.684c-.419-.626-.846-1.252-1.264-1.878-.127-.185-.274-.417-.415-.59-.236-.294-.477-.608-.7-.91a.2.2,0,0,1,.032-.274.2.2,0,0,1,.276.034c.457.61.928,1.2,1.365,1.828.352.509.687,1.031,1.037,1.54.618.894,1.2,1.768,1.9,2.607.189.229.376.467.576.691q1.16.085,2.319.151A22.562,22.562,0,0,1,50.3-47.7c-1.57-1.743-3-3.652-4.445-5.5a.2.2,0,0,1,.032-.274.2.2,0,0,1,.274.034c.8,1.015,1.594,2.043,2.406,3.048.785.97,1.574,1.945,2.438,2.847.465.485.942.922,1.427,1.381.125.121.264.234.4.344q1.613.082,3.221.125l.324.01A23.46,23.46,0,0,1,50.366-51.425ZM105.037-46.6v-.07c-.038.064-.074.129-.115.193.018.1.034.2.046.3.018.149.038.3.052.473C105.029-46.017,105.033-46.315,105.037-46.6Zm-45.6-2.768c-.175-.23-.36-.455-.54-.682a29.983,29.983,0,0,1-1.862-2.7.206.206,0,0,1,.06-.282.206.206,0,0,1,.282.06c.459.763,1.007,1.538,1.538,2.253a26.664,26.664,0,0,0,1.768,2.207c.711.767,1.409,1.554,2.108,2.331l0,.133-.133,0A19.226,19.226,0,0,1,59.436-49.371Zm-12.1,2.75c-.352-.308-.709-.618-1.061-.932.159.427.32.858.473,1.288.368.034.739.068,1.107.1C47.684-46.317,47.511-46.47,47.34-46.621Zm37.678-.757c-.03.042-.06.087-.091.131-.151.223-.294.455-.425.693q.1.172.205.344C84.808-46.6,84.913-46.99,85.018-47.378ZM44.057-48.707c-.209-.584-.435-1.188-.664-1.774l-.1-.133a.159.159,0,0,1-.018-.177c-.024-.056-.046-.113-.068-.171-.439-1.077-.852-2.17-1.284-3.251l-.127-.314a.166.166,0,0,1-.089-.135.129.129,0,0,1,.008-.068q-1.214-3.035-2.42-6.07c-.423-1.061-.773-2.162-1.158-3.237-.449-1.256-.9-2.519-1.331-3.781a.646.646,0,0,1-.032-.3l.044.087-.169-.342c-.3.451-.63.878-.928,1.337.064.248.431.393.67.445a.3.3,0,0,1,.225.354.3.3,0,0,1-.354.223,2.465,2.465,0,0,1-.423-.087,1.907,1.907,0,0,1-.825-.376.452.452,0,0,1-.175-.07.475.475,0,0,1-.193-.548.1.1,0,0,1,0-.034.568.568,0,0,1,.31-.479l-.048.076-.262.4.3-.465.026-.042.139-.223.135-.225.264-.455.127-.23L35.768-69l.02-.03a1.165,1.165,0,0,1-.181-.292A1.492,1.492,0,0,1,35.5-69.8a32.112,32.112,0,0,0-3.161-.874c-.68-.155-1.371-.272-2.058-.4a.3.3,0,0,1,.072.3.3.3,0,0,1-.372.193,10.17,10.17,0,0,0-3.517-.525c-.4.012-.783.081-1.176.119a.563.563,0,0,1-.584-.538.575.575,0,0,1,.036-.227,16.339,16.339,0,0,1-1.693-.115c-.147-.02-.3-.018-.447-.042-.05-.006-.1-.012-.151-.016a3.811,3.811,0,0,1-.006.479,2.718,2.718,0,0,1,.068.294,7.484,7.484,0,0,1-.453,3.237l-.123.427.443.083c.2.034.4.109.6.145.352.064.739.193,1.091.282.924.234,1.848.527,2.76.8.415.123.829.262,1.242.391.94.111,1.878.215,2.814.332.614.077,1.226.173,1.836.28-.038-.115-.079-.232-.113-.35a.575.575,0,0,1,.364-.725.574.574,0,0,1,.723.362c.008.028.016.054.026.083a.043.043,0,0,1,.008-.012,2.321,2.321,0,0,1,.485.242,2.685,2.685,0,0,1,.423.338,3.307,3.307,0,0,1-.3.385c.131.028.26.056.391.079a.541.541,0,0,1,.415.642.54.54,0,0,1-.64.415l-.1-.018c.143.453.284.908.429,1.361.026.081.048.161.074.246.223.574.439,1.162.676,1.727.256.608.505,1.236.743,1.852.475,1.232.991,2.462,1.49,3.684.1.258.2.521.29.785.026,0,.054,0,.083-.008a.279.279,0,0,1-.058.075c.1.3.205.6.316.9.171.459.358.954.5,1.421.342,1.105.8,2.2,1.144,3.3.1.334.219.662.33.995.026.083.048.171.074.254.024.04.05.083.074.125.127.02.252.04.378.058,1.3.217,2.623.385,3.94.521C44.61-47.2,44.326-47.952,44.057-48.707Zm-5.673.789c-.117-.338-.213-.687-.34-1.021-.336-.884-.63-1.816-.938-2.712-.089-.25-.177-.5-.266-.753a.806.806,0,0,1-.268.066,15.028,15.028,0,0,0-2.08.292,4.79,4.79,0,0,0-.544.145c-.354.129-.693.246-1.043.389a14.538,14.538,0,0,0-1.528.755c.072.1.149.207.215.314.213.338.411.678.6,1.033.016.036.036.072.054.109a4.722,4.722,0,0,0,1.109.509,3.923,3.923,0,0,1,.4.177,7.1,7.1,0,0,0,.932.344c.453.131.9.248,1.353.37.624.167,1.3.252,1.931.4.2.048.4.093.6.133C38.512-47.552,38.446-47.735,38.383-47.918Zm66.608-.7a46.878,46.878,0,0,0-.5-4.7c-.7-.689-1.494-1.439-2.2-2.253.016.038.036.083.056.125a21.265,21.265,0,0,1,1.359,4.288,20.8,20.8,0,0,1,.926,3.1.59.59,0,0,0,.014.083C104.765-48.188,104.88-48.4,104.991-48.615ZM30-49.011l-.06.006.01.02c.125.306.254.606.389.92C30.224-48.385,30.109-48.7,30-49.011ZM86.3-49l.054-.165c-.018.01-.038.02-.056.028-.125.29-.258.578-.372.868.022.032.042.06.064.091C86.1-48.451,86.206-48.725,86.3-49Zm-.721-.521c.026-.089.052-.175.083-.26a.414.414,0,0,1,.457-.274l-.183-.111-.052.079a6.077,6.077,0,0,1-.487.608.568.568,0,0,0,.058.036C85.5-49.468,85.539-49.5,85.581-49.522Zm.56-.525-.016-.01h0ZM67.386-53.279c.018-.04-.028-.091,0-.111a.631.631,0,0,1,.234-.054.564.564,0,0,1,.2.143c-.008.034-.048.052-.046.095a.2.2,0,0,1-.232.159A.2.2,0,0,1,67.386-53.279Zm38.052-2.011a5.7,5.7,0,0,1,.36-1.266l.395-.8-1.552-.954-.264-.151c.016.046.03.095.044.141.155.515.322,1.033.477,1.55.093.312.157.646.246.962s.161.626.234.95C105.394-55,105.412-55.145,105.438-55.29Zm-2.074-3.064c-.093-.294-.187-.594-.288-.9a6.664,6.664,0,0,1-2.945-3.2,6.511,6.511,0,0,1-.368-1.842c-.012-.286,0-.576,0-.862a7.407,7.407,0,0,0-1.4-1.077.422.422,0,0,1-.145-.576.424.424,0,0,1,.578-.147,2.845,2.845,0,0,0,.332.2c.113.068.27.177.372.256.131.1.256.205.378.308l-.008.046.129-.829-.542-.04a26.228,26.228,0,0,1-4.675-.775c-1.5-.389-2.9-.984-4.359-1.474A23.611,23.611,0,0,0,88-69.985l-1.17-.26-.548.413a19.656,19.656,0,0,1-1.822,1.838c-.079.129-.159.258-.238.383l.064.03A14.563,14.563,0,0,1,85.4-68.9a.426.426,0,0,1,.592-.068.423.423,0,0,1,.07.59c-.221.328-.453.648-.689.966.093,0,.189-.006.284-.014a9.981,9.981,0,0,1,1.681.052c.463.058.912.1,1.373.179a16.688,16.688,0,0,1,5.313,1.977c.517.29,1.013.646,1.5.984.286.2.552.419.821.634a19.471,19.471,0,0,1,3.769,4.1c.038.056.079.111.115.167-.018-.1-.034-.2-.044-.3a7.083,7.083,0,0,1-.076-1.4.233.233,0,0,1,.219-.244.233.233,0,0,1,.244.219,8.4,8.4,0,0,0,1.7,4.248,16.727,16.727,0,0,0,1.971,2.041A32.453,32.453,0,0,0,103.364-58.355ZM96.6-62.111a16.623,16.623,0,0,0-1.264-1.148c-.151-.121-.316-.236-.461-.364-.332-.292-.773-.513-1.115-.783a4.564,4.564,0,0,0-.469-.288,19.712,19.712,0,0,0-1.884-.958,14.281,14.281,0,0,0-4.159-1.073c-.352-.04-.7-.064-1.047-.072l.433.167c.892.344,1.772.709,2.651,1.071a27.681,27.681,0,0,1,2.537,1.278,29.007,29.007,0,0,1,8.828,7.628A21.513,21.513,0,0,0,96.6-62.111Zm-76.2-5.615.028-.085c.07-.217.149-.449.223-.691a4.144,4.144,0,0,1,.115-.538c.087-.3.135-.6.238-.9a4.2,4.2,0,0,0,.052-.467c-.113.27-.217.542-.314.817a7.5,7.5,0,0,0-.447,1.846ZM19.67-71.41a1.654,1.654,0,0,0-.246.391.67.67,0,0,0-.089.336A1.48,1.48,0,0,1,19.67-71.41Zm3.106-1.643c-.147-.054-.3-.113-.447-.173-.032.066-.06.135-.091.2C22.42-73.025,22.6-73.037,22.777-73.053Z" transform="translate(-18.201 74.468)"/></g></g></svg>